<?xml version="1.0" encoding="UTF-8"?>
<svg id="_圖層_2" data-name="圖層 2" xmlns="http://www.w3.org/2000/svg" width="261.39" height="462.14" viewBox="0 0 261.39 462.14">
  <g id="_設計" data-name="設計">
    <g>
      <path d="M10.4,86.52V447.55l18,2.55,15.98,1.53,16.39,8.56,29.54-5.05,143.25-19.87,8.68-.88-1.02-51.75,6.65-7.26-6.2-6.85-1.66-23.93,5.38-5.9,1.32-13.59-5.56-2.68-2.78-22.58s6.4-5.72,6.57-6.85c.16-1.13,0-11.81,0-11.81,0,0-.44-4.85-2.7-6.88-2.26-2.03-3.81-15.93-3.81-15.93,0,0,2.83-1.93,3.81-4.93s5.63-10.84,5.63-10.84l-3.18-12.72-5.88-11.91s4.63-9.6,5.5-10.17,4.22-3.62,3.56-8.88c-.66-5.26-1.16-10.69-3.18-11s-7.83,4.51-8.34-1.06c-.51-5.57,1.95-12.67,1.95-12.67l4.94-6.08,4.72-9.2-.62-8.51-5.43-5.26-.47-17.8,4.74-10.04-1.86-14.95-15.04-4.67-29.06-9.77-38.98-21.43,.6-10.89,1.06-17.71-4.31-14.24s-8.61-5.17-10.63-5.55-15.43,0-15.43,0c0,0-12.13-6.58-12.63-7.59s-8.08-7-8.08-7l-16.8,2.96-26.02,15.28v6.32l-33.73,16.04,.51,30.84-25.35,11.58Z" style="fill: #f4f3ed;"/>
      <g>
        <g>
          <path d="M11.84,83.76c.47,122.96,1.62,240.93-3.33,363.79" style="fill: none; stroke: #232323; stroke-miterlimit: 10; stroke-width: 7px;"/>
          <path d="M1.54,442.55c11.42,5.59,24.23,8.31,36.94,7.84,1.47-.05,2.98-.14,4.36,.37,1.58,.6,2.75,1.91,4.04,3.01,7.43,6.32,18.44,5.2,28.09,3.72,29.22-4.49,58.45-8.98,87.67-13.47,32.71-5.02,65.61-10.06,98.69-9.47" style="fill: none; stroke: #232323; stroke-miterlimit: 10; stroke-width: 7px;"/>
          <path d="M1.59,90.7c11.81-5.17,23.62-10.34,35.43-15.51l-1.27-29.45,33.22-17.68v-6.32l26.02-15.28c12.88-7.33,25.77,.63,29.81,5.81s5.68,5.37,5.68,5.37c2.39,.06,23.28-3.69,30.69,9.28,.76,1.33,1.53,4.44,1.56,4.76,.4,4.46,.14,8.99-.77,13.38-.59,2.86-1.46,5.67-1.79,8.57-.38,3.35-.02,6.74,.33,10.09,.1,.95,.21,1.94,.7,2.76,.62,1.06,1.76,1.69,2.85,2.27,12.35,6.59,24.7,13.17,37.06,19.76,3.76,2.01,7.52,4.01,11.28,6.02,2.36,1.26,4.76,2.53,7.37,3.13,3.35,.76,6.85,.36,10.25,.87,4.39,.67,8.4,2.83,12.3,4.96,.85,.46,1.74,.96,2.27,1.77,.92,1.4,.51,3.24,.77,4.89,.25,1.67,1.2,3.17,1.43,4.84,.35,2.47-1.01,5.03-3.12,6.37-.84,.53-1.79,.9-2.55,1.53s-.86,3.52-.86,3.52c.66,4.08,.89,8.24,.67,12.37-.08,1.51-.22,3.05,.14,4.52,.36,1.47,1.33,2.89,2.78,3.33,.72,.22,1.52,.19,2.16,.57,1.03,.62,1.22,1.99,1.31,3.19,.14,1.79,.27,3.57,.41,5.36,.15,2.01,.3,4.07-.32,5.99-.61,1.92-2.18,3.67-4.18,3.89-.93,.1-1.98-.11-2.74,.43-.55,.39-.79,1.07-.98,1.72-1.34,4.57-1.53,9.39-1.71,14.15-.06,1.62-.11,3.28,.43,4.8,.55,1.52,1.85,2.89,3.47,3.01,1.15,.09,2.58-.35,3.27,.57,.3,.4,.33,.93,.35,1.43,.14,3.75,.28,7.5,.42,11.25,.05,1.44,.09,2.95-.58,4.23-1.21,2.32-4.35,3.11-5.58,5.41-.54,1.02-.64,2.2-.69,3.36-.25,5.63-.2,2.34,.48,7.93,.19,1.56,5.06,10.05,5.56,10.21,.67,.2,5.05,18.27-3.27,19.87-.58,.11-1.2,0-1.76,.19-1.53,.49-1.65,2.58-1.47,4.18,.77,6.86,1.53,13.72,2.3,20.58,.03,.24,.06,.49,.21,.68,.39,.5,1.18,.2,1.82,.18,1.87-.04,2.48,2.49,2.47,4.36,0,1.69-.02,3.38-.03,5.07,0,1.69-.03,3.42-.61,5-.59,1.58-1.87,3.02-3.54,3.3-.43,.07-.93,.09-1.22,.43-.22,.26-.23,.63-.23,.98,0,7.25,0,14.5,.01,21.75,0,.9-.45,2.66,.45,2.63,10.8-.33,4.61,11.4,5.39,16.3,.06,.39,.12,.82-.07,1.16-.59,1.03-2.15-.01-3.34,.09-1.54,.14-1.99,2.15-2.04,3.7-.14,5.1-.28,10.2-.43,15.3-.05,1.76,1.57,9.83,1.57,9.83,1.31,.4,2.87-.48,4.04,.24,.95,.59,1.08,1.89,1.1,3.01,.04,1.96,.08,3.95-.31,5.87,0,0-4.8,2.66-4.77,3.79,.71,21.21,.54,42.46-.56,63.66" style="fill: none; stroke: #232323; stroke-miterlimit: 10; stroke-width: 7px;"/>
        </g>
        <path d="M130.18,402.6c6.5-.62,15.33-.62,20.31-4.85,1.95-1.66,3.95-3.95,6.49-3.63,1.58,.2,2.84,1.4,3.86,2.63,4.84,5.79,7.2,13.32,7.96,20.83s.01,15.07-.73,22.58" style="fill: none; stroke: #232323; stroke-miterlimit: 10;"/>
        <path d="M175.83,439.97c-.92-9.55-.65-19.16-.38-28.75,.08-2.93,.18-5.93,1.3-8.63,1.38-3.35,4.17-5.91,7.06-8.08l1.2-1.1c2.27-5.96-16.63-3.96-22.44-3.96s-13.89,.76-17.94,5.07-13.2,7.82-13.2,7.82c0,0-10.13,2.68-28.23,.22" style="fill: none; stroke: #232323; stroke-miterlimit: 10; stroke-width: 6px;"/>
        <path d="M103.21,401.08s19.58-1.41,30.13,.45" style="fill: none; stroke: #232323; stroke-miterlimit: 10;"/>
        <path d="M104.9,402.77s9.17,3.85,10.18,18.89v27.41" style="fill: none; stroke: #232323; stroke-miterlimit: 10;"/>
        <path d="M129.8,402.77s-9.17,3.85-10.18,18.89v27.41" style="fill: none; stroke: #232323; stroke-miterlimit: 10;"/>
        <polyline points="99.92 417.13 52.17 417.13 48.82 399.81" style="fill: none; stroke: #232323; stroke-miterlimit: 10;"/>
        <path d="M52.17,453.33v-36.2s-31.2,2-40.8-4.06" style="fill: none; stroke: #232323; stroke-miterlimit: 10;"/>
        <line x1="79.46" y1="417.13" x2="79.46" y2="454.37" style="fill: none; stroke: #232323; stroke-miterlimit: 10;"/>
        <line x1="82.49" y1="417.13" x2="82.49" y2="454.37" style="fill: none; stroke: #232323; stroke-miterlimit: 10;"/>
        <line x1="96.89" y1="417.13" x2="96.89" y2="454.37" style="fill: none; stroke: #232323; stroke-miterlimit: 10;"/>
        <path d="M99.92,454.37v-37.24s3.41-11.39,3.28-17.32c0,0,.69-1.73-37.26,0s-52.55-5.71-52.55-5.71" style="fill: none; stroke: #232323; stroke-miterlimit: 10; stroke-width: 6px;"/>
        <line x1="67.46" y1="399.81" x2="67.46" y2="417.13" style="fill: none; stroke: #232323; stroke-miterlimit: 10;"/>
        <polyline points="30.83 448.41 30.83 417.13 48.92 417.62 48.45 451.63" style="fill: none; stroke: #232323; stroke-miterlimit: 10;"/>
        <path d="M176.25,405.35s-2.64,2.15,15.3,2.27,28.63-.87,28.63-.87" style="fill: none; stroke: #232323; stroke-miterlimit: 10; stroke-width: 3px;"/>
        <path d="M179.71,398.33s4.03,.25,12.93-.06c17.93-.61,27.54,0,27.54,0" style="fill: none; stroke: #232323; stroke-miterlimit: 10; stroke-width: 3px;"/>
        <line x1="219.67" y1="434.5" x2="220.17" y2="384.65" style="fill: none; stroke: #232323; stroke-miterlimit: 10; stroke-width: 3px;"/>
        <line x1="191.55" y1="407.62" x2="191.55" y2="437.51" style="fill: none; stroke: #232323; stroke-miterlimit: 10;"/>
        <line x1="185.2" y1="407.62" x2="185.2" y2="437.51" style="fill: none; stroke: #232323; stroke-miterlimit: 10;"/>
        <line x1="195.86" y1="407.62" x2="195.86" y2="437.51" style="fill: none; stroke: #232323; stroke-miterlimit: 10;"/>
        <path d="M103.21,378.58s29.81,1.64,38.9,.76c9.09-.88,30.19-2.4,27.66,2.15" style="fill: none; stroke: #232323; stroke-miterlimit: 10; stroke-width: 3px;"/>
        <path d="M103.21,362.46s29.81,1.64,38.9,.76c9.09-.88,30.19-2.4,27.66,2.15" style="fill: none; stroke: #232323; stroke-miterlimit: 10;"/>
        <path d="M194.55,382.47s21.73,1.88,28.36,.87,22.01-2.74,20.16,2.45" style="fill: none; stroke: #232323; stroke-miterlimit: 10; stroke-width: 3px;"/>
        <path d="M194.55,367.9s21.73,1.88,28.36,.87,22.01-2.74,20.16,2.45" style="fill: none; stroke: #232323; stroke-miterlimit: 10;"/>
        <path d="M135.61,354.05s-17.43-.95-26.05-2.65c-8.62-1.71-14.68-3.51-35.91-2.18" style="fill: none; stroke: #232323; stroke-miterlimit: 10; stroke-width: 3px;"/>
        <path d="M135.61,337.25s-17.43-.95-26.05-2.65c-8.62-1.71-14.68-3.51-35.91-2.18" style="fill: none; stroke: #232323; stroke-miterlimit: 10;"/>
        <path d="M172.35,342.65s25.98-3.71,31.92,.99" style="fill: none; stroke: #232323; stroke-miterlimit: 10; stroke-width: 1.01px;"/>
        <path d="M172.35,358.18s25.98-3.71,31.92,.99" style="fill: none; stroke: #232323; stroke-miterlimit: 10; stroke-width: 3.03px;"/>
        <path d="M103.21,325.84s29.81,1.64,38.9,.76c9.09-.88,30.19-2.4,27.66,2.15" style="fill: none; stroke: #232323; stroke-miterlimit: 10; stroke-width: 3px;"/>
        <path d="M103.21,309.71s29.81,1.64,38.9,.76c9.09-.88,31.49-2.4,28.97,2.15" style="fill: none; stroke: #232323; stroke-miterlimit: 10;"/>
        <path d="M203.91,336.13s12.37,1.68,19,.67,21.01-.74,19.16,4.45" style="fill: none; stroke: #232323; stroke-miterlimit: 10; stroke-width: 3px;"/>
        <path d="M203.91,321.57s12.37,1.68,19,.67,21.01-.74,19.16,4.45" style="fill: none; stroke: #232323; stroke-miterlimit: 10;"/>
        <path d="M135.61,297.98s-17.43-.95-26.05-2.65c-8.62-1.71-14.68-3.51-35.91-2.18" style="fill: none; stroke: #232323; stroke-miterlimit: 10; stroke-width: 3px;"/>
        <path d="M135.61,281.18s-17.43-.95-26.05-2.65c-8.62-1.71-14.68-3.51-35.91-2.18" style="fill: none; stroke: #232323; stroke-miterlimit: 10;"/>
        <path d="M172.35,292.12s25.98-.71,31.92,3.99" style="fill: none; stroke: #232323; stroke-miterlimit: 10; stroke-width: 1.01px;"/>
        <path d="M172.35,307.64s25.98-.71,31.92,3.99" style="fill: none; stroke: #232323; stroke-miterlimit: 10; stroke-width: 3.03px;"/>
        <path d="M103.21,275.01s29.81,1.64,38.9,.76c9.09-.88,30.19-2.4,27.66,2.15" style="fill: none; stroke: #232323; stroke-miterlimit: 10; stroke-width: 3px;"/>
        <path d="M103.21,258.88s29.81,1.64,38.9,.76c9.09-.88,30.19-2.4,27.66,2.15" style="fill: none; stroke: #232323; stroke-miterlimit: 10;"/>
        <path d="M204.28,289.6s12,1.68,18.63,.67,22.01-.74,20.16,4.45" style="fill: none; stroke: #232323; stroke-miterlimit: 10; stroke-width: 3px;"/>
        <path d="M204.28,275.03s12,1.68,18.63,.67,22.01-.74,20.16,4.45" style="fill: none; stroke: #232323; stroke-miterlimit: 10;"/>
        <path d="M135.61,248.63s-17.43-4.95-26.05-6.66c-8.62-1.71-14.68-6.51-35.91-5.18" style="fill: none; stroke: #232323; stroke-miterlimit: 10; stroke-width: 3px;"/>
        <path d="M135.61,232.17s-17.43-4.95-26.05-6.66c-8.62-1.71-14.68-6.51-35.91-5.18" style="fill: none; stroke: #232323; stroke-miterlimit: 10;"/>
        <path d="M103.21,217.96s29.81,5.64,38.9,4.76c9.09-.88,30.19,2.6,27.66,7.15" style="fill: none; stroke: #232323; stroke-miterlimit: 10; stroke-width: 3px;"/>
        <path d="M103.21,201.84s29.81,5.64,38.9,4.76,30.19,2.6,27.66,7.15" style="fill: none; stroke: #232323; stroke-miterlimit: 10;"/>
        <path d="M204.28,244.44s12,3.31,18.63,2.3,22.01-.74,20.16,4.45" style="fill: none; stroke: #232323; stroke-miterlimit: 10; stroke-width: 3px;"/>
        <path d="M204.28,229.88s12,3.31,18.63,2.3,22.01-.74,20.16,4.45" style="fill: none; stroke: #232323; stroke-miterlimit: 10;"/>
        <path d="M135.61,198.04s-17.43-6.95-26.05-8.66c-8.62-1.71-14.68-10.51-35.91-9.18" style="fill: none; stroke: #232323; stroke-miterlimit: 10; stroke-width: 3px;"/>
        <path d="M135.61,181.24s-17.43-6.95-26.05-8.66c-8.62-1.71-14.68-10.51-35.91-9.18" style="fill: none; stroke: #232323; stroke-miterlimit: 10;"/>
        <path d="M104.3,163.2s29.81,7.65,38.9,6.76c9.09-.88,30.19,4.6,27.66,9.15" style="fill: none; stroke: #232323; stroke-miterlimit: 10; stroke-width: 3px;"/>
        <path d="M104.3,147.08s29.81,7.65,38.9,6.76c9.09-.88,30.19,4.6,27.66,9.15" style="fill: none; stroke: #232323; stroke-miterlimit: 10;"/>
        <path d="M204.28,199.37s17.51,4.44,22.86,3.66,15.63,.9,14.14,4.88" style="fill: none; stroke: #232323; stroke-miterlimit: 10; stroke-width: 2.36px;"/>
        <path d="M204.28,188.22s17.51,4.44,22.86,3.66c5.34-.77,15.63,.9,14.14,4.88" style="fill: none; stroke: #232323; stroke-miterlimit: 10; stroke-width: .79px;"/>
        <path d="M204.28,152.95s19.74,5.25,24.96,4.48c5.23-.77,15.29,.9,13.84,4.88" style="fill: none; stroke: #232323; stroke-miterlimit: 10; stroke-width: 2.33px;"/>
        <path d="M204.28,141.8s20.47,5.25,25.9,4.48c5.42-.77,15.87,.9,14.36,4.88" style="fill: none; stroke: #232323; stroke-miterlimit: 10; stroke-width: .79px;"/>
        <path d="M136.61,144.13s-18.43-7.95-27.05-9.66c-8.62-1.71-14.68-14.51-35.91-13.19" style="fill: none; stroke: #232323; stroke-miterlimit: 10; stroke-width: 3px;"/>
        <path d="M136.61,127.33s-18.43-7.95-27.05-9.66c-8.62-1.71-14.68-14.51-35.91-13.19" style="fill: none; stroke: #232323; stroke-miterlimit: 10;"/>
        <path d="M171.08,101.05s23.76-6.07,33.2,3.98" style="fill: none; stroke: #232323; stroke-miterlimit: 10;"/>
        <path d="M171.08,116.58s22.25-7.8,33.2,3.98" style="fill: none; stroke: #232323; stroke-miterlimit: 10; stroke-width: 3px;"/>
        <path d="M171.08,149.19s23.76-6.07,33.2,3.98" style="fill: none; stroke: #232323; stroke-miterlimit: 10;"/>
        <path d="M171.08,164.72s22.25-7.8,33.2,3.98" style="fill: none; stroke: #232323; stroke-miterlimit: 10; stroke-width: 3px;"/>
        <path d="M171.08,194.94s23.14-4.38,33.2,3.98" style="fill: none; stroke: #232323; stroke-miterlimit: 10;"/>
        <path d="M171.08,210.46s20.47-5.15,33.2,3.98" style="fill: none; stroke: #232323; stroke-miterlimit: 10; stroke-width: 3px;"/>
        <path d="M171.08,244.21s22.57-2.92,33.2,3.37" style="fill: none; stroke: #232323; stroke-miterlimit: 10; stroke-width: .89px;"/>
        <path d="M171.08,260.55s20.55-4.73,33.2,3.37" style="fill: none; stroke: #232323; stroke-miterlimit: 10; stroke-width: 2.67px;"/>
        <path d="M103.22,111.11s23.8,7.65,32.9,6.76,35.19,5.6,32.67,10.15" style="fill: none; stroke: #232323; stroke-miterlimit: 10; stroke-width: 3px;"/>
        <g>
          <path d="M103.21,371.81s29.81,1.64,38.9,.76c9.09-.88,30.19-2.4,27.66,2.15" style="fill: none; stroke: #232323; stroke-miterlimit: 10;"/>
          <path d="M194.55,374.73s21.73,1.88,28.36,.87,22.01-2.74,20.16,2.45" style="fill: none; stroke: #232323; stroke-miterlimit: 10;"/>
          <path d="M135.61,346.57s-17.43-.95-26.05-2.65c-8.62-1.71-14.68-3.51-35.91-2.18" style="fill: none; stroke: #232323; stroke-miterlimit: 10;"/>
          <path d="M172.35,350.42s25.98-3.71,31.92,.99" style="fill: none; stroke: #232323; stroke-miterlimit: 10;"/>
          <path d="M103.21,319.06s29.81,1.64,38.9,.76c9.09-.88,30.19-2.4,27.66,2.15" style="fill: none; stroke: #232323; stroke-miterlimit: 10;"/>
          <path d="M203.91,328.39s12.37,1.68,19,.67,21.01-.74,19.16,4.45" style="fill: none; stroke: #232323; stroke-miterlimit: 10;"/>
          <path d="M135.61,290.5s-17.43-.95-26.05-2.65c-8.62-1.71-14.68-3.51-35.91-2.18" style="fill: none; stroke: #232323; stroke-miterlimit: 10;"/>
          <path d="M172.35,299.88s25.98-.71,31.92,3.99" style="fill: none; stroke: #232323; stroke-miterlimit: 10;"/>
          <path d="M103.21,268.23s29.81,1.64,38.9,.76c9.09-.88,30.19-2.4,27.66,2.15" style="fill: none; stroke: #232323; stroke-miterlimit: 10;"/>
          <path d="M204.28,281.85s12,1.68,18.63,.67c6.63-1.01,22.01-.74,20.16,4.45" style="fill: none; stroke: #232323; stroke-miterlimit: 10;"/>
          <path d="M135.61,241.16s-17.43-4.95-26.05-6.66c-8.62-1.71-14.68-6.51-35.91-5.18" style="fill: none; stroke: #232323; stroke-miterlimit: 10;"/>
          <path d="M103.21,211.19s29.81,5.64,38.9,4.76c9.09-.88,30.19,2.6,27.66,7.15" style="fill: none; stroke: #232323; stroke-miterlimit: 10;"/>
          <path d="M204.28,236.7s12,3.31,18.63,2.3,20.76-.21,21.39,4.45" style="fill: none; stroke: #232323; stroke-miterlimit: 10;"/>
          <path d="M135.61,190.56s-17.43-6.95-26.05-8.66c-8.62-1.71-14.68-10.51-35.91-9.18" style="fill: none; stroke: #232323; stroke-miterlimit: 10;"/>
          <path d="M104.3,156.43s29.81,7.65,38.9,6.76,30.19,4.6,27.66,9.15" style="fill: none; stroke: #232323; stroke-miterlimit: 10;"/>
          <path d="M204.28,193.44s17.51,4.44,22.86,3.66c5.34-.77,15.63,.9,14.14,4.88" style="fill: none; stroke: #232323; stroke-miterlimit: 10;"/>
          <path d="M204.28,147.03s20.47,5.25,25.9,4.48,15.87,.9,14.36,4.88" style="fill: none; stroke: #232323; stroke-miterlimit: 10; stroke-width: 1.02px;"/>
          <path d="M136.61,136.65s-18.43-7.95-27.05-9.66c-8.62-1.71-14.68-14.51-35.91-13.19" style="fill: none; stroke: #232323; stroke-miterlimit: 10;"/>
          <path d="M171.08,108.81s25.33-8.3,33.2,3.98" style="fill: none; stroke: #232323; stroke-miterlimit: 10;"/>
          <path d="M171.08,156.96s25.33-8.3,33.2,3.98" style="fill: none; stroke: #232323; stroke-miterlimit: 10;"/>
          <path d="M171.08,202.7s23.91-5.94,33.2,3.98" style="fill: none; stroke: #232323; stroke-miterlimit: 10;"/>
          <path d="M171.08,252.38s23.48-4.4,33.2,3.37" style="fill: none; stroke: #232323; stroke-miterlimit: 10; stroke-width: .95px;"/>
          <path d="M103.22,104.33s23.8,7.65,32.9,6.76c9.09-.88,35.19,5.6,32.67,10.15" style="fill: none; stroke: #232323; stroke-miterlimit: 10;"/>
        </g>
        <path d="M103.22,94.99s24.57,7.65,33.96,6.76c9.39-.88,36.33,5.6,33.72,10.15" style="fill: none; stroke: #232323; stroke-miterlimit: 10; stroke-width: 1.02px;"/>
        <path d="M135.61,76.3s-19.06-4.51-24.06-11.74c-6.34-9.16-14.65-19.71-37.89-15.66" style="fill: none; stroke: #232323; stroke-miterlimit: 10;"/>
        <path d="M135.61,86.69s-19.06-4.51-24.06-11.74c-6.34-9.16-14.65-19.71-37.89-15.66" style="fill: none; stroke: #232323; stroke-miterlimit: 10;"/>
        <path d="M135.61,97.07s-19.06-4.51-24.06-11.74c-6.34-9.16-14.65-19.71-37.89-15.66" style="fill: none; stroke: #232323; stroke-miterlimit: 10; stroke-width: 3px;"/>
        <line x1="71.09" y1="30.71" x2="71.09" y2="398" style="fill: none; stroke: #232323; stroke-miterlimit: 10; stroke-width: 7px;"/>
        <g>
          <path d="M68.91,371.48l-16.74,.23-4.57,1s-13.37,1.87-12.23-1.23l-19.89,.23" style="fill: none; stroke: #232323; stroke-miterlimit: 10;"/>
          <path d="M68.91,345.14l-16.74,.23-4.57,1s-13.37,1.87-12.23-1.23l-21.49,.89" style="fill: none; stroke: #232323; stroke-miterlimit: 10;"/>
          <path d="M68.91,316.19l-16.74,.8-4.57,1s-13.37,1.87-12.23-1.23l-20.96,1.79" style="fill: none; stroke: #232323; stroke-miterlimit: 10;"/>
          <path d="M70,287.3l-17.83,.98-4.57,1s-13.37,2.87-12.23-.23l-20.96,2.38" style="fill: none; stroke: #232323; stroke-miterlimit: 10;"/>
          <path d="M70,260.29l-17.83,2.83-4.57,1s-13.37,2.87-12.23-.23l-21.98,2.67" style="fill: none; stroke: #232323; stroke-miterlimit: 10;"/>
          <path d="M70,232.09l-17.83,2.83-4.57,1s-13.37,4.87-12.23,1.77l-24.97,2.67" style="fill: none; stroke: #232323; stroke-miterlimit: 10;"/>
          <path d="M70,204.93l-17.83,2.83-4.57,1s-13.37,4.87-12.23,1.77l-24.97,2.67" style="fill: none; stroke: #232323; stroke-miterlimit: 10;"/>
          <path d="M70,177.78l-17.83,2.83-4.57,1s-13.37,4.87-12.23,1.77l-24.97,2.67" style="fill: none; stroke: #232323; stroke-miterlimit: 10;"/>
          <path d="M70,150.62l-17.83,2.83-4.57,1s-13.37,4.87-12.23,1.77l-24.97,2.67" style="fill: none; stroke: #232323; stroke-miterlimit: 10;"/>
          <path d="M70,123.46l-17.83,2.83-4.57,1s-13.37,4.87-12.23,1.77l-24.97,2.67" style="fill: none; stroke: #232323; stroke-miterlimit: 10;"/>
          <path d="M70,96.3l-17.83,2.83-4.57,1s-13.37,4.87-12.23,1.77l-24.97,2.67" style="fill: none; stroke: #232323; stroke-miterlimit: 10;"/>
        </g>
        <g>
          <path d="M68.91,379.21l-16.74,.23-4.57,1s-13.37,1.87-12.23-1.23l-19.89,.23" style="fill: none; stroke: #232323; stroke-miterlimit: 10; stroke-width: 2px;"/>
          <path d="M68.91,352.87l-16.74,.23-4.57,1s-13.37,1.87-12.23-1.23l-21.49,.89" style="fill: none; stroke: #232323; stroke-miterlimit: 10; stroke-width: 2px;"/>
          <path d="M68.91,323.92l-16.74,.8-4.57,1s-13.37,1.87-12.23-1.23l-20.96,1.79" style="fill: none; stroke: #232323; stroke-miterlimit: 10; stroke-width: 2px;"/>
          <path d="M70,295.03l-17.83,.98-4.57,1s-13.37,2.87-12.23-.23l-20.96,2.38" style="fill: none; stroke: #232323; stroke-miterlimit: 10; stroke-width: 2px;"/>
          <path d="M70,268.02l-17.83,2.83-4.57,1s-13.37,2.87-12.23-.23l-21.98,2.67" style="fill: none; stroke: #232323; stroke-miterlimit: 10; stroke-width: 2px;"/>
          <path d="M70,239.82l-17.83,2.83-4.57,1s-13.37,4.87-12.23,1.77l-24.97,2.67" style="fill: none; stroke: #232323; stroke-miterlimit: 10; stroke-width: 2px;"/>
          <path d="M70,212.66l-17.83,2.83-4.57,1s-13.37,4.87-12.23,1.77l-24.97,2.67" style="fill: none; stroke: #232323; stroke-miterlimit: 10; stroke-width: 2px;"/>
          <path d="M70,185.5l-17.83,2.83-4.57,1s-13.37,4.87-12.23,1.77l-24.97,2.67" style="fill: none; stroke: #232323; stroke-miterlimit: 10; stroke-width: 2px;"/>
          <path d="M70,158.35l-17.83,2.83-4.57,1s-13.37,4.87-12.23,1.77l-24.97,2.67" style="fill: none; stroke: #232323; stroke-miterlimit: 10; stroke-width: 2px;"/>
          <path d="M70,131.19l-17.83,2.83-4.57,1s-13.37,4.87-12.23,1.77l-24.97,2.67" style="fill: none; stroke: #232323; stroke-miterlimit: 10; stroke-width: 2px;"/>
          <path d="M70,104.03l-17.83,2.83-4.57,1s-13.37,4.87-12.23,1.77l-24.97,2.67" style="fill: none; stroke: #232323; stroke-miterlimit: 10; stroke-width: 2px;"/>
        </g>
        <line x1="34.24" y1="78.46" x2="34.24" y2="399.13" style="fill: none; stroke: #232323; stroke-miterlimit: 10; stroke-width: 4px;"/>
        <line x1="46.36" y1="53.87" x2="46.36" y2="399.13" style="fill: none; stroke: #232323; stroke-miterlimit: 10;"/>
        <line x1="40.2" y1="56.67" x2="71.09" y2="42.65" style="fill: none; stroke: #232323; stroke-miterlimit: 10;"/>
        <line x1="103.22" y1="112.79" x2="103.22" y2="76.3" style="fill: none; stroke: #232323; stroke-miterlimit: 10; stroke-width: 3px;"/>
        <line x1="136.61" y1="102.35" x2="136.61" y2="65.86" style="fill: none; stroke: #232323; stroke-miterlimit: 10; stroke-width: 3px;"/>
        <line x1="204.28" y1="131.46" x2="204.28" y2="101.32" style="fill: none; stroke: #232323; stroke-miterlimit: 10; stroke-width: 2.53px;"/>
        <line x1="136.6" y1="153.57" x2="136.6" y2="117.08" style="fill: none; stroke: #232323; stroke-miterlimit: 10; stroke-width: 3px;"/>
        <line x1="136.6" y1="206.46" x2="136.6" y2="169.97" style="fill: none; stroke: #232323; stroke-miterlimit: 10; stroke-width: 3px;"/>
        <line x1="136.6" y1="259.4" x2="136.6" y2="222.91" style="fill: none; stroke: #232323; stroke-miterlimit: 10; stroke-width: 3px;"/>
        <line x1="136.6" y1="310.61" x2="136.6" y2="274.12" style="fill: none; stroke: #232323; stroke-miterlimit: 10; stroke-width: 3px;"/>
        <line x1="136.6" y1="363.18" x2="136.6" y2="326.69" style="fill: none; stroke: #232323; stroke-miterlimit: 10; stroke-width: 3px;"/>
        <line x1="103.22" y1="131.46" x2="103.22" y2="170.21" style="fill: none; stroke: #232323; stroke-miterlimit: 10; stroke-width: 3px;"/>
        <line x1="103.22" y1="223.78" x2="103.22" y2="186.85" style="fill: none; stroke: #232323; stroke-miterlimit: 10; stroke-width: 3px;"/>
        <line x1="103.22" y1="277.27" x2="103.22" y2="239.82" style="fill: none; stroke: #232323; stroke-miterlimit: 10; stroke-width: 3px;"/>
        <line x1="103.22" y1="333.51" x2="103.22" y2="294.44" style="fill: none; stroke: #232323; stroke-miterlimit: 10; stroke-width: 3px;"/>
        <line x1="103.22" y1="399.46" x2="103.22" y2="350.14" style="fill: none; stroke: #232323; stroke-miterlimit: 10; stroke-width: 3px;"/>
        <path d="M73.65,23.64l14.53,6.7c5.93,2.73,12.32,4.26,18.83,4.69,4.62,.3,10.44,1.59,15.15,5.54,9.35,7.83-2.02,6.57,19.96,10.61,21.98,4.04,19.71,9.85,19.71,9.85" style="fill: none; stroke: #232323; stroke-miterlimit: 10; stroke-width: 3px;"/>
        <path d="M71.09,31.97l90.79,46.48,49.2,24.99s7.99,3.96,13.97,4.14,16.03,.63,21.11,5.21" style="fill: none; stroke: #232323; stroke-miterlimit: 10; stroke-width: 5px;"/>
        <g>
          <line x1="77.63" y1="26.07" x2="77.5" y2="35.26" style="fill: none; stroke: #232323; stroke-miterlimit: 10;"/>
          <line x1="82.02" y1="27.38" x2="81.9" y2="36.57" style="fill: none; stroke: #232323; stroke-miterlimit: 10;"/>
          <line x1="86.42" y1="28.69" x2="86.29" y2="37.88" style="fill: none; stroke: #232323; stroke-miterlimit: 10;"/>
          <line x1="90.81" y1="31.31" x2="90.69" y2="40.5" style="fill: none; stroke: #232323; stroke-miterlimit: 10;"/>
          <line x1="95.2" y1="33.28" x2="95.08" y2="42.47" style="fill: none; stroke: #232323; stroke-miterlimit: 10;"/>
          <line x1="99.6" y1="34.58" x2="99.48" y2="43.77" style="fill: none; stroke: #232323; stroke-miterlimit: 10;"/>
          <line x1="103.99" y1="35.26" x2="103.87" y2="46.39" style="fill: none; stroke: #232323; stroke-miterlimit: 10;"/>
          <line x1="108.45" y1="34.6" x2="108.33" y2="50.98" style="fill: none; stroke: #232323; stroke-miterlimit: 10;"/>
          <line x1="112.84" y1="35.91" x2="112.72" y2="52.3" style="fill: none; stroke: #232323; stroke-miterlimit: 10;"/>
          <line x1="117.24" y1="37.22" x2="117.11" y2="53.61" style="fill: none; stroke: #232323; stroke-miterlimit: 10;"/>
          <line x1="121.57" y1="39.17" x2="121.45" y2="56.23" style="fill: none; stroke: #232323; stroke-miterlimit: 10;"/>
          <line x1="125.96" y1="44" x2="125.84" y2="59.61" style="fill: none; stroke: #232323; stroke-miterlimit: 10;"/>
          <line x1="134.75" y1="49.67" x2="134.63" y2="63.65" style="fill: none; stroke: #232323; stroke-miterlimit: 10;"/>
          <line x1="139.15" y1="50.98" x2="139.03" y2="65.86" style="fill: none; stroke: #232323; stroke-miterlimit: 10;"/>
          <line x1="143.54" y1="52.29" x2="143.42" y2="67.94" style="fill: none; stroke: #232323; stroke-miterlimit: 10;"/>
          <line x1="147.94" y1="53.6" x2="147.81" y2="71.07" style="fill: none; stroke: #232323; stroke-miterlimit: 10;"/>
          <line x1="155.45" y1="55.59" x2="155.33" y2="73.07" style="fill: none; stroke: #232323; stroke-miterlimit: 10;"/>
          <line x1="152.33" y1="54.91" x2="152.21" y2="72.38" style="fill: none; stroke: #232323; stroke-miterlimit: 10;"/>
          <line x1="158.69" y1="66.24" x2="158.57" y2="75.43" style="fill: none; stroke: #232323; stroke-miterlimit: 10;"/>
          <line x1="161.94" y1="69.65" x2="161.82" y2="78.84" style="fill: none; stroke: #232323; stroke-miterlimit: 10;"/>
          <line x1="165.2" y1="73.07" x2="165.08" y2="82.25" style="fill: none; stroke: #232323; stroke-miterlimit: 10;"/>
          <line x1="168.23" y1="72.54" x2="168.11" y2="81.73" style="fill: none; stroke: #232323; stroke-miterlimit: 10;"/>
          <line x1="171.14" y1="73.74" x2="171.02" y2="82.93" style="fill: none; stroke: #232323; stroke-miterlimit: 10;"/>
          <line x1="174.04" y1="74.94" x2="173.92" y2="84.13" style="fill: none; stroke: #232323; stroke-miterlimit: 10;"/>
          <line x1="176.95" y1="76.13" x2="176.83" y2="85.32" style="fill: none; stroke: #232323; stroke-miterlimit: 10;"/>
          <line x1="179.86" y1="77.33" x2="179.73" y2="86.52" style="fill: none; stroke: #232323; stroke-miterlimit: 10;"/>
          <line x1="182.76" y1="78.53" x2="182.64" y2="87.72" style="fill: none; stroke: #232323; stroke-miterlimit: 10;"/>
          <line x1="185.67" y1="79.73" x2="185.55" y2="88.92" style="fill: none; stroke: #232323; stroke-miterlimit: 10;"/>
          <line x1="188.57" y1="80.92" x2="188.45" y2="90.11" style="fill: none; stroke: #232323; stroke-miterlimit: 10;"/>
          <line x1="191.48" y1="82.12" x2="191.36" y2="91.31" style="fill: none; stroke: #232323; stroke-miterlimit: 10;"/>
          <line x1="194.39" y1="83.32" x2="194.26" y2="92.51" style="fill: none; stroke: #232323; stroke-miterlimit: 10;"/>
          <line x1="197.29" y1="84.51" x2="197.17" y2="93.7" style="fill: none; stroke: #232323; stroke-miterlimit: 10;"/>
          <line x1="200.2" y1="87.91" x2="200.08" y2="97.1" style="fill: none; stroke: #232323; stroke-miterlimit: 10;"/>
          <line x1="203.1" y1="89.11" x2="202.98" y2="98.3" style="fill: none; stroke: #232323; stroke-miterlimit: 10;"/>
          <line x1="206.01" y1="90.31" x2="205.89" y2="99.5" style="fill: none; stroke: #232323; stroke-miterlimit: 10;"/>
          <line x1="208.92" y1="91.5" x2="208.79" y2="100.69" style="fill: none; stroke: #232323; stroke-miterlimit: 10;"/>
          <line x1="211.82" y1="92.7" x2="211.7" y2="101.89" style="fill: none; stroke: #232323; stroke-miterlimit: 10;"/>
          <line x1="214.73" y1="93.9" x2="214.61" y2="103.09" style="fill: none; stroke: #232323; stroke-miterlimit: 10;"/>
          <line x1="217.63" y1="95.09" x2="217.51" y2="104.28" style="fill: none; stroke: #232323; stroke-miterlimit: 10;"/>
          <line x1="220.54" y1="96.29" x2="220.42" y2="105.48" style="fill: none; stroke: #232323; stroke-miterlimit: 10;"/>
          <line x1="223.45" y1="97.49" x2="223.32" y2="106.68" style="fill: none; stroke: #232323; stroke-miterlimit: 10;"/>
          <line x1="226.35" y1="96.48" x2="226.23" y2="105.67" style="fill: none; stroke: #232323; stroke-miterlimit: 10;"/>
          <line x1="229.26" y1="97.68" x2="229.14" y2="106.87" style="fill: none; stroke: #232323; stroke-miterlimit: 10;"/>
          <line x1="232.17" y1="98.88" x2="232.04" y2="108.07" style="fill: none; stroke: #232323; stroke-miterlimit: 10;"/>
          <line x1="235.07" y1="100.08" x2="234.95" y2="109.26" style="fill: none; stroke: #232323; stroke-miterlimit: 10;"/>
          <line x1="237.98" y1="101.27" x2="237.86" y2="110.46" style="fill: none; stroke: #232323; stroke-miterlimit: 10;"/>
          <polyline points="130.36 19.85 130.36 48.36 130.24 61.5" style="fill: none; stroke: #232323; stroke-miterlimit: 10;"/>
        </g>
        <line x1="116.59" y1="7.97" x2="116.59" y2="37.22" style="fill: none; stroke: #232323; stroke-miterlimit: 10;"/>
        <line x1="108.33" y1="4.69" x2="108.33" y2="33.93" style="fill: none; stroke: #232323; stroke-miterlimit: 10;"/>
        <line x1="148.55" y1="21.95" x2="148.55" y2="51.19" style="fill: none; stroke: #232323; stroke-miterlimit: 10;"/>
        <line x1="152.58" y1="23.26" x2="152.58" y2="52.5" style="fill: none; stroke: #232323; stroke-miterlimit: 10;"/>
        <line x1="171.08" y1="82.93" x2="171.08" y2="389.16" style="fill: none; stroke: #232323; stroke-miterlimit: 10; stroke-width: 5px;"/>
        <line x1="171.08" y1="120.55" x2="218.66" y2="136.65" style="fill: none; stroke: #232323; stroke-miterlimit: 10; stroke-width: 2.53px;"/>
        <line x1="204.28" y1="141.17" x2="204.28" y2="175.74" style="fill: none; stroke: #232323; stroke-miterlimit: 10; stroke-width: 2.53px;"/>
        <line x1="171.08" y1="164.83" x2="218.66" y2="180.93" style="fill: none; stroke: #232323; stroke-miterlimit: 10; stroke-width: 2.53px;"/>
        <line x1="204.28" y1="222.48" x2="204.28" y2="187.91" style="fill: none; stroke: #232323; stroke-miterlimit: 10; stroke-width: 2.53px;"/>
        <line x1="169.77" y1="213.75" x2="218.66" y2="227.67" style="fill: none; stroke: #232323; stroke-miterlimit: 10; stroke-width: 2.53px;"/>
        <line x1="204.28" y1="269.57" x2="204.28" y2="229.09" style="fill: none; stroke: #232323; stroke-miterlimit: 10; stroke-width: 2.53px;"/>
        <line x1="172.35" y1="261.92" x2="218.66" y2="272.77" style="fill: none; stroke: #232323; stroke-miterlimit: 10; stroke-width: 2.53px;"/>
        <line x1="204.28" y1="314.71" x2="204.28" y2="274.23" style="fill: none; stroke: #232323; stroke-miterlimit: 10; stroke-width: 2.53px;"/>
        <line x1="171.08" y1="312.02" x2="218.89" y2="316.44" style="fill: none; stroke: #232323; stroke-miterlimit: 10; stroke-width: 2.53px;"/>
        <line x1="204.28" y1="360.66" x2="204.28" y2="320.18" style="fill: none; stroke: #232323; stroke-miterlimit: 10; stroke-width: 2.53px;"/>
        <line x1="171.08" y1="360.17" x2="218.89" y2="362.39" style="fill: none; stroke: #232323; stroke-miterlimit: 10; stroke-width: 2.53px;"/>
        <line x1="194.55" y1="362.24" x2="194.55" y2="384.01" style="fill: none; stroke: #232323; stroke-miterlimit: 10; stroke-width: 2.53px;"/>
        <line x1="218.66" y1="107.12" x2="218.66" y2="145.13" style="fill: none; stroke: #232323; stroke-miterlimit: 10; stroke-width: 2.53px;"/>
        <line x1="222.85" y1="107.12" x2="222.85" y2="145.86" style="fill: none; stroke: #232323; stroke-miterlimit: 10; stroke-width: 2.53px;"/>
        <line x1="218.66" y1="156.55" x2="218.66" y2="191.38" style="fill: none; stroke: #232323; stroke-miterlimit: 10; stroke-width: 2.53px;"/>
        <line x1="222.85" y1="156.55" x2="222.85" y2="191.81" style="fill: none; stroke: #232323; stroke-miterlimit: 10; stroke-width: 2.53px;"/>
        <line x1="218.66" y1="202.66" x2="218.66" y2="232.12" style="fill: none; stroke: #232323; stroke-miterlimit: 10; stroke-width: 2.53px;"/>
        <line x1="222.85" y1="202.66" x2="222.85" y2="232.12" style="fill: none; stroke: #232323; stroke-miterlimit: 10; stroke-width: 2.53px;"/>
        <line x1="218.66" y1="246.92" x2="218.66" y2="276.35" style="fill: none; stroke: #232323; stroke-miterlimit: 10; stroke-width: 2.22px;"/>
        <line x1="222.85" y1="246.92" x2="222.91" y2="275.7" style="fill: none; stroke: #232323; stroke-miterlimit: 10; stroke-width: 2.22px;"/>
        <line x1="218.66" y1="290.58" x2="218.66" y2="322.42" style="fill: none; stroke: #232323; stroke-miterlimit: 10; stroke-width: 1.99px;"/>
        <line x1="222.91" y1="290.27" x2="222.85" y2="322.42" style="fill: none; stroke: #232323; stroke-miterlimit: 10; stroke-width: 1.99px;"/>
        <line x1="218.66" y1="336.13" x2="218.66" y2="368.83" style="fill: none; stroke: #232323; stroke-miterlimit: 10; stroke-width: 2.53px;"/>
        <line x1="222.85" y1="336.13" x2="222.85" y2="368.83" style="fill: none; stroke: #232323; stroke-miterlimit: 10; stroke-width: 2.53px;"/>
        <g>
          <g>
            <line x1="99.86" y1="112.31" x2="99.86" y2="128.72" style="fill: none; stroke: #232323; stroke-miterlimit: 10; stroke-width: .75px;"/>
            <line x1="103.22" y1="114.66" x2="103.22" y2="131.06" style="fill: none; stroke: #232323; stroke-miterlimit: 10; stroke-width: .75px;"/>
          </g>
          <g>
            <line x1="99.86" y1="168.1" x2="99.86" y2="184.51" style="fill: none; stroke: #232323; stroke-miterlimit: 10; stroke-width: .75px;"/>
            <line x1="103.22" y1="170.45" x2="103.22" y2="186.85" style="fill: none; stroke: #232323; stroke-miterlimit: 10; stroke-width: .75px;"/>
          </g>
          <g>
            <line x1="99.86" y1="222.75" x2="99.86" y2="239.15" style="fill: none; stroke: #232323; stroke-miterlimit: 10; stroke-width: .75px;"/>
            <line x1="103.22" y1="223.78" x2="103.22" y2="241.5" style="fill: none; stroke: #232323; stroke-miterlimit: 10; stroke-width: .75px;"/>
          </g>
          <g>
            <line x1="99.86" y1="277.13" x2="99.86" y2="293.53" style="fill: none; stroke: #232323; stroke-miterlimit: 10; stroke-width: .75px;"/>
            <line x1="103.22" y1="277.27" x2="103.22" y2="295.88" style="fill: none; stroke: #232323; stroke-miterlimit: 10; stroke-width: .75px;"/>
          </g>
          <g>
            <line x1="99.86" y1="332.64" x2="99.86" y2="348.05" style="fill: none; stroke: #232323; stroke-miterlimit: 10; stroke-width: .75px;"/>
            <line x1="103.22" y1="332.97" x2="103.22" y2="348.38" style="fill: none; stroke: #232323; stroke-miterlimit: 10; stroke-width: .75px;"/>
          </g>
          <g>
            <line x1="99.86" y1="52.5" x2="99.86" y2="72.39" style="fill: none; stroke: #232323; stroke-miterlimit: 10; stroke-width: .75px;"/>
            <line x1="103.22" y1="54.87" x2="103.22" y2="75.23" style="fill: none; stroke: #232323; stroke-miterlimit: 10; stroke-width: .75px;"/>
          </g>
          <g>
            <line x1="80.81" y1="104.67" x2="80.81" y2="121.07" style="fill: none; stroke: #232323; stroke-miterlimit: 10; stroke-width: .75px;"/>
            <line x1="84.17" y1="104.67" x2="84.17" y2="121.07" style="fill: none; stroke: #232323; stroke-miterlimit: 10; stroke-width: .75px;"/>
          </g>
          <g>
            <line x1="80.81" y1="163.68" x2="80.81" y2="180.09" style="fill: none; stroke: #232323; stroke-miterlimit: 10; stroke-width: .75px;"/>
            <line x1="84.17" y1="163.68" x2="84.17" y2="180.09" style="fill: none; stroke: #232323; stroke-miterlimit: 10; stroke-width: .75px;"/>
          </g>
          <g>
            <line x1="80.81" y1="220.01" x2="80.81" y2="236.42" style="fill: none; stroke: #232323; stroke-miterlimit: 10; stroke-width: .75px;"/>
            <line x1="84.17" y1="220.23" x2="84.17" y2="237.95" style="fill: none; stroke: #232323; stroke-miterlimit: 10; stroke-width: .75px;"/>
          </g>
          <g>
            <line x1="80.81" y1="276.35" x2="80.81" y2="292.76" style="fill: none; stroke: #232323; stroke-miterlimit: 10; stroke-width: .75px;"/>
            <line x1="84.17" y1="275.44" x2="84.17" y2="294.05" style="fill: none; stroke: #232323; stroke-miterlimit: 10; stroke-width: .75px;"/>
          </g>
          <g>
            <line x1="80.81" y1="332.47" x2="80.81" y2="347.89" style="fill: none; stroke: #232323; stroke-miterlimit: 10; stroke-width: .75px;"/>
            <line x1="84.17" y1="331.96" x2="84.17" y2="347.38" style="fill: none; stroke: #232323; stroke-miterlimit: 10; stroke-width: .75px;"/>
          </g>
          <g>
            <line x1="80.81" y1="48.08" x2="80.81" y2="67.97" style="fill: none; stroke: #232323; stroke-miterlimit: 10; stroke-width: .75px;"/>
            <line x1="84.17" y1="48.22" x2="84.17" y2="68.58" style="fill: none; stroke: #232323; stroke-miterlimit: 10; stroke-width: .75px;"/>
          </g>
        </g>
        <g>
          <line x1="139.03" y1="101.67" x2="139.03" y2="117.82" style="fill: none; stroke: #232323; stroke-miterlimit: 10; stroke-width: .75px;"/>
          <line x1="143.54" y1="101.67" x2="143.54" y2="117.82" style="fill: none; stroke: #232323; stroke-miterlimit: 10; stroke-width: .75px;"/>
          <line x1="139.03" y1="154.41" x2="139.03" y2="170.56" style="fill: none; stroke: #232323; stroke-miterlimit: 10; stroke-width: .75px;"/>
          <line x1="143.54" y1="154.41" x2="143.54" y2="170.56" style="fill: none; stroke: #232323; stroke-miterlimit: 10; stroke-width: .75px;"/>
          <line x1="139.03" y1="207.16" x2="139.03" y2="223.31" style="fill: none; stroke: #232323; stroke-miterlimit: 10; stroke-width: .75px;"/>
          <line x1="143.54" y1="207.16" x2="143.54" y2="223.31" style="fill: none; stroke: #232323; stroke-miterlimit: 10; stroke-width: .75px;"/>
          <line x1="139.03" y1="259.91" x2="139.03" y2="276.05" style="fill: none; stroke: #232323; stroke-miterlimit: 10; stroke-width: .75px;"/>
          <line x1="143.54" y1="259.91" x2="143.54" y2="276.05" style="fill: none; stroke: #232323; stroke-miterlimit: 10; stroke-width: .75px;"/>
          <line x1="139.03" y1="310.19" x2="139.03" y2="326.34" style="fill: none; stroke: #232323; stroke-miterlimit: 10; stroke-width: .75px;"/>
          <line x1="143.54" y1="310.19" x2="143.54" y2="326.34" style="fill: none; stroke: #232323; stroke-miterlimit: 10; stroke-width: .75px;"/>
          <line x1="139.03" y1="363.52" x2="139.03" y2="379.67" style="fill: none; stroke: #232323; stroke-miterlimit: 10; stroke-width: .75px;"/>
          <line x1="143.54" y1="363.52" x2="143.54" y2="379.67" style="fill: none; stroke: #232323; stroke-miterlimit: 10; stroke-width: .75px;"/>
        </g>
        <g>
          <line x1="226.3" y1="146.21" x2="226.3" y2="157.63" style="fill: none; stroke: #232323; stroke-miterlimit: 10; stroke-width: .75px;"/>
          <line x1="230.82" y1="146.21" x2="230.82" y2="157.63" style="fill: none; stroke: #232323; stroke-miterlimit: 10; stroke-width: .75px;"/>
          <line x1="226.3" y1="191.74" x2="226.3" y2="203.32" style="fill: none; stroke: #232323; stroke-miterlimit: 10; stroke-width: .75px;"/>
          <line x1="230.82" y1="191.74" x2="230.82" y2="203.32" style="fill: none; stroke: #232323; stroke-miterlimit: 10; stroke-width: .75px;"/>
          <line x1="226.3" y1="231.84" x2="226.3" y2="245.55" style="fill: none; stroke: #232323; stroke-miterlimit: 10; stroke-width: .75px;"/>
          <line x1="230.82" y1="231.84" x2="230.82" y2="245.55" style="fill: none; stroke: #232323; stroke-miterlimit: 10; stroke-width: .75px;"/>
          <line x1="226.3" y1="275" x2="226.3" y2="288.71" style="fill: none; stroke: #232323; stroke-miterlimit: 10; stroke-width: .75px;"/>
          <line x1="230.82" y1="275" x2="230.82" y2="288.71" style="fill: none; stroke: #232323; stroke-miterlimit: 10; stroke-width: .75px;"/>
          <line x1="226.3" y1="321.53" x2="226.3" y2="335.24" style="fill: none; stroke: #232323; stroke-miterlimit: 10; stroke-width: .75px;"/>
          <line x1="230.82" y1="321.53" x2="230.82" y2="335.24" style="fill: none; stroke: #232323; stroke-miterlimit: 10; stroke-width: .75px;"/>
          <line x1="226.3" y1="368.52" x2="226.3" y2="382.23" style="fill: none; stroke: #232323; stroke-miterlimit: 10; stroke-width: .75px;"/>
          <line x1="230.82" y1="368.52" x2="230.82" y2="382.23" style="fill: none; stroke: #232323; stroke-miterlimit: 10; stroke-width: .75px;"/>
        </g>
      </g>
    </g>
  </g>
</svg>