<?xml version="1.0" encoding="UTF-8"?>
<svg id="_圖層_2" data-name="圖層 2" xmlns="http://www.w3.org/2000/svg" width="167.57" height="61.54" viewBox="0 0 167.57 61.54">
  <g id="_設計" data-name="設計">
    <g>
      <g>
        <polygon points="31.62 26.25 16.21 59.06 20.28 59.06 31.62 34.99 31.62 26.25" style="fill: #fff;"/>
        <polygon points="31.62 0 54.44 49.05 50.37 49.05 31.62 8.75 31.62 0" style="fill: #fff;"/>
        <polygon points="31.62 8.75 8.11 59.06 12.18 59.06 31.62 17.5 31.62 8.75" style="fill: #fff;"/>
        <polygon points="31.62 17.51 46.3 49.05 42.23 49.05 31.62 26.25 31.62 17.51" style="fill: #fff;"/>
        <polygon points="31.62 35 38.15 49.05 34.07 49.05 31.62 43.74 31.62 35" style="fill: #fff;"/>
        <polygon points="0 59.06 4.07 59.06 31.62 0 31.62 0 27.54 0 0 59.06" style="fill: #fff;"/>
      </g>
      <path d="M29.1,51.45l3.52,7.65h-1.28l-1.15-2.49h-3.2l-1.18,2.49h-.63l3.6-7.65h.31Zm-1.88,4.67h2.75l-1.36-2.96-1.39,2.96Z" style="fill: #fff;"/>
      <path d="M33.32,50.7l.82-.32h.33v4.03c.1-.17,.22-.32,.38-.47,.14-.14,.31-.27,.49-.38,.18-.11,.36-.19,.56-.26,.19-.06,.38-.1,.56-.1,.33,0,.64,.07,.92,.2,.28,.13,.53,.32,.73,.55,.2,.23,.36,.5,.47,.82,.11,.31,.17,.64,.17,1,0,.32-.04,.62-.11,.91-.07,.3-.18,.57-.33,.83-.13,.26-.3,.49-.49,.7-.2,.21-.41,.39-.65,.54-.24,.15-.49,.27-.77,.35-.28,.08-.56,.12-.86,.12-.42,0-.83-.05-1.21-.17-.38-.11-.71-.28-1-.52v-7.84Zm1.14,7.46c.07,.07,.15,.14,.24,.21,.09,.07,.18,.13,.29,.2,.11,.06,.22,.1,.35,.14,.13,.03,.27,.05,.43,.05,.27,0,.51-.06,.73-.19,.22-.13,.4-.31,.56-.54,.16-.23,.27-.51,.36-.83,.08-.32,.13-.66,.13-1.04,0-.28-.05-.55-.13-.8-.09-.26-.21-.47-.36-.65-.16-.18-.33-.33-.54-.44-.21-.11-.42-.16-.66-.16-.13,0-.27,.02-.4,.05-.13,.04-.27,.09-.39,.16-.12,.06-.24,.14-.35,.22-.1,.09-.19,.18-.26,.28v3.35Z" style="fill: #fff;"/>
      <path d="M42.63,59.23c-.44,0-.85-.07-1.22-.23-.37-.16-.7-.36-.97-.63-.28-.27-.49-.58-.64-.93-.15-.36-.23-.73-.23-1.14s.08-.82,.23-1.2c.15-.37,.36-.69,.64-.97,.27-.28,.6-.5,.97-.66,.37-.16,.78-.24,1.22-.24s.84,.07,1.22,.22c.37,.15,.69,.35,.96,.6,.27,.26,.48,.56,.64,.9,.15,.34,.23,.72,.23,1.11,0,.43-.08,.85-.23,1.23-.16,.38-.36,.72-.64,1.01-.27,.28-.59,.52-.96,.68-.38,.17-.78,.25-1.22,.25m.21-.42c.23,0,.43-.06,.62-.17,.19-.12,.35-.27,.49-.47,.14-.2,.25-.43,.32-.69,.08-.26,.11-.54,.11-.83,0-.42-.04-.81-.11-1.17-.07-.36-.19-.68-.35-.96-.16-.27-.37-.49-.63-.64-.26-.16-.58-.24-.95-.24-.19,0-.37,.06-.55,.17-.18,.11-.34,.27-.47,.46-.14,.19-.25,.42-.33,.68-.09,.26-.13,.53-.13,.82,0,.42,.04,.81,.13,1.18,.09,.37,.21,.69,.39,.96,.17,.27,.38,.49,.62,.65,.24,.16,.53,.24,.84,.24" style="fill: #fff;"/>
      <polygon points="47.33 53.33 49.36 57.7 51.32 53.33 51.85 53.33 49.25 59.17 48.84 59.17 46.12 53.33 47.33 53.33" style="fill: #fff;"/>
      <path d="M55.1,59.23c-.39,0-.76-.07-1.1-.22-.34-.14-.64-.35-.9-.6-.26-.25-.46-.54-.61-.88-.15-.34-.23-.7-.23-1.09,0-.47,.07-.89,.2-1.29,.13-.39,.33-.73,.58-1.02,.25-.29,.55-.51,.89-.67,.35-.17,.74-.25,1.17-.25,.38,0,.72,.07,1.04,.2,.31,.14,.58,.31,.81,.53,.23,.23,.4,.49,.53,.78,.13,.29,.19,.6,.19,.92h-4.31c0,.39,.05,.75,.15,1.07,.1,.33,.24,.62,.42,.86,.19,.24,.4,.43,.64,.56,.25,.13,.53,.21,.83,.21,.25,0,.49-.05,.71-.12,.23-.08,.44-.19,.63-.32,.18-.14,.34-.29,.47-.46,.13-.17,.23-.34,.28-.52l.33,.15c-.08,.29-.21,.57-.4,.83-.18,.26-.4,.48-.64,.68-.25,.2-.51,.35-.81,.46-.29,.11-.58,.17-.88,.17m1.14-4.04c0-.22-.04-.42-.12-.61-.07-.2-.18-.36-.32-.49-.13-.14-.29-.24-.47-.32-.18-.08-.38-.12-.58-.12-.18,0-.34,.04-.5,.12-.16,.08-.3,.18-.42,.32-.12,.13-.23,.3-.31,.49-.08,.18-.12,.39-.15,.61h2.86Z" style="fill: #fff;"/>
      <path d="M62.13,53.33h1.15v1.19c.11-.15,.24-.3,.38-.45,.14-.16,.3-.3,.47-.42,.17-.12,.36-.23,.57-.31,.2-.07,.43-.12,.68-.12,.34,0,.65,.08,.93,.21,.27,.14,.51,.34,.71,.58,.2,.25,.35,.53,.46,.86,.11,.33,.16,.68,.16,1.05,0,.48-.06,.92-.19,1.32-.13,.41-.32,.75-.56,1.05-.25,.29-.55,.52-.89,.68-.35,.17-.74,.25-1.17,.25-.32,0-.6-.03-.83-.1-.24-.07-.48-.18-.71-.33v2.74h-1.15v-8.21Zm1.15,4.22c0,.17,.04,.34,.11,.49,.08,.15,.18,.28,.32,.4,.13,.11,.3,.21,.48,.27,.19,.07,.4,.1,.63,.1,.21,0,.41-.05,.6-.16,.19-.11,.36-.27,.49-.47,.14-.2,.26-.44,.34-.72,.08-.28,.12-.58,.12-.92,0-.43-.04-.8-.11-1.12-.08-.32-.18-.58-.32-.79-.13-.21-.29-.36-.48-.47-.18-.1-.38-.16-.6-.16-.17,0-.33,.03-.48,.08-.15,.05-.3,.12-.43,.21-.13,.09-.26,.18-.38,.29-.11,.12-.21,.23-.31,.35v2.62Z" style="fill: #fff;"/>
      <path d="M71.26,59.23c-.39,0-.76-.07-1.1-.22-.34-.14-.64-.35-.9-.6-.26-.25-.46-.54-.61-.88-.15-.34-.23-.7-.23-1.09,0-.47,.06-.89,.2-1.29,.13-.39,.32-.73,.57-1.02,.25-.29,.55-.51,.9-.67,.35-.17,.73-.25,1.16-.25,.38,0,.73,.07,1.04,.2,.32,.14,.59,.31,.82,.53,.23,.23,.4,.49,.53,.78,.13,.29,.19,.6,.19,.92h-4.3c0,.39,.05,.75,.15,1.07,.1,.33,.24,.62,.42,.86,.18,.24,.39,.43,.64,.56,.25,.13,.52,.21,.82,.21,.25,0,.49-.05,.72-.12,.23-.08,.43-.19,.62-.32,.19-.14,.34-.29,.47-.46,.13-.17,.23-.34,.28-.52l.33,.15c-.08,.29-.21,.57-.4,.83-.18,.26-.4,.48-.64,.68-.25,.2-.51,.35-.8,.46-.3,.11-.58,.17-.89,.17m1.14-4.04c0-.22-.04-.42-.11-.61-.08-.2-.19-.36-.32-.49-.13-.14-.29-.24-.47-.32-.18-.08-.38-.12-.58-.12-.17,0-.34,.04-.49,.12-.16,.08-.3,.18-.42,.32-.12,.13-.23,.3-.31,.49-.08,.18-.13,.39-.15,.61h2.86Z" style="fill: #fff;"/>
      <path d="M77.88,59.23c-.45,0-.85-.07-1.22-.23-.37-.16-.69-.36-.97-.63-.27-.27-.48-.58-.63-.93-.15-.36-.23-.73-.23-1.14s.08-.82,.23-1.2c.15-.37,.36-.69,.63-.97,.28-.28,.6-.5,.97-.66,.38-.16,.78-.24,1.22-.24s.84,.07,1.21,.22c.38,.15,.69,.35,.96,.6,.27,.26,.48,.56,.64,.9,.15,.34,.23,.72,.23,1.11,0,.43-.08,.85-.23,1.23-.16,.38-.36,.72-.64,1.01-.27,.28-.58,.52-.96,.68-.38,.17-.78,.25-1.21,.25m.21-.42c.23,0,.43-.06,.62-.17,.19-.12,.35-.27,.49-.47,.13-.2,.24-.43,.32-.69,.08-.26,.11-.54,.11-.83,0-.42-.03-.81-.11-1.17-.07-.36-.19-.68-.35-.96-.16-.27-.36-.49-.63-.64-.26-.16-.57-.24-.95-.24-.19,0-.38,.06-.56,.17-.18,.11-.33,.27-.47,.46-.13,.19-.25,.42-.33,.68-.09,.26-.13,.53-.13,.82,0,.42,.04,.81,.13,1.18,.09,.37,.22,.69,.39,.96,.17,.27,.38,.49,.62,.65,.25,.16,.53,.24,.84,.24" style="fill: #fff;"/>
      <path d="M82.02,53.33h1.14v1.19c.11-.15,.25-.3,.39-.45,.14-.16,.3-.3,.47-.42,.17-.12,.36-.23,.57-.31,.2-.07,.43-.12,.68-.12,.34,0,.65,.08,.93,.21,.28,.14,.51,.34,.71,.58,.2,.25,.35,.53,.46,.86,.11,.33,.16,.68,.16,1.05,0,.48-.06,.92-.19,1.32-.13,.41-.32,.75-.56,1.05-.25,.29-.55,.52-.89,.68-.35,.17-.74,.25-1.17,.25-.32,0-.6-.03-.83-.1-.24-.07-.47-.18-.71-.33v2.74h-1.14v-8.21Zm1.14,4.22c0,.17,.04,.34,.11,.49,.08,.15,.18,.28,.32,.4,.13,.11,.3,.21,.49,.27,.19,.07,.4,.1,.62,.1s.41-.05,.61-.16c.19-.11,.35-.27,.49-.47,.14-.2,.26-.44,.33-.72,.08-.28,.13-.58,.13-.92,0-.43-.04-.8-.12-1.12-.08-.32-.18-.58-.31-.79-.13-.21-.3-.36-.48-.47-.19-.1-.39-.16-.6-.16-.17,0-.33,.03-.48,.08-.16,.05-.3,.12-.43,.21-.14,.09-.26,.18-.38,.29-.12,.12-.22,.23-.31,.35v2.62Z" style="fill: #fff;"/>
      <polygon points="89.79 59.1 88.65 59.1 88.65 50.7 89.46 50.38 89.79 50.38 89.79 59.1" style="fill: #fff;"/>
      <path d="M93.74,59.23c-.39,0-.76-.07-1.1-.22-.34-.14-.64-.35-.9-.6-.25-.25-.46-.54-.61-.88-.15-.34-.23-.7-.23-1.09,0-.47,.06-.89,.2-1.29,.13-.39,.33-.73,.57-1.02,.25-.29,.55-.51,.9-.67,.35-.17,.74-.25,1.16-.25,.38,0,.72,.07,1.04,.2,.32,.14,.58,.31,.81,.53,.23,.23,.41,.49,.53,.78,.12,.29,.19,.6,.19,.92h-4.3c0,.39,.05,.75,.14,1.07,.1,.33,.24,.62,.42,.86,.18,.24,.4,.43,.64,.56,.25,.13,.52,.21,.82,.21,.25,0,.49-.05,.72-.12,.23-.08,.43-.19,.62-.32,.18-.14,.34-.29,.47-.46,.13-.17,.23-.34,.28-.52l.33,.15c-.09,.29-.22,.57-.4,.83-.18,.26-.4,.48-.64,.68-.25,.2-.51,.35-.8,.46-.29,.11-.58,.17-.89,.17m1.15-4.04c0-.22-.04-.42-.12-.61-.07-.2-.18-.36-.32-.49-.14-.14-.3-.24-.48-.32-.18-.08-.38-.12-.58-.12-.18,0-.34,.04-.5,.12-.16,.08-.3,.18-.42,.32-.13,.13-.23,.3-.31,.49-.09,.18-.13,.39-.15,.61h2.86Z" style="fill: #fff;"/>
      <path d="M97.27,53.81c.18-.05,.34-.11,.49-.2,.15-.08,.28-.18,.39-.3,.11-.11,.2-.24,.26-.36,.06-.13,.1-.27,.1-.41,0-.08-.02-.15-.05-.21-.04-.06-.08-.1-.12-.1s-.09,.01-.12,.03c-.03,.02-.06,.04-.1,.07-.03,.02-.07,.04-.11,.06-.04,.02-.11,.03-.18,.03-.08,0-.15-.02-.21-.05-.06-.03-.13-.07-.18-.13-.05-.06-.09-.12-.12-.2-.03-.08-.05-.16-.05-.25s.03-.18,.06-.27c.04-.08,.1-.15,.17-.22,.06-.06,.15-.11,.24-.14,.1-.03,.19-.05,.3-.05,.14,0,.27,.03,.39,.09,.12,.06,.23,.14,.32,.26,.09,.1,.16,.23,.2,.38,.05,.14,.08,.29,.08,.45,0,.25-.05,.49-.14,.7-.1,.21-.22,.4-.39,.57-.16,.16-.35,.29-.56,.38-.21,.1-.43,.16-.68,.17v-.26Z" style="fill: #fff;"/>
      <path d="M101.96,58.83c.15,0,.3-.03,.43-.07,.13-.04,.24-.11,.34-.19,.09-.08,.17-.17,.22-.27,.05-.11,.08-.21,.08-.32,0-.18-.04-.34-.13-.46-.09-.13-.2-.25-.35-.35-.15-.11-.31-.2-.5-.29-.18-.09-.37-.18-.56-.27-.19-.09-.39-.18-.57-.29-.18-.11-.35-.23-.49-.37-.15-.14-.26-.29-.35-.47-.09-.18-.13-.39-.13-.64,0-.23,.05-.45,.14-.64,.1-.2,.24-.37,.41-.51,.18-.14,.39-.26,.63-.34,.24-.08,.5-.12,.79-.12,.19,0,.37,.02,.54,.04,.17,.03,.32,.07,.49,.15,.16,.08,.32,.19,.47,.33,.16,.14,.33,.32,.5,.55l-.43,.38c-.21-.35-.46-.62-.72-.8-.27-.17-.56-.26-.87-.26-.17,0-.31,.02-.45,.06-.14,.04-.25,.09-.35,.16-.1,.07-.17,.16-.23,.25-.05,.09-.08,.19-.08,.29,0,.18,.05,.32,.14,.45,.1,.13,.22,.24,.38,.35,.16,.1,.34,.2,.54,.29,.2,.08,.41,.17,.62,.27,.21,.09,.41,.19,.62,.29,.2,.11,.38,.23,.54,.36,.16,.14,.28,.3,.38,.48,.09,.17,.14,.39,.14,.63s-.05,.48-.14,.69c-.09,.21-.23,.4-.41,.56-.18,.16-.41,.28-.69,.37-.28,.09-.6,.13-.97,.13-.17,0-.34-.01-.51-.04-.18-.03-.35-.08-.54-.15-.18-.08-.36-.19-.55-.32-.18-.14-.35-.32-.53-.55l.47-.42c.14,.19,.27,.36,.4,.5,.13,.14,.26,.26,.39,.34,.13,.09,.27,.15,.41,.19,.14,.04,.29,.06,.46,.06" style="fill: #fff;"/>
      <path d="M111.1,59.23c-.39,0-.76-.07-1.1-.22-.34-.14-.64-.35-.9-.6-.26-.25-.46-.54-.61-.88-.15-.34-.23-.7-.23-1.09,0-.47,.06-.89,.2-1.29,.13-.39,.33-.73,.57-1.02,.25-.29,.54-.51,.89-.67,.35-.17,.74-.25,1.17-.25,.38,0,.72,.07,1.04,.2,.32,.14,.58,.31,.81,.53,.23,.23,.4,.49,.53,.78,.12,.29,.18,.6,.18,.92h-4.3c0,.39,.05,.75,.14,1.07,.1,.33,.24,.62,.42,.86,.18,.24,.4,.43,.65,.56,.25,.13,.52,.21,.82,.21,.25,0,.49-.05,.72-.12,.23-.08,.43-.19,.62-.32,.19-.14,.34-.29,.48-.46,.13-.17,.23-.34,.28-.52l.33,.15c-.08,.29-.21,.57-.4,.83-.18,.26-.4,.48-.65,.68-.24,.2-.51,.35-.8,.46-.3,.11-.59,.17-.89,.17m1.15-4.04c0-.22-.04-.42-.12-.61-.08-.2-.19-.36-.32-.49-.13-.14-.3-.24-.47-.32-.18-.08-.38-.12-.58-.12-.18,0-.34,.04-.5,.12-.16,.08-.29,.18-.42,.32-.12,.13-.23,.3-.31,.49-.08,.18-.13,.39-.15,.61h2.87Z" style="fill: #fff;"/>
      <polygon points="114.62 59.1 114 59.1 116.41 56.16 114.37 53.34 115.72 53.34 117.13 55.27 118.71 53.34 119.34 53.34 117.42 55.68 119.9 59.1 118.56 59.1 116.72 56.56 114.62 59.1" style="fill: #fff;"/>
      <path d="M120.23,53.33h1.15v1.19c.11-.15,.24-.3,.38-.45,.15-.16,.3-.3,.47-.42,.17-.12,.36-.23,.57-.31,.2-.07,.43-.12,.68-.12,.34,0,.65,.08,.93,.21,.28,.14,.51,.34,.71,.58,.2,.25,.35,.53,.46,.86,.11,.33,.17,.68,.17,1.05,0,.48-.06,.92-.2,1.32-.13,.41-.32,.75-.56,1.05-.25,.29-.54,.52-.89,.68-.35,.17-.74,.25-1.17,.25-.32,0-.6-.03-.84-.1-.24-.07-.47-.18-.7-.33v2.74h-1.15v-8.21Zm1.15,4.22c0,.17,.04,.34,.11,.49,.08,.15,.18,.28,.32,.4,.13,.11,.3,.21,.48,.27,.19,.07,.4,.1,.63,.1,.21,0,.41-.05,.61-.16,.19-.11,.35-.27,.49-.47,.14-.2,.25-.44,.33-.72,.08-.28,.12-.58,.12-.92,0-.43-.04-.8-.11-1.12-.08-.32-.18-.58-.32-.79-.13-.21-.29-.36-.47-.47-.19-.1-.39-.16-.61-.16-.16,0-.32,.03-.48,.08-.15,.05-.3,.12-.43,.21-.13,.09-.26,.18-.38,.29-.11,.12-.22,.23-.31,.35v2.62Z" style="fill: #fff;"/>
      <path d="M129.37,59.23c-.39,0-.76-.07-1.1-.22-.34-.14-.64-.35-.9-.6-.26-.25-.46-.54-.61-.88-.15-.34-.22-.7-.22-1.09,0-.47,.06-.89,.2-1.29,.13-.39,.32-.73,.57-1.02,.25-.29,.55-.51,.89-.67,.35-.17,.74-.25,1.17-.25,.38,0,.72,.07,1.04,.2,.31,.14,.58,.31,.81,.53,.23,.23,.4,.49,.53,.78,.13,.29,.19,.6,.19,.92h-4.31c0,.39,.05,.75,.15,1.07,.1,.33,.24,.62,.42,.86,.18,.24,.4,.43,.65,.56,.25,.13,.52,.21,.82,.21,.25,0,.49-.05,.72-.12,.23-.08,.43-.19,.62-.32,.19-.14,.34-.29,.48-.46,.13-.17,.23-.34,.28-.52l.33,.15c-.09,.29-.22,.57-.4,.83-.19,.26-.4,.48-.64,.68-.25,.2-.52,.35-.8,.46-.3,.11-.58,.17-.88,.17m1.14-4.04c0-.22-.04-.42-.11-.61-.08-.2-.19-.36-.32-.49-.13-.14-.3-.24-.47-.32-.18-.08-.38-.12-.58-.12-.18,0-.34,.04-.5,.12-.16,.08-.3,.18-.42,.32-.12,.13-.23,.3-.31,.49-.08,.18-.13,.39-.14,.61h2.86Z" style="fill: #fff;"/>
      <path d="M135.62,59.23c-.38,0-.73-.07-1.06-.23-.33-.14-.62-.35-.86-.61-.24-.26-.44-.56-.58-.91-.14-.34-.21-.72-.21-1.11,0-.44,.08-.85,.24-1.23,.16-.39,.37-.72,.64-1,.27-.28,.58-.51,.95-.67,.36-.17,.76-.25,1.17-.25,.32,0,.62,.04,.89,.1,.27,.07,.5,.17,.7,.29,.2,.13,.35,.27,.46,.44,.11,.17,.17,.35,.17,.54,0,.09-.03,.17-.06,.25-.05,.08-.1,.14-.18,.2-.07,.05-.15,.1-.24,.13-.09,.03-.19,.05-.28,.05-.1,0-.2-.02-.28-.06-.08-.03-.16-.08-.21-.14-.06-.06-.11-.13-.13-.2-.03-.07-.05-.15-.05-.23,0-.13-.01-.26-.04-.38-.03-.12-.08-.21-.15-.3-.07-.08-.17-.15-.29-.19-.13-.05-.28-.07-.48-.07-.26,0-.49,.05-.7,.16-.21,.1-.38,.25-.53,.43-.14,.17-.25,.38-.33,.62-.08,.24-.11,.5-.11,.78,0,.36,.05,.71,.14,1.05,.1,.33,.23,.61,.41,.86,.18,.25,.39,.44,.63,.58,.25,.14,.53,.22,.83,.22,.26,0,.5-.04,.69-.13,.2-.08,.37-.19,.51-.34,.14-.14,.27-.31,.38-.5,.1-.19,.19-.39,.28-.6l.35,.14c-.1,.36-.23,.69-.39,.97-.17,.29-.36,.53-.59,.72-.22,.2-.47,.35-.75,.45-.28,.1-.59,.15-.92,.15" style="fill: #fff;"/>
      <path d="M142.42,58.37c-.16,.26-.35,.47-.61,.63-.25,.16-.57,.23-.94,.23-.19,0-.35-.03-.5-.1-.14-.07-.26-.16-.35-.27-.09-.12-.16-.26-.2-.42-.05-.17-.07-.35-.07-.55v-4.07h-1v-.28c.32,0,.58-.06,.79-.17,.21-.12,.38-.28,.51-.47,.13-.2,.24-.43,.31-.69,.08-.27,.14-.54,.2-.84h.32v1.97h1.3v.48h-1.3v4.07c0,.08,.02,.16,.05,.24,.03,.07,.08,.14,.13,.19,.06,.05,.12,.1,.2,.13,.07,.03,.16,.05,.24,.05,.13,0,.25-.04,.35-.1,.11-.06,.2-.14,.28-.24l.28,.2Z" style="fill: #fff;"/>
      <path d="M147.35,59.1h-1.14v-.79c-.13,.1-.27,.21-.4,.32-.13,.1-.28,.2-.42,.29-.16,.09-.33,.16-.51,.22-.19,.06-.4,.08-.64,.08s-.43-.04-.61-.11c-.18-.07-.34-.18-.47-.31-.13-.13-.23-.28-.3-.45-.07-.17-.11-.37-.11-.57,0-.25,.06-.47,.16-.67,.1-.2,.23-.38,.4-.53,.17-.16,.36-.3,.6-.42,.23-.12,.47-.23,.72-.32,.26-.1,.52-.19,.79-.26,.27-.08,.54-.15,.79-.21v-.36c0-.26-.03-.49-.08-.66-.05-.18-.12-.32-.22-.44-.1-.11-.21-.19-.35-.24-.14-.05-.29-.07-.46-.07-.19,0-.35,.02-.47,.07-.12,.05-.22,.12-.29,.2-.07,.08-.12,.17-.14,.28-.03,.11-.04,.21-.04,.32s0,.2-.02,.29c-.02,.09-.05,.18-.09,.25-.04,.07-.1,.13-.18,.17-.07,.04-.17,.06-.28,.06-.18,0-.33-.06-.44-.19-.11-.13-.17-.29-.17-.48s.06-.37,.19-.54c.13-.16,.3-.3,.5-.42,.21-.12,.47-.21,.75-.28,.28-.07,.57-.1,.89-.1,.38,0,.7,.04,.96,.11,.26,.07,.47,.17,.63,.3,.16,.13,.28,.3,.35,.49,.07,.19,.1,.4,.1,.63v4.36Zm-1.14-3.36c-.25,.07-.5,.18-.78,.29-.27,.11-.51,.24-.75,.39-.23,.15-.41,.31-.56,.49-.15,.18-.22,.37-.22,.57,0,.14,.03,.28,.08,.4,.05,.12,.12,.24,.2,.34,.09,.09,.19,.17,.3,.22,.11,.06,.23,.09,.35,.09,.13,0,.25-.02,.37-.05,.11-.04,.23-.08,.34-.14,.11-.05,.22-.12,.33-.2,.11-.08,.22-.16,.34-.25v-2.15Z" style="fill: #fff;"/>
      <path d="M151.95,58.37c-.15,.26-.35,.47-.61,.63-.25,.16-.57,.23-.94,.23-.19,0-.36-.03-.5-.1-.14-.07-.26-.16-.35-.27-.09-.12-.16-.26-.2-.42-.05-.17-.07-.35-.07-.55v-4.07h-1v-.28c.32,0,.58-.06,.79-.17,.21-.12,.38-.28,.51-.47,.13-.2,.24-.43,.31-.69,.08-.27,.14-.54,.2-.84h.33v1.97h1.3v.48h-1.3v4.07c0,.08,.02,.16,.05,.24,.03,.07,.08,.14,.13,.19,.05,.05,.12,.1,.19,.13,.08,.03,.16,.05,.25,.05,.12,0,.25-.04,.35-.1,.11-.06,.2-.14,.28-.24l.28,.2Z" style="fill: #fff;"/>
      <path d="M153.26,50.38c.09,0,.17,.01,.25,.05,.08,.03,.15,.07,.21,.13,.06,.05,.11,.11,.15,.18,.04,.07,.05,.15,.05,.22,0,.08-.02,.15-.05,.22-.04,.06-.09,.13-.15,.18-.06,.05-.13,.09-.21,.13-.08,.02-.17,.04-.25,.04-.09,0-.17-.02-.25-.04-.08-.03-.15-.08-.21-.13-.06-.06-.11-.12-.14-.18-.03-.07-.05-.14-.05-.22,0-.07,.02-.15,.05-.22,.04-.07,.09-.13,.14-.18,.06-.05,.13-.09,.21-.13,.08-.03,.16-.05,.25-.05m-.56,3.17l.8-.33h.34v5.88h-1.14v-5.56Z" style="fill: #fff;"/>
      <path d="M158.05,59.23c-.45,0-.85-.07-1.22-.23-.37-.16-.69-.36-.97-.63-.27-.27-.49-.58-.64-.93-.15-.36-.23-.73-.23-1.14s.08-.82,.23-1.2c.15-.37,.36-.69,.64-.97,.27-.28,.6-.5,.97-.66,.38-.16,.78-.24,1.22-.24s.84,.07,1.21,.22c.37,.15,.69,.35,.97,.6,.27,.26,.48,.56,.63,.9,.16,.34,.23,.72,.23,1.11,0,.43-.08,.85-.23,1.23-.15,.38-.36,.72-.63,1.01-.27,.28-.6,.52-.97,.68-.37,.17-.77,.25-1.21,.25m.21-.42c.23,0,.44-.06,.63-.17,.18-.12,.34-.27,.48-.47,.14-.2,.25-.43,.32-.69,.08-.26,.12-.54,.12-.83,0-.42-.04-.81-.11-1.17-.07-.36-.19-.68-.35-.96-.16-.27-.38-.49-.63-.64-.25-.16-.57-.24-.94-.24-.19,0-.38,.06-.56,.17-.18,.11-.34,.27-.48,.46-.13,.19-.25,.42-.33,.68-.09,.26-.12,.53-.12,.82,0,.42,.04,.81,.13,1.18,.09,.37,.22,.69,.39,.96,.17,.27,.38,.49,.62,.65,.25,.16,.53,.24,.84,.24" style="fill: #fff;"/>
      <path d="M162.18,53.33h1.15v1.05c.35-.39,.72-.68,1.09-.88,.38-.19,.76-.29,1.15-.29,.2,0,.39,.04,.57,.14,.18,.09,.33,.21,.46,.37,.13,.16,.23,.34,.31,.55,.07,.21,.11,.44,.11,.68v4.14h-1.15v-3.95c0-.38-.09-.67-.26-.87-.17-.19-.39-.29-.66-.29-.12,0-.25,.02-.39,.06-.13,.04-.28,.1-.41,.17-.14,.08-.28,.16-.42,.27-.14,.1-.27,.22-.41,.34v4.27h-1.15v-5.77Z" style="fill: #fff;"/>
      <path d="M136.51,35.35h-6.62v1.74h6.89v1.95h-6.89v1.9h8.08v2.06h-8.08v2.39c.4,0,.81,0,1.25,.03,3.25,0,5.68-.07,7.27-.22l-.46,2.85c-8.57,0-13.81-.2-15.7-.6-1.72-.42-3.08-1.08-4.1-1.98-.11-.09-.21-.17-.3-.24-.87,1.1-2.05,2.26-3.55,3.47l-1.49-2.6c1.46-.98,2.58-2.04,3.36-3.2-.81-1.41-1.69-3.28-2.63-5.62l2.28-.84c.63,1.54,1.2,2.81,1.71,3.82,.05-.13,.1-.24,.14-.35,.38-1.19,.62-2.85,.73-4.96h-4.8v-1.76c1.74-2.03,3.29-4.25,4.67-6.67h-5.02v-2.06h7.92v2.39c-1.57,2.53-2.99,4.56-4.26,6.08h4.15c-.07,3.13-.39,5.63-.95,7.51-.24,.89-.52,1.69-.87,2.41,.67,.76,1.65,1.34,2.93,1.74,1.05,.33,2.79,.56,5.23,.7v-2.28h-6.56v-2.06h6.56v-1.9h-5.37v-1.95h5.37v-1.74h-5.05v-1.95h5.05v-2.22h-6.56v-2.06h6.56v-2.01h-5.05v-1.95h5.05v-1.95h2.5v1.95h6.62v3.96h1.57v2.06h-1.57v4.18Zm-6.62-8.25v2.01h4.12v-2.01h-4.12Zm0,4.07v2.22h4.12v-2.22h-4.12Z" style="fill: #fff;"/>
      <path d="M147.55,23.2c.4,.92,.79,1.95,1.17,3.09h3.88v2.28h-10.52v-2.28h4.07c-.38-.98-.8-1.87-1.25-2.68l2.66-.41Zm3.91,15.35v8.03h-6.08v2.01h-2.5v-10.04h8.57Zm-8.41-8.08h8.46v2.17h-8.46v-2.17Zm0,4.01h8.46v2.17h-8.46v-2.17Zm2.33,9.82h3.58v-3.47h-3.58v3.47Zm18.55-20.4v6.37c0,.69,.34,1.03,1.03,1.03h2.17v2.52h-2.79c-1.07,0-1.84-.23-2.33-.68-.52-.45-.79-1.25-.79-2.39v-4.58h-4.18c-.05,1.86-.22,3.21-.49,4.04-.32,1.09-1.18,2.36-2.58,3.82l-2.03-1.76c1.16-1.27,1.88-2.27,2.17-3.01,.22-.69,.33-2.48,.33-5.37h9.49Zm-10.88,10.52h12.02v1.95c-.65,2.78-1.76,5.19-3.34,7.21,1.55,.94,3.5,1.75,5.83,2.44l-1.65,2.44c-2.58-.9-4.64-1.88-6.16-2.93-1.57,1.21-3.67,2.26-6.29,3.15l-1.52-2.31c2.35-.74,4.24-1.6,5.67-2.58-1.59-1.52-2.9-3.28-3.93-5.29l2.28-1.33c.98,1.97,2.21,3.59,3.71,4.85,1.25-1.46,2.16-3.24,2.74-5.34h-9.36v-2.28Z" style="fill: #fff;"/>
      <path d="M55.81,28.75h9.88v-5.14h2.86v5.14h9.99v12.68h-9.99v6.82h-2.86v-6.82h-9.88v-12.68Zm9.88,10.27v-7.87h-6.97v7.87h6.97Zm9.95,0v-7.87h-7.09v7.87h7.09Z" style="fill: #fff;"/>
      <path d="M83.77,24.66h8.63v1.89c-.64,2.02-1.39,4.18-2.24,6.47,.72,1.22,1.23,2.34,1.55,3.31,.39,1.01,.59,1.87,.59,2.59v.05c.76-.45,1.43-.93,2.02-1.43,.48-.38,.93-.9,1.38-1.55h-3.62v-2.13h16.92v2.13h-10.5c-.28,.54-.6,1.02-.95,1.44h10.67c-.06,5.69-.6,8.94-1.61,9.75-.54,.71-2.4,1.07-5.6,1.07l-.53-2.51c.8,.14,1.47,.21,1.99,.21,1,0,1.76-.22,2.28-.66,.48-.4,.78-2.32,.91-5.77h-.97c-1.15,2.24-2.34,3.91-3.51,5.01-1.48,1.45-3.66,2.7-6.57,3.73l-1.33-2.02c2.66-.89,4.73-1.97,6.2-3.24,.96-.86,1.84-2.01,2.65-3.47h-1.87c-.78,1.19-1.75,2.2-2.92,3.05-1.4,1.1-3.2,2.13-5.39,3.07l-1.47-1.81c1.97-.75,3.62-1.56,4.96-2.44,.75-.47,1.45-1.09,2.1-1.86h-1.95c-.89,.75-1.95,1.46-3.2,2.11l-.47-.58c-.16,.34-.35,.64-.56,.86-.59,.72-1.87,1.08-3.85,1.08l-.8-2.51c.5,.07,.94,.1,1.33,.1,.54,0,.91-.13,1.13-.36,.29-.2,.45-.62,.45-1.29,0-.8-.14-1.56-.41-2.28-.29-.93-.86-2.01-1.69-3.27,1.01-2.52,1.75-4.66,2.22-6.38h-3.33v21.28h-2.65V24.66Zm9.3-.2h14.18v8.17h-14.18v-8.17Zm2.54,3.11h9.06v-1.36h-9.06v1.36Zm9.06,3.25v-1.55h-9.06v1.55h9.06Z" style="fill: #fff;"/>
    </g>
  </g>
</svg>