<?xml version="1.0" encoding="UTF-8"?>
<svg id="_圖層_2" data-name="圖層 2" xmlns="http://www.w3.org/2000/svg" width="172.48" height="54.44" viewBox="0 0 172.48 54.44">
  <g id="_設計" data-name="設計">
    <g>
      <g>
        <path d="M41.96,54.44c-.29,0-.57-.11-.78-.34-.41-.43-.39-1.11,.05-1.52,2.9-2.73,4.45-5.91,4.47-9.19,.02-4.38-2.66-8.55-7.54-11.73-5.03-3.28-11.76-5.1-18.94-5.14-.07,0-.14,0-.21,0-6.4,0-12.57,1.47-17.4,4.14-.52,.29-1.18,.1-1.46-.42-.29-.52-.1-1.17,.42-1.46,5.2-2.88,11.83-4.46,18.66-4.41,7.59,.04,14.73,1.99,20.1,5.49,5.52,3.6,8.55,8.41,8.52,13.55-.02,3.88-1.8,7.6-5.14,10.74-.21,.2-.47,.29-.74,.29Z" style="fill: #fff;"/>
        <path d="M54.94,21.4c-.66-.84-1.87-.99-2.72-.34l-.07,.06L37.51,0,16.81,39.89l4.17,2.46c.34,.2,.72,.3,1.09,.3,.74,0,1.45-.38,1.86-1.06,.6-1.02,.27-2.34-.76-2.95l-.66-.39L38.26,7.89l13.03,18.81,3.31-2.58c.84-.66,.99-1.88,.34-2.72Z" style="fill: #fff;"/>
      </g>
      <rect x="73.3" width=".34" height="54.44" style="fill: #fff;"/>
      <g>
        <g>
          <path d="M91.6,.65h3.97c1.87,0,3.32,.56,4.36,1.69,1.04,1.13,1.55,2.75,1.55,4.86s-.51,3.7-1.53,4.81c-1.02,1.11-2.48,1.66-4.38,1.66h-3.97V.65Zm3.99,12.06c2.83,0,4.25-1.84,4.25-5.51s-1.42-5.59-4.27-5.59h-2.44V12.71h2.46Z" style="fill: #fff;"/>
          <path d="M109.31,1.81l-3.95,11.86h-1.06L108.69,.65h1.78l4.31,13.03h-1.58l-3.89-11.86Z" style="fill: #fff;"/>
          <path d="M118.72,13.67V.65h1.52V12.71h5.79v.96h-7.31Z" style="fill: #fff;"/>
          <path d="M130.33,13.67V.65h1.52V13.67h-1.52Z" style="fill: #fff;"/>
          <path d="M143.31,1.81l-3.95,11.86h-1.06l4.39-13.03h1.78l4.31,13.03h-1.58l-3.89-11.86Z" style="fill: #fff;"/>
          <path d="M155.66,7.94h.18c.87,0,1.52-.25,1.96-.74,.44-.49,.66-1.33,.66-2.5,0-2.11-.94-3.17-2.8-3.17h-1.44V13.67h-1.52V.65h3.15c1.32,0,2.36,.34,3.1,1.03,.75,.69,1.12,1.67,1.12,2.96,0,1.03-.22,1.87-.66,2.52-.44,.65-1.02,1.12-1.74,1.4l3.27,5.11h-1.74l-3.53-5.73Z" style="fill: #fff;"/>
          <path d="M167.23,13.67V1.61h-3.71V.65h8.96v.96h-3.73V13.67h-1.52Z" style="fill: #fff;"/>
        </g>
        <g>
          <path d="M130.33,32.59v-13.02h1.52v12.05h5.78v.96h-7.31Z" style="fill: #fff;"/>
          <path d="M93.03,31.02c-.94-1.18-1.4-2.81-1.4-4.91s.51-3.77,1.52-4.95c1.01-1.18,2.45-1.77,4.3-1.77,.61,0,1.2,.08,1.77,.24,.57,.16,1.05,.34,1.45,.54,.4,.2,.6,.31,.6,.32l-.18,.96s-.2-.11-.58-.3c-.38-.19-.84-.36-1.35-.52-.51-.16-1.03-.24-1.55-.24-1.48,0-2.58,.48-3.29,1.43-.72,.95-1.07,2.39-1.07,4.29s.35,3.28,1.04,4.24c.69,.95,1.66,1.43,2.9,1.43,1,0,1.73-.24,2.18-.72,.46-.48,.75-.96,.88-1.44v-2.94h-2.66v-.86h3.94v6.77h-.74l-.38-1.42c-.32,.47-.76,.86-1.32,1.16-.56,.31-1.27,.46-2.12,.46-1.69,0-3.01-.59-3.94-1.76Z" style="fill: #fff;"/>
          <path d="M141.36,32.59v-13.02h7.01v.96h-5.49v5h5.02v.92h-5.02v5.17h5.92v.96h-7.44Z" style="fill: #fff;"/>
          <path d="M166.72,32.59v-5.39l-4.31-7.63h1.7l3.58,6.41,3.56-6.41h1.22l-4.24,7.53v5.49h-1.52Z" style="fill: #fff;"/>
          <path d="M109.99,20.74l-3.94,11.85h-1.06l4.38-13.02h1.78l4.3,13.02h-1.58l-3.88-11.85Z" style="fill: #fff;"/>
          <path d="M119.36,32.59v-13.02h1.52v12.05h5.78v.96h-7.31Z" style="fill: #fff;"/>
          <path d="M155.66,26.86h.18c.87,0,1.52-.24,1.96-.74,.44-.49,.66-1.33,.66-2.5,0-2.11-.94-3.17-2.81-3.17h-1.44v12.14h-1.52v-13.02h3.14c1.32,0,2.35,.34,3.1,1.03,.75,.69,1.12,1.67,1.12,2.96,0,1.03-.22,1.87-.66,2.52-.44,.66-1.02,1.12-1.74,1.4l3.26,5.11h-1.74l-3.52-5.73Z" style="fill: #fff;"/>
        </g>
        <g>
          <path d="M98.95,40.84v-2.59h-1.35v2.59h-6v7.85h6v5.1h1.35v-5.1h6v-7.85h-6Zm-6,7.17v-6.5h4.65v6.5h-4.65Zm6,0v-6.5h4.65v6.5h-4.65Z" style="fill: #fff;"/>
          <g>
            <rect x="136.09" y="48.69" width="13.73" height=".67" style="fill: #fff;"/>
            <path d="M136.09,51.07h2.12c.03,.36,.01,1.13-.19,1.63-.48,0-.78-.02-.79-.02l-.04,.94c.08,0,.74,.03,1.68,.03,2.08,0,6.23-.25,8.08-1.15,.16,.27,.48,.86,.69,1.28h1.59c-.58-1.14-1.29-2.22-1.67-2.72h2.27v-.67h-13.73v.67Zm3.46,0h6.99l-.4,.4s.09,.07,.25,.26c-1.56,.69-5.04,.95-7.01,.98,.18-.6,.19-1.28,.17-1.64Z" style="fill: #fff;"/>
            <path d="M146.65,40.15h3.16v-.67h-3.16v-1.23h-1.34v1.23h-5.07v-1.23h-1.34v1.23h-2.82v.67h2.82v1h-2.82v.67h2.82v1.28h-2.82v.67h.82c.02,.42,0,1-.28,1.48h-.55v.67h2.82v1.06h-2.82v.67h6.56v-.67h-2.4v-1.06h4.37c-.18,.48-.4,.89-.66,1.25l1.08,.79c.42-.58,.76-1.25,1.01-2.04h1.29v-.67h-1.11c.22-.91,.35-2.13,.4-3.42h1.16c0,.89-.07,4.58,.91,6.09l1.13-.72c-.86-1.34-.72-4.85-.72-6.04h-2.45c0-.3,.01-.4,.01-.72v-.28Zm-8.62,5.09c.21-.6,.23-1.08,.22-1.48h2.61c-.02,.39,0,.87,.22,1.48h-3.05Zm6.79,0h-2.34c-.27-.48-.3-1.06-.28-1.48h1.21v-.67h-3.19v-1.28h5.04c-.06,1.32-.21,2.54-.45,3.42Zm.49-4.81c0,.32,0,.42-.01,.72h-5.06v-1h5.07v.28Z" style="fill: #fff;"/>
          </g>
          <g>
            <path d="M127.48,47.66v-.63h-6.51c.2-.41,.28-.68,.36-1.12h6.15v-.67h-8.51v.67h1.07c-.2,.62-.73,1.5-1.9,2.83l.98,.91c.68-.77,1.15-1.42,1.48-1.95h1.1c-.33,.77-1.12,2.42-3.39,4.24l.84,1.05c3.05-2.44,3.8-4.7,3.99-5.29h.87c-.18,.84-.62,3.06-2.57,4.87l.92,.98c2.43-2.27,2.88-5.03,3.02-5.85h.76c.03,1.32-.12,4.12-1.19,5.09l.9,1c1.6-1.44,1.67-4.93,1.64-6.13Z" style="fill: #fff;"/>
            <path d="M126.54,38.25h-6.79v5.87h6.79v-5.87Zm-1.34,5.2h-4.1v-1.94h4.1v1.94Zm0-2.61h-4.1v-1.92h4.1v1.92Z" style="fill: #fff;"/>
            <path d="M118.67,38.25h-4.92v15.44h1.34v-4.38c1.32-.07,1.98-.66,2.3-1.17,.98-1.58,.25-4.14-.13-4.99l1.41-4.9Zm-2.73,5.24c.34,.7,.93,2.94,.31,3.93-.08,.12-.31,.48-1.16,.54v-9.04h1.96l-1.23,4.33,.12,.24Z" style="fill: #fff;"/>
          </g>
          <g>
            <rect x="162.44" y="44.95" width="1.34" height="8.78" style="fill: #fff;"/>
            <path d="M166.3,42.19v-3.93h-1.35v3.93h-4.09v.02h-.02s-.49,2.18-2.75,4.49l.97,.95c.31-.31,.58-.63,.84-.93v7.09h1.35v-9.07c.45-.81,.69-1.47,.81-1.86h2.9v10.93h1.35v-10.93h3.7v10.93h1.35v-10.93h1.12v-.67h-6.18Z" style="fill: #fff;"/>
            <rect x="167.46" y="44.95" width="1.34" height="8.78" style="fill: #fff;"/>
            <rect x="167.89" y="39.55" width="4.46" height=".7" style="fill: #fff;"/>
            <path d="M162.22,38.73l-1.26-.48s-.81,2.05-2.87,3.53l.79,1.1c2.4-1.72,3.3-4.04,3.34-4.14Z" style="fill: #fff;"/>
          </g>
        </g>
      </g>
    </g>
  </g>
</svg>