<?xml version="1.0" encoding="UTF-8"?>
<svg id="_圖層_2" data-name="圖層 2" xmlns="http://www.w3.org/2000/svg" width="106.61" height="39.28" viewBox="0 0 106.61 39.28">
  <g id="_設計" data-name="設計">
    <g>
      <g>
        <polygon points="20.18 16.75 10.35 37.7 12.94 37.7 20.18 22.34 20.18 16.75" style="fill: #0062b0;"/>
        <polygon points="20.18 0 34.75 31.31 32.15 31.31 20.18 5.58 20.18 0" style="fill: #009844;"/>
        <polygon points="20.18 5.58 5.17 37.7 7.78 37.7 20.18 11.17 20.18 5.58" style="fill: #888;"/>
        <polygon points="20.18 11.17 29.55 31.31 26.95 31.31 20.18 16.75 20.18 11.17" style="fill: #888;"/>
        <polygon points="20.18 22.34 24.35 31.31 21.75 31.31 20.18 27.92 20.18 22.34" style="fill: #0062b0;"/>
        <polygon points="0 37.7 2.6 37.7 20.18 0 20.18 0 17.58 0 0 37.7" style="fill: #009844;"/>
      </g>
      <path d="M18.58,32.84l2.25,4.88h-.81l-.73-1.59h-2.04l-.75,1.59h-.4l2.3-4.88h.2Zm-1.2,2.98h1.76l-.87-1.89-.89,1.89Z" style="fill: #888;"/>
      <path d="M21.27,32.36l.52-.21h.21v2.57c.06-.11,.14-.2,.24-.3,.09-.09,.2-.17,.32-.24,.11-.07,.23-.12,.36-.16,.12-.04,.24-.06,.36-.06,.21,0,.41,.04,.59,.13,.18,.09,.34,.21,.47,.35,.13,.15,.23,.32,.3,.52,.07,.2,.11,.41,.11,.64,0,.2-.02,.4-.07,.58-.05,.19-.12,.37-.21,.53-.09,.16-.19,.31-.32,.45-.13,.13-.26,.25-.42,.34-.15,.1-.32,.17-.49,.22-.18,.05-.36,.08-.55,.08-.27,0-.53-.03-.77-.11-.24-.07-.45-.18-.64-.33v-5Zm.73,4.76s.1,.09,.15,.13c.05,.05,.12,.09,.18,.12,.07,.04,.14,.07,.22,.09,.09,.02,.17,.03,.28,.03,.17,0,.33-.04,.47-.12,.14-.08,.26-.2,.36-.34,.1-.15,.17-.33,.23-.53,.05-.2,.08-.42,.08-.66,0-.18-.03-.35-.09-.51-.06-.16-.13-.3-.23-.42-.1-.12-.21-.21-.34-.28-.13-.07-.27-.1-.42-.1-.09,0-.17,.01-.26,.03-.08,.03-.17,.06-.25,.1-.08,.04-.15,.09-.22,.14-.07,.06-.12,.12-.17,.18v2.14Z" style="fill: #888;"/>
      <path d="M27.21,37.8c-.28,0-.54-.05-.78-.15-.24-.1-.45-.23-.62-.4-.18-.17-.31-.37-.41-.6-.1-.23-.14-.47-.14-.73s.05-.53,.14-.77c.1-.24,.23-.44,.41-.62,.17-.18,.38-.32,.62-.42,.24-.1,.5-.15,.78-.15s.54,.05,.78,.14c.24,.1,.44,.22,.61,.39,.17,.16,.31,.36,.41,.58,.1,.22,.14,.46,.14,.71,0,.28-.05,.54-.14,.79-.1,.24-.23,.46-.41,.64-.17,.18-.38,.33-.61,.44-.24,.11-.5,.16-.78,.16m.14-.27c.15,0,.28-.04,.39-.11,.12-.08,.23-.17,.31-.3,.09-.13,.16-.27,.21-.44,.05-.17,.07-.34,.07-.53,0-.27-.02-.52-.07-.75-.04-.23-.12-.44-.22-.61-.1-.17-.24-.31-.4-.41-.16-.1-.37-.15-.61-.15-.12,0-.24,.04-.35,.11-.11,.07-.22,.17-.3,.29-.09,.12-.16,.27-.21,.43-.05,.16-.08,.34-.08,.53,0,.27,.03,.52,.09,.76,.06,.23,.14,.44,.25,.61,.11,.17,.24,.31,.4,.42,.15,.1,.34,.15,.53,.15" style="fill: #888;"/>
      <polygon points="30.21 34.04 31.51 36.83 32.76 34.04 33.09 34.04 31.43 37.77 31.18 37.77 29.44 34.04 30.21 34.04" style="fill: #888;"/>
      <path d="M35.17,37.8c-.25,0-.48-.05-.7-.14-.22-.09-.41-.22-.57-.38-.16-.16-.29-.35-.39-.56-.1-.22-.14-.45-.14-.69,0-.3,.04-.57,.13-.82,.09-.25,.21-.47,.37-.65,.16-.18,.35-.33,.57-.42,.22-.11,.47-.16,.75-.16,.24,0,.46,.04,.66,.13,.2,.09,.37,.2,.52,.34,.14,.14,.26,.31,.34,.49,.08,.19,.12,.38,.12,.59h-2.75c0,.25,.03,.48,.1,.68,.06,.21,.15,.39,.27,.55,.12,.15,.25,.27,.41,.36,.16,.09,.34,.13,.53,.13,.16,0,.31-.03,.46-.08,.15-.05,.28-.12,.4-.2,.12-.09,.22-.18,.3-.29,.08-.11,.14-.22,.18-.33l.21,.1c-.05,.19-.14,.36-.25,.53-.12,.16-.25,.31-.41,.43-.16,.13-.33,.22-.52,.29-.18,.07-.37,.11-.56,.11m.73-2.58c0-.14-.02-.27-.08-.39-.05-.12-.11-.23-.2-.32-.09-.09-.18-.16-.3-.21-.12-.05-.24-.08-.37-.08-.11,0-.22,.03-.32,.08-.1,.05-.19,.12-.27,.21-.08,.09-.14,.19-.2,.31-.05,.12-.08,.25-.09,.39h1.83Z" style="fill: #888;"/>
      <path d="M39.65,34.04h.73v.76c.07-.1,.15-.19,.24-.29,.09-.1,.19-.19,.3-.27,.11-.08,.23-.15,.36-.2,.13-.05,.27-.08,.43-.08,.22,0,.42,.05,.6,.14,.17,.09,.33,.22,.46,.37,.13,.16,.22,.34,.29,.55,.07,.21,.1,.43,.1,.67,0,.3-.04,.59-.12,.84-.08,.26-.2,.48-.36,.67-.16,.18-.35,.33-.57,.44-.23,.11-.47,.16-.75,.16-.21,0-.38-.02-.53-.06-.15-.04-.3-.11-.45-.21v1.75h-.73v-5.24Zm.73,2.69c0,.11,.02,.22,.07,.31,.05,.1,.11,.18,.2,.26,.09,.07,.19,.13,.31,.17,.12,.04,.25,.06,.4,.06,.14,0,.26-.03,.38-.1,.12-.07,.23-.17,.32-.3,.09-.13,.16-.28,.22-.46,.05-.18,.08-.37,.08-.59,0-.27-.02-.51-.07-.71-.05-.2-.12-.37-.2-.51-.09-.13-.18-.23-.3-.3-.12-.07-.24-.1-.38-.1-.11,0-.21,.02-.31,.05-.1,.03-.19,.08-.27,.13-.09,.05-.16,.12-.24,.19-.07,.07-.14,.15-.2,.23v1.67Z" style="fill: #888;"/>
      <path d="M45.49,37.8c-.25,0-.48-.05-.7-.14-.22-.09-.41-.22-.57-.38-.16-.16-.29-.35-.39-.56-.1-.22-.14-.45-.14-.69,0-.3,.04-.57,.13-.82,.09-.25,.21-.47,.37-.65,.16-.18,.35-.33,.57-.42,.22-.11,.47-.16,.74-.16,.24,0,.47,.04,.66,.13,.21,.09,.38,.2,.52,.34,.14,.14,.26,.31,.34,.49,.08,.19,.12,.38,.12,.59h-2.75c0,.25,.03,.48,.1,.68,.06,.21,.15,.39,.27,.55,.12,.15,.25,.27,.41,.36,.16,.09,.33,.13,.52,.13,.16,0,.31-.03,.46-.08,.14-.05,.28-.12,.4-.2,.12-.09,.22-.18,.3-.29,.08-.11,.14-.22,.18-.33l.21,.1c-.05,.19-.14,.36-.25,.53-.12,.16-.25,.31-.41,.43-.16,.13-.33,.22-.51,.29-.19,.07-.37,.11-.57,.11m.73-2.58c0-.14-.02-.27-.07-.39-.05-.12-.12-.23-.21-.32-.09-.09-.18-.16-.3-.21-.12-.05-.24-.08-.37-.08-.11,0-.22,.03-.31,.08-.1,.05-.19,.12-.27,.21-.08,.09-.14,.19-.2,.31-.05,.12-.09,.25-.1,.39h1.83Z" style="fill: #888;"/>
      <path d="M49.71,37.8c-.28,0-.54-.05-.78-.15-.24-.1-.44-.23-.62-.4-.17-.17-.31-.37-.4-.6-.1-.23-.14-.47-.14-.73s.05-.53,.14-.77c.1-.24,.23-.44,.4-.62,.18-.18,.38-.32,.62-.42,.24-.1,.5-.15,.78-.15s.53,.05,.77,.14c.24,.1,.44,.22,.61,.39,.17,.16,.31,.36,.41,.58,.1,.22,.15,.46,.15,.71,0,.28-.05,.54-.15,.79-.1,.24-.23,.46-.41,.64-.17,.18-.37,.33-.61,.44-.24,.11-.5,.16-.77,.16m.14-.27c.14,0,.27-.04,.39-.11,.12-.08,.23-.17,.31-.3,.09-.13,.15-.27,.2-.44,.05-.17,.07-.34,.07-.53,0-.27-.02-.52-.07-.75-.04-.23-.12-.44-.22-.61-.1-.17-.23-.31-.4-.41-.16-.1-.37-.15-.61-.15-.12,0-.24,.04-.36,.11-.11,.07-.21,.17-.3,.29-.09,.12-.16,.27-.21,.43-.05,.16-.08,.34-.08,.53,0,.27,.03,.52,.09,.76,.06,.23,.14,.44,.25,.61,.11,.17,.24,.31,.4,.42,.16,.1,.34,.15,.54,.15" style="fill: #888;"/>
      <path d="M52.35,34.04h.73v.76c.07-.1,.16-.19,.25-.29,.09-.1,.19-.19,.3-.27,.11-.08,.23-.15,.36-.2,.13-.05,.27-.08,.43-.08,.22,0,.41,.05,.59,.14,.18,.09,.33,.22,.46,.37,.13,.16,.22,.34,.29,.55,.07,.21,.1,.43,.1,.67,0,.3-.04,.59-.12,.84-.09,.26-.21,.48-.36,.67-.16,.18-.35,.33-.57,.44-.22,.11-.47,.16-.75,.16-.2,0-.38-.02-.53-.06-.15-.04-.3-.11-.45-.21v1.75h-.73v-5.24Zm.73,2.69c0,.11,.02,.22,.07,.31,.05,.1,.12,.18,.2,.26,.09,.07,.19,.13,.31,.17,.12,.04,.25,.06,.4,.06s.26-.03,.39-.1c.12-.07,.23-.17,.32-.3,.09-.13,.16-.28,.21-.46,.05-.18,.08-.37,.08-.59,0-.27-.03-.51-.08-.71-.05-.2-.12-.37-.2-.51-.09-.13-.19-.23-.3-.3-.12-.07-.25-.1-.38-.1-.11,0-.21,.02-.3,.05-.1,.03-.19,.08-.27,.13-.09,.05-.17,.12-.24,.19-.08,.07-.14,.15-.2,.23v1.67Z" style="fill: #888;"/>
      <polygon points="57.31 37.72 56.58 37.72 56.58 32.36 57.1 32.16 57.31 32.16 57.31 37.72" style="fill: #888;"/>
      <path d="M59.83,37.8c-.25,0-.48-.05-.7-.14-.22-.09-.41-.22-.57-.38-.16-.16-.29-.35-.39-.56-.1-.22-.14-.45-.14-.69,0-.3,.04-.57,.13-.82,.09-.25,.21-.47,.37-.65,.16-.18,.35-.33,.57-.42,.22-.11,.47-.16,.74-.16,.24,0,.46,.04,.66,.13,.2,.09,.37,.2,.52,.34,.14,.14,.26,.31,.34,.49,.08,.19,.12,.38,.12,.59h-2.75c0,.25,.03,.48,.09,.68,.07,.21,.15,.39,.27,.55,.12,.15,.25,.27,.41,.36,.16,.09,.33,.13,.52,.13,.16,0,.32-.03,.46-.08,.15-.05,.28-.12,.4-.2,.12-.09,.22-.18,.3-.29,.09-.11,.14-.22,.18-.33l.21,.1c-.05,.19-.14,.36-.26,.53-.12,.16-.25,.31-.41,.43-.16,.13-.33,.22-.51,.29-.18,.07-.37,.11-.57,.11m.73-2.58c0-.14-.02-.27-.08-.39-.05-.12-.12-.23-.2-.32-.09-.09-.19-.16-.3-.21-.12-.05-.24-.08-.37-.08-.11,0-.22,.03-.32,.08-.1,.05-.19,.12-.27,.21-.08,.09-.15,.19-.2,.31-.05,.12-.09,.25-.1,.39h1.83Z" style="fill: #888;"/>
      <path d="M62.09,34.35c.11-.03,.22-.07,.31-.13,.1-.05,.18-.12,.25-.19,.07-.07,.13-.15,.17-.23,.04-.09,.06-.17,.06-.26,0-.05-.01-.1-.03-.14-.02-.04-.05-.06-.08-.06s-.05,0-.08,.02c-.02,.01-.04,.03-.06,.04-.02,.01-.04,.02-.07,.04-.03,.01-.07,.02-.11,.02-.05,0-.1-.01-.14-.03-.04-.02-.08-.05-.11-.09-.03-.04-.05-.08-.08-.13-.02-.05-.03-.1-.03-.16s.02-.12,.04-.17c.02-.05,.06-.1,.11-.14,.04-.04,.1-.07,.15-.09,.06-.02,.12-.03,.19-.03,.09,0,.17,.02,.25,.06,.08,.04,.14,.09,.21,.16,.05,.07,.1,.15,.13,.24,.03,.09,.05,.19,.05,.29,0,.16-.03,.31-.09,.45-.06,.14-.14,.26-.25,.36-.1,.1-.22,.18-.36,.24-.14,.06-.28,.1-.43,.11v-.17Z" style="fill: #888;"/>
      <path d="M65.08,37.55c.1,0,.19-.02,.28-.05,.08-.03,.15-.07,.22-.12,.06-.05,.11-.11,.14-.17,.03-.07,.05-.13,.05-.2,0-.11-.03-.22-.08-.3-.05-.08-.13-.16-.22-.22-.1-.07-.2-.13-.32-.18-.12-.06-.24-.11-.36-.17-.12-.06-.25-.12-.36-.19-.12-.07-.22-.15-.31-.23-.1-.09-.17-.19-.23-.3-.05-.11-.08-.25-.08-.41,0-.15,.03-.28,.09-.41,.06-.13,.15-.23,.26-.33,.11-.09,.25-.16,.4-.22,.15-.05,.32-.08,.5-.08,.12,0,.24,.01,.35,.03,.11,.02,.21,.05,.31,.1,.1,.05,.2,.12,.3,.21,.1,.09,.21,.21,.32,.35l-.27,.24c-.14-.23-.29-.4-.46-.51-.17-.11-.36-.17-.55-.17-.11,0-.2,.01-.28,.04-.09,.03-.16,.06-.22,.1-.06,.04-.11,.1-.14,.16-.03,.06-.05,.12-.05,.19,0,.11,.03,.21,.09,.29,.06,.08,.14,.16,.24,.22,.1,.07,.22,.12,.34,.18,.13,.05,.26,.11,.39,.17,.13,.05,.26,.12,.39,.18,.13,.07,.24,.15,.35,.23,.1,.09,.18,.19,.24,.3,.06,.11,.09,.25,.09,.4s-.03,.3-.09,.44c-.06,.13-.15,.26-.26,.35-.12,.1-.26,.18-.44,.23-.18,.06-.38,.09-.62,.09-.11,0-.22,0-.33-.02-.11-.02-.23-.05-.34-.1-.12-.05-.23-.12-.35-.21-.11-.09-.23-.21-.34-.35l.3-.27c.09,.12,.17,.23,.26,.32,.08,.09,.16,.16,.25,.22,.09,.05,.17,.1,.26,.12,.09,.02,.19,.04,.29,.04" style="fill: #888;"/>
      <path d="M70.91,37.8c-.25,0-.48-.05-.7-.14-.22-.09-.41-.22-.57-.38-.16-.16-.29-.35-.39-.56-.1-.22-.14-.45-.14-.69,0-.3,.04-.57,.13-.82,.08-.25,.21-.47,.37-.65,.16-.18,.35-.33,.57-.42,.23-.11,.47-.16,.75-.16,.24,0,.46,.04,.66,.13,.2,.09,.37,.2,.52,.34,.14,.14,.26,.31,.34,.49,.08,.19,.12,.38,.12,.59h-2.74c0,.25,.03,.48,.09,.68,.07,.21,.15,.39,.27,.55,.12,.15,.25,.27,.41,.36,.16,.09,.33,.13,.52,.13,.16,0,.31-.03,.46-.08,.14-.05,.28-.12,.39-.2,.12-.09,.22-.18,.3-.29,.08-.11,.14-.22,.18-.33l.21,.1c-.05,.19-.14,.36-.25,.53-.12,.16-.25,.31-.41,.43-.15,.13-.33,.22-.51,.29-.19,.07-.38,.11-.57,.11m.73-2.58c0-.14-.02-.27-.08-.39-.05-.12-.12-.23-.21-.32-.09-.09-.19-.16-.3-.21-.12-.05-.24-.08-.37-.08-.11,0-.22,.03-.32,.08-.1,.05-.19,.12-.27,.21-.08,.09-.14,.19-.2,.31-.05,.12-.08,.25-.1,.39h1.83Z" style="fill: #888;"/>
      <polygon points="73.16 37.72 72.76 37.72 74.3 35.84 73 34.04 73.86 34.04 74.76 35.28 75.77 34.04 76.17 34.04 74.95 35.54 76.53 37.72 75.67 37.72 74.5 36.1 73.16 37.72" style="fill: #888;"/>
      <path d="M76.74,34.04h.73v.76c.07-.1,.15-.19,.24-.29,.09-.1,.19-.19,.3-.27,.11-.08,.23-.15,.36-.2,.13-.05,.27-.08,.43-.08,.22,0,.42,.05,.6,.14,.18,.09,.33,.22,.45,.37,.13,.16,.23,.34,.29,.55,.07,.21,.11,.43,.11,.67,0,.3-.04,.59-.13,.84-.08,.26-.21,.48-.36,.67-.16,.18-.35,.33-.57,.44-.22,.11-.47,.16-.75,.16-.21,0-.38-.02-.53-.06-.15-.04-.3-.11-.45-.21v1.75h-.73v-5.24Zm.73,2.69c0,.11,.02,.22,.07,.31,.05,.1,.12,.18,.21,.26,.09,.07,.19,.13,.31,.17,.12,.04,.25,.06,.4,.06,.13,0,.26-.03,.39-.1,.12-.07,.22-.17,.32-.3,.09-.13,.16-.28,.21-.46,.05-.18,.08-.37,.08-.59,0-.27-.02-.51-.07-.71-.05-.2-.12-.37-.2-.51-.09-.13-.19-.23-.3-.3-.12-.07-.25-.1-.39-.1-.1,0-.21,.02-.3,.05-.1,.03-.19,.08-.27,.13-.09,.05-.16,.12-.24,.19-.07,.07-.14,.15-.2,.23v1.67Z" style="fill: #888;"/>
      <path d="M82.57,37.8c-.25,0-.48-.05-.7-.14-.22-.09-.41-.22-.57-.38-.16-.16-.29-.35-.39-.56-.1-.22-.14-.45-.14-.69,0-.3,.04-.57,.13-.82,.09-.25,.21-.47,.37-.65,.16-.18,.35-.33,.57-.42,.23-.11,.47-.16,.75-.16,.24,0,.46,.04,.66,.13,.2,.09,.37,.2,.52,.34,.14,.14,.26,.31,.34,.49,.08,.19,.12,.38,.12,.59h-2.75c0,.25,.03,.48,.1,.68,.07,.21,.15,.39,.27,.55,.12,.15,.26,.27,.41,.36,.16,.09,.33,.13,.52,.13,.16,0,.31-.03,.46-.08,.15-.05,.28-.12,.39-.2,.12-.09,.22-.18,.3-.29,.09-.11,.14-.22,.18-.33l.21,.1c-.05,.19-.14,.36-.26,.53-.12,.16-.25,.31-.41,.43-.16,.13-.33,.22-.51,.29-.19,.07-.37,.11-.56,.11m.73-2.58c0-.14-.02-.27-.07-.39-.05-.12-.12-.23-.21-.32-.09-.09-.19-.16-.3-.21-.12-.05-.24-.08-.37-.08-.12,0-.22,.03-.32,.08-.1,.05-.19,.12-.27,.21-.08,.09-.14,.19-.2,.31-.05,.12-.08,.25-.09,.39h1.82Z" style="fill: #888;"/>
      <path d="M86.56,37.8c-.24,0-.47-.05-.68-.14-.21-.09-.39-.23-.55-.39-.15-.17-.28-.36-.37-.58-.09-.22-.14-.46-.14-.71,0-.28,.05-.54,.15-.79,.1-.25,.24-.46,.41-.64,.17-.18,.37-.33,.61-.43,.23-.11,.48-.16,.75-.16,.21,0,.39,.02,.57,.07,.17,.04,.32,.11,.45,.18,.13,.08,.22,.17,.29,.28,.07,.11,.11,.22,.11,.35,0,.05-.02,.11-.04,.16-.03,.05-.07,.09-.11,.13-.04,.03-.1,.06-.15,.09-.06,.02-.12,.03-.18,.03-.07,0-.13-.01-.18-.04-.05-.02-.1-.05-.13-.09-.04-.04-.07-.08-.09-.13-.02-.04-.03-.1-.03-.15,0-.09,0-.16-.02-.24-.02-.08-.05-.14-.1-.19-.04-.05-.11-.1-.19-.12-.08-.03-.18-.05-.31-.05-.16,0-.31,.03-.45,.1-.13,.07-.24,.16-.34,.28-.09,.11-.16,.24-.21,.4-.05,.15-.07,.32-.07,.5,0,.23,.03,.45,.09,.67,.06,.21,.15,.39,.26,.55,.11,.16,.25,.28,.4,.37,.16,.09,.34,.14,.53,.14,.17,0,.32-.03,.44-.08,.13-.05,.24-.12,.33-.22,.09-.09,.17-.2,.24-.32,.07-.12,.12-.25,.18-.39l.22,.09c-.07,.23-.15,.44-.25,.62-.11,.18-.23,.34-.38,.46-.14,.13-.3,.23-.48,.29-.18,.07-.38,.1-.59,.1" style="fill: #888;"/>
      <path d="M90.9,37.26c-.1,.17-.23,.3-.39,.4-.16,.1-.36,.15-.6,.15-.12,0-.23-.02-.32-.06-.09-.04-.17-.1-.23-.17-.06-.08-.1-.16-.13-.27-.03-.11-.04-.22-.04-.35v-2.6h-.64v-.18c.21,0,.37-.04,.51-.11,.13-.08,.24-.18,.33-.3,.09-.13,.15-.27,.2-.44,.05-.17,.09-.35,.13-.53h.21v1.26h.83v.31h-.83v2.6c0,.05,.01,.1,.03,.15,.02,.05,.05,.09,.08,.12,.04,.03,.08,.07,.13,.09,.05,.02,.1,.03,.15,.03,.08,0,.16-.02,.23-.06,.07-.04,.13-.09,.18-.15l.18,.13Z" style="fill: #888;"/>
      <path d="M94.05,37.72h-.73v-.5c-.09,.07-.17,.13-.25,.21-.09,.06-.18,.13-.27,.19-.1,.06-.21,.1-.33,.14-.12,.04-.26,.05-.41,.05s-.28-.02-.39-.07c-.11-.05-.22-.11-.3-.2-.08-.08-.14-.18-.19-.29-.04-.11-.07-.23-.07-.36,0-.16,.04-.3,.1-.43,.07-.13,.15-.24,.26-.34,.11-.1,.23-.19,.38-.27,.14-.08,.3-.15,.46-.21,.16-.06,.33-.12,.5-.16,.17-.05,.34-.1,.51-.14v-.23c0-.17-.02-.31-.05-.42-.03-.11-.08-.21-.14-.28-.06-.07-.14-.12-.23-.15-.09-.03-.18-.04-.29-.04-.12,0-.23,.01-.3,.04-.08,.03-.14,.08-.18,.13-.04,.05-.08,.11-.09,.18-.02,.07-.02,.14-.02,.21,0,.07,0,.13-.01,.18-.01,.06-.03,.11-.05,.16-.03,.04-.07,.08-.11,.11-.04,.02-.11,.04-.18,.04-.12,0-.21-.04-.28-.12-.07-.08-.11-.18-.11-.3s.04-.23,.12-.34c.08-.1,.19-.19,.32-.27,.14-.07,.3-.14,.48-.18,.18-.04,.37-.07,.57-.07,.24,0,.45,.02,.61,.07,.16,.05,.3,.11,.4,.19,.1,.09,.18,.19,.23,.31,.04,.12,.07,.25,.07,.4v2.78Zm-.73-2.14c-.16,.05-.32,.11-.5,.18-.17,.07-.33,.15-.48,.25-.14,.09-.26,.2-.36,.31-.1,.11-.14,.24-.14,.36,0,.09,.02,.18,.05,.26,.03,.08,.08,.15,.13,.21,.05,.06,.12,.11,.19,.14,.07,.04,.15,.06,.22,.06,.09,0,.16-.01,.24-.03,.07-.02,.14-.05,.22-.09,.07-.03,.14-.08,.21-.13,.07-.05,.14-.1,.22-.16v-1.37Z" style="fill: #888;"/>
      <path d="M96.99,37.26c-.1,.17-.23,.3-.39,.4-.16,.1-.36,.15-.6,.15-.12,0-.23-.02-.32-.06-.09-.04-.16-.1-.22-.17-.06-.08-.1-.16-.13-.27-.03-.11-.04-.22-.04-.35v-2.6h-.64v-.18c.21,0,.37-.04,.51-.11,.13-.08,.24-.18,.33-.3,.09-.13,.15-.27,.2-.44,.05-.17,.09-.35,.13-.53h.21v1.26h.83v.31h-.83v2.6c0,.05,.01,.1,.03,.15,.02,.05,.05,.09,.09,.12,.03,.03,.08,.07,.12,.09,.05,.02,.1,.03,.16,.03,.08,0,.16-.02,.22-.06,.07-.04,.13-.09,.18-.15l.18,.13Z" style="fill: #888;"/>
      <path d="M97.82,32.16c.05,0,.11,0,.16,.03,.05,.02,.1,.05,.13,.08,.04,.03,.07,.07,.09,.12,.02,.05,.03,.09,.03,.14,0,.05-.01,.1-.03,.14-.02,.04-.05,.08-.09,.12-.04,.03-.08,.06-.13,.08-.05,.01-.11,.02-.16,.02-.06,0-.11-.01-.16-.02-.05-.02-.09-.05-.13-.08-.04-.04-.07-.08-.09-.12-.02-.04-.03-.09-.03-.14,0-.05,.01-.09,.03-.14,.02-.05,.05-.08,.09-.12,.04-.03,.09-.06,.13-.08,.05-.02,.1-.03,.16-.03m-.36,2.02l.51-.21h.22v3.76h-.73v-3.55Z" style="fill: #888;"/>
      <path d="M100.88,37.8c-.28,0-.54-.05-.78-.15-.24-.1-.44-.23-.62-.4-.17-.17-.31-.37-.41-.6-.1-.23-.14-.47-.14-.73s.05-.53,.14-.77c.1-.24,.23-.44,.41-.62,.17-.18,.38-.32,.62-.42,.24-.1,.5-.15,.78-.15s.54,.05,.77,.14c.24,.1,.44,.22,.62,.39,.17,.16,.31,.36,.4,.58,.1,.22,.15,.46,.15,.71,0,.28-.05,.54-.15,.79-.1,.24-.23,.46-.4,.64-.17,.18-.38,.33-.62,.44-.24,.11-.49,.16-.77,.16m.13-.27c.15,0,.28-.04,.4-.11,.12-.08,.22-.17,.31-.3,.09-.13,.16-.27,.2-.44,.05-.17,.08-.34,.08-.53,0-.27-.02-.52-.07-.75-.04-.23-.12-.44-.22-.61-.1-.17-.24-.31-.4-.41-.16-.1-.37-.15-.6-.15-.12,0-.24,.04-.36,.11-.12,.07-.22,.17-.3,.29-.09,.12-.16,.27-.21,.43-.05,.16-.08,.34-.08,.53,0,.27,.03,.52,.09,.76,.05,.23,.14,.44,.25,.61,.11,.17,.24,.31,.39,.42,.16,.1,.34,.15,.53,.15" style="fill: #888;"/>
      <path d="M103.52,34.04h.73v.67c.23-.25,.46-.44,.7-.56,.24-.12,.49-.18,.73-.18,.13,0,.25,.03,.36,.09,.11,.06,.21,.14,.29,.24,.08,.1,.15,.22,.2,.35,.04,.14,.07,.28,.07,.43v2.65h-.73v-2.52c0-.24-.05-.43-.16-.55-.11-.12-.25-.19-.42-.19-.08,0-.16,.01-.25,.04-.09,.03-.18,.06-.26,.11-.09,.05-.18,.1-.27,.17-.09,.06-.17,.14-.26,.22v2.73h-.73v-3.68Z" style="fill: #888;"/>
      <g>
        <path d="M52.65,18.09s-.02,.66-.02,.92c-.16,7.29-.3,9.87-.87,10.67-.37,.57-.76,.76-1.35,.87-.51,.09-1.31,.09-2.13,.07-.04-.57-.27-1.38-.59-1.93,.73,.05,1.4,.05,1.74,.05,.28,0,.44-.05,.6-.3,.35-.46,.51-2.64,.64-8.45h-1.53c-.18,4.72-.76,8.5-2.93,11.06-.27-.46-.92-1.1-1.4-1.4-2.84,.3-5.79,.59-7.95,.78l-.16-1.79c.98-.04,2.18-.11,3.55-.2v-.75h-2.87v-1.47h2.87v-.6h-3.23v-1.47h3.23v-.64h-3.12v-3.76h3.12v-.6h-2.27v-2.13h-1.42v-1.56h1.42v-1.06h1.85v1.06h2.61v-1.06h1.93v1.06h1.3v1.56h-1.3v2.13h-2.25v.6h3.05v3.76h-3.05v.64h3.12v1.47h-3.12v.6h2.77v1.47h-2.77v.64c.98-.05,1.99-.12,2.98-.2v1.05c1.63-2.18,2.06-5.29,2.18-9.19h-1.53v-1.9h1.56c.02-1.19,.02-2.41,.02-3.71h1.9c0,1.28-.02,2.52-.04,3.71h3.44Zm-13.9,3.99h1.63v-.94h-1.63v.94Zm1.08-4.29h2.61v-.78h-2.61v.78Zm3.64,3.35h-1.49v.94h1.49v-.94Z" style="fill: #888;"/>
        <path d="M70.58,28.13v2.15h-16.1v-2.15h8.7c.89-2.16,1.83-5.39,2.29-7.9l2.4,.46c-.67,2.57-1.6,5.38-2.4,7.44h5.11Zm-.75-8.46h-14.55v-2.13h6.44c-.18-.8-.53-1.97-.85-2.84l2.11-.53c.37,.89,.76,2.06,.96,2.82l-1.9,.55h7.79v2.13Zm-10.88,8.04c-.21-1.9-.87-4.81-1.47-7.01l2.13-.51c.67,2.24,1.31,5.04,1.62,6.94l-2.27,.59Z" style="fill: #888;"/>
        <path d="M85.13,14.36c-.05,1.12-.16,2.04-.43,2.84,1.15,.55,2.59,1.31,3.39,1.83l-.92,1.06h.71v3.41h-2.11v-1.81h-11.07v1.81h-2.02v-3.41h.32c-.21-.43-.59-.91-.87-1.19,3.03-.71,3.41-1.99,3.55-4.54h1.83c-.05,1.14-.18,2.08-.44,2.89,.89,.48,1.92,1.12,2.52,1.53l-1.3,1.3c-.44-.37-1.26-.91-2.02-1.38-.51,.57-1.22,1.03-2.2,1.4h6.57c-.21-.46-.6-1.03-.94-1.33,3.09-.67,3.43-1.86,3.55-4.4h1.9Zm-11.32,3.02c-.28-.46-.89-1.22-1.37-1.76l1.26-.94c.48,.51,1.14,1.21,1.44,1.65l-1.33,1.05Zm6.26,9.19h6.67v4.37h-2.09v-.41h-8.47v.43h-1.99v-4.38h4.08c.09-.23,.2-.48,.28-.73h-3.11v-3.51h9.58v3.51h-4.56l-.41,.73Zm4.58,1.46h-8.47v1.01h8.47v-1.01Zm-7.24-3.46h5.55v-.94h-5.55v.94Zm.07-7.58c.39-.53,.85-1.31,1.1-1.85l1.37,.44,1.26-.94c.48,.51,1.12,1.21,1.42,1.65l-1.31,1.06c-.25-.41-.75-1.03-1.15-1.54-.53,.64-1.06,1.26-1.46,1.65l-1.22-.48Zm8.8,3.11c-.67-.44-1.6-.96-2.45-1.4-.51,.57-1.3,1.05-2.4,1.4h4.84Zm1.93-4.4c-.6,.69-1.21,1.4-1.67,1.86l-1.28-.51c.41-.55,.89-1.37,1.14-1.95l1.81,.6Z" style="fill: #888;"/>
        <path d="M95.14,22.59c-.37,1.72-.96,3.46-1.67,4.83,.23,.16,.5,.35,.83,.55,1.21,.73,2.86,.83,4.93,.83s5.22-.18,7.19-.46c-.25,.57-.57,1.6-.6,2.17-1.49,.09-4.6,.21-6.67,.21-2.34,0-3.83-.2-5.11-.94-.73-.41-1.37-.99-1.72-.99-.41,0-.99,1.21-1.4,2.22l-1.4-2.02c.73-.92,1.53-1.6,2.18-1.9,.43-.85,.8-1.93,1.08-2.98h-2.38c.41-.99,.89-2.4,1.31-3.73h-1.88v-1.88h4.37c-.37,1.21-.83,2.59-1.26,3.8h1.01l.3-.09,.89,.39Zm-3.34-4.54c-.23-.78-.66-2.02-.98-2.96l1.93-.57c.34,.94,.76,2.11,1.03,2.87l-1.99,.66Zm4.13,1.6c-.43-.34-1.26-.76-1.74-.99,1.1-.99,2.01-2.56,2.52-4.12l1.95,.46c-.14,.46-.34,.92-.53,1.37h1.24v-1.99h2.09v1.99h3.87v1.79h-3.87v1.49h4.6v1.77h-11.41v-1.77h1.28Zm6.85,8.23v-.48h-4.79v.53h-2.02v-5.61h8.91v5.55h-2.09Zm-5.64-9.72c-.35,.57-.75,1.06-1.14,1.49h3.37v-1.49h-2.24Zm5.64,7.47v-1.63h-4.79v1.63h4.79Z" style="fill: #888;"/>
      </g>
    </g>
  </g>
</svg>