<?xml version="1.0" encoding="UTF-8"?>
<svg id="_圖層_2" data-name="圖層 2" xmlns="http://www.w3.org/2000/svg" width="170.42" height="62.79" viewBox="0 0 170.42 62.79">
  <g id="_設計" data-name="設計">
    <g>
      <g>
        <polygon points="32.26 26.78 16.54 60.26 20.69 60.26 32.26 35.71 32.26 26.78" style="fill: #fff;"/>
        <polygon points="32.27 0 55.55 50.05 51.39 50.05 32.27 8.92 32.27 0" style="fill: #fff;"/>
        <polygon points="32.27 8.93 8.27 60.26 12.43 60.26 32.27 17.86 32.27 8.93" style="fill: #fff;"/>
        <polygon points="32.27 17.86 47.24 50.05 43.09 50.05 32.27 26.78 32.27 17.86" style="fill: #fff;"/>
        <polygon points="32.27 35.71 38.93 50.05 34.77 50.05 32.27 44.63 32.27 35.71" style="fill: #fff;"/>
        <polygon points="0 60.26 4.15 60.26 32.26 0 32.26 0 28.11 0 0 60.26" style="fill: #fff;"/>
      </g>
      <path d="M29.7,52.5l3.6,7.81h-1.3l-1.17-2.55h-3.27l-1.2,2.55h-.65l3.68-7.81h.32Zm-1.92,4.77h2.81l-1.38-3.02-1.42,3.02Z" style="fill: #fff;"/>
      <path d="M34,51.73l.83-.33h.33v4.12c.1-.17,.22-.33,.38-.48,.15-.15,.32-.27,.5-.38,.18-.11,.37-.2,.57-.26,.19-.06,.38-.1,.57-.1,.34,0,.65,.07,.94,.21,.29,.14,.54,.33,.75,.56,.21,.24,.37,.51,.48,.83,.11,.31,.18,.65,.18,1.02,0,.32-.04,.63-.11,.93-.08,.31-.19,.59-.33,.84-.14,.26-.31,.5-.5,.71-.2,.21-.42,.39-.67,.55-.25,.15-.5,.27-.78,.36-.28,.08-.57,.12-.88,.12-.43,0-.84-.05-1.23-.17-.38-.11-.72-.29-1.02-.53v-8Zm1.17,7.61c.07,.07,.15,.14,.24,.21,.09,.07,.19,.14,.3,.2,.11,.06,.22,.11,.36,.14,.14,.04,.28,.05,.44,.05,.27,0,.52-.06,.74-.19,.22-.13,.41-.31,.57-.55,.16-.24,.28-.52,.37-.84,.08-.33,.13-.68,.13-1.06,0-.29-.05-.56-.14-.82-.09-.26-.21-.48-.37-.67-.16-.19-.34-.34-.55-.45-.21-.11-.43-.16-.67-.16-.14,0-.27,.02-.41,.05-.13,.04-.27,.09-.4,.16-.13,.07-.24,.14-.36,.22-.1,.09-.2,.19-.27,.28v3.42Z" style="fill: #fff;"/>
      <path d="M43.5,60.43c-.45,0-.86-.08-1.24-.24-.38-.16-.71-.37-.99-.64-.28-.27-.5-.59-.65-.95-.15-.36-.23-.75-.23-1.17s.08-.84,.23-1.23c.15-.38,.37-.71,.65-.99,.27-.28,.61-.51,.99-.67,.38-.16,.79-.24,1.24-.24s.86,.07,1.24,.22c.38,.15,.71,.36,.98,.62,.28,.26,.49,.57,.65,.92,.15,.35,.23,.73,.23,1.13,0,.44-.08,.86-.23,1.26-.16,.39-.37,.73-.65,1.03-.27,.29-.6,.53-.98,.7-.38,.17-.79,.25-1.24,.25m.22-.43c.24,0,.44-.06,.63-.18,.2-.12,.36-.28,.5-.48,.14-.2,.25-.44,.33-.7,.08-.27,.11-.55,.11-.84,0-.43-.04-.83-.11-1.2-.07-.37-.19-.7-.36-.98-.16-.28-.38-.5-.64-.65-.26-.16-.59-.24-.97-.24-.19,0-.38,.06-.56,.17-.18,.12-.34,.27-.48,.47-.14,.2-.25,.43-.33,.69-.09,.26-.13,.54-.13,.84,0,.42,.04,.83,.14,1.21,.09,.37,.22,.7,.39,.98,.18,.28,.38,.5,.64,.67,.25,.16,.54,.24,.85,.24" style="fill: #fff;"/>
      <polygon points="48.29 54.42 50.37 58.88 52.37 54.42 52.9 54.42 50.25 60.37 49.84 60.37 47.06 54.42 48.29 54.42" style="fill: #fff;"/>
      <path d="M56.23,60.43c-.4,0-.77-.08-1.12-.22-.35-.15-.65-.36-.91-.61-.26-.26-.47-.56-.62-.9-.15-.35-.23-.71-.23-1.11,0-.48,.07-.91,.21-1.31,.14-.4,.34-.74,.59-1.04,.25-.29,.56-.52,.91-.68,.36-.17,.76-.25,1.19-.25,.38,0,.74,.07,1.06,.2,.32,.14,.59,.32,.83,.54,.23,.23,.41,.5,.54,.79,.13,.3,.2,.61,.2,.94h-4.4c0,.4,.05,.76,.15,1.09,.1,.34,.25,.63,.43,.88,.19,.25,.4,.44,.66,.57,.26,.14,.54,.21,.84,.21,.25,0,.5-.05,.73-.13,.24-.08,.45-.19,.64-.32,.19-.14,.35-.29,.48-.47,.13-.17,.23-.35,.28-.53l.33,.15c-.08,.3-.22,.58-.41,.85-.19,.26-.4,.49-.66,.69-.25,.2-.53,.35-.83,.47-.3,.11-.6,.17-.9,.17m1.17-4.12c0-.22-.04-.43-.12-.62-.08-.2-.18-.37-.32-.5-.14-.14-.3-.25-.48-.33-.19-.08-.38-.12-.6-.12-.18,0-.34,.04-.51,.12-.16,.08-.3,.19-.43,.33-.13,.14-.23,.3-.32,.5-.08,.19-.13,.39-.15,.62h2.92Z" style="fill: #fff;"/>
      <path d="M63.39,54.42h1.17v1.21c.11-.15,.25-.31,.39-.46,.15-.16,.31-.3,.48-.43,.18-.13,.37-.23,.58-.31,.21-.08,.44-.12,.69-.12,.35,0,.67,.08,.95,.22,.28,.15,.53,.34,.73,.59,.2,.25,.36,.54,.47,.88,.11,.33,.16,.7,.16,1.07,0,.49-.07,.94-.2,1.35-.13,.41-.32,.77-.57,1.07-.26,.3-.56,.53-.91,.7-.36,.17-.76,.25-1.2,.25-.33,0-.61-.03-.85-.1-.25-.07-.49-.18-.72-.33v2.79h-1.17v-8.37Zm1.17,4.3c0,.18,.04,.35,.11,.5,.08,.15,.18,.29,.32,.41,.14,.12,.3,.21,.49,.28,.2,.07,.41,.1,.64,.1,.22,0,.42-.05,.61-.16,.2-.11,.37-.27,.5-.48,.15-.2,.26-.45,.34-.73,.08-.28,.13-.6,.13-.94,0-.44-.04-.82-.12-1.14-.08-.32-.19-.59-.32-.81-.14-.21-.3-.37-.49-.48-.19-.11-.39-.16-.61-.16-.17,0-.33,.03-.49,.08-.15,.05-.3,.13-.44,.21-.14,.09-.26,.19-.38,.3-.11,.12-.22,.24-.31,.36v2.67Z" style="fill: #fff;"/>
      <path d="M72.71,60.43c-.39,0-.77-.08-1.12-.22-.34-.15-.65-.36-.91-.61-.26-.26-.47-.56-.62-.9-.15-.35-.23-.71-.23-1.11,0-.48,.07-.91,.21-1.31,.14-.4,.33-.74,.59-1.04,.25-.29,.56-.52,.91-.68,.36-.17,.75-.25,1.19-.25,.39,0,.74,.07,1.06,.2,.33,.14,.6,.32,.83,.54,.23,.23,.41,.5,.54,.79,.13,.3,.2,.61,.2,.94h-4.39c0,.4,.05,.76,.15,1.09,.1,.34,.24,.63,.43,.88,.19,.25,.4,.44,.66,.57,.25,.14,.53,.21,.84,.21,.25,0,.5-.05,.73-.13,.23-.08,.44-.19,.63-.32,.19-.14,.34-.29,.48-.47,.13-.17,.23-.35,.28-.53l.33,.15c-.08,.3-.22,.58-.4,.85-.19,.26-.41,.49-.66,.69-.25,.2-.53,.35-.82,.47-.3,.11-.6,.17-.9,.17m1.17-4.12c0-.22-.04-.43-.11-.62-.08-.2-.19-.37-.33-.5-.14-.14-.3-.25-.48-.33-.19-.08-.38-.12-.6-.12-.18,0-.34,.04-.5,.12-.16,.08-.31,.19-.43,.33-.13,.14-.23,.3-.31,.5-.08,.19-.14,.39-.15,.62h2.92Z" style="fill: #fff;"/>
      <path d="M79.46,60.43c-.45,0-.86-.08-1.25-.24-.38-.16-.71-.37-.99-.64-.27-.27-.49-.59-.65-.95-.15-.36-.23-.75-.23-1.17s.08-.84,.23-1.23c.15-.38,.37-.71,.65-.99,.28-.28,.61-.51,.99-.67,.38-.16,.79-.24,1.25-.24s.85,.07,1.24,.22c.38,.15,.71,.36,.98,.62,.28,.26,.49,.57,.65,.92,.15,.35,.24,.73,.24,1.13,0,.44-.08,.86-.24,1.26-.16,.39-.37,.73-.65,1.03-.27,.29-.6,.53-.98,.7-.38,.17-.79,.25-1.24,.25m.22-.43c.23,0,.44-.06,.63-.18,.19-.12,.36-.28,.5-.48,.14-.2,.25-.44,.32-.7,.08-.27,.11-.55,.11-.84,0-.43-.03-.83-.11-1.2-.07-.37-.19-.7-.36-.98-.16-.28-.37-.5-.64-.65-.26-.16-.59-.24-.97-.24-.19,0-.38,.06-.57,.17-.18,.12-.34,.27-.48,.47-.14,.2-.25,.43-.33,.69-.09,.26-.13,.54-.13,.84,0,.42,.04,.83,.14,1.21,.09,.37,.22,.7,.39,.98,.18,.28,.39,.5,.64,.67,.25,.16,.54,.24,.86,.24" style="fill: #fff;"/>
      <path d="M83.69,54.42h1.17v1.21c.11-.15,.25-.31,.39-.46,.14-.16,.31-.3,.48-.43,.17-.13,.37-.23,.58-.31,.21-.08,.44-.12,.69-.12,.34,0,.66,.08,.95,.22,.28,.15,.53,.34,.73,.59,.2,.25,.36,.54,.47,.88,.11,.33,.16,.7,.16,1.07,0,.49-.07,.94-.2,1.35-.14,.41-.33,.77-.57,1.07-.26,.3-.56,.53-.91,.7-.36,.17-.76,.25-1.2,.25-.32,0-.61-.03-.85-.1-.24-.07-.48-.18-.72-.33v2.79h-1.17v-8.37Zm1.17,4.3c0,.18,.04,.35,.11,.5,.08,.15,.19,.29,.32,.41,.14,.12,.3,.21,.5,.28,.19,.07,.4,.1,.64,.1s.42-.05,.62-.16c.19-.11,.36-.27,.5-.48,.14-.2,.26-.45,.34-.73,.08-.28,.13-.6,.13-.94,0-.44-.04-.82-.12-1.14-.08-.32-.19-.59-.32-.81-.14-.21-.3-.37-.49-.48-.19-.11-.39-.16-.61-.16-.17,0-.33,.03-.49,.08-.16,.05-.31,.13-.44,.21-.14,.09-.27,.19-.38,.3-.12,.12-.22,.24-.32,.36v2.67Z" style="fill: #fff;"/>
      <polygon points="91.62 60.31 90.45 60.31 90.45 51.73 91.28 51.41 91.62 51.41 91.62 60.31" style="fill: #fff;"/>
      <path d="M95.65,60.43c-.39,0-.77-.08-1.12-.22-.34-.15-.65-.36-.91-.61-.26-.26-.47-.56-.62-.9-.15-.35-.23-.71-.23-1.11,0-.48,.07-.91,.21-1.31,.14-.4,.33-.74,.59-1.04,.25-.29,.56-.52,.91-.68,.36-.17,.76-.25,1.19-.25,.39,0,.74,.07,1.06,.2,.32,.14,.6,.32,.83,.54,.23,.23,.42,.5,.54,.79,.13,.3,.19,.61,.19,.94h-4.39c0,.4,.05,.76,.15,1.09,.1,.34,.25,.63,.43,.88,.19,.25,.41,.44,.66,.57,.25,.14,.53,.21,.84,.21,.26,0,.5-.05,.73-.13,.24-.08,.44-.19,.64-.32,.19-.14,.34-.29,.48-.47,.14-.17,.23-.35,.29-.53l.33,.15c-.09,.3-.22,.58-.41,.85-.19,.26-.41,.49-.66,.69-.25,.2-.53,.35-.82,.47-.3,.11-.6,.17-.9,.17m1.17-4.12c0-.22-.04-.43-.12-.62-.08-.2-.19-.37-.32-.5-.14-.14-.3-.25-.49-.33-.19-.08-.38-.12-.59-.12-.18,0-.35,.04-.51,.12-.16,.08-.31,.19-.43,.33-.13,.14-.24,.3-.31,.5-.09,.19-.14,.39-.15,.62h2.92Z" style="fill: #fff;"/>
      <path d="M99.25,54.91c.18-.05,.34-.11,.5-.21,.15-.08,.29-.19,.4-.31,.11-.11,.2-.24,.27-.37,.07-.14,.1-.28,.1-.42,0-.08-.02-.16-.05-.22-.04-.07-.08-.1-.13-.1s-.09,.01-.13,.03c-.03,.02-.07,.04-.1,.07-.03,.02-.07,.04-.11,.06-.04,.02-.11,.03-.18,.03-.08,0-.15-.02-.22-.05-.07-.04-.13-.08-.18-.14-.05-.06-.09-.13-.12-.21-.03-.08-.05-.16-.05-.26s.03-.19,.07-.28c.04-.08,.1-.16,.17-.22,.07-.06,.15-.12,.25-.15,.1-.04,.2-.05,.31-.05,.14,0,.27,.03,.4,.09,.13,.06,.23,.15,.33,.26,.09,.11,.16,.24,.21,.38,.05,.14,.08,.3,.08,.46,0,.26-.05,.5-.15,.72-.1,.22-.22,.41-.39,.58-.16,.17-.36,.29-.57,.39-.22,.1-.44,.16-.7,.17v-.27Z" style="fill: #fff;"/>
      <path d="M104.03,60.03c.15,0,.31-.03,.44-.08,.13-.04,.25-.11,.35-.19,.09-.08,.17-.18,.22-.28,.05-.11,.08-.21,.08-.32,0-.18-.04-.35-.13-.47-.09-.13-.21-.25-.36-.36-.15-.11-.32-.21-.51-.3-.19-.09-.38-.18-.57-.27-.2-.09-.39-.19-.58-.3s-.36-.24-.5-.38c-.15-.14-.27-.3-.36-.48-.09-.18-.13-.4-.13-.65,0-.23,.05-.45,.15-.65,.1-.21,.24-.38,.42-.52,.18-.15,.39-.26,.64-.34,.24-.08,.51-.13,.8-.13,.19,0,.38,.02,.55,.04,.17,.03,.33,.08,.5,.15,.16,.08,.32,.2,.48,.33,.16,.14,.33,.33,.51,.56l-.44,.38c-.22-.36-.47-.63-.74-.81-.28-.18-.57-.27-.89-.27-.17,0-.32,.02-.45,.06-.14,.04-.26,.1-.36,.17-.1,.07-.18,.16-.23,.25-.05,.1-.08,.2-.08,.3,0,.18,.05,.33,.15,.46,.1,.13,.22,.25,.39,.35,.16,.1,.34,.2,.55,.29,.21,.08,.42,.18,.63,.28,.21,.09,.42,.19,.63,.3,.2,.11,.39,.23,.55,.37,.16,.14,.29,.3,.39,.49,.09,.18,.15,.4,.15,.64s-.05,.49-.14,.7c-.09,.21-.24,.41-.42,.57-.19,.16-.42,.28-.7,.38-.28,.09-.61,.14-.99,.14-.17,0-.35-.01-.53-.04-.18-.03-.36-.08-.55-.16-.19-.08-.37-.19-.56-.33-.18-.14-.36-.33-.54-.56l.48-.43c.14,.2,.27,.37,.41,.51,.13,.14,.26,.26,.39,.35,.14,.09,.27,.16,.42,.2,.14,.04,.3,.06,.47,.06" style="fill: #fff;"/>
      <path d="M113.36,60.43c-.39,0-.77-.08-1.12-.22-.34-.15-.65-.36-.91-.61-.26-.26-.47-.56-.62-.9-.15-.35-.23-.71-.23-1.11,0-.48,.07-.91,.21-1.31,.13-.4,.33-.74,.59-1.04,.25-.29,.55-.52,.91-.68,.36-.17,.76-.25,1.19-.25,.39,0,.74,.07,1.06,.2,.32,.14,.6,.32,.83,.54,.23,.23,.41,.5,.54,.79,.12,.3,.19,.61,.19,.94h-4.38c0,.4,.05,.76,.15,1.09,.1,.34,.25,.63,.43,.88,.19,.25,.41,.44,.66,.57,.25,.14,.53,.21,.84,.21,.25,0,.5-.05,.73-.13,.23-.08,.44-.19,.63-.32,.19-.14,.35-.29,.49-.47,.13-.17,.23-.35,.28-.53l.33,.15c-.08,.3-.22,.58-.4,.85-.19,.26-.4,.49-.66,.69-.25,.2-.52,.35-.82,.47-.3,.11-.6,.17-.9,.17m1.17-4.12c0-.22-.04-.43-.12-.62-.08-.2-.19-.37-.33-.5-.14-.14-.3-.25-.48-.33-.19-.08-.38-.12-.59-.12-.18,0-.35,.04-.51,.12-.16,.08-.3,.19-.43,.33-.13,.14-.23,.3-.31,.5-.08,.19-.13,.39-.15,.62h2.93Z" style="fill: #fff;"/>
      <polygon points="116.96 60.31 116.32 60.31 118.78 57.3 116.69 54.42 118.07 54.42 119.52 56.4 121.13 54.42 121.77 54.42 119.81 56.81 122.34 60.31 120.97 60.31 119.09 57.71 116.96 60.31" style="fill: #fff;"/>
      <path d="M122.68,54.42h1.17v1.21c.12-.15,.25-.31,.39-.46,.15-.16,.31-.3,.48-.43,.18-.13,.37-.23,.58-.31,.21-.08,.44-.12,.69-.12,.35,0,.67,.08,.95,.22,.28,.15,.53,.34,.72,.59,.2,.25,.36,.54,.47,.88,.11,.33,.17,.7,.17,1.07,0,.49-.07,.94-.2,1.35-.13,.41-.33,.77-.57,1.07-.25,.3-.55,.53-.91,.7-.36,.17-.76,.25-1.19,.25-.33,0-.61-.03-.85-.1-.24-.07-.48-.18-.72-.33v2.79h-1.17v-8.37Zm1.17,4.3c0,.18,.04,.35,.11,.5,.08,.15,.19,.29,.33,.41,.14,.12,.3,.21,.49,.28,.19,.07,.4,.1,.64,.1,.21,0,.42-.05,.62-.16,.19-.11,.36-.27,.5-.48,.14-.2,.26-.45,.34-.73,.08-.28,.13-.6,.13-.94,0-.44-.04-.82-.11-1.14-.08-.32-.19-.59-.32-.81-.14-.21-.3-.37-.48-.48-.19-.11-.39-.16-.62-.16-.16,0-.33,.03-.49,.08-.15,.05-.31,.13-.44,.21-.14,.09-.26,.19-.38,.3-.11,.12-.22,.24-.31,.36v2.67Z" style="fill: #fff;"/>
      <path d="M132,60.43c-.4,0-.77-.08-1.12-.22-.34-.15-.65-.36-.91-.61-.26-.26-.47-.56-.62-.9-.15-.35-.22-.71-.22-1.11,0-.48,.07-.91,.21-1.31,.14-.4,.33-.74,.59-1.04,.25-.29,.56-.52,.91-.68,.36-.17,.76-.25,1.19-.25,.38,0,.74,.07,1.06,.2,.32,.14,.6,.32,.83,.54,.23,.23,.41,.5,.54,.79,.13,.3,.2,.61,.2,.94h-4.4c0,.4,.05,.76,.15,1.09,.1,.34,.25,.63,.43,.88,.19,.25,.41,.44,.66,.57,.25,.14,.53,.21,.84,.21,.25,0,.5-.05,.73-.13,.24-.08,.44-.19,.63-.32,.19-.14,.35-.29,.49-.47,.14-.17,.23-.35,.28-.53l.34,.15c-.09,.3-.22,.58-.41,.85-.19,.26-.41,.49-.66,.69-.26,.2-.53,.35-.82,.47-.3,.11-.6,.17-.9,.17m1.17-4.12c0-.22-.04-.43-.11-.62-.08-.2-.19-.37-.33-.5-.14-.14-.3-.25-.48-.33-.19-.08-.38-.12-.59-.12-.19,0-.35,.04-.51,.12-.16,.08-.3,.19-.43,.33-.13,.14-.23,.3-.31,.5-.08,.19-.13,.39-.15,.62h2.92Z" style="fill: #fff;"/>
      <path d="M138.38,60.43c-.38,0-.74-.08-1.08-.23-.33-.15-.63-.36-.88-.62-.25-.27-.45-.57-.59-.93-.14-.35-.22-.73-.22-1.13,0-.45,.08-.86,.24-1.26,.16-.39,.38-.73,.66-1.02,.27-.29,.6-.52,.97-.69,.37-.17,.77-.25,1.19-.25,.33,0,.63,.04,.91,.11s.51,.17,.72,.29c.2,.13,.36,.28,.47,.45,.11,.17,.17,.36,.17,.56,0,.09-.03,.18-.07,.25-.05,.08-.1,.15-.18,.21-.07,.05-.15,.1-.25,.14-.09,.03-.19,.05-.28,.05-.1,0-.2-.02-.28-.06-.08-.04-.16-.08-.21-.15-.07-.06-.11-.13-.14-.21-.03-.07-.05-.15-.05-.24,0-.14-.01-.26-.04-.38-.03-.12-.08-.22-.15-.31-.07-.08-.18-.15-.3-.2-.13-.05-.29-.08-.49-.08-.26,0-.5,.05-.72,.16-.21,.11-.39,.25-.54,.44-.14,.18-.26,.39-.33,.64-.08,.25-.11,.51-.11,.79,0,.37,.05,.72,.15,1.07,.1,.33,.24,.62,.42,.88,.18,.25,.39,.45,.65,.6,.25,.15,.54,.22,.85,.22,.27,0,.51-.04,.71-.13,.2-.08,.38-.2,.53-.34,.15-.15,.28-.32,.38-.51,.1-.19,.2-.4,.28-.62l.36,.15c-.1,.37-.24,.7-.4,.99-.17,.3-.37,.54-.6,.74-.22,.2-.48,.36-.77,.46-.29,.1-.6,.16-.94,.16" style="fill: #fff;"/>
      <path d="M145.31,59.56c-.16,.27-.36,.48-.62,.64-.26,.16-.58,.24-.96,.24-.19,0-.36-.03-.51-.1-.15-.07-.27-.16-.36-.28-.09-.12-.16-.26-.21-.43-.05-.17-.07-.35-.07-.56v-4.15h-1.02v-.28c.33,0,.6-.06,.81-.18,.21-.12,.38-.28,.52-.48,.14-.21,.25-.44,.32-.7,.08-.27,.15-.56,.21-.85h.33v2.01h1.32v.49h-1.32v4.15c0,.08,.02,.17,.05,.25,.03,.07,.08,.14,.13,.2,.06,.05,.12,.1,.2,.14,.08,.03,.16,.05,.25,.05,.13,0,.25-.04,.36-.1,.11-.07,.2-.14,.28-.24l.29,.2Z" style="fill: #fff;"/>
      <path d="M150.35,60.31h-1.17v-.8c-.14,.1-.27,.21-.4,.33-.14,.1-.28,.21-.43,.3-.16,.09-.33,.16-.52,.22-.19,.06-.41,.08-.66,.08s-.44-.04-.62-.11c-.18-.07-.34-.18-.48-.31-.13-.13-.23-.29-.3-.46-.07-.18-.11-.37-.11-.58,0-.26,.06-.48,.16-.69,.1-.21,.24-.38,.41-.54,.17-.16,.37-.3,.61-.43,.23-.12,.48-.24,.73-.33,.26-.1,.53-.19,.8-.26,.27-.08,.55-.15,.81-.22v-.37c0-.27-.03-.5-.08-.68-.05-.18-.13-.33-.22-.45-.1-.11-.22-.19-.36-.24-.14-.05-.3-.07-.47-.07-.2,0-.36,.02-.48,.07-.13,.05-.22,.12-.3,.2-.07,.08-.12,.18-.15,.28-.03,.11-.04,.22-.04,.33s0,.21-.02,.3c-.02,.09-.05,.18-.09,.25-.04,.07-.1,.13-.18,.18-.07,.04-.17,.06-.28,.06-.19,0-.33-.06-.45-.2-.11-.13-.17-.3-.17-.49s.06-.38,.19-.55c.13-.17,.3-.31,.51-.43,.22-.12,.48-.22,.76-.29,.28-.07,.59-.11,.91-.11,.38,0,.71,.04,.98,.11,.26,.07,.48,.18,.64,.31,.16,.14,.28,.3,.36,.5,.07,.19,.1,.4,.1,.64v4.44Zm-1.17-3.43c-.25,.08-.51,.18-.79,.3-.28,.11-.53,.25-.76,.4-.23,.15-.42,.32-.57,.5-.15,.18-.22,.38-.22,.58,0,.15,.03,.29,.08,.41,.05,.13,.12,.24,.21,.34,.09,.09,.19,.17,.31,.22,.11,.06,.24,.09,.36,.09,.14,0,.26-.02,.38-.05,.11-.04,.23-.08,.34-.14,.11-.06,.22-.12,.33-.2,.11-.08,.22-.16,.34-.25v-2.19Z" style="fill: #fff;"/>
      <path d="M155.05,59.56c-.15,.27-.36,.48-.62,.64-.26,.16-.58,.24-.96,.24-.2,0-.37-.03-.51-.1-.14-.07-.26-.16-.36-.28-.09-.12-.16-.26-.21-.43-.05-.17-.07-.35-.07-.56v-4.15h-1.02v-.28c.33,0,.6-.06,.81-.18,.21-.12,.38-.28,.52-.48,.14-.21,.24-.44,.32-.7,.08-.27,.15-.56,.2-.85h.33v2.01h1.32v.49h-1.32v4.15c0,.08,.02,.17,.05,.25,.03,.07,.08,.14,.14,.2,.05,.05,.12,.1,.2,.14,.08,.03,.16,.05,.25,.05,.13,0,.25-.04,.36-.1,.11-.07,.21-.14,.28-.24l.29,.2Z" style="fill: #fff;"/>
      <path d="M156.38,51.41c.09,0,.18,.01,.26,.05,.08,.04,.15,.07,.21,.13,.06,.05,.11,.12,.15,.19,.04,.07,.05,.15,.05,.22,0,.08-.02,.16-.05,.23-.04,.07-.09,.13-.15,.19-.06,.05-.13,.1-.21,.13-.08,.02-.17,.04-.26,.04-.09,0-.18-.02-.26-.04-.08-.04-.15-.08-.21-.13-.06-.06-.11-.12-.15-.19-.03-.07-.05-.15-.05-.23,0-.07,.02-.15,.05-.22,.04-.07,.09-.13,.15-.19,.07-.05,.14-.09,.21-.13,.08-.03,.16-.05,.26-.05m-.57,3.23l.82-.33h.34v6h-1.17v-5.67Z" style="fill: #fff;"/>
      <path d="M161.26,60.43c-.45,0-.86-.08-1.25-.24-.38-.16-.71-.37-.98-.64-.28-.27-.5-.59-.65-.95-.15-.36-.23-.75-.23-1.17s.08-.84,.23-1.23c.15-.38,.37-.71,.65-.99,.28-.28,.61-.51,.98-.67,.38-.16,.79-.24,1.25-.24s.86,.07,1.24,.22c.38,.15,.71,.36,.99,.62,.27,.26,.49,.57,.65,.92,.16,.35,.24,.73,.24,1.13,0,.44-.08,.86-.24,1.26-.15,.39-.37,.73-.65,1.03-.28,.29-.61,.53-.99,.7-.38,.17-.79,.25-1.24,.25m.21-.43c.24,0,.45-.06,.64-.18,.19-.12,.35-.28,.49-.48,.14-.2,.25-.44,.32-.7,.08-.27,.12-.55,.12-.84,0-.43-.04-.83-.11-1.2-.07-.37-.19-.7-.36-.98-.16-.28-.38-.5-.65-.65-.26-.16-.59-.24-.96-.24-.2,0-.39,.06-.57,.17-.19,.12-.34,.27-.49,.47-.14,.2-.25,.43-.33,.69-.09,.26-.13,.54-.13,.84,0,.42,.04,.83,.14,1.21,.09,.37,.22,.7,.39,.98,.17,.28,.38,.5,.63,.67,.25,.16,.54,.24,.85,.24" style="fill: #fff;"/>
      <path d="M165.48,54.42h1.17v1.08c.36-.4,.73-.7,1.11-.89,.38-.2,.78-.29,1.17-.29,.21,0,.4,.04,.58,.14,.18,.09,.33,.22,.47,.38,.13,.16,.24,.35,.32,.56,.07,.22,.11,.45,.11,.69v4.23h-1.17v-4.03c0-.39-.09-.69-.26-.89-.17-.2-.4-.3-.67-.3-.13,0-.26,.02-.39,.06-.14,.04-.28,.1-.42,.17-.14,.08-.28,.17-.43,.28-.14,.1-.28,.22-.42,.34v4.36h-1.17v-5.89Z" style="fill: #fff;"/>
      <g>
        <path d="M84.17,28.91s-.03,1.05-.03,1.48c-.26,11.66-.48,15.77-1.39,17.05-.6,.91-1.22,1.22-2.16,1.39-.82,.14-2.1,.14-3.4,.11-.06-.91-.43-2.21-.94-3.09,1.16,.09,2.24,.09,2.78,.09,.45,0,.71-.09,.96-.48,.57-.74,.82-4.23,1.02-13.5h-2.44c-.28,7.55-1.22,13.59-4.68,17.67-.43-.74-1.48-1.76-2.24-2.24-4.54,.48-9.25,.94-12.71,1.25l-.26-2.87c1.56-.06,3.49-.17,5.67-.31v-1.19h-4.6v-2.35h4.6v-.96h-5.16v-2.35h5.16v-1.02h-4.99v-6.01h4.99v-.96h-3.63v-3.4h-2.27v-2.5h2.27v-1.7h2.95v1.7h4.17v-1.7h3.09v1.7h2.07v2.5h-2.07v3.4h-3.6v.96h4.88v6.01h-4.88v1.02h4.99v2.35h-4.99v.96h4.43v2.35h-4.43v1.02c1.56-.09,3.18-.2,4.77-.31v1.67c2.61-3.49,3.29-8.45,3.49-14.69h-2.44v-3.04h2.5c.03-1.9,.03-3.86,.03-5.93h3.04c0,2.04-.03,4.03-.06,5.93h5.5Zm-22.21,6.38h2.61v-1.5h-2.61v1.5Zm1.73-6.87h4.17v-1.25h-4.17v1.25Zm5.82,5.36h-2.38v1.5h2.38v-1.5Z" style="fill: #fff;"/>
        <path d="M112.83,44.97v3.43h-25.73v-3.43h13.9c1.42-3.46,2.92-8.62,3.66-12.62l3.83,.74c-1.08,4.11-2.55,8.6-3.83,11.89h8.17Zm-1.19-13.53h-23.26v-3.4h10.3c-.28-1.28-.85-3.15-1.36-4.54l3.38-.85c.6,1.42,1.22,3.29,1.53,4.51l-3.04,.88h12.45v3.4Zm-17.39,12.85c-.34-3.04-1.39-7.69-2.35-11.21l3.4-.82c1.08,3.57,2.1,8.06,2.58,11.09l-3.63,.94Z" style="fill: #fff;"/>
        <path d="M136.09,22.96c-.09,1.79-.26,3.26-.68,4.54,1.84,.88,4.14,2.1,5.42,2.92l-1.48,1.7h1.13v5.45h-3.38v-2.89h-17.7v2.89h-3.23v-5.45h.51c-.34-.68-.94-1.45-1.39-1.9,4.85-1.13,5.45-3.18,5.67-7.26h2.92c-.09,1.82-.28,3.32-.71,4.62,1.42,.77,3.06,1.79,4.03,2.44l-2.07,2.07c-.71-.6-2.01-1.45-3.23-2.21-.82,.91-1.96,1.65-3.52,2.24h10.5c-.34-.74-.96-1.65-1.5-2.13,4.94-1.08,5.48-2.98,5.67-7.04h3.04Zm-18.1,4.82c-.45-.74-1.42-1.96-2.18-2.81l2.01-1.5c.77,.82,1.82,1.93,2.3,2.64l-2.13,1.67Zm10.01,14.69h10.67v6.98h-3.35v-.65h-13.53v.68h-3.18v-7.01h6.52c.14-.37,.31-.77,.45-1.16h-4.96v-5.62h15.32v5.62h-7.29l-.65,1.16Zm7.32,2.33h-13.53v1.62h13.53v-1.62Zm-11.57-5.53h8.88v-1.5h-8.88v1.5Zm.11-12.11c.62-.85,1.36-2.1,1.76-2.95l2.18,.71,2.01-1.5c.77,.82,1.79,1.93,2.27,2.64l-2.1,1.7c-.4-.65-1.19-1.65-1.84-2.47-.85,1.02-1.7,2.01-2.33,2.64l-1.96-.77Zm14.07,4.96c-1.08-.71-2.55-1.53-3.91-2.24-.82,.91-2.07,1.67-3.83,2.24h7.74Zm3.09-7.04c-.96,1.11-1.93,2.24-2.67,2.98l-2.04-.82c.65-.88,1.42-2.18,1.82-3.12l2.89,.96Z" style="fill: #fff;"/>
        <path d="M152.09,36.12c-.6,2.75-1.53,5.53-2.67,7.72,.37,.26,.79,.57,1.33,.88,1.93,1.16,4.57,1.33,7.89,1.33s8.34-.28,11.49-.74c-.4,.91-.91,2.55-.96,3.46-2.38,.14-7.35,.34-10.67,.34-3.74,0-6.13-.31-8.17-1.5-1.16-.65-2.18-1.59-2.75-1.59-.65,0-1.59,1.93-2.24,3.55l-2.24-3.23c1.16-1.48,2.44-2.55,3.49-3.04,.68-1.36,1.28-3.09,1.73-4.77h-3.8c.65-1.59,1.42-3.83,2.1-5.96h-3.01v-3.01h6.98c-.6,1.93-1.33,4.14-2.01,6.07h1.62l.48-.14,1.42,.62Zm-5.33-7.26c-.37-1.25-1.05-3.23-1.56-4.74l3.09-.91c.54,1.5,1.22,3.38,1.65,4.6l-3.18,1.05Zm6.61,2.55c-.68-.54-2.01-1.22-2.78-1.59,1.76-1.59,3.21-4.09,4.03-6.58l3.12,.74c-.23,.74-.54,1.48-.85,2.18h1.99v-3.18h3.35v3.18h6.18v2.87h-6.18v2.38h7.35v2.84h-18.24v-2.84h2.04Zm10.95,13.16v-.77h-7.66v.85h-3.23v-8.96h14.24v8.88h-3.35Zm-9.02-15.55c-.57,.91-1.19,1.7-1.82,2.38h5.39v-2.38h-3.57Zm9.02,11.94v-2.61h-7.66v2.61h7.66Z" style="fill: #fff;"/>
      </g>
    </g>
  </g>
</svg>