<?xml version="1.0" encoding="UTF-8"?>
<svg id="_圖層_2" data-name="圖層 2" xmlns="http://www.w3.org/2000/svg" width="115.12" height="50.07" viewBox="0 0 115.12 50.07">
  <g id="_設計" data-name="設計">
    <g>
      <path d="M12.72,35.86s-.08,1.97-2.22,1.16c0,0-3.49-1.52-4.09,1.13,0,0-.31,.58,1.69,2.73,0,0,2.84,2.83,2.74,4.23-.18,2.54-.58,4.15-4.82,4.88,0,0-3.89,.2-6.03-.98l.07-3.01s3.08,1.73,5.77,1.24c0,0,1.71-.12,1.49-1.57-.22-1.45-4.46-4.72-4.23-7.17,.23-2.44,1.56-4.73,6.38-4.58,0,0,3.38,.33,3.24,1.94m7.37,5.37c-.19,1.4-2.84,.91-6.66,2.77-3.82,1.86-2.64,5.32-1.39,5.83,.67,.27,4.3,.11,4.62,0,.31-.11,1.02-2.29,1.02-2.29l-2.02,.38c-1.96,.22-1.78-1.28-.79-1.76,.84-.41,4.24-1.5,4.24-1.5-.2,.89-.93,5.1-.93,5.1l3.42-.09c.22-3.53,.94-4.58,1.68-7.44,.75-2.86-.15-4.15-2.33-4.43-2.18-.29-6.8,.13-7.09,1.68-.29,1.56,1.37,1.54,1.37,1.54,5.8-1.42,4.88,.21,4.88,.21m3.72-1.86l1.46,10.46,4.57-.05c.56-1.35,5.66-9.71,5.66-9.71,.84-3.33-2.26-2.1-2.66-1.42-.41,.68-4.95,8.04-4.95,7.94,.04-1.4-.8-7.2-.81-7.67,0-.47-.89-1.23-1.83-1.12-.93,.12-1.33,1.52-1.33,1.52m19.06,2.23c-.11-.72-.54-1.75-1.84-1.74-1.3,.02-2.73,1.84-2.73,1.84l4.57-.1Zm1.78,2.01s1.44-1.31,.95-3.33c-.4-1.64-4.52-5.03-9.49,.21-.73,.77-4.24,5.96-.32,8.82,0,0,2.04,1.22,6.44,.45l1.37-2.82s-3.67,.98-4.97,.47c-1.47-.57-1.73-1.39-.87-3.67l6.9-.13Zm4.09,3.64c1.92,4.96,9.88,1.97,9.88,1.97l.37,.57,3.89-.09-1.27-2.47c.66-.69,1.8-1.99,2.61-3.55,.81-1.57-1.48-2.48-1.94-1.64-.46,.83-2.15,2.93-2.15,2.93-3.1-3.8-4.43-7.52-3.2-8.32,1.24-.79,3.52-.3,4.46-.36,.93-.06,1.8-1.58,.54-2.34-1.25-.76-6.02-.66-7.92,1.12-1.9,1.78-1.14,4.68-1.14,4.68-.51,.42-5.72,3.18-4.12,7.51m3.42-.76c1.58,2.27,5.03,.26,5.03,.26-1.31-1.39-3.01-5.06-3.01-5.06,0,0-3.61,2.53-2.02,4.8m17.74-9.58c-1.29,5.51,4.79,6.9,4.19,8.93-1.21,3.28-7.21-.18-7.21-.18l-.38,3.17s1.83,.97,4.42,1.09c2.59,.13,5.18-.57,6.45-3.34,1.27-2.76-.72-4.14-2.35-6.04-1.63-1.9-2.26-2.93-1.33-3.72,.92-.79,3.99,.16,3.99,.16,1.98,.34,2.24-2,.65-2.86-1.51-.82-7.07-.97-8.42,2.78m17.11,4.07c-.04,1.3-2.99,1.59-2.99,1.59-6.37,1.11-6.39,4.43-6.39,4.43,.1,3.94,6.1,2.84,6.1,2.84l.91-2.34c-.57,.32-2.54,.23-2.54,.23-1.72-.76-.22-1.61,.14-1.82,.36-.21,3.98-1.23,3.98-1.23l-1.14,5.2,3.73-.25c.02-3.37,1.12-6.65,1.12-6.7,1.32-2.76,.16-4.1,.16-4.1-1.57-1.69-7.27-.75-7.27-.75-3.41,1.08-1.6,3.19-.18,2.65,.57-.22,4.4-1.03,4.36,.26m3.98-1.55c-.04,1.45,1.36,1.39,1.36,1.39l-1.83,9.05h3.47s1.72-9.19,1.72-9.19l2.39,.03c.82-1.1,.33-2.75,.33-2.75l-2.18-.03c.08-2.13,2-1.73,2-1.73,1.91-.54,1.38-2.45,.44-2.5-.94-.04-2.44-.23-3.94,.56-1.5,.79-1.72,3.65-1.72,3.65-.16,0-2.02,.08-2.06,1.53m14.55,2.28c-.98-3.88-4.57,.05-4.57,.05l4.57-.05Zm-4.51,5.6c-1.67-.86-.92-3.52-.92-3.52l7.42-.13c1.49-1.26,1.55-5.52-3.28-5.83-4.83-.31-9.07,5.7-7.16,9.88,1.7,3.72,8.27,1.99,8.27,1.99l.96-2.6s-3.62,1.07-5.29,.21" style="fill: #fff; fill-rule: evenodd;"/>
      <path d="M22.52,9.21L24.42,.52l6.09,.05-2.29,8.32,14.17,.04-.36,2.97-14.47,.21s-2.52,11.49,10.1,16.08c.53,.16,1.31,2.95-1.56,2.04-3.45-.59-10.89-5.41-12.71-10.74,0,0-6.42,10.74-17.7,11.01,0,0-2.55-.44-.88-2.27,0,0,10.8-.74,16.78-15.92l-11.71-.15c-1.8,.03-1.63-3.05,.11-3.02l12.52,.06Zm22.65,.35l32.29-.25,1.37-6.59c-19.65-5.73-32.5,.25-32.5,.25l-1.17,6.59Zm5.76-2.81h3.78s.59-2.79,.59-2.79l-3.91,.06-.45,2.73Zm9.29-.27c-.07,.21,3.57,.16,3.57,.16l.58-3.43-3.49,.05-.66,3.23Zm9.16,.15s3.43,.23,3.57,.09l.1-2.52-3.36-.44-.31,2.87Zm-26.23,18.47l4.61-.07c-1.8,1.49-7.09,2.97-7.09,2.97-1.87,1.14,.24,2.23,.24,2.23,7.49,.46,13.3-3.75,13.3-3.75l-1.7-1.51,10,.14c-1.32,.86-1.65,1.63-1.65,1.63,4.03,2.95,12.42,3.46,12.42,3.46,3.49-.12,1.08-2.39,1.08-2.39-4.83-.5-7.66-2.9-7.66-2.9l5.73-.22,2.76-12.48c-15.01-4.33-29.35,.07-29.35,.07l-2.68,12.83Zm7.62-10.03l18.38-.19,.26-1.33c-7.08-1.37-18.45-.16-18.45-.16l-.19,1.68Zm-.78,3.78l18.45-.26c.41-.57,.12-1.47,.12-1.47l-18.17-.02c-.63,.36-.39,1.75-.39,1.75m-.79,3.71l18.59-.19c.34-.35,.12-1.61,.12-1.61l-18.24,.05c-.81,.12-.47,1.75-.47,1.75m36.49-12.39c.48-2.62,1.2-4.5,1.2-4.5,1.49-.4,9.01-.69,9.01-.69,13.01-.23,13.73,.56,13.73,.56,.07,1.12-.82,4.82-.82,4.82l5.13-.07c.53-2.11,1.17-6.18,1.17-6.18-3.96-2.56-13.53-2.47-13.53-2.47l.1-1.58-5.18-.07-.38,1.64c-1.77,.02-13.89,.47-14.41,2.66-.51,2.19-1.28,6.01-1.28,6.01l5.24-.14Zm1.57-1.38c-.04,1.63,1.43,1.62,1.43,1.62l4.15-.06c-6.52,4.1-11.34,3.43-11.34,3.43-2.47,.73-.2,2.34-.2,2.34,5.53,1.55,12.3-1.9,12.3-1.9-6.28,4.94-13.79,5.42-13.79,5.42-1.12,.11-1,2.02,.69,2.23,4.58,.22,14.23-3.33,14.23-3.33-7.29,6.31-16.29,6.53-16.29,6.53-1.71,1.01,.26,2.29,.82,2.18,7.71,.55,15.99-4.33,15.99-4.33,.17,2.1-.75,2.91-.75,2.91-1.79,2.08-6.67,.23-6.99,.66-.32,.42,.03,1.82,.03,1.82,.94,.45,6.77,3.45,9.45,1.5,2.68-1.95,3.35-7.56,3.35-7.56,2.01,3.47,8.96,6.31,9.53,6.58,.56,.27,1.13,.54,1.72-.21,.41-.52-.49-1.53-.49-1.53-3.34-1.92-7.47-6.62-7.47-6.62-1.51-1.19-.58-1.44-.58-1.44,8.14-1.7,10.31-6.64,10.31-6.64l-6.58-.09c-1.12,3.24-6.29,4.57-6.29,4.57-.7-3.73-.7-6.67-.7-6.67h7.61c1.2-1.43,.34-2.63,.34-2.63h-19.56s-.89-.04-.92,1.22" style="fill: #fff; fill-rule: evenodd;"/>
    </g>
  </g>
</svg>