<?xml version="1.0" encoding="UTF-8"?>
<svg id="_圖層_2" data-name="圖層 2" xmlns="http://www.w3.org/2000/svg" width="457.01" height="105.02" viewBox="0 0 457.01 105.02">
  <g id="_設計" data-name="設計">
    <g>
      <g>
        <path d="M99.2,32.03h18.09c2.98-.01,5.77,.35,8.38,1.09,2.62,.73,4.88,1.79,6.82,3.17,1.93,1.38,3.47,3.09,4.58,5.12,1.12,2.04,1.69,4.36,1.69,6.99s-.55,5.2-1.62,7.12c-1.08,1.91-2.5,3.51-4.27,4.77-1.77,1.27-3.77,2.21-6.02,2.83-2.25,.62-4.33,1.01-6.79,1.11-1,.03-2.16,.09-3.23,.03-1.08-.05-2.2-.13-3.23-.22-1.01-.09-1.91-.24-2.77-.36-.85-.1-2.28-.28-2.83-.4v21.15s-8.81,0-8.81,0V32.03Zm8.81,28.01c1.09,.31,3,.73,4.28,.96,1.32,.27,2.71,.35,4.02,.35,2.14,0,4.01-.52,5.6-1.16,1.61-.65,2.93-1.51,3.98-2.61,1.05-1.11,1.85-2.39,2.37-3.89,.54-1.48,.8-3.42,.8-5.12,0-1.97-.34-3.77-1.04-5.39-.69-1.62-1.63-2.99-2.82-4.14-1.2-1.15-2.6-2.03-4.2-2.63-1.6-.62-3.33-.92-5.18-.92h-7.83v24.54Z" style="fill: #4d4d4d;"/>
        <polygon points="179.59 32.03 179.59 35.41 151.97 35.41 151.97 54.17 170.44 54.17 170.44 57.55 151.97 57.55 151.97 81.04 179.59 81.04 179.59 84.42 143.16 84.42 143.16 32.03 179.59 32.03" style="fill: #4d4d4d;"/>
        <polygon points="187.4 84.42 182.76 84.42 204.83 58.6 184.72 32.03 195.17 32.03 210.38 52.16 227.52 32.03 232.2 32.03 212.52 55.04 234.84 84.42 224.3 84.42 207 61.49 187.4 84.42" style="fill: #4d4d4d;"/>
        <polygon points="54.42 45.18 27.91 101.64 34.9 101.64 54.42 60.23 54.42 45.18" style="fill: #848484;"/>
        <polygon points="54.43 0 93.69 84.42 86.68 84.42 54.43 15.05 54.43 0" style="fill: #848484;"/>
        <polygon points="54.43 15.06 13.95 101.64 20.97 101.64 54.43 30.12 54.43 15.06" style="fill: #4d4d4d;"/>
        <polygon points="54.43 30.13 79.68 84.42 72.68 84.42 54.43 45.18 54.43 30.13" style="fill: #4d4d4d;"/>
        <polygon points="54.43 60.23 65.66 84.42 58.64 84.42 54.43 75.28 54.43 60.23" style="fill: #848484;"/>
        <polygon points="0 101.64 7.01 101.64 54.42 0 54.42 0 47.41 0 0 101.64" style="fill: #848484;"/>
        <g>
          <path d="M47.2,91.29l4.79,10.41h-1.74l-1.56-3.39h-4.36l-1.61,3.39h-.86l4.9-10.41h.42Zm-2.56,6.36h3.74l-1.85-4.03-1.9,4.03Z" style="fill: #848484;"/>
          <path d="M52.94,90.27l1.11-.44h.45v5.49c.13-.23,.3-.43,.51-.63,.2-.19,.42-.37,.67-.51,.24-.15,.49-.26,.76-.35,.26-.08,.51-.13,.76-.13,.45,0,.87,.09,1.26,.28,.39,.18,.71,.44,1,.75,.28,.31,.49,.69,.64,1.11,.15,.42,.23,.87,.23,1.36,0,.43-.05,.84-.15,1.24-.1,.41-.25,.78-.44,1.12-.18,.35-.41,.66-.67,.95-.27,.28-.56,.53-.89,.73-.33,.2-.67,.36-1.04,.47-.38,.11-.77,.16-1.18,.16-.58,0-1.12-.07-1.64-.23-.51-.15-.96-.39-1.36-.71v-10.66Zm1.55,10.14c.09,.09,.2,.19,.32,.28,.12,.1,.25,.18,.39,.27,.15,.08,.3,.14,.47,.19,.18,.05,.37,.07,.59,.07,.37,0,.69-.08,.99-.26,.3-.17,.55-.42,.77-.73,.21-.31,.37-.69,.5-1.12,.11-.43,.18-.9,.18-1.42,0-.39-.07-.75-.18-1.09-.12-.35-.28-.64-.49-.89-.21-.25-.45-.45-.73-.6-.28-.15-.58-.22-.9-.22-.18,0-.36,.02-.55,.07-.18,.05-.37,.12-.53,.21-.17,.09-.32,.19-.47,.3-.14,.12-.26,.25-.36,.38v4.56Z" style="fill: #848484;"/>
          <path d="M65.61,101.87c-.6,0-1.15-.1-1.66-.31-.5-.21-.95-.5-1.31-.85-.38-.36-.66-.79-.87-1.27-.2-.49-.31-1-.31-1.55s.1-1.12,.31-1.63c.2-.5,.49-.94,.87-1.32,.36-.38,.81-.68,1.31-.9,.5-.22,1.06-.32,1.66-.32s1.15,.1,1.66,.3c.5,.2,.94,.47,1.31,.82,.37,.35,.66,.76,.87,1.23,.2,.47,.31,.97,.31,1.51,0,.59-.1,1.15-.31,1.67-.21,.52-.5,.97-.87,1.37-.36,.39-.8,.7-1.31,.93-.51,.23-1.06,.34-1.66,.34m.29-.58c.31,0,.59-.08,.84-.23,.26-.16,.48-.37,.66-.63,.19-.27,.34-.58,.44-.93,.1-.36,.15-.73,.15-1.12,0-.57-.05-1.1-.15-1.59-.09-.5-.26-.93-.47-1.3-.22-.37-.5-.66-.85-.87-.35-.21-.79-.32-1.3-.32-.26,0-.5,.08-.75,.23-.24,.15-.46,.37-.64,.62-.19,.26-.34,.57-.44,.92-.12,.35-.18,.72-.18,1.12,0,.57,.06,1.11,.18,1.61,.12,.5,.29,.93,.53,1.31,.23,.37,.51,.67,.85,.89,.33,.22,.72,.32,1.14,.32" style="fill: #848484;"/>
          <polygon points="71.99 93.85 74.76 99.79 77.43 93.85 78.14 93.85 74.6 101.79 74.06 101.79 70.36 93.85 71.99 93.85" style="fill: #848484;"/>
          <path d="M82.57,101.87c-.53,0-1.03-.1-1.5-.3-.47-.2-.87-.47-1.22-.82-.35-.34-.63-.74-.83-1.2-.2-.46-.31-.95-.31-1.48,0-.63,.09-1.21,.28-1.75,.18-.53,.45-.99,.79-1.39,.34-.39,.74-.69,1.21-.91,.47-.23,1.01-.34,1.59-.34,.51,0,.99,.09,1.42,.27,.42,.19,.79,.42,1.1,.73,.31,.31,.55,.66,.72,1.05,.18,.4,.26,.82,.26,1.26h-5.86c0,.53,.07,1.02,.2,1.46,.14,.45,.33,.84,.57,1.18,.26,.33,.54,.58,.88,.77,.34,.18,.72,.28,1.12,.28,.34,0,.66-.06,.97-.17,.31-.11,.6-.26,.85-.43,.25-.19,.47-.39,.64-.62,.18-.23,.31-.47,.38-.71l.45,.2c-.11,.4-.29,.78-.54,1.13-.25,.35-.54,.66-.88,.92-.34,.27-.7,.47-1.1,.62-.39,.15-.8,.23-1.2,.23m1.55-5.5c0-.3-.05-.58-.16-.82-.1-.27-.24-.49-.43-.67-.18-.19-.39-.33-.64-.44-.25-.1-.51-.16-.8-.16-.24,0-.46,.06-.68,.16-.21,.11-.4,.25-.57,.44-.17,.18-.31,.4-.42,.66-.1,.25-.17,.53-.2,.82h3.9Z" style="fill: #848484;"/>
          <path d="M92.12,93.85h1.56v1.61c.15-.2,.33-.41,.52-.61,.2-.21,.41-.4,.64-.57,.23-.17,.49-.31,.77-.42,.28-.1,.58-.16,.92-.16,.47,0,.89,.1,1.27,.29,.37,.2,.7,.46,.97,.79,.27,.34,.47,.72,.62,1.17,.15,.45,.21,.93,.21,1.43,0,.65-.09,1.25-.26,1.8-.18,.55-.43,1.03-.76,1.42-.34,.39-.74,.7-1.21,.93-.48,.23-1.01,.34-1.6,.34-.44,0-.82-.04-1.13-.13-.33-.09-.65-.24-.96-.45v3.72h-1.56v-11.16Zm1.56,5.74c0,.24,.05,.46,.15,.66,.1,.2,.24,.39,.43,.54,.18,.16,.4,.28,.66,.37,.26,.09,.54,.13,.85,.13,.29,0,.56-.07,.82-.22,.26-.15,.49-.36,.67-.63,.2-.27,.35-.6,.46-.98,.11-.38,.17-.8,.17-1.25,0-.58-.05-1.09-.15-1.52-.1-.43-.25-.79-.43-1.08-.18-.28-.39-.5-.65-.64-.25-.14-.52-.22-.81-.22-.23,0-.45,.04-.66,.11-.2,.07-.4,.17-.58,.28-.18,.12-.35,.25-.51,.4-.15,.16-.29,.32-.42,.48v3.56Z" style="fill: #848484;"/>
          <path d="M104.55,101.87c-.53,0-1.03-.1-1.5-.3-.46-.2-.87-.47-1.22-.82-.35-.34-.62-.74-.82-1.2-.2-.46-.31-.95-.31-1.48,0-.63,.09-1.21,.28-1.75,.18-.53,.44-.99,.78-1.39,.34-.39,.74-.69,1.22-.91,.47-.23,1-.34,1.58-.34,.52,0,.99,.09,1.41,.27,.44,.19,.8,.42,1.11,.73,.31,.31,.55,.66,.72,1.05,.18,.4,.26,.82,.26,1.26h-5.85c0,.53,.07,1.02,.2,1.46,.13,.45,.32,.84,.57,1.18,.25,.33,.53,.58,.88,.77,.34,.18,.71,.28,1.12,.28,.34,0,.66-.06,.98-.17,.31-.11,.59-.26,.85-.43,.26-.19,.46-.39,.64-.62,.18-.23,.31-.47,.38-.71l.45,.2c-.11,.4-.29,.78-.54,1.13-.25,.35-.54,.66-.88,.92-.34,.27-.7,.47-1.09,.62-.4,.15-.8,.23-1.2,.23m1.55-5.5c0-.3-.05-.58-.15-.82-.11-.27-.26-.49-.44-.67-.18-.19-.39-.33-.64-.44-.25-.1-.51-.16-.8-.16-.23,0-.46,.06-.67,.16-.21,.11-.41,.25-.58,.44-.17,.18-.31,.4-.42,.66-.11,.25-.18,.53-.2,.82h3.9Z" style="fill: #848484;"/>
          <path d="M113.55,101.87c-.61,0-1.15-.1-1.66-.31-.5-.21-.94-.5-1.32-.85-.36-.36-.66-.79-.86-1.27-.2-.49-.31-1-.31-1.55s.1-1.12,.31-1.63c.2-.5,.5-.94,.86-1.32,.38-.38,.82-.68,1.32-.9,.51-.22,1.06-.32,1.66-.32s1.14,.1,1.65,.3c.51,.2,.94,.47,1.31,.82,.37,.35,.66,.76,.87,1.23,.2,.47,.31,.97,.31,1.51,0,.59-.11,1.15-.31,1.67-.21,.52-.5,.97-.87,1.37-.36,.39-.8,.7-1.31,.93-.51,.23-1.06,.34-1.65,.34m.29-.58c.31,0,.58-.08,.84-.23,.26-.16,.48-.37,.66-.63,.18-.27,.33-.58,.43-.93,.1-.36,.15-.73,.15-1.12,0-.57-.04-1.1-.15-1.59-.09-.5-.26-.93-.47-1.3-.22-.37-.5-.66-.85-.87-.35-.21-.78-.32-1.29-.32-.26,0-.51,.08-.76,.23-.24,.15-.45,.37-.64,.62-.18,.26-.34,.57-.45,.92-.12,.35-.17,.72-.17,1.12,0,.57,.06,1.11,.18,1.61,.12,.5,.3,.93,.53,1.31,.23,.37,.52,.67,.85,.89,.34,.22,.71,.32,1.15,.32" style="fill: #848484;"/>
          <path d="M119.18,93.85h1.55v1.61c.15-.2,.34-.41,.53-.61,.19-.21,.41-.4,.64-.57,.23-.17,.49-.31,.77-.42,.28-.1,.58-.16,.92-.16,.46,0,.88,.1,1.26,.29,.38,.2,.7,.46,.97,.79,.27,.34,.47,.72,.62,1.17,.15,.45,.22,.93,.22,1.43,0,.65-.09,1.25-.26,1.8-.18,.55-.44,1.03-.77,1.42-.34,.39-.74,.7-1.21,.93-.47,.23-1.01,.34-1.6,.34-.43,0-.81-.04-1.13-.13-.32-.09-.64-.24-.96-.45v3.72h-1.55v-11.16Zm1.55,5.74c0,.24,.05,.46,.15,.66,.1,.2,.25,.39,.43,.54,.18,.16,.4,.28,.66,.37,.26,.09,.54,.13,.85,.13s.56-.07,.82-.22c.26-.15,.48-.36,.67-.63,.19-.27,.35-.6,.45-.98,.11-.38,.17-.8,.17-1.25,0-.58-.06-1.09-.16-1.52-.1-.43-.25-.79-.42-1.08-.18-.28-.4-.5-.65-.64-.26-.14-.53-.22-.82-.22-.23,0-.44,.04-.65,.11-.21,.07-.41,.17-.58,.28-.19,.12-.36,.25-.51,.4-.16,.16-.3,.32-.42,.48v3.56Z" style="fill: #848484;"/>
          <polygon points="129.76 101.7 128.2 101.7 128.2 90.27 129.31 89.84 129.76 89.84 129.76 101.7" style="fill: #848484;"/>
          <path d="M135.14,101.87c-.53,0-1.03-.1-1.5-.3-.46-.2-.87-.47-1.22-.82-.34-.34-.63-.74-.82-1.2-.2-.46-.31-.95-.31-1.48,0-.63,.09-1.21,.28-1.75,.18-.53,.44-.99,.78-1.39,.34-.39,.74-.69,1.22-.91,.47-.23,1.01-.34,1.58-.34,.52,0,.98,.09,1.42,.27,.43,.19,.8,.42,1.1,.73,.31,.31,.55,.66,.72,1.05,.17,.4,.26,.82,.26,1.26h-5.85c0,.53,.07,1.02,.2,1.46,.14,.45,.33,.84,.58,1.18,.25,.33,.54,.58,.88,.77,.34,.18,.71,.28,1.12,.28,.34,0,.67-.06,.98-.17,.31-.11,.59-.26,.85-.43,.25-.19,.46-.39,.64-.62,.18-.23,.31-.47,.39-.71l.44,.2c-.12,.4-.3,.78-.55,1.13-.25,.35-.54,.66-.88,.92-.34,.27-.7,.47-1.09,.62-.39,.15-.8,.23-1.2,.23m1.56-5.5c0-.3-.05-.58-.16-.82-.1-.27-.25-.49-.43-.67-.19-.19-.4-.33-.65-.44-.25-.1-.51-.16-.79-.16-.24,0-.47,.06-.68,.16-.22,.11-.41,.25-.57,.44-.18,.18-.31,.4-.42,.66-.12,.25-.18,.53-.2,.82h3.9Z" style="fill: #848484;"/>
          <path d="M139.94,94.51c.24-.07,.46-.15,.66-.28,.2-.11,.39-.25,.53-.41,.15-.15,.27-.32,.36-.5,.09-.18,.13-.37,.13-.56,0-.11-.02-.21-.07-.29-.05-.09-.1-.13-.17-.13s-.12,.02-.17,.04c-.04,.03-.09,.06-.13,.09-.04,.03-.09,.05-.15,.08-.06,.03-.15,.04-.24,.04-.1,0-.2-.02-.29-.07-.09-.05-.18-.1-.24-.18-.07-.08-.12-.17-.16-.28-.04-.1-.07-.22-.07-.34s.04-.25,.09-.37c.05-.11,.13-.21,.23-.3,.09-.08,.2-.15,.33-.2,.13-.05,.26-.07,.41-.07,.19,0,.36,.04,.53,.12,.17,.08,.31,.2,.44,.35,.12,.14,.21,.31,.28,.51,.07,.19,.11,.4,.11,.61,0,.35-.07,.66-.2,.96-.13,.29-.3,.55-.53,.77-.22,.22-.47,.39-.76,.52-.29,.13-.59,.21-.93,.23v-.36Z" style="fill: #848484;"/>
          <path d="M146.31,101.33c.2,0,.41-.04,.59-.1,.18-.06,.33-.15,.47-.26,.12-.11,.23-.23,.3-.37,.07-.15,.11-.28,.11-.43,0-.24-.06-.46-.18-.63-.12-.17-.28-.34-.47-.48-.2-.15-.42-.28-.68-.39-.25-.12-.5-.24-.77-.36-.26-.12-.53-.25-.77-.4-.25-.15-.47-.31-.67-.5-.2-.19-.36-.4-.48-.65-.12-.24-.18-.54-.18-.87,0-.31,.07-.61,.2-.87,.13-.27,.32-.5,.55-.7,.24-.2,.53-.35,.85-.46,.32-.11,.69-.17,1.07-.17,.26,0,.5,.02,.74,.06,.23,.04,.44,.1,.66,.2,.21,.11,.43,.26,.64,.44,.22,.19,.45,.44,.69,.74l-.58,.51c-.29-.48-.62-.85-.98-1.08-.37-.24-.77-.35-1.18-.35-.23,0-.42,.02-.61,.08-.19,.05-.34,.13-.47,.22-.13,.09-.23,.21-.31,.34-.07,.13-.11,.26-.11,.4,0,.24,.07,.44,.2,.62,.13,.17,.3,.33,.52,.47,.22,.14,.46,.27,.73,.39,.28,.11,.55,.24,.84,.37,.28,.12,.56,.25,.84,.39,.27,.15,.52,.31,.74,.5,.21,.19,.39,.4,.52,.65,.12,.24,.2,.53,.2,.85s-.07,.65-.19,.93c-.12,.28-.31,.55-.56,.76-.25,.21-.56,.38-.93,.5-.38,.12-.82,.18-1.32,.18-.23,0-.46-.01-.7-.05-.24-.04-.48-.1-.73-.21-.25-.11-.5-.26-.74-.44-.24-.19-.48-.44-.72-.75l.64-.58c.19,.26,.36,.49,.55,.68,.17,.19,.35,.35,.53,.46,.18,.12,.36,.21,.56,.26,.19,.05,.4,.08,.62,.08" style="fill: #848484;"/>
          <path d="M158.74,101.87c-.53,0-1.03-.1-1.5-.3-.46-.2-.87-.47-1.22-.82-.35-.34-.63-.74-.82-1.2-.2-.46-.31-.95-.31-1.48,0-.63,.09-1.21,.28-1.75,.18-.53,.45-.99,.78-1.39,.34-.39,.74-.69,1.21-.91,.48-.23,1.01-.34,1.59-.34,.52,0,.99,.09,1.42,.27,.43,.19,.8,.42,1.1,.73,.31,.31,.55,.66,.72,1.05,.16,.4,.25,.82,.25,1.26h-5.85c0,.53,.07,1.02,.2,1.46,.14,.45,.33,.84,.57,1.18,.25,.33,.54,.58,.88,.77,.34,.18,.71,.28,1.12,.28,.34,0,.66-.06,.98-.17,.31-.11,.59-.26,.84-.43,.26-.19,.47-.39,.65-.62,.18-.23,.31-.47,.38-.71l.44,.2c-.11,.4-.29,.78-.54,1.13-.25,.35-.54,.66-.88,.92-.33,.27-.69,.47-1.09,.62-.4,.15-.8,.23-1.2,.23m1.56-5.5c0-.3-.05-.58-.16-.82-.11-.27-.26-.49-.44-.67-.18-.19-.4-.33-.64-.44-.25-.1-.51-.16-.79-.16-.24,0-.47,.06-.69,.16-.21,.11-.4,.25-.57,.44-.17,.18-.31,.4-.42,.66-.11,.25-.17,.53-.2,.82h3.9Z" style="fill: #848484;"/>
          <polygon points="163.54 101.7 162.69 101.7 165.97 97.7 163.19 93.86 165.03 93.86 166.95 96.49 169.1 93.86 169.96 93.86 167.35 97.04 170.71 101.7 168.89 101.7 166.39 98.24 163.54 101.7" style="fill: #848484;"/>
          <path d="M171.17,93.85h1.56v1.61c.15-.2,.33-.41,.52-.61,.2-.21,.41-.4,.64-.57,.23-.17,.5-.31,.77-.42,.28-.1,.58-.16,.92-.16,.47,0,.89,.1,1.27,.29,.38,.2,.7,.46,.96,.79,.27,.34,.48,.72,.62,1.17,.15,.45,.23,.93,.23,1.43,0,.65-.09,1.25-.27,1.8-.18,.55-.44,1.03-.77,1.42-.34,.39-.74,.7-1.21,.93-.47,.23-1.01,.34-1.59,.34-.44,0-.81-.04-1.14-.13-.32-.09-.64-.24-.96-.45v3.72h-1.56v-11.16Zm1.56,5.74c0,.24,.05,.46,.15,.66,.11,.2,.25,.39,.44,.54,.18,.16,.4,.28,.66,.37,.26,.09,.54,.13,.85,.13,.28,0,.56-.07,.82-.22,.26-.15,.47-.36,.67-.63,.19-.27,.34-.6,.45-.98,.11-.38,.17-.8,.17-1.25,0-.58-.05-1.09-.15-1.52-.1-.43-.25-.79-.43-1.08-.18-.28-.39-.5-.64-.64-.26-.14-.53-.22-.82-.22-.22,0-.44,.04-.65,.11-.2,.07-.41,.17-.58,.28-.18,.12-.35,.25-.51,.4-.15,.16-.3,.32-.42,.48v3.56Z" style="fill: #848484;"/>
          <path d="M183.6,101.87c-.53,0-1.03-.1-1.5-.3-.46-.2-.87-.47-1.22-.82-.35-.34-.63-.74-.83-1.2-.2-.46-.3-.95-.3-1.48,0-.63,.09-1.21,.28-1.75,.18-.53,.44-.99,.78-1.39,.34-.39,.74-.69,1.21-.91,.48-.23,1.01-.34,1.59-.34,.51,0,.98,.09,1.42,.27,.42,.19,.8,.42,1.1,.73,.31,.31,.55,.66,.72,1.05,.18,.4,.26,.82,.26,1.26h-5.86c0,.53,.07,1.02,.2,1.46,.14,.45,.33,.84,.57,1.18,.25,.33,.55,.58,.88,.77,.34,.18,.71,.28,1.12,.28,.34,0,.66-.06,.98-.17,.31-.11,.59-.26,.84-.43,.26-.19,.47-.39,.65-.62,.18-.23,.31-.47,.38-.71l.45,.2c-.12,.4-.3,.78-.55,1.13-.26,.35-.54,.66-.88,.92-.34,.27-.7,.47-1.09,.62-.4,.15-.8,.23-1.2,.23m1.55-5.5c0-.3-.05-.58-.15-.82-.11-.27-.26-.49-.44-.67-.18-.19-.4-.33-.64-.44-.25-.1-.51-.16-.79-.16-.25,0-.47,.06-.69,.16-.21,.11-.4,.25-.57,.44-.17,.18-.31,.4-.42,.66-.11,.25-.18,.53-.2,.82h3.89Z" style="fill: #848484;"/>
          <path d="M192.1,101.87c-.51,0-.99-.1-1.44-.31-.44-.2-.84-.48-1.17-.82-.33-.36-.6-.77-.79-1.24-.19-.47-.29-.97-.29-1.5,0-.6,.11-1.15,.32-1.68,.21-.53,.5-.98,.88-1.36,.36-.39,.8-.69,1.29-.92,.5-.23,1.03-.34,1.59-.34,.44,0,.84,.05,1.21,.14,.37,.09,.69,.23,.96,.39,.27,.18,.47,.37,.63,.59,.15,.23,.23,.48,.23,.74,0,.12-.04,.23-.09,.34-.07,.11-.14,.2-.24,.27-.09,.07-.2,.13-.33,.18-.12,.04-.26,.07-.38,.07-.14,0-.27-.02-.38-.08-.11-.05-.21-.11-.28-.19-.09-.08-.15-.17-.18-.28-.04-.09-.07-.2-.07-.31,0-.18-.01-.35-.05-.51-.04-.16-.1-.29-.2-.41-.09-.11-.23-.2-.4-.26-.18-.07-.39-.1-.66-.1-.35,0-.67,.07-.96,.22-.28,.14-.52,.34-.72,.59-.19,.23-.34,.52-.44,.85-.1,.33-.15,.68-.15,1.06,0,.5,.07,.96,.2,1.42,.13,.44,.31,.83,.55,1.17,.24,.34,.53,.6,.86,.8,.34,.2,.72,.3,1.13,.3,.36,0,.68-.06,.94-.18,.27-.11,.5-.26,.7-.46,.2-.2,.37-.42,.51-.68,.14-.26,.26-.54,.38-.82l.47,.19c-.14,.5-.31,.94-.53,1.32-.23,.39-.5,.72-.8,.98-.3,.27-.64,.48-1.02,.62-.39,.14-.8,.21-1.26,.21" style="fill: #848484;"/>
          <path d="M201.35,100.7c-.21,.36-.48,.64-.83,.85-.34,.21-.77,.31-1.28,.31-.26,0-.48-.04-.68-.13-.2-.09-.36-.21-.48-.37-.12-.16-.21-.35-.28-.58-.07-.23-.09-.47-.09-.74v-5.54h-1.36v-.38c.44,0,.8-.08,1.08-.24,.28-.16,.51-.38,.69-.64,.18-.27,.33-.58,.42-.94,.11-.36,.2-.74,.28-1.14h.44v2.67h1.77v.66h-1.77v5.54c0,.11,.03,.22,.07,.33,.04,.1,.1,.19,.18,.26,.08,.07,.16,.14,.27,.18,.1,.04,.21,.07,.33,.07,.17,0,.34-.05,.48-.13,.15-.09,.27-.19,.38-.32l.39,.27Z" style="fill: #848484;"/>
          <path d="M208.06,101.7h-1.55v-1.07c-.18,.14-.36,.28-.54,.44-.18,.14-.38,.27-.58,.4-.21,.12-.45,.22-.69,.3-.26,.08-.55,.11-.88,.11s-.59-.05-.83-.15c-.24-.1-.46-.24-.63-.42-.18-.18-.31-.38-.4-.62-.09-.24-.15-.5-.15-.78,0-.34,.08-.64,.21-.92,.14-.27,.31-.51,.55-.73,.23-.22,.5-.41,.81-.57,.31-.16,.63-.31,.98-.44,.35-.13,.71-.25,1.07-.35,.36-.11,.73-.2,1.08-.29v-.49c0-.36-.04-.66-.11-.9-.07-.24-.17-.44-.3-.59-.13-.15-.29-.26-.48-.32-.19-.06-.39-.09-.63-.09-.26,0-.48,.03-.64,.09-.17,.07-.3,.16-.39,.27-.09,.11-.16,.24-.2,.38-.04,.15-.05,.29-.05,.44,0,.14,0,.27-.03,.39-.03,.12-.07,.24-.12,.34-.06,.09-.14,.17-.24,.23-.09,.05-.23,.08-.38,.08-.25,0-.44-.08-.6-.26-.15-.18-.23-.39-.23-.65s.08-.5,.26-.73c.18-.22,.4-.41,.69-.58,.29-.16,.63-.29,1.01-.39,.38-.09,.78-.14,1.21-.14,.51,0,.95,.05,1.31,.15,.35,.1,.63,.24,.85,.41,.22,.18,.38,.4,.48,.66,.09,.26,.14,.54,.14,.85v5.93Zm-1.55-4.57c-.34,.1-.69,.24-1.06,.39-.37,.15-.7,.33-1.01,.53-.31,.2-.56,.42-.76,.67-.2,.24-.3,.5-.3,.77,0,.2,.04,.38,.1,.55,.07,.17,.16,.32,.28,.46,.12,.12,.26,.23,.41,.3,.15,.08,.31,.12,.47,.12,.18,0,.34-.03,.5-.07,.15-.05,.31-.11,.46-.19,.15-.07,.3-.16,.45-.27,.15-.11,.3-.22,.46-.34v-2.93Z" style="fill: #848484;"/>
          <path d="M214.32,100.7c-.2,.36-.48,.64-.83,.85-.34,.21-.77,.31-1.28,.31-.26,0-.49-.04-.69-.13-.19-.09-.35-.21-.47-.37-.12-.16-.22-.35-.28-.58-.07-.23-.09-.47-.09-.74v-5.54h-1.36v-.38c.44,0,.8-.08,1.08-.24,.28-.16,.51-.38,.69-.64,.18-.27,.32-.58,.42-.94,.11-.36,.2-.74,.27-1.14h.44v2.67h1.77v.66h-1.77v5.54c0,.11,.02,.22,.07,.33,.04,.1,.11,.19,.18,.26,.07,.07,.16,.14,.26,.18,.1,.04,.22,.07,.34,.07,.17,0,.34-.05,.47-.13,.15-.09,.28-.19,.38-.32l.39,.27Z" style="fill: #848484;"/>
          <path d="M216.1,89.84c.12,0,.23,.02,.34,.06,.11,.05,.2,.1,.28,.17,.08,.07,.15,.15,.2,.25,.05,.1,.07,.2,.07,.3,0,.11-.02,.21-.07,.3-.05,.09-.12,.17-.2,.25-.08,.07-.17,.13-.28,.17-.11,.03-.23,.05-.34,.05-.12,0-.23-.02-.34-.05-.1-.05-.2-.11-.28-.17-.08-.08-.15-.16-.2-.25-.04-.09-.07-.2-.07-.3,0-.1,.02-.2,.07-.3,.05-.1,.12-.18,.2-.25,.09-.07,.18-.12,.28-.17,.11-.04,.22-.06,.34-.06m-.77,4.31l1.09-.45h.46v8.01h-1.55v-7.56Z" style="fill: #848484;"/>
          <path d="M222.61,101.87c-.61,0-1.15-.1-1.66-.31-.5-.21-.94-.5-1.31-.85-.37-.36-.66-.79-.87-1.27-.2-.49-.31-1-.31-1.55s.1-1.12,.31-1.63c.2-.5,.5-.94,.87-1.32,.37-.38,.81-.68,1.31-.9,.51-.22,1.06-.32,1.66-.32s1.15,.1,1.65,.3c.5,.2,.94,.47,1.31,.82,.37,.35,.66,.76,.86,1.23,.21,.47,.31,.97,.31,1.51,0,.59-.1,1.15-.31,1.67-.2,.52-.5,.97-.86,1.37-.37,.39-.81,.7-1.31,.93-.5,.23-1.05,.34-1.65,.34m.28-.58c.31,0,.6-.08,.85-.23,.25-.16,.47-.37,.66-.63,.19-.27,.34-.58,.43-.93,.11-.36,.16-.73,.16-1.12,0-.57-.05-1.1-.15-1.59-.09-.5-.26-.93-.47-1.3-.22-.37-.51-.66-.86-.87-.34-.21-.78-.32-1.28-.32-.26,0-.52,.08-.76,.23-.25,.15-.46,.37-.65,.62-.18,.26-.34,.57-.44,.92-.12,.35-.17,.72-.17,1.12,0,.57,.06,1.11,.18,1.61,.12,.5,.3,.93,.53,1.31,.23,.37,.51,.67,.84,.89,.34,.22,.71,.32,1.14,.32" style="fill: #848484;"/>
          <path d="M228.24,93.85h1.56v1.43c.48-.53,.98-.93,1.48-1.19,.51-.26,1.04-.39,1.56-.39,.28,0,.53,.06,.77,.19,.24,.12,.44,.29,.63,.5,.18,.22,.31,.47,.42,.75,.09,.29,.15,.6,.15,.92v5.64h-1.56v-5.37c0-.52-.12-.92-.35-1.18-.23-.26-.53-.4-.9-.4-.17,0-.34,.03-.53,.08-.18,.06-.38,.14-.56,.23-.19,.11-.38,.22-.57,.37-.19,.13-.37,.3-.55,.46v5.81h-1.56v-7.85Z" style="fill: #848484;"/>
        </g>
      </g>
      <g>
        <g>
          <path d="M276.66,101.28l8.52-20.03,8.86,20.03h-4.1l-2.15-5.23h-7.15l-2.14,5.23h-1.83Zm4.51-6.46h6.04l-3.02-7.17-3.01,7.17Z" style="fill: #4d4d4d;"/>
          <path d="M296.59,101.28v-19.63h7.43c2.21,0,3.95,.52,5.23,1.56,1.26,1.04,1.9,2.47,1.9,4.27s-.59,3.14-1.75,4.14c-1.18,1-2.79,1.51-4.83,1.51h-4.12v8.15h-3.85Zm3.85-9.36h1.71c1.72,0,3.01-.35,3.87-1.04,.85-.71,1.28-1.76,1.28-3.17,0-1.61-.43-2.81-1.27-3.61-.85-.79-2.14-1.2-3.88-1.2h-1.71v9.02Z" style="fill: #4d4d4d;"/>
          <path d="M314.66,101.28v-19.63h12.83v1.46h-8.98v7.19h8.34v1.48h-8.34v8.03h8.98v1.47h-12.83Z" style="fill: #4d4d4d;"/>
          <path d="M329.34,101.28l6.93-9.3-6.9-10.33h4.36l4.95,7.39,5.48-7.39h2.19l-6.64,8.81,7.4,10.83h-4.39l-5.34-7.91-5.84,7.91h-2.19Z" style="fill: #4d4d4d;"/>
          <path d="M375.69,92.1v6.63c-1.22,1.01-2.49,1.76-3.8,2.28-1.32,.51-2.67,.76-4.08,.76-3.1,0-5.6-.95-7.52-2.84-1.92-1.89-2.87-4.38-2.87-7.46s.96-5.36,2.89-7.32c1.93-1.94,4.32-2.93,7.18-2.93,1.73,0,3.24,.34,4.52,1.01,1.27,.67,2.33,1.69,3.17,3.04l-1.24,.83c-.64-1.19-1.44-2.09-2.39-2.69-.95-.59-2.04-.89-3.28-.89-2.07,0-3.72,.81-4.94,2.44-1.21,1.62-1.82,3.84-1.82,6.65s.58,4.8,1.74,6.31c1.17,1.5,2.79,2.26,4.87,2.26,.8,0,1.55-.11,2.26-.36,.7-.24,1.3-.58,1.8-1.02v-6.69h3.49Z" style="fill: #4d4d4d;"/>
          <path d="M379.96,101.28v-19.63h6.79c2.58,0,4.52,.49,5.84,1.45,1.32,.97,1.98,2.4,1.98,4.29,0,1.41-.47,2.53-1.41,3.34-.93,.81-2.26,1.26-3.99,1.35l5.49,9.2h-4.31l-5.57-9.96c2.18-.14,3.73-.52,4.62-1.15,.91-.64,1.36-1.61,1.36-2.94,0-1.45-.45-2.54-1.33-3.26-.9-.71-2.24-1.08-4.03-1.08h-1.59v18.38h-3.84Z" style="fill: #4d4d4d;"/>
          <path d="M407.57,101.77c-1.45,0-2.8-.25-4.08-.75-1.28-.49-2.41-1.22-3.43-2.17-1-.95-1.77-2.05-2.28-3.31-.53-1.25-.78-2.6-.78-4.04s.26-2.81,.79-4.07c.52-1.25,1.3-2.35,2.31-3.29,1.01-.94,2.16-1.66,3.44-2.16,1.28-.51,2.63-.76,4.03-.76,1.13,0,2.23,.17,3.29,.5,1.06,.34,2.06,.81,3,1.45,1.39,.96,2.46,2.16,3.21,3.59,.75,1.43,1.12,3.02,1.12,4.73,0,1.45-.27,2.8-.8,4.05-.53,1.25-1.31,2.34-2.32,3.3-1.03,.95-2.18,1.69-3.45,2.17-1.27,.5-2.62,.75-4.05,.75Zm6.49-10.27c0-2.68-.61-4.85-1.82-6.52-1.2-1.65-2.76-2.49-4.67-2.49s-3.44,.84-4.66,2.49c-1.22,1.67-1.82,3.85-1.82,6.52s.6,4.84,1.82,6.51c1.22,1.66,2.77,2.5,4.66,2.5s3.45-.83,4.67-2.49c1.21-1.66,1.82-3.83,1.82-6.52Z" style="fill: #4d4d4d;"/>
          <path d="M421.97,81.65h3.85v11.85c0,2.32,.34,3.92,1.02,4.83,.69,.91,1.84,1.36,3.47,1.36s2.77-.45,3.45-1.36c.67-.91,1.02-2.51,1.02-4.83v-11.85h1.85v12.51c0,2.54-.61,4.44-1.83,5.71-1.21,1.27-3.04,1.9-5.48,1.9-1.09,0-2.13-.18-3.13-.56-1-.37-1.82-.88-2.47-1.52-.63-.62-1.08-1.35-1.35-2.15-.26-.81-.4-1.93-.4-3.38v-12.51Z" style="fill: #4d4d4d;"/>
          <path d="M441.74,101.28v-19.63h7.43c2.22,0,3.95,.52,5.23,1.56,1.26,1.04,1.9,2.47,1.9,4.27s-.58,3.14-1.75,4.14c-1.17,1-2.77,1.51-4.83,1.51h-4.13v8.15h-3.85Zm3.85-9.36h1.71c1.72,0,3.01-.35,3.87-1.04,.85-.71,1.28-1.76,1.28-3.17,0-1.61-.42-2.81-1.27-3.61-.84-.79-2.14-1.2-3.88-1.2h-1.71v9.02Z" style="fill: #4d4d4d;"/>
        </g>
        <g>
          <path d="M275.95,38.57h13.74v-7.15h3.98v7.15h13.9v17.64h-13.9v9.48h-3.98v-9.48h-13.74v-17.64Zm13.74,14.29v-10.95h-9.7v10.95h9.7Zm13.84,0v-10.95h-9.86v10.95h9.86Z" style="fill: #4d4d4d;"/>
          <path d="M324.48,32.87h12.01v2.63c-.89,2.81-1.93,5.82-3.11,9,1,1.7,1.72,3.25,2.15,4.6,.54,1.41,.82,2.6,.82,3.6v.06c1.06-.63,1.99-1.29,2.82-1.99,.66-.53,1.3-1.25,1.92-2.15h-5.04v-2.96h23.54v2.96h-14.6c-.39,.75-.83,1.42-1.32,2.01h14.84c-.08,7.92-.83,12.44-2.24,13.57-.75,.99-3.34,1.49-7.79,1.49l-.73-3.5c1.11,.19,2.04,.29,2.77,.29,1.39,0,2.45-.3,3.17-.91,.66-.56,1.08-3.23,1.27-8.03h-1.35c-1.61,3.12-3.25,5.43-4.89,6.96-2.06,2.02-5.1,3.75-9.14,5.19l-1.84-2.82c3.7-1.23,6.58-2.74,8.63-4.51,1.34-1.19,2.56-2.8,3.69-4.82h-2.6c-1.08,1.66-2.44,3.06-4.05,4.24-1.94,1.53-4.45,2.96-7.5,4.27l-2.04-2.52c2.75-1.04,5.04-2.17,6.9-3.39,1.04-.66,2.01-1.51,2.91-2.59h-2.72c-1.24,1.05-2.72,2.03-4.45,2.93l-.65-.8c-.22,.48-.49,.89-.77,1.2-.82,1-2.6,1.5-5.35,1.5l-1.11-3.5c.69,.09,1.31,.14,1.84,.14,.75,0,1.27-.18,1.58-.5,.41-.27,.62-.87,.62-1.79,0-1.11-.2-2.17-.58-3.17-.41-1.3-1.2-2.8-2.35-4.55,1.41-3.51,2.44-6.48,3.08-8.87h-4.63v29.6h-3.69V32.87Zm12.94-.28h19.73v11.37h-19.73v-11.37Zm3.53,4.33h12.6v-1.89h-12.6v1.89Zm12.6,4.53v-2.15h-12.6v2.15h12.6Z" style="fill: #4d4d4d;"/>
          <path d="M381.01,31.12l3.66,.7c-.55,1.14-1.1,2.2-1.65,3.21h8.66c-.75-1.03-1.58-2-2.51-2.91l3.97-.58c.9,1.03,1.73,2.2,2.51,3.5h11.39v2.77h-12.63v2.04h11.25v2.52h-11.25v1.99h11.25v2.53h-11.25v2.14h12.94v2.92h-14.21v1.89h15.6v2.91h-11.29c1.56,1.49,3,2.51,4.28,3.07,1.72,.83,4.11,1.62,7.17,2.37l-2.01,3.06c-3.66-1.08-6.39-2.22-8.17-3.36-1.82-1.22-3.58-2.92-5.27-5.15h-.31v8.94h-3.68v-8.94h-.3c-1.11,1.42-2.36,2.58-3.77,3.51-2.21,1.53-5.42,3.04-9.63,4.52l-2.04-3.06c4.28-1.19,7.33-2.31,9.12-3.32,.9-.46,1.72-1.01,2.44-1.65h-11.71v-2.91h15.89v-1.89h-11.85v-9.07c-.62,.73-1.22,1.38-1.84,1.96l-2.66-3.06c3.46-3.22,6.1-6.78,7.9-10.65Zm9.87,8.72v-2.04h-9.52c-.08,.11-.15,.23-.2,.32v1.72h9.72Zm0,4.51v-1.99h-9.72v1.99h9.72Zm0,4.67v-2.14h-9.72v2.14h9.72Z" style="fill: #4d4d4d;"/>
          <path d="M457.01,32.25v33.16h-3.24v-1.06h-27.54v1.06h-3.24V32.25h34.02Zm-30.78,29.31h27.54v-26.54h-27.54v26.54Zm1.35-24.65h10.5v-1.41h3.08v1.41h11.22v2.37h-11.22v1.31h9.71v8.89h-1.89c1.2,1.15,2.18,2.18,2.91,3.06l-2.42,1.61c-.35-.51-.75-1.04-1.14-1.57-.27,.03-.51,.04-.7,.04v1.82h4.93v2.3h-4.93v1.61c0,.9-.27,1.53-.82,1.89-.46,.41-1.31,.62-2.58,.62h-4.46l-.46-2.51c1.59,.19,2.93,.29,4,.29,.83,0,1.24-.23,1.24-.69v-1.21h-9.67c.87,.96,1.62,1.98,2.24,3.07l-2.93,1.2c-.76-1.43-1.63-2.7-2.58-3.79l1.53-.48h-5.43v-2.3h16.84v-1.6c-4.77,.3-10.12,.57-16.02,.84l-.61-2.6c3.44-.06,6.81-.18,10.15-.32v-1.29h-9.28v-8.89h9.28v-1.31h-10.5v-2.37Zm4.2,7.15h6.31v-1.31h-6.31v1.31Zm6.31,3.2v-1.3h-6.31v1.3h6.31Zm3.08-4.51v1.31h6.79v-1.31h-6.79Zm6.79,4.51v-1.3h-6.79v1.3h6.79Zm-1.35,3.19c-.28-.35-.58-.66-.89-.96h-4.55v1.18c1.84-.08,3.66-.16,5.43-.22Z" style="fill: #4d4d4d;"/>
        </g>
      </g>
    </g>
  </g>
</svg>