<?xml version="1.0" encoding="UTF-8"?>
<svg id="_圖層_2" data-name="圖層 2" xmlns="http://www.w3.org/2000/svg" width="264.51" height="97.14" viewBox="0 0 264.51 97.14">
  <g id="_設計" data-name="設計">
    <g>
      <g>
        <polygon points="49.91 41.43 25.59 93.23 32.01 93.23 49.91 55.24 49.91 41.43" style="fill: #0062ae;"/>
        <polygon points="49.92 0 85.93 77.42 79.5 77.42 49.92 13.8 49.92 0" style="fill: #009644;"/>
        <polygon points="49.92 13.81 12.8 93.23 19.23 93.23 49.92 27.62 49.92 13.81" style="fill: #868686;"/>
        <polygon points="49.92 27.63 73.08 77.42 66.66 77.42 49.92 41.43 49.92 27.63" style="fill: #868686;"/>
        <polygon points="49.92 55.24 60.22 77.42 53.79 77.42 49.92 69.05 49.92 55.24" style="fill: #0062ae;"/>
        <polygon points="0 93.23 6.43 93.23 49.91 0 49.91 0 43.48 0 0 93.23" style="fill: #009644;"/>
      </g>
      <path d="M45.94,81.21l5.56,12.08h-2.02l-1.81-3.94h-5.06l-1.86,3.94h-1l5.69-12.08h.49Zm-2.97,7.38h4.34l-2.14-4.67-2.2,4.67Z" style="fill: #868686;"/>
      <path d="M52.59,80.03l1.29-.51h.52v6.37c.15-.26,.35-.5,.59-.74,.23-.22,.49-.42,.78-.59,.28-.17,.57-.3,.88-.41,.3-.09,.59-.15,.88-.15,.52,0,1.01,.11,1.46,.32,.45,.21,.83,.51,1.16,.87,.32,.36,.57,.8,.75,1.29,.18,.49,.27,1.01,.27,1.58,0,.5-.06,.98-.18,1.43-.12,.47-.29,.91-.52,1.3-.21,.41-.47,.77-.78,1.1-.31,.33-.65,.61-1.03,.85-.38,.24-.78,.42-1.21,.55-.44,.12-.89,.19-1.36,.19-.67,0-1.3-.08-1.9-.26-.59-.18-1.12-.45-1.58-.82v-12.37Zm1.8,11.77c.11,.11,.24,.22,.37,.33,.14,.11,.29,.21,.46,.31,.17,.09,.35,.17,.55,.22,.21,.06,.43,.08,.69,.08,.42,0,.8-.1,1.15-.3,.35-.2,.63-.49,.89-.85,.25-.36,.43-.8,.58-1.3,.13-.5,.2-1.05,.2-1.64,0-.45-.08-.87-.21-1.26-.14-.41-.33-.74-.57-1.03-.25-.29-.53-.53-.85-.69-.33-.18-.67-.25-1.04-.25-.21,0-.42,.03-.64,.08-.2,.06-.42,.14-.62,.25-.19,.1-.37,.22-.55,.35-.16,.14-.3,.29-.41,.44v5.29Z" style="fill: #868686;"/>
      <path d="M67.29,93.49c-.69,0-1.34-.12-1.92-.36-.58-.25-1.1-.58-1.52-.99-.44-.42-.77-.91-1.01-1.47-.24-.56-.36-1.16-.36-1.8s.12-1.3,.36-1.9c.24-.58,.57-1.09,1.01-1.53,.42-.44,.94-.79,1.52-1.04,.58-.25,1.23-.38,1.92-.38s1.33,.11,1.92,.34c.58,.24,1.09,.55,1.52,.95,.43,.41,.76,.88,1.01,1.43,.24,.54,.36,1.13,.36,1.75,0,.69-.12,1.34-.36,1.94-.25,.61-.58,1.13-1.01,1.59-.42,.45-.93,.82-1.52,1.08-.59,.26-1.23,.39-1.92,.39m.34-.67c.36,0,.69-.09,.97-.27,.3-.19,.56-.43,.77-.74,.22-.31,.39-.68,.51-1.08,.12-.41,.18-.85,.18-1.3,0-.66-.06-1.28-.17-1.85-.11-.58-.3-1.08-.55-1.51-.25-.43-.58-.77-.99-1.01-.41-.25-.91-.37-1.51-.37-.3,0-.58,.09-.87,.26-.28,.18-.53,.42-.75,.72-.22,.3-.39,.66-.52,1.07-.14,.41-.2,.83-.2,1.3,0,.66,.07,1.28,.21,1.87,.14,.58,.34,1.08,.61,1.52,.27,.43,.59,.77,.98,1.03,.38,.25,.83,.37,1.32,.37" style="fill: #868686;"/>
      <polygon points="74.7 84.18 77.92 91.08 81.01 84.18 81.84 84.18 77.74 93.4 77.1 93.4 72.81 84.18 74.7 84.18" style="fill: #868686;"/>
      <path d="M86.98,93.49c-.62,0-1.19-.12-1.74-.35-.54-.23-1.01-.55-1.41-.95-.41-.4-.73-.86-.97-1.39-.24-.54-.36-1.11-.36-1.71,0-.74,.11-1.41,.32-2.03,.21-.62,.52-1.15,.91-1.61,.39-.45,.86-.8,1.41-1.05,.55-.26,1.17-.39,1.85-.39,.59,0,1.14,.11,1.64,.31,.49,.22,.91,.49,1.28,.84,.36,.36,.64,.77,.83,1.22,.2,.46,.3,.95,.3,1.46h-6.8c0,.62,.08,1.18,.24,1.69,.16,.53,.38,.97,.66,1.36,.3,.38,.63,.67,1.02,.89,.4,.21,.83,.33,1.3,.33,.39,0,.77-.07,1.13-.2,.36-.12,.69-.3,.99-.5,.29-.22,.54-.45,.74-.72,.2-.27,.36-.54,.44-.82l.52,.24c-.13,.46-.34,.9-.63,1.32-.29,.41-.63,.76-1.02,1.07-.39,.31-.81,.55-1.28,.72-.46,.18-.92,.26-1.39,.26m1.8-6.38c0-.34-.06-.67-.19-.96-.12-.31-.28-.57-.5-.78-.21-.22-.46-.38-.75-.51-.29-.12-.59-.19-.92-.19-.28,0-.53,.07-.79,.19-.25,.12-.47,.29-.66,.51-.19,.21-.36,.47-.49,.77-.12,.29-.2,.61-.23,.96h4.52Z" style="fill: #868686;"/>
      <path d="M98.07,84.18h1.81v1.87c.18-.24,.38-.47,.6-.71,.23-.25,.47-.47,.74-.66,.27-.19,.57-.36,.9-.49,.32-.12,.68-.19,1.07-.19,.54,0,1.03,.12,1.47,.34,.43,.23,.81,.53,1.13,.92,.31,.39,.55,.83,.72,1.36,.17,.52,.25,1.08,.25,1.66,0,.75-.1,1.45-.3,2.09-.2,.64-.5,1.19-.88,1.65-.4,.46-.86,.82-1.41,1.08-.56,.26-1.17,.39-1.85,.39-.51,0-.95-.05-1.31-.15-.38-.11-.75-.28-1.12-.52v4.32h-1.81v-12.95Zm1.81,6.66c0,.28,.06,.53,.18,.77,.12,.24,.28,.45,.5,.63,.21,.18,.47,.33,.76,.43,.3,.11,.63,.15,.99,.15,.34,0,.65-.08,.95-.25,.3-.17,.57-.42,.78-.74,.23-.31,.41-.69,.53-1.13,.13-.44,.19-.92,.19-1.46,0-.67-.06-1.26-.18-1.76-.12-.5-.29-.91-.5-1.25-.21-.33-.46-.58-.75-.75-.29-.17-.6-.25-.94-.25-.26,0-.52,.05-.76,.12-.24,.08-.47,.19-.68,.33-.21,.14-.41,.29-.59,.47-.18,.18-.34,.37-.48,.56v4.13Z" style="fill: #868686;"/>
      <path d="M112.49,93.49c-.61,0-1.19-.12-1.74-.35-.53-.23-1.01-.55-1.41-.95-.41-.4-.72-.86-.96-1.39-.24-.54-.36-1.11-.36-1.71,0-.74,.1-1.41,.32-2.03,.21-.62,.51-1.15,.91-1.61,.39-.45,.86-.8,1.41-1.05,.55-.26,1.16-.39,1.84-.39,.6,0,1.15,.11,1.63,.31,.51,.22,.93,.49,1.29,.84,.36,.36,.64,.77,.83,1.22,.2,.46,.31,.95,.31,1.46h-6.79c0,.62,.08,1.18,.24,1.69,.15,.53,.37,.97,.66,1.36,.29,.38,.62,.67,1.02,.89,.39,.21,.82,.33,1.3,.33,.39,0,.77-.07,1.13-.2,.36-.12,.69-.3,.98-.5,.3-.22,.53-.45,.74-.72,.2-.27,.36-.54,.44-.82l.52,.24c-.13,.46-.34,.9-.63,1.32-.29,.41-.63,.76-1.02,1.07-.39,.31-.81,.55-1.27,.72-.47,.18-.92,.26-1.4,.26m1.8-6.38c0-.34-.06-.67-.18-.96-.13-.31-.3-.57-.51-.78-.21-.22-.46-.38-.75-.51-.29-.12-.59-.19-.92-.19-.27,0-.53,.07-.78,.19-.25,.12-.47,.29-.67,.51-.2,.21-.36,.47-.48,.77-.13,.29-.21,.61-.24,.96h4.52Z" style="fill: #868686;"/>
      <path d="M122.93,93.49c-.7,0-1.34-.12-1.93-.36-.58-.25-1.09-.58-1.53-.99-.42-.42-.76-.91-1-1.47-.24-.56-.36-1.16-.36-1.8s.12-1.3,.36-1.9c.24-.58,.58-1.09,1-1.53,.44-.44,.95-.79,1.53-1.04,.59-.25,1.23-.38,1.93-.38s1.32,.11,1.91,.34c.59,.24,1.09,.55,1.52,.95,.43,.41,.76,.88,1.01,1.43,.24,.54,.36,1.13,.36,1.75,0,.69-.13,1.34-.36,1.94-.25,.61-.58,1.13-1.01,1.59-.42,.45-.92,.82-1.52,1.08-.59,.26-1.23,.39-1.91,.39m.34-.67c.36,0,.68-.09,.97-.27,.3-.19,.56-.43,.77-.74,.21-.31,.38-.68,.5-1.08,.12-.41,.18-.85,.18-1.3,0-.66-.05-1.28-.17-1.85-.11-.58-.3-1.08-.55-1.51-.25-.43-.58-.77-.99-1.01-.41-.25-.91-.37-1.5-.37-.3,0-.59,.09-.88,.26-.28,.18-.52,.42-.75,.72-.21,.3-.39,.66-.52,1.07-.14,.41-.2,.83-.2,1.3,0,.66,.07,1.28,.21,1.87,.14,.58,.35,1.08,.61,1.52,.27,.43,.6,.77,.98,1.03,.39,.25,.83,.37,1.33,.37" style="fill: #868686;"/>
      <path d="M129.46,84.18h1.8v1.87c.18-.24,.39-.47,.61-.71,.22-.25,.47-.47,.74-.66,.26-.19,.57-.36,.9-.49,.32-.12,.68-.19,1.07-.19,.53,0,1.02,.12,1.46,.34,.44,.23,.81,.53,1.13,.92,.31,.39,.55,.83,.72,1.36,.17,.52,.25,1.08,.25,1.66,0,.75-.1,1.45-.3,2.09-.21,.64-.51,1.19-.89,1.65-.4,.46-.86,.82-1.41,1.08-.55,.26-1.17,.39-1.85,.39-.5,0-.94-.05-1.31-.15-.37-.11-.74-.28-1.12-.52v4.32h-1.8v-12.95Zm1.8,6.66c0,.28,.06,.53,.18,.77,.12,.24,.29,.45,.5,.63,.21,.18,.47,.33,.77,.43,.3,.11,.63,.15,.98,.15s.65-.08,.96-.25c.3-.17,.56-.42,.78-.74,.22-.31,.41-.69,.52-1.13,.13-.44,.2-.92,.2-1.46,0-.67-.07-1.26-.19-1.76-.12-.5-.29-.91-.49-1.25-.21-.33-.47-.58-.75-.75-.3-.17-.61-.25-.95-.25-.26,0-.52,.05-.75,.12-.25,.08-.47,.19-.68,.33-.22,.14-.41,.29-.59,.47-.19,.18-.35,.37-.49,.56v4.13Z" style="fill: #868686;"/>
      <polygon points="141.73 93.29 139.93 93.29 139.93 80.03 141.21 79.53 141.73 79.53 141.73 93.29" style="fill: #868686;"/>
      <path d="M147.97,93.49c-.61,0-1.19-.12-1.74-.35-.53-.23-1.01-.55-1.41-.95-.4-.4-.73-.86-.96-1.39-.24-.54-.36-1.11-.36-1.71,0-.74,.1-1.41,.32-2.03,.21-.62,.52-1.15,.91-1.61,.39-.45,.86-.8,1.41-1.05,.55-.26,1.17-.39,1.84-.39,.6,0,1.14,.11,1.64,.31,.5,.22,.92,.49,1.28,.84,.36,.36,.64,.77,.84,1.22,.2,.46,.3,.95,.3,1.46h-6.79c0,.62,.08,1.18,.23,1.69,.16,.53,.38,.97,.67,1.36,.29,.38,.63,.67,1.02,.89,.39,.21,.82,.33,1.3,.33,.4,0,.78-.07,1.13-.2,.36-.12,.69-.3,.98-.5,.29-.22,.53-.45,.75-.72,.21-.27,.36-.54,.45-.82l.52,.24c-.14,.46-.35,.9-.63,1.32-.29,.41-.63,.76-1.02,1.07-.39,.31-.81,.55-1.27,.72-.46,.18-.92,.26-1.4,.26m1.81-6.38c0-.34-.06-.67-.19-.96-.12-.31-.29-.57-.5-.78-.22-.22-.47-.38-.75-.51-.29-.12-.59-.19-.91-.19-.28,0-.54,.07-.79,.19-.25,.12-.47,.29-.66,.51-.2,.21-.36,.47-.48,.77-.14,.29-.21,.61-.24,.96h4.52Z" style="fill: #868686;"/>
      <path d="M153.55,84.94c.28-.08,.53-.18,.77-.32,.24-.13,.45-.29,.62-.47,.18-.18,.31-.37,.42-.58,.1-.21,.15-.43,.15-.65,0-.12-.03-.24-.08-.33-.06-.1-.12-.15-.19-.15s-.14,.02-.19,.04c-.04,.03-.1,.07-.15,.11-.05,.03-.11,.06-.18,.09-.07,.03-.17,.04-.28,.04-.12,0-.24-.03-.34-.08-.1-.06-.2-.12-.28-.21-.08-.09-.14-.19-.19-.32-.04-.12-.08-.25-.08-.4s.04-.29,.1-.43c.06-.13,.15-.24,.26-.34,.1-.09,.24-.18,.38-.23,.15-.06,.3-.08,.47-.08,.22,0,.42,.05,.62,.14,.2,.1,.36,.23,.51,.41,.14,.17,.25,.36,.32,.59,.08,.22,.13,.47,.13,.71,0,.4-.08,.77-.23,1.11-.15,.34-.35,.64-.61,.89-.25,.26-.55,.45-.88,.61-.34,.16-.69,.25-1.08,.26v-.42Z" style="fill: #868686;"/>
      <path d="M160.94,92.86c.24,0,.47-.04,.69-.12,.2-.07,.38-.17,.54-.3,.14-.13,.26-.27,.35-.43,.08-.17,.13-.33,.13-.5,0-.28-.07-.53-.2-.73-.14-.2-.32-.39-.55-.55-.24-.17-.49-.32-.79-.46-.29-.14-.58-.28-.89-.42-.3-.14-.61-.29-.9-.46-.29-.17-.55-.36-.78-.58-.24-.22-.41-.46-.56-.75-.14-.28-.2-.62-.2-1.01,0-.36,.08-.7,.23-1.01,.15-.32,.37-.58,.64-.81,.28-.23,.61-.41,.99-.53,.37-.13,.8-.2,1.24-.2,.3,0,.58,.03,.86,.07,.26,.04,.51,.12,.77,.24,.25,.13,.5,.3,.75,.52,.25,.22,.52,.51,.8,.86l-.68,.59c-.34-.56-.72-.98-1.14-1.26-.43-.28-.89-.41-1.37-.41-.26,0-.49,.03-.7,.09-.22,.06-.4,.15-.55,.26-.15,.11-.27,.25-.36,.39-.08,.15-.13,.3-.13,.47,0,.28,.08,.51,.23,.72,.15,.2,.35,.39,.6,.55,.25,.16,.53,.31,.85,.45,.32,.13,.64,.28,.97,.43,.33,.14,.65,.29,.97,.46,.31,.17,.6,.36,.86,.58,.25,.22,.45,.47,.6,.75,.14,.27,.23,.61,.23,.99s-.08,.75-.22,1.08c-.14,.33-.36,.64-.65,.88-.29,.25-.65,.44-1.08,.58-.44,.14-.95,.21-1.53,.21-.26,0-.53-.02-.81-.06-.28-.04-.56-.12-.85-.24-.29-.13-.58-.3-.86-.51-.28-.22-.56-.51-.83-.87l.74-.67c.22,.3,.42,.57,.64,.79,.2,.22,.41,.41,.61,.54,.21,.14,.42,.24,.65,.3,.22,.06,.47,.09,.72,.09" style="fill: #868686;"/>
      <path d="M175.37,93.49c-.61,0-1.19-.12-1.74-.35-.53-.23-1.01-.55-1.41-.95-.41-.4-.73-.86-.96-1.39-.24-.54-.36-1.11-.36-1.71,0-.74,.1-1.41,.32-2.03,.2-.62,.52-1.15,.91-1.61,.39-.45,.86-.8,1.41-1.05,.56-.26,1.17-.39,1.85-.39,.6,0,1.14,.11,1.64,.31,.5,.22,.92,.49,1.28,.84,.36,.36,.64,.77,.84,1.22,.19,.46,.29,.95,.29,1.46h-6.78c0,.62,.08,1.18,.23,1.69,.16,.53,.38,.97,.66,1.36,.29,.38,.63,.67,1.02,.89,.39,.21,.82,.33,1.3,.33,.39,0,.77-.07,1.13-.2,.36-.12,.69-.3,.97-.5,.3-.22,.54-.45,.75-.72,.2-.27,.36-.54,.44-.82l.52,.24c-.13,.46-.34,.9-.63,1.32-.29,.41-.63,.76-1.02,1.07-.38,.31-.8,.55-1.26,.72-.47,.18-.93,.26-1.4,.26m1.81-6.38c0-.34-.06-.67-.19-.96-.13-.31-.3-.57-.51-.78-.21-.22-.47-.38-.75-.51-.29-.12-.59-.19-.91-.19-.28,0-.54,.07-.8,.19-.25,.12-.47,.29-.66,.51-.2,.21-.36,.47-.48,.77-.13,.29-.2,.61-.24,.96h4.53Z" style="fill: #868686;"/>
      <polygon points="180.93 93.29 179.94 93.29 183.75 88.65 180.52 84.19 182.66 84.19 184.89 87.24 187.38 84.19 188.38 84.19 185.35 87.88 189.25 93.29 187.14 93.29 184.23 89.27 180.93 93.29" style="fill: #868686;"/>
      <path d="M189.79,84.18h1.81v1.87c.18-.24,.38-.47,.6-.71,.23-.25,.47-.47,.75-.66,.27-.19,.58-.36,.9-.49,.32-.12,.68-.19,1.07-.19,.54,0,1.03,.12,1.47,.34,.44,.23,.81,.53,1.12,.92,.31,.39,.56,.83,.72,1.36,.18,.52,.26,1.08,.26,1.66,0,.75-.1,1.45-.31,2.09-.2,.64-.51,1.19-.89,1.65-.39,.46-.86,.82-1.41,1.08-.55,.26-1.17,.39-1.85,.39-.51,0-.94-.05-1.32-.15-.37-.11-.75-.28-1.11-.52v4.32h-1.81v-12.95Zm1.81,6.66c0,.28,.06,.53,.17,.77,.13,.24,.29,.45,.51,.63,.21,.18,.47,.33,.76,.43,.3,.11,.63,.15,.99,.15,.33,0,.65-.08,.96-.25,.3-.17,.55-.42,.78-.74,.22-.31,.4-.69,.52-1.13,.13-.44,.19-.92,.19-1.46,0-.67-.06-1.26-.18-1.76-.12-.5-.29-.91-.5-1.25-.21-.33-.46-.58-.75-.75-.3-.17-.61-.25-.96-.25-.25,0-.51,.05-.75,.12-.24,.08-.47,.19-.68,.33-.21,.14-.41,.29-.59,.47-.18,.18-.35,.37-.48,.56v4.13Z" style="fill: #868686;"/>
      <path d="M204.21,93.49c-.62,0-1.19-.12-1.74-.35-.53-.23-1.01-.55-1.41-.95-.41-.4-.73-.86-.97-1.39-.24-.54-.35-1.11-.35-1.71,0-.74,.1-1.41,.32-2.03,.21-.62,.51-1.15,.91-1.61,.39-.45,.86-.8,1.41-1.05,.56-.26,1.17-.39,1.85-.39,.59,0,1.14,.11,1.64,.31,.49,.22,.92,.49,1.28,.84,.36,.36,.63,.77,.83,1.22,.2,.46,.3,.95,.3,1.46h-6.8c0,.62,.08,1.18,.24,1.69,.16,.53,.38,.97,.66,1.36,.29,.38,.64,.67,1.02,.89,.39,.21,.82,.33,1.3,.33,.39,0,.77-.07,1.13-.2,.36-.12,.69-.3,.97-.5,.3-.22,.54-.45,.75-.72,.21-.27,.36-.54,.44-.82l.52,.24c-.14,.46-.35,.9-.63,1.32-.3,.41-.63,.76-1.02,1.07-.4,.31-.81,.55-1.27,.72-.47,.18-.92,.26-1.4,.26m1.8-6.38c0-.34-.06-.67-.18-.96-.13-.31-.3-.57-.51-.78-.21-.22-.47-.38-.75-.51-.29-.12-.59-.19-.91-.19-.29,0-.54,.07-.8,.19-.25,.12-.47,.29-.66,.51-.19,.21-.36,.47-.48,.77-.13,.29-.2,.61-.23,.96h4.51Z" style="fill: #868686;"/>
      <path d="M214.07,93.49c-.59,0-1.15-.12-1.68-.36-.52-.23-.97-.56-1.36-.96-.38-.41-.69-.89-.91-1.44-.22-.54-.34-1.13-.34-1.74,0-.69,.13-1.34,.37-1.95,.25-.61,.58-1.13,1.02-1.58,.42-.45,.92-.8,1.5-1.06,.58-.27,1.19-.39,1.85-.39,.51,0,.97,.06,1.41,.17s.8,.27,1.11,.45c.31,.2,.55,.43,.73,.69,.18,.27,.26,.55,.26,.86,0,.14-.04,.27-.1,.39-.08,.12-.16,.23-.28,.32-.11,.08-.24,.15-.38,.21-.14,.05-.3,.08-.44,.08-.16,0-.31-.03-.44-.09-.13-.06-.25-.13-.33-.22-.1-.1-.17-.2-.21-.32-.05-.11-.08-.24-.08-.36,0-.21-.02-.41-.06-.59-.04-.19-.12-.34-.24-.47-.11-.13-.27-.24-.47-.3-.2-.08-.45-.12-.76-.12-.41,0-.78,.08-1.11,.25-.33,.17-.6,.39-.83,.68-.22,.27-.4,.61-.52,.98-.12,.38-.18,.79-.18,1.23,0,.58,.08,1.12,.23,1.65,.15,.52,.36,.97,.64,1.36,.28,.39,.61,.69,1,.92,.39,.23,.83,.35,1.31,.35,.41,0,.79-.07,1.09-.2,.31-.13,.58-.3,.81-.53,.23-.23,.43-.49,.59-.79,.16-.3,.3-.62,.44-.95l.55,.22c-.16,.58-.36,1.09-.62,1.54-.26,.46-.58,.84-.93,1.14-.35,.31-.75,.56-1.19,.72-.45,.16-.93,.24-1.46,.24" style="fill: #868686;"/>
      <path d="M224.8,92.13c-.25,.42-.56,.75-.97,.99-.4,.25-.9,.36-1.49,.36-.3,0-.56-.05-.79-.15-.23-.11-.41-.25-.56-.43-.14-.19-.25-.41-.32-.67-.08-.26-.11-.55-.11-.86v-6.43h-1.58v-.44c.51,0,.92-.09,1.25-.28,.33-.19,.59-.44,.8-.74,.21-.32,.38-.68,.49-1.09,.13-.42,.23-.86,.32-1.32h.51v3.1h2.05v.76h-2.05v6.43c0,.13,.03,.26,.08,.38,.04,.11,.12,.22,.2,.31,.09,.08,.19,.16,.31,.21,.12,.05,.25,.08,.38,.08,.2,0,.39-.06,.56-.15,.17-.1,.31-.22,.44-.37l.45,.31Z" style="fill: #868686;"/>
      <path d="M232.59,93.29h-1.8v-1.24c-.21,.16-.42,.33-.63,.51-.21,.16-.44,.32-.67,.46-.25,.14-.52,.25-.8,.34-.3,.09-.63,.13-1.02,.13s-.69-.06-.97-.17c-.28-.11-.53-.28-.74-.48-.2-.21-.36-.44-.47-.72-.11-.28-.17-.58-.17-.9,0-.4,.09-.75,.25-1.06,.16-.32,.36-.59,.64-.84,.26-.25,.58-.47,.94-.66,.36-.19,.74-.36,1.13-.51,.41-.15,.82-.29,1.24-.41,.42-.12,.85-.24,1.25-.34v-.57c0-.41-.04-.77-.13-1.05-.08-.28-.19-.51-.35-.69-.15-.18-.34-.3-.56-.38-.22-.07-.46-.11-.73-.11-.31,0-.56,.03-.75,.11-.19,.08-.35,.19-.46,.31-.11,.13-.19,.28-.23,.44-.04,.17-.06,.34-.06,.51,0,.16,0,.32-.03,.46-.03,.14-.08,.28-.14,.39-.07,.11-.16,.2-.28,.27-.11,.06-.26,.09-.44,.09-.29,0-.52-.1-.69-.3-.17-.2-.26-.46-.26-.75s.09-.58,.3-.85c.2-.26,.47-.48,.8-.67,.34-.18,.74-.33,1.18-.45,.44-.11,.91-.17,1.41-.17,.59,0,1.1,.06,1.52,.17,.41,.11,.74,.28,.99,.48,.25,.21,.44,.47,.56,.77,.11,.3,.16,.63,.16,.99v6.88Zm-1.8-5.3c-.39,.12-.8,.28-1.23,.46-.43,.17-.81,.38-1.18,.61-.36,.23-.65,.49-.88,.77-.24,.28-.35,.58-.35,.9,0,.23,.04,.44,.12,.64,.08,.2,.19,.38,.32,.53,.14,.14,.3,.26,.47,.35,.18,.09,.36,.14,.55,.14,.21,0,.4-.03,.58-.08,.18-.06,.36-.13,.53-.22,.17-.09,.35-.19,.52-.31,.17-.13,.35-.25,.53-.39v-3.4Z" style="fill: #868686;"/>
      <path d="M239.86,92.13c-.24,.42-.56,.75-.97,.99-.4,.25-.9,.36-1.48,.36-.31,0-.57-.05-.8-.15-.22-.11-.41-.25-.55-.43-.14-.19-.25-.41-.32-.67-.08-.26-.11-.55-.11-.86v-6.43h-1.58v-.44c.51,0,.92-.09,1.25-.28,.33-.19,.59-.44,.8-.74,.21-.32,.37-.68,.49-1.09,.13-.42,.23-.86,.31-1.32h.52v3.1h2.05v.76h-2.05v6.43c0,.13,.03,.26,.08,.38,.05,.11,.13,.22,.21,.31,.08,.08,.19,.16,.3,.21,.12,.05,.25,.08,.39,.08,.19,0,.39-.06,.55-.15,.18-.1,.32-.22,.44-.37l.45,.31Z" style="fill: #868686;"/>
      <path d="M241.92,79.53c.14,0,.27,.02,.4,.07,.13,.06,.24,.11,.33,.2,.09,.08,.17,.18,.23,.29,.06,.11,.08,.23,.08,.35,0,.12-.03,.24-.08,.35-.06,.1-.14,.2-.23,.29-.09,.08-.2,.15-.33,.2-.13,.03-.26,.06-.4,.06-.14,0-.27-.03-.4-.06-.12-.06-.23-.12-.33-.2-.09-.09-.17-.19-.23-.29-.05-.11-.08-.23-.08-.35,0-.11,.02-.23,.08-.35,.06-.11,.14-.21,.23-.29,.1-.08,.21-.14,.33-.2,.13-.05,.25-.07,.4-.07m-.89,5l1.27-.52h.53v9.29h-1.8v-8.77Z" style="fill: #868686;"/>
      <path d="M249.48,93.49c-.7,0-1.34-.12-1.93-.36-.58-.25-1.09-.58-1.52-.99-.43-.42-.77-.91-1.01-1.47-.24-.56-.36-1.16-.36-1.8s.12-1.3,.36-1.9c.24-.58,.58-1.09,1.01-1.53,.43-.44,.94-.79,1.52-1.04,.59-.25,1.23-.38,1.93-.38s1.33,.11,1.91,.34c.58,.24,1.09,.55,1.52,.95,.42,.41,.76,.88,1,1.43,.25,.54,.36,1.13,.36,1.75,0,.69-.12,1.34-.36,1.94-.24,.61-.58,1.13-1,1.59-.43,.45-.94,.82-1.52,1.08-.58,.26-1.22,.39-1.91,.39m.33-.67c.36,0,.69-.09,.99-.27,.29-.19,.54-.43,.76-.74,.22-.31,.39-.68,.5-1.08,.13-.41,.19-.85,.19-1.3,0-.66-.06-1.28-.17-1.85-.11-.58-.3-1.08-.55-1.51-.25-.43-.59-.77-1-1.01-.4-.25-.91-.37-1.49-.37-.3,0-.6,.09-.88,.26-.29,.18-.53,.42-.75,.72-.21,.3-.39,.66-.52,1.07-.14,.41-.19,.83-.19,1.3,0,.66,.07,1.28,.21,1.87,.14,.58,.35,1.08,.61,1.52,.26,.43,.59,.77,.97,1.03,.39,.25,.83,.37,1.32,.37" style="fill: #868686;"/>
      <path d="M256.01,84.18h1.81v1.66c.56-.62,1.13-1.08,1.72-1.38,.59-.3,1.2-.45,1.81-.45,.32,0,.62,.06,.9,.22,.28,.14,.52,.34,.73,.58,.2,.25,.36,.54,.49,.87,.11,.33,.18,.69,.18,1.07v6.54h-1.81v-6.23c0-.6-.14-1.06-.41-1.37-.26-.3-.62-.47-1.04-.47-.19,0-.4,.03-.61,.09-.21,.07-.44,.16-.65,.27-.22,.13-.44,.26-.66,.43-.22,.16-.43,.34-.64,.53v6.74h-1.81v-9.11Z" style="fill: #868686;"/>
      <path d="M215.48,55.8h-10.45v2.74h10.87v3.08h-10.87v3h12.76v3.25h-12.76v3.77c.63,0,1.28,.01,1.97,.04,5.14,0,8.96-.11,11.47-.34l-.73,4.5c-13.53,0-21.79-.31-24.79-.94-2.71-.66-4.86-1.7-6.47-3.12-.17-.14-.33-.27-.47-.39-1.37,1.74-3.24,3.57-5.61,5.48l-2.35-4.11c2.31-1.54,4.08-3.22,5.31-5.05-1.28-2.23-2.67-5.18-4.15-8.86l3.6-1.33c1,2.43,1.9,4.44,2.7,6.04,.09-.2,.16-.38,.21-.56,.6-1.88,.98-4.5,1.16-7.84h-7.58v-2.78c2.74-3.2,5.19-6.71,7.36-10.53h-7.92v-3.25h12.5v3.77c-2.48,4-4.72,7.19-6.72,9.59h6.55c-.11,4.94-.61,8.89-1.5,11.86-.37,1.4-.83,2.67-1.37,3.81,1.06,1.2,2.6,2.11,4.63,2.74,1.65,.51,4.41,.88,8.26,1.11v-3.6h-10.36v-3.25h10.36v-3h-8.48v-3.08h8.48v-2.74h-7.96v-3.08h7.96v-3.51h-10.36v-3.25h10.36v-3.17h-7.96v-3.08h7.96v-3.08h3.94v3.08h10.45v6.25h2.48v3.25h-2.48v6.59Zm-10.45-13.02v3.17h6.51v-3.17h-6.51Zm0,6.42v3.51h6.51v-3.51h-6.51Z" style="fill: #868686;"/>
      <path d="M232.91,36.62c.63,1.46,1.24,3.08,1.84,4.88h6.12v3.6h-16.61v-3.6h6.42c-.6-1.54-1.26-2.95-1.97-4.24l4.2-.64Zm6.16,24.23v12.67h-9.59v3.17h-3.94v-15.84h13.53Zm-13.27-12.76h13.36v3.42h-13.36v-3.42Zm0,6.34h13.36v3.43h-13.36v-3.43Zm3.68,15.5h5.65v-5.48h-5.65v5.48Zm29.28-32.19v10.06c0,1.08,.54,1.63,1.63,1.63h3.42v3.98h-4.41c-1.68,0-2.91-.36-3.68-1.07-.83-.71-1.24-1.97-1.24-3.77v-7.23h-6.59c-.09,2.94-.34,5.07-.77,6.38-.51,1.71-1.87,3.73-4.07,6.04l-3.21-2.78c1.83-2,2.97-3.58,3.42-4.75,.34-1.08,.51-3.91,.51-8.48h14.98Zm-17.17,16.61h18.97v3.08c-1.03,4.39-2.78,8.19-5.27,11.39,2.45,1.48,5.52,2.77,9.2,3.85l-2.61,3.85c-4.08-1.43-7.32-2.97-9.72-4.62-2.48,1.91-5.8,3.57-9.93,4.97l-2.4-3.64c3.71-1.17,6.69-2.53,8.95-4.07-2.51-2.4-4.58-5.18-6.21-8.35l3.6-2.1c1.54,3.11,3.5,5.67,5.86,7.66,1.97-2.31,3.41-5.12,4.32-8.43h-14.77v-3.6Z" style="fill: #868686;"/>
      <path d="M88.09,45.39h15.59v-8.11h4.52v8.11h15.77v20.02h-15.77v10.76h-4.52v-10.76h-15.59v-20.02Zm15.59,16.22v-12.42h-11.01v12.42h11.01Zm15.7,0v-12.42h-11.18v12.42h11.18Z" style="fill: #868686;"/>
      <path d="M132.23,38.93h13.63v2.99c-1.01,3.19-2.19,6.6-3.53,10.21,1.13,1.93,1.95,3.69,2.44,5.22,.61,1.6,.93,2.96,.93,4.09v.07c1.2-.71,2.25-1.46,3.2-2.26,.75-.61,1.47-1.42,2.17-2.45h-5.72v-3.35h26.71v3.35h-16.57c-.45,.85-.94,1.61-1.5,2.28h16.84c-.1,8.99-.94,14.12-2.54,15.39-.85,1.12-3.79,1.69-8.83,1.69l-.83-3.97c1.26,.22,2.32,.33,3.15,.33,1.58,0,2.78-.34,3.59-1.04,.75-.63,1.23-3.67,1.44-9.11h-1.53c-1.82,3.54-3.69,6.17-5.54,7.9-2.33,2.29-5.78,4.26-10.37,5.89l-2.09-3.2c4.2-1.4,7.46-3.11,9.79-5.12,1.52-1.35,2.91-3.17,4.19-5.47h-2.96c-1.23,1.89-2.76,3.47-4.6,4.81-2.21,1.73-5.05,3.35-8.52,4.84l-2.32-2.86c3.11-1.18,5.72-2.46,7.83-3.85,1.18-.74,2.28-1.72,3.31-2.94h-3.08c-1.41,1.19-3.08,2.3-5.05,3.32l-.73-.91c-.26,.54-.56,1.01-.88,1.36-.93,1.13-2.96,1.7-6.07,1.7l-1.26-3.97c.78,.1,1.49,.16,2.09,.16,.85,0,1.44-.2,1.79-.57,.46-.31,.7-.98,.7-2.04,0-1.26-.22-2.46-.65-3.6-.46-1.47-1.36-3.18-2.67-5.16,1.6-3.98,2.76-7.35,3.5-10.06h-5.26v33.59h-4.19V38.93Zm14.68-.32h22.38v12.9h-22.38v-12.9Zm4.01,4.91h14.3v-2.15h-14.3v2.15Zm14.3,5.14v-2.45h-14.3v2.45h14.3Z" style="fill: #868686;"/>
    </g>
  </g>
</svg>