<?xml version="1.0" encoding="UTF-8"?>
<svg id="_圖層_2" data-name="圖層 2" xmlns="http://www.w3.org/2000/svg" width="205.57" height="89.41" viewBox="0 0 205.57 89.41">
  <g id="_設計" data-name="設計">
    <g>
      <path d="M22.72,64.05s-.14,3.52-3.96,2.08c0,0-6.24-2.72-7.3,2.02,0,0-.55,1.03,3.02,4.88,0,0,5.07,5.05,4.89,7.55-.32,4.54-1.03,7.42-8.61,8.71,0,0-6.95,.35-10.77-1.75l.13-5.37s5.5,3.09,10.3,2.21c0,0,3.06-.21,2.66-2.81-.4-2.58-7.96-8.43-7.55-12.8,.41-4.36,2.78-8.45,11.4-8.18,0,0,6.03,.58,5.78,3.46m13.16,9.59c-.34,2.5-5.07,1.63-11.9,4.94-6.82,3.32-4.71,9.5-2.48,10.4,1.19,.49,7.69,.2,8.24,0,.56-.19,1.81-4.09,1.81-4.09l-3.61,.69c-3.51,.4-3.17-2.29-1.42-3.14,1.5-.73,7.57-2.68,7.57-2.68-.35,1.58-1.67,9.1-1.67,9.1l6.11-.16c.4-6.31,1.67-8.18,3.01-13.28,1.34-5.11-.26-7.4-4.16-7.92-3.9-.52-12.14,.22-12.67,3.01-.52,2.78,2.44,2.76,2.44,2.76,10.35-2.53,8.71,.37,8.71,.37m6.64-3.32l2.6,18.69,8.15-.09c.99-2.42,10.1-17.34,10.1-17.34,1.51-5.95-4.03-3.76-4.75-2.54-.73,1.21-8.84,14.36-8.84,14.17,.07-2.5-1.43-12.86-1.45-13.7,0-.83-1.6-2.2-3.26-2-1.67,.21-2.38,2.71-2.38,2.71m34.05,3.99c-.2-1.29-.96-3.13-3.28-3.11-2.32,.03-4.87,3.29-4.87,3.29l8.15-.18Zm3.18,3.58s2.57-2.34,1.7-5.95c-.71-2.92-8.06-8.98-16.95,.38-1.31,1.38-7.57,10.64-.57,15.75,0,0,3.64,2.19,11.49,.8l2.44-5.03s-6.55,1.74-8.88,.84c-2.63-1.02-3.09-2.47-1.55-6.56l12.32-.23Zm7.3,6.5c3.43,8.86,17.64,3.52,17.64,3.52l.66,1.01,6.95-.17-2.27-4.42c1.19-1.23,3.21-3.56,4.66-6.35,1.45-2.8-2.65-4.43-3.46-2.93-.82,1.49-3.84,5.23-3.84,5.23-5.54-6.79-7.92-13.44-5.71-14.85,2.21-1.41,6.29-.53,7.96-.64,1.67-.11,3.21-2.81,.97-4.18-2.24-1.36-10.76-1.18-14.15,2.01-3.4,3.18-2.04,8.36-2.04,8.36-.92,.75-10.22,5.67-7.36,13.42m6.1-1.36c2.82,4.05,8.99,.46,8.99,.46-2.34-2.48-5.37-9.03-5.37-9.03,0,0-6.44,4.52-3.61,8.57m31.69-17.11c-2.31,9.85,8.56,12.33,7.48,15.95-2.16,5.86-12.88-.32-12.88-.32l-.68,5.66s3.26,1.72,7.89,1.95c4.63,.22,9.26-1.02,11.52-5.96,2.26-4.93-1.28-7.4-4.19-10.79-2.9-3.39-4.04-5.23-2.38-6.64,1.65-1.41,7.13,.29,7.13,.29,3.53,.61,4-3.57,1.15-5.1-2.7-1.46-12.62-1.72-15.05,4.97m30.55,7.27c-.07,2.32-5.34,2.84-5.34,2.84-11.37,1.98-11.4,7.91-11.4,7.91,.17,7.04,10.9,5.07,10.9,5.07l1.62-4.18c-1.01,.57-4.54,.42-4.54,.42-3.07-1.36-.4-2.87,.25-3.25,.64-.38,7.11-2.2,7.11-2.2l-2.03,9.29,6.66-.45c.03-6.02,2.01-11.88,2-11.97,2.36-4.93,.29-7.32,.29-7.32-2.81-3.02-12.98-1.35-12.98-1.35-6.1,1.92-2.86,5.69-.32,4.73,1.02-.39,7.86-1.85,7.79,.47m7.11-2.76c-.07,2.6,2.43,2.48,2.43,2.48l-3.26,16.15,6.2,.03,3.07-16.44,4.26,.05c1.46-1.96,.6-4.91,.6-4.91l-3.89-.05c.14-3.8,3.58-3.1,3.58-3.1,3.42-.97,2.46-4.38,.79-4.46-1.67-.07-4.36-.42-7.03,1-2.67,1.42-3.08,6.51-3.08,6.51-.28,0-3.61,.13-3.67,2.73m25.98,4.08c-1.74-6.93-8.15,.09-8.15,.09l8.15-.09Zm-8.05,10c-2.98-1.54-1.64-6.28-1.64-6.28l13.25-.23c2.65-2.25,2.77-9.85-5.86-10.41-8.62-.56-16.19,10.18-12.78,17.64,3.04,6.64,14.76,3.55,14.76,3.55l1.71-4.65s-6.46,1.92-9.45,.37" style="fill: #726762; fill-rule: evenodd;"/>
      <path d="M40.22,16.44L43.62,.93l10.87,.09-4.09,14.85,25.31,.06-.65,5.31-25.83,.38s-4.5,20.51,18.04,28.72c.94,.28,2.34,5.27-2.79,3.65-6.17-1.05-19.44-9.66-22.69-19.17,0,0-11.46,19.18-31.61,19.66,0,0-4.55-.79-1.57-4.05,0,0,19.28-1.32,29.97-28.43l-20.91-.27c-3.22,.05-2.92-5.45,.2-5.4l22.36,.11Zm40.45,.63l57.67-.44,2.45-11.76c-35.09-10.24-58.03,.44-58.03,.44l-2.08,11.76Zm10.29-5.01l6.74,.03,1.05-5.01-6.99,.1-.81,4.88Zm16.59-.48c-.12,.37,6.38,.28,6.38,.28l1.03-6.13-6.24,.09-1.17,5.76Zm16.36,.26s6.12,.42,6.37,.16l.18-4.49-6-.79-.55,5.12Zm-46.84,32.99l8.24-.12c-3.21,2.67-12.66,5.3-12.66,5.3-3.34,2.04,.43,3.98,.43,3.98,13.37,.82,23.75-6.7,23.75-6.7l-3.03-2.7,17.85,.25c-2.35,1.53-2.95,2.91-2.95,2.91,7.19,5.26,22.18,6.17,22.18,6.17,6.24-.21,1.93-4.26,1.93-4.26-8.62-.88-13.68-5.18-13.68-5.18l10.24-.4,4.92-22.29c-26.81-7.74-52.42,.12-52.42,.12l-4.79,22.91Zm13.6-17.91l32.82-.35,.47-2.38c-12.64-2.44-32.95-.28-32.95-.28l-.33,3Zm-1.4,6.76l32.94-.47c.73-1.01,.22-2.62,.22-2.62l-32.46-.04c-1.12,.64-.7,3.13-.7,3.13m-1.41,6.63l33.2-.35c.62-.63,.21-2.87,.21-2.87l-32.58,.09c-1.45,.21-.83,3.12-.83,3.12m65.16-22.13c.85-4.68,2.14-8.03,2.14-8.03,2.65-.71,16.09-1.23,16.09-1.23,23.23-.4,24.52,.99,24.52,.99,.12,2-1.46,8.61-1.46,8.61l9.17-.13c.95-3.77,2.1-11.03,2.1-11.03-7.07-4.57-24.15-4.41-24.15-4.41l.18-2.82-9.24-.12-.69,2.94c-3.16,.04-24.8,.83-25.73,4.75-.92,3.91-2.28,10.74-2.28,10.74l9.36-.25Zm2.8-2.46c-.06,2.92,2.55,2.89,2.55,2.89l7.42-.1c-11.65,7.33-20.25,6.12-20.25,6.12-4.4,1.31-.36,4.17-.36,4.17,9.88,2.77,21.96-3.39,21.96-3.39-11.21,8.82-24.62,9.68-24.62,9.68-2,.2-1.78,3.61,1.23,3.98,8.17,.39,25.42-5.94,25.42-5.94-13.01,11.27-29.09,11.66-29.09,11.66-3.06,1.8,.47,4.08,1.47,3.9,13.77,.97,28.56-7.74,28.56-7.74,.3,3.75-1.35,5.19-1.35,5.19-3.2,3.71-11.92,.42-12.49,1.18-.57,.75,.05,3.25,.05,3.25,1.68,.81,12.09,6.16,16.87,2.67,4.79-3.48,5.98-13.5,5.98-13.5,3.59,6.2,16.01,11.27,17.01,11.76,1.01,.49,2.01,.97,3.08-.37,.73-.93-.88-2.74-.88-2.74-5.97-3.42-13.33-11.82-13.33-11.82-2.69-2.12-1.03-2.56-1.03-2.56,14.54-3.04,18.42-11.85,18.42-11.85l-11.75-.17c-2,5.78-11.22,8.17-11.22,8.17-1.26-6.65-1.25-11.91-1.25-11.91l13.59-.02c2.14-2.53,.6-4.67,.6-4.67h-34.93s-1.58-.07-1.64,2.18" style="fill: #008444; fill-rule: evenodd;"/>
    </g>
  </g>
</svg>