<?xml version="1.0" encoding="UTF-8"?>
<svg id="_圖層_2" data-name="圖層 2" xmlns="http://www.w3.org/2000/svg" width="261.73" height="82.64" xmlns:xlink="http://www.w3.org/1999/xlink" viewBox="0 0 261.73 82.64">
  <defs>
    <linearGradient id="_未命名漸層_24" data-name="未命名漸層 24" x1="0" y1="1025.42" x2="72.57" y2="1025.42" gradientTransform="translate(0 -965.61)" gradientUnits="userSpaceOnUse">
      <stop offset="0" stop-color="#f3a918"/>
      <stop offset="1" stop-color="#bf7f11"/>
    </linearGradient>
    <linearGradient id="_未命名漸層_24-2" data-name="未命名漸層 24" x1="258.66" y1="1020.05" x2="137.23" y2="974.25" xlink:href="#_未命名漸層_24"/>
    <linearGradient id="_未命名漸層_24-3" data-name="未命名漸層 24" x1="261.14" y1="1013.47" x2="139.71" y2="967.68" xlink:href="#_未命名漸層_24"/>
    <linearGradient id="_未命名漸層_24-4" data-name="未命名漸層 24" x1="263.41" y1="1007.45" x2="141.98" y2="961.65" xlink:href="#_未命名漸層_24"/>
    <linearGradient id="_未命名漸層_24-5" data-name="未命名漸層 24" x1="265.61" y1="1001.63" x2="144.17" y2="955.83" xlink:href="#_未命名漸層_24"/>
    <linearGradient id="_未命名漸層_19" data-name="未命名漸層 19" x1="265.22" y1="978.84" x2="145.8" y2="1054.69" gradientTransform="translate(0 -965.61)" gradientUnits="userSpaceOnUse">
      <stop offset="0" stop-color="#0e282e"/>
      <stop offset="1" stop-color="#2a5c5f"/>
    </linearGradient>
    <linearGradient id="_未命名漸層_24-6" data-name="未命名漸層 24" x1="255.6" y1="1028.15" x2="134.17" y2="982.36" xlink:href="#_未命名漸層_24"/>
    <linearGradient id="_未命名漸層_24-7" data-name="未命名漸層 24" x1="262.62" y1="1009.55" x2="141.19" y2="963.75" xlink:href="#_未命名漸層_24"/>
    <linearGradient id="_未命名漸層_24-8" data-name="未命名漸層 24" x1="249.13" y1="1045.32" x2="127.7" y2="999.52" xlink:href="#_未命名漸層_24"/>
    <linearGradient id="_未命名漸層_24-9" data-name="未命名漸層 24" x1="251.99" y1="1037.73" x2="130.56" y2="991.93" xlink:href="#_未命名漸層_24"/>
    <linearGradient id="_未命名漸層_24-10" data-name="未命名漸層 24" x1="259.58" y1="1017.59" x2="138.15" y2="971.79" xlink:href="#_未命名漸層_24"/>
  </defs>
  <g id="_設計" data-name="設計">
    <g>
      <path d="M63.68,82.57c-.9,0-1.67-.76-1.67-1.67,0-.42,.21-.9,.49-1.18,4.44-4.16,6.73-8.95,6.8-13.95,.07-6.66-4.02-12.98-11.45-17.83-7.63-4.86-17.83-7.63-28.73-7.7h-.35c-9.71,0-19.08,2.22-26.37,6.31-.83,.42-1.8,.14-2.22-.69-.42-.76-.14-1.73,.62-2.15,7.91-4.37,17.97-6.8,28.31-6.66,11.52,.07,22.34,3.05,30.53,8.33,8.4,5.48,12.98,12.77,12.91,20.54,0,5.9-2.71,11.52-7.84,16.31-.28,.21-.62,.35-1.04,.35h0Z" style="fill: url(#_未命名漸層_24);"/>
      <path d="M83.32,32.47c-.97-1.25-2.85-1.53-4.09-.49h0l-.14,.07L56.88,0,25.45,60.51l6.31,3.75c.49,.28,1.04,.49,1.67,.49,1.18,0,2.22-.62,2.85-1.6,.9-1.53,.42-3.54-1.18-4.44l-.97-.62L58.06,12l19.78,28.52,5-3.89c1.32-1.04,1.53-2.91,.49-4.16Z" style="fill: #0e282e;"/>
      <path d="M112.46,0V82.64h-.49V0h.49Z" style="fill: #0e282e;"/>
      <path d="M138.97,.97h6.04c2.84,0,5.07,.83,6.59,2.57,1.6,1.73,2.36,4.16,2.36,7.36s-.76,5.62-2.36,7.29c-1.53,1.67-3.75,2.5-6.66,2.5h-6.04l.07-19.71h0Zm6.04,18.32c4.3,0,6.45-2.78,6.45-8.4s-2.15-8.47-6.45-8.47h-3.75V19.29h3.75Z" style="fill: url(#_未命名漸層_24-2);"/>
      <path d="M165.89,2.78l-5.97,17.97h-1.6L164.99,.97h2.71l6.52,19.78h-2.43l-5.9-17.97Z" style="fill: url(#_未命名漸層_24-3);"/>
      <path d="M180.12,20.75V.97h2.29V19.29h8.81v1.46h-11.1Z" style="fill: url(#_未命名漸層_24-4);"/>
      <path d="M197.74,20.75V.97h2.29V20.75h-2.29Z" style="fill: url(#_未命名漸層_24-5);"/>
      <path d="M217.45,2.78l-5.97,17.97h-1.6L216.55,.97h2.71l6.52,19.78h-2.43l-5.9-17.97Z" style="fill: #0e282e;"/>
      <path d="M236.19,12.07h.28c1.32,0,2.29-.35,2.98-1.11s.97-2.01,.97-3.82c0-3.19-1.39-4.79-4.23-4.79h-2.22V20.82h-2.29V.97h4.79c2.01,0,3.61,.56,4.72,1.6,1.11,1.04,1.73,2.57,1.73,4.51,0,1.53-.35,2.84-.97,3.82-.69,.97-1.53,1.73-2.64,2.15l4.93,7.77h-2.64l-5.41-8.74Z" style="fill: #0e282e;"/>
      <path d="M253.74,20.75V2.43h-5.62V.97h13.6v1.46h-5.69V20.75h-2.29Z" style="fill: #0e282e;"/>
      <path d="M181.09,68.21v13.32h-2.01v-13.32h2.01Z" style="fill: #0e282e;"/>
      <path d="M184.91,63.98v-5.97h-2.08v5.97h-6.25s-.76,3.33-4.16,6.8l1.46,1.46c.42-.49,.9-.9,1.25-1.39v10.76h2.08v-13.74c.69-1.25,1.04-2.22,1.25-2.84h4.37v16.58h2.08v-16.58h5.62v16.58h2.08v-16.58h1.73v-1.04h-9.44Z" style="fill: #0e282e;"/>
      <path d="M188.72,68.21v13.32h-2.01v-13.32h2.01Z" style="fill: #0e282e;"/>
      <path d="M194.14,60.02v1.04h-6.8v-1.04h6.8Z" style="fill: url(#_未命名漸層_19);"/>
      <path d="M178.73,58.77l-1.94-.76s-1.25,3.12-4.37,5.34l1.18,1.67c3.68-2.57,5.07-6.11,5.13-6.25h0Z" style="fill: #0e282e;"/>
      <path d="M227.86,61.41v-1.04h-7.49v-2.36h-2.08v2.36h-9.51v.9c0,6.25-.21,16.86-2.08,19.01l1.53,1.32c1.53-1.73,2.15-6.66,2.43-11.31h7.63v1.46h-5.97v6.45h.56c-.21,.56-.62,1.46-1.18,2.08l1.53,1.39c1.18-1.32,1.8-3.26,1.8-3.4h8.53c.07,.14,.62,2.08,1.8,3.4l1.53-1.39c-.56-.62-.97-1.53-1.18-2.08h.62v-6.45h-5.97v-1.46h7.49v-1.04h-17.14c.07-1.73,.14-3.4,.14-4.79h3.47v3.19h9.92v-3.19h3.61v-1.04h-3.61v-2.08l3.61,.07h0Zm-9.58,15.75h-3.96v-1.67h3.96v1.67Zm0-2.71h-3.96v-1.67h3.96v1.67Zm2.08-1.67h3.96v1.67h-3.96v-1.67Zm0,2.71h3.96v1.67h-3.96v-1.67Zm-6.04-12.07h-3.47v-2.08h3.47v2.08h0Zm7.91,3.26h-5.83v-2.22h5.83v2.22Zm0-3.26h-5.83v-2.08h5.83v2.08Z" style="fill: #0e282e;"/>
      <path d="M261.72,72.3v-1.04h-12.42c.56-.83,.62-1.11,.83-1.6h11.59v-1.04h-13.32c-.62,1.46-1.46,2.5-2.78,3.54v-9.02h4.16v3.96h9.99v-9.02h-9.99v4.09h-4.16v-4.3h-2.01v4.3h-2.78v1.04h2.78v10.41c-1.53,.9-2.78,1.32-2.78,1.32l.62,1.94c.21-.07,4.23-1.39,7.08-4.58h2.57c-.42,1.18-1.67,3.89-5.27,6.31l1.11,1.67c4.72-3.26,5.97-6.94,6.25-7.98h2.71c-.28,1.32-1.18,4.65-4.09,7.42l1.39,1.46c3.68-3.4,4.58-7.56,4.79-8.88h1.8c.07,2.01-.21,6.18-1.8,7.63l1.32,1.53c2.71-2.57,2.43-8.26,2.43-9.16h0Zm-9.99-13.18h5.97v3.05h-5.97v-3.05Zm0,4.02h5.97v2.91h-5.97v-2.91Z" style="fill: #0e282e;"/>
      <path d="M159.3,73.97v1.04h-20.33v-1.04h20.33Z" style="fill: #0e282e;"/>
      <path d="M138.97,77.51h3.19c.07,.56,0,1.53-.28,2.29h-1.18l-.07,1.39c.14,0,1.11,.07,2.57,.07,3.12,0,9.02-.21,11.8-1.6,.28,.42,.76,1.32,1.04,1.94h2.36c-.9-1.73-1.94-3.33-2.5-4.09h3.4v-1.04h-20.33v1.04h0Zm5.27,0h10.13l-.62,.62s.14,.07,.35,.42c-2.36,1.04-7.22,1.32-10.2,1.32,.35-.9,.35-1.8,.35-2.36Z" style="fill: #0e282e;"/>
      <path d="M149.45,71.54h-4.23v-1.53h6.18c-.28,.69-.62,1.32-.97,1.87l1.6,1.18c.62-.9,1.11-1.87,1.53-3.05h2.15v-1.04h-1.87c.35-1.39,.56-2.98,.62-4.93h1.73c.14,2.01,.56,6.66,2.01,8.95l1.67-1.11c-1.32-2.01-1.67-7.08-1.73-8.88h-3.68v-1.8h4.79v-.97h-4.79v-2.22h-2.01v2.22h-7.29v-2.22h-2.01v2.22h-4.23v.97h4.23v1.8h-4.23v1.04h4.23v1.46h-4.23v1.04h1.25c0,.62,0,1.67-.42,2.43h-.83v1.04h4.23v1.53h-4.23v1.04h10.48l.07-1.04h0Zm-4.23-10.27h7.29v1.8h-7.22v-1.8h-.07Zm0,2.84h7.22c-.07,2.01-.35,3.61-.69,4.93h-3.12c-.42-.69-.42-1.8-.42-2.43h1.25v-1.04h-4.23c0,.07,0-1.46,0-1.46Zm-2.01,4.93h-1.25c.35-.9,.35-1.8,.35-2.43h3.96c0,.62,0,1.53,.35,2.43h-1.25v-.9h-2.01l-.14,.9h0Z" style="fill: #0e282e;"/>
      <path d="M197.05,31.29l-5.97,17.97h-1.6l6.66-19.78h2.71l6.52,19.78h-2.43l-5.9-17.97h0Z" style="fill: url(#_未命名漸層_24-6);"/>
      <path d="M253.39,31.29l-5.97,17.97h-1.6l6.66-19.78h2.71l6.52,19.78h-2.43l-5.9-17.97h0Z" style="fill: url(#_未命名漸層_24-7);"/>
      <path d="M139.04,29.49h4.72c2.01,0,3.61,.56,4.72,1.6,1.11,1.04,1.67,2.64,1.67,4.65,0,1.53-.28,2.78-.9,3.82-.62,.97-1.39,1.67-2.36,2.15-.97,.42-2.01,.69-3.12,.62h-2.5v6.94h-2.29V29.49h.07Zm4.44,11.59c2.84,0,4.23-1.73,4.23-5.2,0-1.73-.35-2.98-1.11-3.82-.76-.83-1.8-1.25-3.12-1.25h-2.15v10.2l2.15,.07h0Z" style="fill: url(#_未命名漸層_24-8);"/>
      <path d="M164.02,49.27V29.49h2.29v18.32h8.81v1.46h-11.1Z" style="fill: url(#_未命名漸層_24-9);"/>
      <path d="M219.39,49.27v-1.25l10.69-17.07h-10.41v-1.46h13.25v1.25l-10.76,17.07h10.76v1.46h-13.53Z" style="fill: url(#_未命名漸層_24-10);"/>
    </g>
  </g>
</svg>