<?xml version="1.0" encoding="UTF-8"?>
<svg id="_圖層_2" data-name="圖層 2" xmlns="http://www.w3.org/2000/svg" width="255.39" height="80.61" viewBox="0 0 255.39 80.61">
  <g id="_設計" data-name="設計">
    <g>
      <g>
        <path d="M62.13,80.61c-.42,0-.85-.17-1.16-.5-.6-.64-.57-1.65,.07-2.25,4.3-4.05,6.59-8.75,6.61-13.6,.03-6.49-3.93-12.65-11.17-17.37-7.45-4.85-17.41-7.56-28.04-7.61-.1,0-.21,0-.31,0-9.47,0-18.61,2.17-25.76,6.13-.77,.42-1.74,.14-2.17-.62-.43-.77-.15-1.74,.62-2.17,7.7-4.26,17.52-6.6,27.63-6.53,11.24,.06,21.81,2.95,29.76,8.13,8.18,5.33,12.66,12.45,12.62,20.06-.03,5.75-2.66,11.25-7.62,15.91-.31,.29-.7,.43-1.09,.43Z" style="fill: #c88828;"/>
        <path d="M81.34,31.69c-.97-1.25-2.78-1.47-4.03-.5l-.11,.08L55.53,0,24.88,59.06l6.18,3.65c.51,.3,1.07,.44,1.62,.44,1.09,0,2.15-.56,2.75-1.57,.89-1.52,.39-3.47-1.12-4.36l-.98-.58L56.65,11.69l19.3,27.85,4.9-3.82c1.25-.97,1.47-2.78,.5-4.03Z" style="fill: #0e282e;"/>
      </g>
      <rect x="108.54" width=".51" height="80.61" style="fill: #0e282e;"/>
      <g>
        <g>
          <path d="M135.63,.96h5.87c2.77,0,4.92,.84,6.45,2.51,1.53,1.67,2.3,4.07,2.3,7.19s-.76,5.48-2.27,7.12c-1.51,1.64-3.68,2.46-6.48,2.46h-5.87V.96Zm5.9,17.86c4.19,0,6.29-2.72,6.29-8.16s-2.11-8.28-6.32-8.28h-3.62V18.82h3.65Z" style="fill: #c88828;"/>
          <path d="M161.86,2.68l-5.85,17.56h-1.57L160.94,.96h2.64l6.38,19.29h-2.34l-5.76-17.56Z" style="fill: #c88828;"/>
          <path d="M175.79,20.25V.96h2.26V18.82h8.57v1.42h-10.83Z" style="fill: #c88828;"/>
          <path d="M192.98,20.25V.96h2.25V20.25h-2.25Z" style="fill: #c88828;"/>
          <path d="M212.2,2.68l-5.85,17.56h-1.57L211.28,.96h2.64l6.38,19.29h-2.34l-5.76-17.56Z" style="fill: #0e282e;"/>
          <path d="M230.49,11.76h.26c1.28,0,2.26-.37,2.91-1.1,.65-.73,.98-1.97,.98-3.71,0-3.13-1.38-4.69-4.15-4.69h-2.14V20.25h-2.26V.96h4.66c1.96,0,3.49,.51,4.6,1.53,1.11,1.02,1.66,2.48,1.66,4.38,0,1.52-.33,2.77-.98,3.74-.65,.97-1.51,1.66-2.58,2.08l4.84,7.57h-2.58l-5.22-8.49Z" style="fill: #0e282e;"/>
          <path d="M247.62,20.25V2.38h-5.49V.96h13.26v1.43h-5.52V20.25h-2.25Z" style="fill: #0e282e;"/>
        </g>
        <g>
          <path d="M192.98,48.26V28.99h2.25v17.85h8.56v1.42h-10.82Z" style="fill: #c88828;"/>
          <path d="M137.75,45.93c-1.38-1.74-2.08-4.16-2.08-7.26s.75-5.59,2.26-7.34c1.5-1.75,3.63-2.62,6.37-2.62,.9,0,1.78,.12,2.62,.36,.84,.23,1.56,.5,2.15,.8,.6,.29,.89,.46,.89,.48l-.27,1.42s-.29-.16-.86-.44c-.57-.27-1.24-.53-2-.77-.75-.24-1.52-.36-2.29-.36-2.19,0-3.82,.71-4.88,2.12-1.06,1.41-1.59,3.53-1.59,6.36s.52,4.86,1.55,6.27c1.02,1.41,2.46,2.12,4.29,2.12,1.48,0,2.56-.36,3.23-1.07,.67-.72,1.11-1.42,1.31-2.13v-4.36h-3.94v-1.28h5.83v10.02h-1.1l-.57-2.11c-.47,.69-1.13,1.27-1.95,1.72-.83,.46-1.88,.68-3.14,.68-2.51,0-4.46-.87-5.84-2.61Z" style="fill: #c88828;"/>
          <path d="M209.31,48.26V28.99h10.37v1.43h-8.12v7.41h7.44v1.36h-7.44v7.65h8.77v1.43h-11.02Z" style="fill: #c88828;"/>
          <path d="M246.86,48.26v-7.98l-6.38-11.29h2.52l5.31,9.49,5.28-9.49h1.81l-6.28,11.15v8.12h-2.25Z" style="fill: #c88828;"/>
          <path d="M162.87,30.71l-5.84,17.55h-1.57l6.49-19.27h2.64l6.37,19.27h-2.34l-5.75-17.55Z" style="fill: #c88828;"/>
          <path d="M176.73,48.26V28.99h2.25v17.85h8.56v1.42h-10.82Z" style="fill: #c88828;"/>
          <path d="M230.48,39.78h.26c1.29,0,2.26-.36,2.91-1.1,.65-.73,.98-1.97,.98-3.7,0-3.13-1.39-4.69-4.16-4.69h-2.13v17.97h-2.25V28.99h4.65c1.96,0,3.49,.51,4.59,1.52,1.11,1.02,1.66,2.48,1.66,4.38,0,1.52-.32,2.77-.98,3.73-.65,.97-1.51,1.66-2.58,2.07l4.83,7.56h-2.58l-5.21-8.48Z" style="fill: #c88828;"/>
        </g>
        <g>
          <path d="M146.52,60.47v-3.84h-2v3.84h-8.89v11.62h8.89v7.56h2v-7.56h8.89v-11.62h-8.89Zm-8.89,10.62v-9.62h6.89v9.62h-6.89Zm8.89,0v-9.62h6.89v9.62h-6.89Z" style="fill: #0e282e;"/>
          <g>
            <rect x="201.5" y="72.09" width="20.33" height=".99" style="fill: #0e282e;"/>
            <path d="M201.5,75.62h3.14c.04,.53,.02,1.67-.29,2.42-.71-.01-1.15-.03-1.17-.03l-.06,1.39c.12,0,1.09,.05,2.49,.05,3.09,0,9.22-.37,11.96-1.7,.24,.4,.72,1.28,1.03,1.89h2.35c-.86-1.68-1.91-3.29-2.48-4.03h3.36v-.99h-20.33v.99Zm5.13,0h10.35l-.59,.59s.13,.1,.37,.39c-2.31,1.02-7.47,1.41-10.38,1.45,.26-.88,.28-1.9,.25-2.43Z" style="fill: #0e282e;"/>
            <path d="M217.15,59.45h4.68v-.99h-4.68v-1.83h-1.98v1.83h-7.51v-1.83h-1.98v1.83h-4.17v.99h4.17v1.49h-4.17v.99h4.17v1.89h-4.17v.99h1.22c.03,.62-.01,1.48-.41,2.18h-.81v.99h4.17v1.57h-4.17v.99h9.71v-.99h-3.56v-1.57h6.47c-.27,.71-.6,1.32-.98,1.85l1.6,1.17c.63-.86,1.12-1.85,1.49-3.02h1.91v-.99h-1.64c.32-1.35,.51-3.16,.6-5.06h1.72c0,1.32-.1,6.77,1.34,9.02l1.67-1.07c-1.27-1.99-1.07-7.18-1.07-8.95h-3.63c.01-.45,.02-.59,.02-1.07v-.42Zm-12.76,7.54c.31-.9,.35-1.6,.33-2.18h3.87c-.02,.58,.01,1.29,.33,2.18h-4.52Zm10.06,0h-3.46c-.39-.71-.44-1.57-.41-2.18h1.8v-.99h-4.72v-1.89h7.46c-.09,1.96-.31,3.77-.67,5.06Zm.72-7.12c0,.48,0,.62-.02,1.07h-7.5v-1.49h7.51v.42Z" style="fill: #0e282e;"/>
          </g>
          <g>
            <path d="M188.76,70.58v-.93h-9.64c.29-.61,.42-1.01,.54-1.66h9.11v-.99h-12.6v.99h1.59c-.29,.92-1.09,2.23-2.82,4.19l1.46,1.35c1-1.14,1.7-2.1,2.19-2.89h1.63c-.49,1.14-1.66,3.58-5.03,6.28l1.24,1.55c4.52-3.62,5.63-6.96,5.9-7.83h1.28c-.27,1.25-.92,4.53-3.8,7.21l1.35,1.46c3.6-3.36,4.26-7.45,4.47-8.66h1.13c.05,1.96-.17,6.11-1.76,7.54l1.33,1.48c2.37-2.14,2.47-7.3,2.43-9.07Z" style="fill: #0e282e;"/>
            <path d="M187.37,56.63h-10.05v8.69h10.05v-8.69Zm-1.99,7.7h-6.08v-2.87h6.08v2.87Zm0-3.86h-6.08v-2.84h6.08v2.84Z" style="fill: #0e282e;"/>
            <path d="M175.72,56.63h-7.29v22.86h1.99v-6.49c1.95-.1,2.93-.97,3.4-1.73,1.46-2.33,.37-6.13-.19-7.38l2.09-7.26Zm-4.05,7.76c.51,1.04,1.37,4.36,.45,5.82-.11,.18-.46,.71-1.71,.79v-13.39h2.91l-1.82,6.41,.17,.36Z" style="fill: #0e282e;"/>
          </g>
          <g>
            <rect x="240.53" y="66.56" width="1.99" height="13" style="fill: #0e282e;"/>
            <path d="M246.24,62.46v-5.82h-2v5.82h-6.05v.02h-.04s-.72,3.23-4.07,6.65l1.43,1.4c.46-.46,.87-.93,1.24-1.38v10.49h2v-13.43c.66-1.2,1.02-2.18,1.2-2.76h4.29v16.19h2v-16.19h5.49v16.19h2v-16.19h1.66v-1h-9.15Z" style="fill: #0e282e;"/>
            <rect x="247.96" y="66.56" width="1.98" height="13" style="fill: #0e282e;"/>
            <rect x="248.6" y="58.55" width="6.61" height="1.03" style="fill: #0e282e;"/>
            <path d="M240.2,57.35l-1.87-.71s-1.2,3.04-4.24,5.22l1.17,1.63c3.55-2.54,4.89-5.99,4.94-6.13Z" style="fill: #0e282e;"/>
          </g>
        </g>
      </g>
    </g>
  </g>
</svg>