<?xml version="1.0" encoding="UTF-8"?>
<svg id="_圖層_2" data-name="圖層 2" xmlns="http://www.w3.org/2000/svg" width="269.25" height="60" viewBox="0 0 269.25 60">
  <g id="_圖層_4" data-name="圖層 4">
    <g id="_設計" data-name=" 設計">
      <g>
        <path d="M59.97,13.43c-.05-4.01-1.26-7.37-3.65-9.78-5.3-5.3-15.36-4.79-26.34,1.26h0C23.95,1.58,18.2-.07,13.36,0,9.4,.07,6.04,1.29,3.65,3.68,1.17,6.16-.05,9.69,0,13.86c.05,4.75,1.69,10.31,4.91,16.13h0C1.6,36.02-.05,41.75,0,46.57c.05,4.01,1.26,7.37,3.65,9.78,2.5,2.5,6.08,3.72,10.33,3.65,4.7-.07,10.23-1.72,15.98-4.89h0c6.04,3.32,11.78,4.96,16.63,4.89,3.96-.07,7.32-1.26,9.71-3.65,2.48-2.48,3.7-6.01,3.65-10.19-.05-4.75-1.69-10.31-4.91-16.13h0c3.32-5.99,4.96-11.71,4.89-16.56l.05-.05Zm-23.45,23.09c-2.22,2.22-4.56,4.27-6.97,6.08l-.19,.14c-.12,.1-.24,.19-.36,.26l-.29,.21c-.29,.21-.57,.41-.86,.6h0c-1.6,1.12-3.22,2.12-4.75,2.93l-.07,.05c-.17,.1-.33,.17-.48,.26-.12,.07-.26,.14-.38,.19h0c-.33,.17-.67,.33-1,.48h0c-4.56,2.08-8.18,2.39-9.71,.86-.64-.64-.95-1.67-.95-2.98,0-1.79,.62-4.13,1.81-6.75,.14-.33,.31-.67,.48-1,.07-.14,.12-.26,.21-.41h0c.1-.17,.17-.33,.26-.5v-.07c.86-1.53,1.84-3.15,2.96-4.75,.19-.29,.41-.57,.62-.86l.21-.29c.1-.14,.19-.26,.31-.41l.43-.57h0l-.43-.57c-.1-.14-.21-.26-.31-.41l-.21-.31c-.21-.29-.41-.57-.62-.86-1.03-1.46-1.93-2.93-2.72-4.34l-.24-.45s-.1-.19-.14-.26c-.05-.1-.1-.17-.14-.26-.07-.14-.14-.26-.21-.41h0c-.1-.21-.19-.41-.29-.6-.07-.14-.12-.26-.19-.41-1.19-2.62-1.81-4.96-1.81-6.75,0-1.31,.31-2.34,.95-2.98,1.53-1.53,5.18-1.22,9.73,.83,.33,.14,.64,.31,1,.48h0c.14,.07,.26,.14,.41,.21,.1,.05,.17,.1,.26,.14s.17,.1,.26,.14l.43,.24c1.41,.79,2.89,1.69,4.34,2.72,.14,.1,.29,.19,.43,.31,.14,.1,.29,.19,.43,.31l.31,.21c.12,.1,.26,.19,.38,.29l.14,.12c2.39,1.79,4.72,3.84,6.97,6.06,2.1,2.1,4.03,4.27,5.75,6.51-1.72,2.24-3.65,4.44-5.73,6.54h-.05Zm12.05-25.12c.62,.62,.93,1.57,.95,2.79,.02,1.57-.43,3.58-1.34,5.87-1.24-1.48-2.58-2.93-3.96-4.32s-2.84-2.7-4.32-3.96c4.06-1.65,7.25-1.81,8.66-.41v.02Zm-15.62,4.2s.02,0,.05-.02c.24-.17,.45-.31,.69-.45,.33-.21,.69-.45,1.03-.64,.29-.19,.6-.36,.88-.52,.05-.02,.07-.05,.12-.07,.24-.14,.5-.29,.74-.43,.21,.17,.41,.33,.62,.5,.19,.17,.41,.33,.6,.5,.29,.24,.55,.48,.83,.72,.19,.17,.36,.31,.55,.48,.31,.29,.62,.55,.91,.83,.14,.14,.31,.26,.45,.41,.45,.43,.88,.86,1.34,1.29,.43,.43,.86,.88,1.29,1.34,.14,.14,.29,.31,.41,.45,.29,.31,.57,.6,.83,.91,.17,.19,.33,.38,.48,.55,.24,.29,.48,.55,.72,.83,.17,.19,.33,.41,.5,.6,.17,.21,.33,.41,.5,.62-.14,.24-.29,.5-.43,.74-.12,.19-.24,.38-.36,.6-.12,.19-.24,.41-.36,.6-.24,.41-.5,.81-.76,1.19-.1,.14-.17,.26-.29,.41l-.02-.02c-.36-.45-.74-.91-1.12-1.36-.07-.07-.12-.17-.19-.24-.38-.45-.76-.88-1.15-1.31-.07-.07-.14-.17-.21-.24-.41-.43-.81-.88-1.22-1.31-.05-.07-.12-.12-.17-.19-.43-.45-.88-.91-1.31-1.36-.45-.45-.91-.88-1.36-1.31l-.17-.17c-.43-.41-.88-.81-1.31-1.22-.07-.07-.17-.14-.24-.21-.43-.38-.88-.76-1.34-1.15-.07-.07-.14-.12-.21-.19-.45-.38-.91-.76-1.38-1.12l-.02-.02h0l.1,.02ZM5.3,7.09c.24-.33,.52-.67,.81-.98,.12-.12,.24-.24,.38-.33l.12-.12s.19-.14,.26-.21c.05-.05,.1-.07,.17-.12,.1-.07,.17-.12,.26-.19,.05-.02,.1-.07,.17-.1,.1-.07,.19-.12,.31-.19,.05-.02,.1-.07,.14-.1,.14-.1,.29-.17,.45-.24h0c.17-.07,.31-.14,.5-.21,.05-.02,.1-.05,.17-.07,.12-.05,.24-.1,.36-.14,.07-.02,.12-.05,.19-.07,.12-.05,.21-.07,.33-.12,.07,0,.14-.05,.21-.05,.12-.02,.24-.07,.36-.1,.07,0,.12-.02,.19-.05,.19-.05,.36-.07,.55-.12h.02c.19-.05,.38-.07,.6-.1h.19c.14,0,.29-.02,.41-.02h2.08c.29,0,.57,.02,.88,.05,.21,0,.43,.05,.67,.07,.07,0,.14,0,.24,.02,.14,0,.31,.05,.45,.07,.1,0,.19,.02,.29,.05,.14,0,.29,.05,.41,.07,.1,0,.19,.05,.31,.07,.14,0,.26,.05,.41,.07,.1,0,.21,.05,.31,.07,.12,.02,.26,.07,.41,.1,.1,.02,.21,.05,.31,.07,.14,.02,.26,.07,.41,.1,.1,.02,.21,.07,.33,.1,.14,.05,.29,.07,.41,.12,.1,.02,.21,.07,.33,.1,.14,.05,.29,.1,.43,.14,.1,.02,.21,.07,.31,.1,.14,.05,.31,.1,.45,.17,.1,.02,.19,.07,.29,.1,.17,.07,.36,.12,.52,.19,.07,.02,.17,.05,.24,.1,.26,.1,.5,.19,.76,.31,.02,0,.07,.02,.12,.05l.64,.29c.1,.05,.17,.07,.26,.12,.17,.07,.33,.14,.5,.21,.1,.05,.21,.1,.31,.14,.14,.07,.31,.14,.45,.21,.12,.05,.21,.12,.33,.17l.29,.14c-.29,.19-.57,.38-.83,.57-.02,0-.05,.05-.07,.05-.31,.21-.64,.43-.95,.64-.5,.36-1,.72-1.5,1.1h0s-.05-.02-.1-.05c-.1-.05-.21-.1-.33-.14-.1-.05-.19-.1-.26-.12-.1-.05-.21-.1-.31-.14s-.19-.07-.26-.12c-.1-.05-.21-.1-.31-.12s-.19-.07-.26-.12c-.1-.05-.19-.07-.31-.12-.1-.02-.19-.07-.29-.1-.1-.05-.19-.07-.29-.12-.1-.02-.17-.07-.26-.1s-.19-.07-.29-.1-.19-.05-.26-.1c-.1-.02-.19-.07-.29-.1s-.17-.05-.26-.07-.19-.05-.26-.1c-.1-.02-.17-.05-.26-.07s-.19-.05-.26-.07c-.07,0-.17-.05-.26-.07-.1,0-.17-.05-.26-.07-.1,0-.17-.05-.26-.07-.1,0-.17-.05-.26-.05-.07,0-.17-.02-.26-.05-.07,0-.17-.02-.24-.05-.07,0-.17-.02-.24-.05-.07,0-.17,0-.24-.02-.07,0-.17,0-.24-.02-.07,0-.17,0-.24-.02h-2.48c-.07,0-.14,0-.21,.02-.07,0-.14,0-.21,.02-.07,0-.14,0-.19,.02-.07,0-.14,.02-.21,.05-.07,0-.12,.02-.19,.05-.07,0-.12,.02-.19,.05-.07,0-.12,.02-.19,.05-.07,0-.12,.05-.19,.05-.05,0-.12,.05-.19,.05-.07,.02-.12,.05-.19,.07-.05,.02-.12,.05-.17,.07s-.12,.05-.19,.07c-.05,.02-.12,.05-.17,.07s-.12,.07-.19,.1l-.14,.07c-.07,.02-.12,.07-.17,.1s-.1,.07-.14,.1c-.05,.05-.12,.07-.17,.12l-.14,.1s-.12,.1-.17,.12-.1,.07-.12,.1c-.07,.05-.12,.1-.19,.14-.02,.02-.07,.05-.1,.1-.1,.1-.19,.17-.26,.26l-.26,.26s-.05,.07-.1,.1c-.05,.05-.1,.12-.14,.19-.02,.05-.07,.07-.1,.12-.05,.05-.1,.12-.14,.17-.02,.05-.05,.1-.1,.14s-.07,.12-.12,.17l-.07,.14s-.07,.12-.1,.17l-.07,.14c-.02,.07-.05,.12-.1,.19-.02,.05-.05,.1-.07,.17,0,.05-.05,.12-.07,.19,0,.05-.05,.12-.07,.17,0,.05-.05,.12-.07,.19,0,.05-.05,.12-.05,.17,0,.07-.05,.12-.05,.19,0,.05-.02,.12-.05,.17,0,.07-.02,.14-.05,.21,0,.05-.02,.12-.05,.19,0,.07-.02,.14-.05,.21,0,.07,0,.12-.02,.19,0,.07,0,.14-.02,.21,0,.07,0,.14-.02,.19v1.1h0v1.15c0,.07,0,.17,.02,.24,0,.07,0,.14,.02,.24,0,.1,0,.17,.02,.26,0,.07,.02,.14,.05,.24,0,.07,.02,.17,.05,.26,0,.07,.02,.17,.05,.24,0,.1,.02,.17,.05,.26,0,.07,.02,.17,.05,.24,0,.1,.05,.17,.07,.26,0,.07,.05,.17,.05,.26,.02,.1,.05,.19,.07,.26,.02,.1,.05,.17,.07,.26l.07,.29c.02,.07,.05,.17,.07,.26,.02,.1,.07,.19,.1,.29s.05,.19,.1,.26c.02,.1,.07,.19,.1,.29s.07,.19,.1,.26c.05,.1,.07,.19,.1,.29,.05,.1,.07,.19,.1,.26l.12,.29s.07,.19,.12,.26c.05,.1,.1,.19,.12,.31,.05,.1,.07,.19,.12,.29s.1,.21,.14,.31,.1,.19,.12,.29c.05,.1,.1,.21,.14,.31l.14,.29s.02,.07,.05,.1c-.05,.07-.12,.14-.17,.24-.14,.19-.31,.41-.45,.62-.38,.52-.76,1.07-1.12,1.62-.21,.31-.43,.62-.62,.93l-.14-.29c-.05-.12-.12-.24-.17-.33-.07-.14-.14-.31-.21-.45-.05-.1-.1-.21-.14-.31-.07-.17-.14-.33-.21-.5-.05-.1-.1-.19-.12-.26-.1-.21-.19-.43-.26-.64,0-.05-.02-.07-.05-.12-.1-.26-.19-.5-.31-.76-.02-.07-.07-.14-.1-.24-.07-.17-.14-.33-.19-.52-.02-.1-.07-.19-.1-.29-.05-.14-.12-.31-.17-.45-.02-.1-.07-.21-.1-.31-.05-.14-.1-.29-.14-.43-.02-.1-.07-.21-.1-.31-.05-.14-.1-.29-.12-.43-.02-.1-.05-.21-.1-.31-.05-.14-.07-.29-.1-.41-.02-.1-.05-.21-.07-.31-.02-.14-.07-.26-.1-.41,0-.1-.05-.21-.07-.31-.02-.14-.05-.29-.1-.41,0-.1-.05-.19-.05-.29l-.07-.43c0-.1-.02-.17-.05-.26,0-.14-.05-.31-.07-.45,0-.07-.02-.14-.02-.21-.02-.24-.05-.45-.07-.67-.05-.52-.07-1.05-.07-1.55,0-2.72,.62-4.99,1.84-6.7l-.14-.1Zm-1.77,37.57c.33-3.67,1.72-7.92,4.03-12.29l.19-.36c.1-.17,.19-.33,.29-.5l.17-.29s.07-.14,.12-.21c0-.05,.05-.1,.07-.12,.07-.12,.14-.24,.19-.33l.1-.17c.76-1.29,1.6-2.58,2.48-3.84,.67,1.15,1.43,2.31,2.24,3.46h0c-.81,1.17-1.57,2.34-2.24,3.48h0l-.52,.95h0l-.52,1h0l-.5,1.03-.19,.41h0c-1.62,3.39-2.41,6.39-2.39,8.9,0,2.19,.67,3.98,1.98,5.3,1.36,1.36,3.24,2,5.58,1.98,2.43-.05,5.34-.83,8.61-2.39h0l.41-.19,1.05-.52h0l1-.52h0l.98-.55h0c1.29-.76,2.6-1.62,3.89-2.55l.81-.57h0l.07-.05c.14-.12,.29-.21,.45-.33l.41-.31h0l.79-.6h0c2.08-1.65,4.1-3.46,6.06-5.42,1.96-1.96,3.77-3.98,5.42-6.06h0l.6-.76h0l.05-.07h0l.64-.86,.52-.72h0l.36-.5h0c.81-1.17,1.57-2.34,2.24-3.48h0l.55-.95h0l.52-1h0l.5-1.03,.19-.41c1.57-3.32,2.36-6.25,2.39-8.71v-.24c-.02-2.17-.69-3.94-1.98-5.22-2.77-2.77-7.8-2.62-14.17,.41-.14,.07-.26,.12-.41,.19l-.62,.31-.43,.21h0l-.6,.33h0l-.38,.21h0l-.98,.55h0c-1.15,.69-2.31,1.43-3.48,2.27h0c-1.17-.81-2.31-1.57-3.46-2.24,1.26-.91,2.55-1.74,3.84-2.48h0l.12-.07c.12-.07,.24-.14,.36-.21,.12-.07,.24-.14,.36-.19l.12-.07h.05c.21-.14,.43-.26,.64-.38,.12-.07,.24-.12,.36-.19l.41-.21c2.03-1.05,4.06-1.91,5.99-2.55,2.05-.67,4.03-1.12,5.89-1.26,3.98-.36,7.18,.52,9.23,2.58,1.74,1.72,2.65,4.27,2.67,7.42,0,.57,0,1.19-.07,1.81-.31,3.58-1.65,7.68-3.82,11.88l-.21,.41s-.12,.24-.19,.36c-.12,.21-.24,.43-.36,.64l-.07,.14h0s-.12,.24-.19,.36c-.07,.1-.12,.21-.19,.33l-.1,.17c-.93,1.57-1.98,3.17-3.12,4.72h0c-.21,.31-.43,.6-.64,.88l-.29,.36h0c-.1,.12-.19,.26-.31,.38l-.1,.1c-1.55,1.96-3.24,3.86-5.06,5.68-1.81,1.81-3.72,3.51-5.68,5.06l-.1,.07c-.14,.12-.26,.21-.41,.31l-.36,.29c-.29,.24-.6,.45-.88,.67-1.55,1.15-3.12,2.19-4.72,3.12l-.12,.07c-.12,.07-.24,.14-.38,.21-.05,.02-.12,.07-.17,.1l-.33,.19c-.33,.19-.67,.38-1,.55h0c-4.34,2.31-8.59,3.72-12.29,4.06-3.98,.36-7.16-.52-9.23-2.58-1.74-1.72-2.65-4.27-2.67-7.42,0-.57,0-1.19,.07-1.81l-.12-.1Zm45.06,3.91c-1.41,1.41-4.6,1.26-8.66-.41,1.48-1.24,2.93-2.58,4.32-3.96s2.72-2.84,3.96-4.32c.88,2.15,1.34,4.08,1.36,5.61,0,1.36-.29,2.41-.95,3.08h-.02Zm5.3,5.3c-2.05,2.05-5.25,2.96-9.23,2.6-.21,0-.45-.05-.67-.07-.07,0-.14,0-.21-.02-.14,0-.31-.05-.45-.07-.1,0-.19-.02-.26-.05-.14-.02-.29-.05-.43-.07-.1,0-.19-.02-.29-.05-.14-.02-.29-.05-.41-.07-.1,0-.21-.05-.31-.07-.14-.02-.26-.07-.41-.1-.1,0-.21-.05-.31-.07-.14-.02-.29-.07-.41-.1-.1-.02-.21-.05-.31-.07-.14-.05-.29-.1-.43-.12-.1-.02-.21-.07-.31-.1-.14-.05-.29-.1-.45-.14-.1-.02-.19-.07-.31-.1-.14-.05-.31-.1-.48-.17-.1-.02-.19-.07-.29-.1-.19-.07-.36-.14-.55-.19-.07,0-.14-.05-.21-.07-.26-.1-.5-.19-.76-.31h-.05c-.24-.1-.48-.19-.72-.29-.07-.05-.17-.07-.24-.12-.17-.07-.36-.14-.52-.24-.1-.05-.19-.1-.29-.14-.17-.07-.31-.14-.48-.21-.1-.05-.21-.1-.31-.17-.1-.05-.19-.1-.31-.14,1.15-.74,2.27-1.53,3.36-2.36h0s.1,.05,.14,.07c.1,.05,.17,.07,.26,.12,.12,.05,.26,.12,.38,.17,.1,.02,.17,.07,.26,.12,.12,.05,.24,.1,.38,.14,.07,.05,.17,.07,.24,.12,.12,.05,.24,.1,.38,.14,.07,.02,.14,.05,.24,.1,.14,.05,.26,.1,.41,.14,.07,0,.12,.05,.19,.07,.19,.07,.38,.14,.57,.19,.02,0,.05,0,.07,.02,.17,.05,.33,.1,.5,.17,.07,0,.14,.05,.21,.07,.12,.02,.24,.07,.36,.1,.07,0,.14,.05,.24,.07,.12,.02,.21,.05,.33,.07,.07,0,.14,.05,.24,.05s.21,.05,.31,.07c.07,0,.17,.02,.24,.05,.1,0,.19,.05,.31,.07,.07,0,.17,.02,.24,.05,.1,0,.19,.02,.29,.05,.07,0,.14,0,.21,.02,.1,0,.19,.02,.31,.05,.07,0,.14,0,.21,.02,.12,0,.21,0,.33,.02h1.19c.26,0,.5,0,.74-.05,.24,0,.48-.05,.72-.1h.05c.21-.05,.43-.1,.64-.14,.02,0,.05,0,.07-.02,.21-.05,.41-.12,.6-.19,.02,0,.07,0,.1-.02,.19-.07,.38-.17,.55-.24,.02,0,.05-.02,.1-.05,.17-.1,.36-.19,.52-.29,0,0,.05-.02,.07-.05,.17-.12,.33-.24,.5-.36l.05-.05c.17-.14,.33-.29,.48-.43,.1-.07,.17-.17,.26-.26,.02-.02,.05-.07,.07-.1,.05-.05,.1-.12,.17-.19,.02-.02,.07-.07,.1-.12,.05-.05,.1-.12,.12-.17,.02-.05,.07-.1,.1-.14,.02-.05,.07-.12,.12-.17,.02-.05,.05-.1,.07-.14,.02-.05,.07-.12,.1-.17s.05-.1,.07-.14c.02-.05,.07-.12,.1-.19,0-.05,.05-.1,.07-.17,.02-.05,.05-.12,.07-.19,0-.05,.05-.12,.07-.17,.02-.07,.05-.12,.07-.19,0-.05,.02-.12,.05-.17,0-.07,.05-.12,.05-.19,0-.05,.02-.12,.05-.19,0-.07,.02-.14,.05-.19,0-.07,.02-.12,.05-.19,0-.07,.02-.14,.05-.21,0-.05,0-.12,.02-.19,0-.07,0-.14,.02-.21v-.19c0-.07,0-.14,.02-.21v-2.03c0-.07,0-.17-.02-.26,0-.07,0-.14-.02-.21,0-.1,0-.17-.02-.26,0-.07,0-.17-.02-.24,0-.1-.02-.17-.05-.26,0-.07-.02-.17-.05-.24,0-.1-.02-.17-.05-.26,0-.07-.05-.17-.05-.24,0-.1-.05-.19-.07-.29,0-.07-.05-.17-.05-.24-.02-.1-.05-.19-.07-.29,0-.07-.05-.17-.07-.26s-.05-.19-.07-.29c-.02-.07-.05-.17-.07-.26s-.07-.19-.1-.29-.05-.17-.07-.26-.07-.19-.1-.29-.07-.17-.1-.26c-.05-.1-.07-.19-.12-.29-.02-.1-.07-.17-.1-.26-.05-.1-.07-.21-.12-.31-.05-.1-.07-.17-.1-.26-.05-.1-.1-.21-.12-.31-.05-.1-.07-.19-.12-.26-.05-.1-.1-.21-.14-.31-.05-.1-.1-.19-.12-.29-.05-.1-.1-.21-.14-.31-.05-.1-.1-.19-.14-.29,0-.05-.02-.07-.05-.1h0c.21-.29,.43-.57,.62-.83,.62-.83,1.19-1.69,1.74-2.53,.05,.1,.1,.19,.14,.31,.05,.1,.1,.21,.17,.31,.07,.17,.14,.31,.21,.48,.05,.1,.1,.21,.14,.31,.07,.17,.14,.33,.21,.5,.05,.1,.07,.17,.12,.26,.1,.24,.19,.45,.29,.69,0,.02,.02,.05,.05,.1,.1,.26,.19,.5,.31,.76,.02,.07,.05,.14,.1,.21,.07,.19,.12,.36,.19,.52,.02,.1,.07,.19,.1,.29,.05,.17,.1,.31,.17,.45,.02,.1,.07,.21,.1,.31,.05,.14,.1,.29,.14,.43,.02,.1,.07,.21,.1,.31,.05,.14,.07,.29,.12,.43,.02,.1,.05,.21,.1,.31,.05,.14,.07,.29,.1,.41,.02,.1,.05,.21,.07,.31,.02,.14,.07,.26,.1,.41,.02,.1,.05,.21,.07,.31,.02,.14,.05,.26,.07,.41,0,.1,.05,.19,.05,.29,.02,.14,.05,.29,.07,.41,0,.1,.02,.19,.05,.29,.02,.17,.05,.31,.07,.45,0,.07,0,.14,.02,.24,.02,.21,.05,.45,.07,.67,.05,.5,.07,.98,.07,1.46,.05,3.32-.86,5.96-2.67,7.78l-.05-.05Z" style="fill: #211816;"/>
        <g>
          <path d="M129.39,53.82c-7.9,0-11.74-2.6-11.74-2.6v-8.35h.86c1.17,4.29,4.89,10.11,10.88,10.11,4.63,0,5.53-5.61,.6-8.87l-6.58-3.98c-6.25-3.98-7.9-9.85-4.1-14.41,0,0,2.41-3.2,9.4-3.2,7.49,0,10.69,1.88,10.69,1.88v6.97h-.86c-.98-4.03-4.56-8.02-9.85-8.02-4.25,0-6.13,4.63-.45,8.21l6.58,4.1c5.87,3.58,7.56,10.11,4.17,14.6,0,0-2.48,3.53-9.59,3.53v.02Z" style="fill: #211816;"/>
          <path d="M179.06,53.82h-14.86v-.79c2.48-.72,2.6-3.58,2.6-6.92v-12.71c0-3.72-1.5-5.49-4.96-5.49-1.69,0-3.65,1.31-4.77,3.39v14.79c0,3.58,.33,6.25,2.67,6.85v.86h-14.86v-.86c2.48-.72,2.6-3.53,2.6-6.85V12.81c0-2.29-.72-3.05-3.39-4.03v-.86l12.98-2.74V29.96c1.43-3.53,5.94-6.85,9.85-6.85,5.22,0,9.45,2.22,9.45,10.04v12.98c0,3.58,.38,6.32,2.67,6.92v.79l.02-.02Z" style="fill: #211816;"/>
          <path d="M236.33,53.82h-14.86v-.79c2.48-.72,2.6-3.58,2.6-6.92v-12.83c0-3.46-1.69-5.49-4.89-5.49-2.03,0-4.25,1.96-4.7,3.98v14.48c0,3.58,.33,6.13,2.67,6.77v.79h-14.86v-.79c2.48-.72,2.55-3.46,2.55-6.77v-15.31c0-2.29-.64-3.12-3.32-4.29v-.86l12.98-2.67v6.66c1.57-3.72,5.87-6.66,9.71-6.66,5.15,0,9.45,2.08,9.45,9.9v13.1c0,3.58,.33,6.32,2.67,6.92,0,0,0,.79,0,.79Z" style="fill: #211816;"/>
          <path d="M257.85,49.67c-4.37-.98-7.56-3.91-7.82-12.07h19.23c0-11.21-5.49-15.05-13.69-15.05s-15.84,5.61-15.84,15.77c0,8.21,6.39,15.53,14.93,15.53s12.79-4.89,13.69-8.99l-.86-.33c-1.43,4.29-6.25,5.94-9.66,5.15h.02Zm-2.29-26.29c3.1,0,4.84,4.68,5.01,12.21h-10.52c.24-5.94,2.27-12.21,5.51-12.21Z" style="fill: #211816;"/>
          <path d="M108.28,47.93c-1.05-2.15-1.98-4.34-2.91-6.54-4.75-11.16-9.49-22.33-14.24-33.47h-.38c-.1,0-.29-.02-.36,0-.14,.1-.24,.55-.29,.69l-.6,1.55c-.41,1.03-.79,2.05-1.19,3.08-.79,2.05-1.57,4.1-2.39,6.15l-2.39,6.15c-.79,2.05-1.57,4.1-2.39,6.15l-.19,.5c-2.17,5.63-4.37,11.28-7.44,16.48-1.26,2.1-3.05,4.34-5.51,4.37v.79h17.41v-.83c-2.74,.45-5.58-1.34-6.7-3.89-1.12-2.55-.67-5.61,.81-7.97h13.05c1.22,2.5,2.46,5.03,3.05,7.75,.21,.95,.33,2-.05,2.91s-1.48,1.55-2.39,1.17c0,.29-.05,.6-.05,.88h20.73v-.86c-1.07,.26-2.22-.19-3.01-.91s-1.36-1.69-1.84-2.65c-.26-.5-.5-.98-.74-1.48l-.02-.05Zm-16.46-8.83h-11.52l5.46-14.27,6.06,14.27Z" style="fill: #211816;"/>
          <g>
            <path d="M198.12,53.82h-14.86v-.79c2.48-.79,2.6-3.53,2.6-6.85v-15.2c0-2.29-.72-3.2-3.39-4.37v-.86l12.98-2.67v23.09c0,3.58,.33,6.2,2.67,6.85v.79Z" style="fill: #211816;"/>
            <circle cx="189.29" cy="13.79" r="4.06" style="fill: #211816;"/>
          </g>
        </g>
      </g>
    </g>
  </g>
</svg>