<?xml version="1.0" encoding="UTF-8"?>
<svg id="_圖層_2" data-name="圖層 2" xmlns="http://www.w3.org/2000/svg" width="131.03" height="158.34" viewBox="0 0 131.03 158.34">
  <g id="_設計" data-name="設計">
    <path d="M0,2.29H29.83V20.65c4.43-6.43,10.29-11.47,17.55-15.15C54.65,1.84,62.88,0,72.05,0c18.66,0,33.16,5.09,43.48,15.26,10.33,10.18,15.49,24.21,15.49,42.11,0,12.24-2.41,22.83-7.23,31.78-4.82,8.95-11.63,15.83-20.42,20.65-8.8,4.82-19.16,7.23-31.09,7.23-9.79,0-18.28-1.88-25.47-5.62-7.19-3.75-12.85-9.29-16.98-16.64v63.56H0V2.29ZM91.56,93.05c6.58-9.1,9.87-21.15,9.87-36.14s-3.14-26.04-9.41-34.08c-6.27-8.03-15-12.05-26.16-12.05s-19.77,4.32-26.27,12.97c-6.5,8.64-9.75,20.23-9.75,34.76s3.13,26.77,9.41,35.34c6.27,8.57,14.92,12.85,25.93,12.85s19.81-4.55,26.39-13.65Z" style="fill: #333;"/>
  </g>
</svg>