<?xml version="1.0" encoding="UTF-8"?>
<svg id="_圖層_2" data-name="圖層 2" xmlns="http://www.w3.org/2000/svg" width="252.05" height="79.55" viewBox="0 0 252.05 79.55">
  <g id="_設計" data-name="設計">
    <g>
      <g>
        <path d="M61.31,79.55c-.42,0-.84-.17-1.15-.5-.59-.63-.56-1.63,.07-2.22,4.24-3.99,6.5-8.63,6.53-13.42,.03-6.4-3.88-12.49-11.02-17.14-7.36-4.79-17.18-7.46-27.67-7.51-.1,0-.21,0-.31,0-9.35,0-18.37,2.14-25.42,6.05-.76,.42-1.72,.14-2.14-.61-.42-.76-.14-1.72,.61-2.14,7.6-4.2,17.29-6.51,27.27-6.44,11.09,.06,21.52,2.91,29.37,8.02,8.07,5.26,12.49,12.29,12.45,19.79-.03,5.68-2.63,11.11-7.52,15.7-.3,.29-.69,.43-1.08,.43Z" style="fill: #ca8a28;"/>
        <path d="M80.28,31.28c-.96-1.23-2.74-1.45-3.97-.49l-.11,.08L54.81,0,24.56,58.29l6.09,3.6c.5,.29,1.05,.44,1.6,.44,1.08,0,2.12-.55,2.71-1.55,.88-1.5,.39-3.43-1.11-4.31l-.97-.57L55.91,11.53l19.05,27.49,4.83-3.77c1.23-.96,1.45-2.74,.49-3.97Z" style="fill: #0e282e;"/>
      </g>
      <rect x="107.12" width=".5" height="79.55" style="fill: #0e282e;"/>
      <g>
        <g>
          <path d="M133.86,.95h5.8c2.74,0,4.85,.83,6.37,2.48,1.51,1.65,2.27,4.01,2.27,7.1s-.75,5.41-2.24,7.03c-1.49,1.62-3.63,2.43-6.4,2.43h-5.8V.95Zm5.83,17.63c4.14,0,6.21-2.68,6.21-8.05s-2.08-8.17-6.24-8.17h-3.57V18.57h3.6Z" style="fill: #ca8a28;"/>
          <path d="M159.74,2.65l-5.77,17.33h-1.55L158.84,.95h2.61l6.3,19.03h-2.31l-5.68-17.33Z" style="fill: #ca8a28;"/>
          <path d="M173.49,19.98V.95h2.23V18.57h8.46v1.41h-10.69Z" style="fill: #ca8a28;"/>
          <path d="M190.46,19.98V.95h2.23V19.98h-2.23Z" style="fill: #ca8a28;"/>
          <path d="M209.42,2.65l-5.77,17.33h-1.55L208.51,.95h2.61l6.3,19.03h-2.31l-5.68-17.33Z" style="fill: #0e282e;"/>
          <path d="M227.47,11.61h.26c1.27,0,2.23-.36,2.87-1.08,.64-.72,.97-1.94,.97-3.66,0-3.09-1.37-4.63-4.1-4.63h-2.11V19.98h-2.23V.95h4.6c1.93,0,3.45,.5,4.54,1.51,1.09,1.01,1.64,2.44,1.64,4.32,0,1.5-.32,2.73-.97,3.69-.64,.96-1.49,1.64-2.55,2.05l4.78,7.47h-2.55l-5.15-8.38Z" style="fill: #0e282e;"/>
          <path d="M244.38,19.98V2.35h-5.41V.95h13.09v1.41h-5.45V19.98h-2.23Z" style="fill: #0e282e;"/>
        </g>
        <g>
          <path d="M190.46,47.63V28.61h2.23v17.61h8.45v1.4h-10.68Z" style="fill: #ca8a28;"/>
          <path d="M135.95,45.33c-1.37-1.72-2.05-4.11-2.05-7.17s.74-5.51,2.23-7.24c1.48-1.73,3.58-2.59,6.29-2.59,.89,0,1.76,.12,2.59,.35,.83,.23,1.54,.5,2.12,.79,.59,.29,.88,.45,.88,.47l-.26,1.4s-.29-.16-.85-.44c-.56-.27-1.22-.52-1.98-.76-.75-.23-1.5-.35-2.26-.35-2.16,0-3.77,.7-4.81,2.09-1.04,1.39-1.57,3.49-1.57,6.28s.51,4.8,1.53,6.19c1.01,1.39,2.43,2.09,4.24,2.09,1.46,0,2.52-.35,3.19-1.05,.67-.71,1.09-1.4,1.29-2.11v-4.3h-3.89v-1.26h5.76v9.89h-1.08l-.56-2.08c-.47,.68-1.11,1.25-1.93,1.7-.82,.45-1.86,.67-3.1,.67-2.47,0-4.4-.86-5.76-2.57Z" style="fill: #ca8a28;"/>
          <path d="M206.57,47.63V28.61h10.24v1.41h-8.02v7.31h7.34v1.35h-7.34v7.55h8.66v1.41h-10.88Z" style="fill: #ca8a28;"/>
          <path d="M243.63,47.63v-7.87l-6.29-11.15h2.49l5.24,9.36,5.21-9.36h1.78l-6.2,11v8.02h-2.22Z" style="fill: #ca8a28;"/>
          <path d="M160.74,30.3l-5.76,17.32h-1.55l6.41-19.02h2.61l6.29,19.02h-2.31l-5.68-17.32Z" style="fill: #ca8a28;"/>
          <path d="M174.42,47.63V28.61h2.22v17.61h8.45v1.4h-10.68Z" style="fill: #ca8a28;"/>
          <path d="M227.47,39.25h.26c1.27,0,2.23-.35,2.87-1.08,.64-.72,.97-1.94,.97-3.66,0-3.08-1.37-4.63-4.1-4.63h-2.1v17.73h-2.22V28.61h4.59c1.93,0,3.44,.5,4.53,1.5,1.09,1.01,1.64,2.44,1.64,4.32,0,1.5-.32,2.73-.96,3.68-.64,.96-1.49,1.64-2.54,2.05l4.77,7.47h-2.55l-5.14-8.37Z" style="fill: #ca8a28;"/>
        </g>
        <g>
          <path d="M144.6,59.68v-3.79h-1.98v3.79h-8.77v11.47h8.77v7.46h1.98v-7.46h8.77v-11.47h-8.77Zm-8.77,10.48v-9.49h6.8v9.49h-6.8Zm8.77,0v-9.49h6.8v9.49h-6.8Z" style="fill: #0e282e;"/>
          <g>
            <rect x="198.87" y="71.14" width="20.06" height=".98" style="fill: #0e282e;"/>
            <path d="M198.87,74.63h3.1c.04,.52,.02,1.65-.28,2.39-.7-.01-1.14-.03-1.16-.03l-.06,1.38c.12,0,1.08,.05,2.46,.05,3.05,0,9.1-.37,11.8-1.67,.24,.39,.71,1.26,1.01,1.86h2.32c-.85-1.66-1.88-3.25-2.45-3.97h3.32v-.98h-20.06v.98Zm5.06,0h10.21l-.58,.58s.13,.1,.37,.38c-2.27,1-7.37,1.39-10.24,1.43,.26-.87,.27-1.88,.24-2.39Z" style="fill: #0e282e;"/>
            <path d="M214.31,58.67h4.62v-.98h-4.62v-1.8h-1.96v1.8h-7.42v-1.8h-1.95v1.8h-4.12v.98h4.12v1.47h-4.12v.98h4.12v1.87h-4.12v.98h1.2c.03,.61-.01,1.46-.4,2.16h-.8v.98h4.12v1.55h-4.12v.98h9.58v-.98h-3.51v-1.55h6.38c-.27,.7-.59,1.31-.97,1.83l1.58,1.15c.62-.85,1.11-1.82,1.47-2.98h1.88v-.98h-1.62c.31-1.33,.51-3.12,.59-5h1.7c0,1.3-.1,6.69,1.32,8.91l1.65-1.05c-1.26-1.96-1.06-7.09-1.06-8.83h-3.58c.01-.44,.02-.58,.02-1.06v-.41Zm-12.59,7.44c.31-.88,.34-1.58,.32-2.16h3.82c-.02,.57,.01,1.27,.32,2.16h-4.46Zm9.93,0h-3.42c-.39-.7-.44-1.55-.41-2.16h1.77v-.98h-4.66v-1.87h7.36c-.09,1.93-.3,3.72-.66,5Zm.71-7.03c0,.47,0,.62-.02,1.06h-7.4v-1.47h7.42v.41Z" style="fill: #0e282e;"/>
          </g>
          <g>
            <path d="M186.28,69.65v-.92h-9.52c.29-.6,.41-.99,.53-1.64h8.99v-.98h-12.44v.98h1.57c-.29,.91-1.07,2.2-2.78,4.14l1.44,1.33c.99-1.12,1.68-2.07,2.16-2.85h1.61c-.49,1.13-1.63,3.53-4.96,6.2l1.23,1.53c4.46-3.57,5.55-6.87,5.83-7.73h1.27c-.26,1.23-.91,4.47-3.75,7.11l1.34,1.44c3.56-3.31,4.21-7.35,4.41-8.55h1.12c.05,1.93-.17,6.03-1.74,7.44l1.32,1.46c2.34-2.11,2.44-7.2,2.39-8.95Z" style="fill: #0e282e;"/>
            <path d="M184.92,55.89h-9.92v8.58h9.92v-8.58Zm-1.96,7.6h-6v-2.84h6v2.84Zm0-3.81h-6v-2.8h6v2.8Z" style="fill: #0e282e;"/>
            <path d="M173.42,55.89h-7.2v22.56h1.96v-6.41c1.93-.1,2.89-.96,3.35-1.71,1.44-2.3,.37-6.05-.18-7.29l2.06-7.16Zm-3.99,7.66c.5,1.03,1.35,4.3,.45,5.75-.11,.18-.45,.7-1.69,.78v-13.21h2.87l-1.8,6.33,.17,.35Z" style="fill: #0e282e;"/>
          </g>
          <g>
            <rect x="237.38" y="65.68" width="1.96" height="12.83" style="fill: #0e282e;"/>
            <path d="M243.02,61.65v-5.74h-1.98v5.74h-5.97v.02h-.04s-.71,3.19-4.02,6.56l1.41,1.38c.45-.46,.85-.91,1.22-1.36v10.35h1.98v-13.26c.65-1.18,1.01-2.15,1.18-2.72h4.23v15.98h1.98v-15.98h5.41v15.98h1.97v-15.98h1.64v-.99h-9.03Z" style="fill: #0e282e;"/>
            <rect x="244.72" y="65.68" width="1.96" height="12.83" style="fill: #0e282e;"/>
            <rect x="245.34" y="57.79" width="6.52" height="1.02" style="fill: #0e282e;"/>
            <path d="M237.05,56.6l-1.85-.7s-1.19,3-4.19,5.16l1.15,1.6c3.5-2.51,4.83-5.91,4.88-6.05Z" style="fill: #0e282e;"/>
          </g>
        </g>
      </g>
    </g>
  </g>
</svg>