<?xml version="1.0" encoding="UTF-8"?>
<svg id="_圖層_2" data-name="圖層 2" xmlns="http://www.w3.org/2000/svg" width="84.45" height="16.88" viewBox="0 0 84.45 16.88">
  <g id="_設計" data-name="設計">
    <g>
      <path d="M0,3.63H6.7V.15h1.94V3.63h6.78V12.24h-6.78v4.62h-1.94v-4.62H0V3.63Zm6.7,6.97V5.26H1.97v5.34H6.7Zm6.75,0V5.26h-4.81v5.34h4.81Z" style="fill: #888;"/>
      <path d="M21.38,.86h5.86v1.28c-.43,1.37-.94,2.84-1.52,4.39,.49,.83,.84,1.59,1.05,2.25,.26,.69,.4,1.27,.4,1.76v.03c.52-.31,.97-.63,1.37-.97,.32-.26,.63-.61,.93-1.05h-2.46v-1.44h11.48v1.44h-7.12c-.19,.37-.41,.69-.65,.98h7.24c-.04,3.86-.41,6.07-1.09,6.62-.36,.48-1.63,.73-3.8,.73l-.36-1.71c.54,.09,1,.14,1.35,.14,.68,0,1.19-.15,1.54-.45,.32-.27,.53-1.58,.62-3.91h-.66c-.78,1.52-1.59,2.65-2.38,3.4-1,.99-2.49,1.83-4.46,2.53l-.9-1.37c1.81-.6,3.21-1.34,4.21-2.2,.65-.58,1.25-1.36,1.8-2.35h-1.27c-.53,.81-1.19,1.49-1.98,2.07-.95,.74-2.17,1.44-3.66,2.08l-1-1.23c1.34-.51,2.46-1.06,3.36-1.65,.51-.32,.98-.74,1.42-1.26h-1.33c-.6,.51-1.33,.99-2.17,1.43l-.32-.39c-.11,.23-.24,.43-.38,.58-.4,.49-1.27,.73-2.61,.73l-.54-1.71c.34,.04,.64,.07,.9,.07,.36,0,.62-.09,.77-.24,.2-.13,.3-.42,.3-.88,0-.54-.1-1.06-.28-1.55-.2-.63-.58-1.37-1.15-2.22,.69-1.71,1.19-3.16,1.5-4.33h-2.26v14.44h-1.8V.86Zm6.31-.14h9.62V6.26h-9.62V.72Zm1.72,2.11h6.15v-.92h-6.15v.92Zm6.15,2.21v-1.05h-6.15v1.05h6.15Z" style="fill: #888;"/>
      <path d="M48.31,0l1.79,.34c-.27,.56-.54,1.07-.8,1.57h4.22c-.36-.5-.77-.97-1.22-1.42l1.94-.28c.44,.5,.84,1.07,1.22,1.71h5.56v1.35h-6.16v1h5.49v1.23h-5.49v.97h5.49v1.23h-5.49v1.04h6.31v1.43h-6.93v.92h7.61v1.42h-5.51c.76,.73,1.46,1.23,2.09,1.5,.84,.41,2.01,.79,3.5,1.16l-.98,1.49c-1.79-.53-3.12-1.08-3.98-1.64-.89-.59-1.74-1.43-2.57-2.51h-.15v4.36h-1.79v-4.36h-.14c-.54,.69-1.15,1.26-1.84,1.71-1.08,.75-2.64,1.48-4.7,2.2l-1-1.49c2.09-.58,3.58-1.13,4.45-1.62,.44-.23,.84-.49,1.19-.8h-5.71v-1.42h7.75v-.92h-5.78V5.73c-.3,.36-.6,.67-.9,.96l-1.3-1.49c1.69-1.57,2.97-3.31,3.85-5.2Zm4.81,4.25v-1h-4.64c-.04,.05-.08,.11-.1,.16v.84h4.74Zm0,2.2v-.97h-4.74v.97h4.74Zm0,2.28v-1.04h-4.74v1.04h4.74Z" style="fill: #888;"/>
      <path d="M84.45,.55V16.73h-1.58v-.52h-13.43v.52h-1.58V.55h16.59Zm-15.01,14.3h13.43V1.91h-13.43V14.85Zm.66-12.02h5.12v-.69h1.5v.69h5.47v1.16h-5.47v.64h4.74v4.34h-.92c.58,.56,1.06,1.06,1.42,1.49l-1.18,.79c-.17-.25-.36-.5-.56-.77-.13,.01-.25,.02-.34,.02v.89h2.4v1.12h-2.4v.79c0,.44-.13,.74-.4,.92-.23,.2-.64,.3-1.26,.3h-2.18l-.23-1.23c.78,.09,1.43,.14,1.95,.14,.41,0,.6-.11,.6-.34v-.59h-4.72c.43,.47,.79,.96,1.09,1.5l-1.43,.58c-.37-.7-.8-1.31-1.26-1.85l.75-.23h-2.65v-1.12h8.21v-.78c-2.33,.14-4.94,.28-7.81,.41l-.3-1.27c1.68-.03,3.32-.09,4.95-.15v-.63h-4.53V4.63h4.53v-.64h-5.12v-1.16Zm2.05,3.49h3.08v-.64h-3.08v.64Zm3.08,1.56v-.64h-3.08v.64h3.08Zm1.5-2.2v.64h3.31v-.64h-3.31Zm3.31,2.2v-.64h-3.31v.64h3.31Zm-.66,1.56c-.14-.17-.28-.32-.43-.47h-2.22v.58c.9-.04,1.79-.08,2.65-.11Z" style="fill: #888;"/>
    </g>
  </g>
</svg>