<?xml version="1.0" encoding="UTF-8"?>
<svg id="_圖層_2" data-name="圖層 2" xmlns="http://www.w3.org/2000/svg" width="401.32" height="228.9" viewBox="0 0 401.32 228.9">
  <g id="_設計" data-name="設計">
    <g>
      <path d="M166.56,53.77l30.38-.02c5,0,9.69,.62,14.08,1.85,4.4,1.23,8.2,3,11.44,5.32,3.25,2.32,5.82,5.2,7.69,8.6,1.89,3.42,2.84,7.32,2.84,11.73s-.92,8.73-2.72,11.95c-1.81,3.21-4.2,5.89-7.17,8-2.97,2.13-6.34,3.71-10.11,4.75-3.77,1.04-7.27,1.7-11.41,1.86-1.68,.04-3.63,.16-5.43,.04-1.81-.09-3.69-.21-5.42-.36-1.7-.15-3.21-.41-4.64-.6-1.42-.16-3.84-.48-4.75-.67v35.51s-14.79,0-14.79,0V53.77Zm14.79,47.03c1.84,.53,5.04,1.23,7.19,1.62,2.22,.45,4.55,.59,6.75,.59,3.59,0,6.73-.88,9.4-1.95,2.7-1.08,4.93-2.54,6.69-4.37,1.76-1.86,3.1-4.02,3.98-6.54,.91-2.49,1.35-5.73,1.35-8.59,0-3.31-.56-6.33-1.74-9.05-1.16-2.72-2.73-5.02-4.73-6.95-2.01-1.92-4.36-3.4-7.04-4.42-2.68-1.04-5.59-1.54-8.7-1.54h-13.15v41.2Z" style="fill: #fff;"/>
      <polygon points="301.54 53.77 301.54 59.45 255.16 59.45 255.16 90.96 286.17 90.96 286.17 96.63 255.16 96.63 255.16 136.08 301.54 136.08 301.54 141.74 240.37 141.74 240.37 53.77 301.54 53.77" style="fill: #fff;"/>
      <polygon points="314.66 141.74 306.87 141.74 343.92 98.39 310.16 53.77 327.71 53.77 353.25 87.58 382.02 53.77 389.88 53.77 356.84 92.42 394.31 141.74 376.61 141.74 347.57 103.25 314.66 141.74" style="fill: #fff;"/>
      <polygon points="91.38 25.28 23.43 170.67 35.2 170.67 91.38 50.57 91.38 25.28" style="fill: #fff;"/>
      <polygon points="91.38 50.59 133.78 141.74 122.03 141.74 91.38 75.85 91.38 50.59" style="fill: #fff;"/>
      <g>
        <polygon points="91.37 75.85 46.86 170.67 58.61 170.67 91.37 101.13 91.37 75.85" style="fill: #fff;"/>
        <polygon points="91.38 0 157.32 141.74 145.54 141.74 91.38 25.27 91.38 0" style="fill: #fff;"/>
        <polygon points="91.38 101.13 110.24 141.74 98.47 141.74 91.38 126.4 91.38 101.13" style="fill: #fff;"/>
        <polygon points="0 170.67 11.76 170.67 91.37 .01 91.37 0 79.6 0 0 170.67" style="fill: #fff;"/>
        <g>
          <path d="M80.47,153.65l8.05,17.48h-2.92l-2.62-5.7h-7.32l-2.7,5.7h-1.45l8.23-17.48h.71Zm-4.3,10.68h6.29l-3.1-6.76-3.19,6.76Z" style="fill: #fff;"/>
          <path d="M90.1,151.94l1.86-.73h.75v9.21c.22-.38,.5-.73,.86-1.07,.33-.32,.71-.61,1.13-.86,.4-.25,.82-.44,1.27-.59,.43-.14,.86-.22,1.27-.22,.76,0,1.46,.16,2.11,.47,.65,.31,1.2,.73,1.68,1.26,.47,.53,.82,1.15,1.08,1.87,.26,.7,.39,1.46,.39,2.28,0,.72-.09,1.41-.26,2.08-.17,.69-.42,1.31-.75,1.89-.31,.59-.69,1.11-1.13,1.59-.45,.48-.94,.88-1.49,1.23-.55,.34-1.13,.61-1.75,.8-.64,.18-1.29,.27-1.97,.27-.97,0-1.89-.12-2.76-.38-.86-.26-1.62-.65-2.29-1.19v-17.9Zm2.61,17.03c.16,.15,.34,.32,.54,.48,.2,.17,.42,.31,.66,.45,.24,.13,.5,.24,.8,.32,.31,.08,.62,.12,.99,.12,.61,0,1.16-.14,1.67-.44,.5-.29,.92-.7,1.29-1.23,.36-.53,.62-1.16,.83-1.89,.18-.73,.29-1.51,.29-2.38,0-.65-.11-1.26-.31-1.83-.21-.59-.48-1.08-.82-1.49-.35-.42-.76-.76-1.23-1-.48-.26-.97-.37-1.51-.37-.31,0-.61,.04-.92,.11-.29,.09-.61,.2-.89,.36-.28,.15-.54,.31-.8,.5-.23,.21-.44,.42-.6,.64v7.66Z" style="fill: #fff;"/>
          <path d="M111.37,171.41c-1.01,0-1.94-.17-2.78-.53-.85-.36-1.59-.83-2.2-1.43-.64-.61-1.12-1.32-1.46-2.13-.34-.81-.51-1.68-.51-2.61s.17-1.88,.51-2.74c.34-.85,.82-1.58,1.46-2.22,.61-.64,1.36-1.14,2.2-1.51,.85-.37,1.78-.55,2.78-.55s1.92,.17,2.78,.5c.85,.34,1.58,.8,2.19,1.38,.63,.59,1.1,1.28,1.46,2.06,.34,.78,.51,1.64,.51,2.54,0,.99-.17,1.94-.51,2.81-.36,.88-.83,1.64-1.46,2.3-.61,.65-1.35,1.18-2.19,1.56-.86,.38-1.78,.56-2.78,.56m.49-.97c.53,0,.99-.13,1.41-.39,.44-.27,.81-.62,1.11-1.07,.32-.45,.56-.98,.74-1.57,.17-.6,.26-1.23,.26-1.89,0-.96-.09-1.85-.24-2.68-.16-.83-.43-1.56-.8-2.19-.37-.62-.85-1.11-1.43-1.46-.59-.35-1.32-.54-2.18-.54-.43,0-.85,.14-1.26,.38-.4,.26-.77,.61-1.08,1.04-.32,.44-.56,.96-.75,1.54-.2,.59-.29,1.21-.29,1.88,0,.95,.1,1.86,.31,2.7,.21,.84,.49,1.57,.88,2.2,.39,.62,.86,1.12,1.42,1.49,.55,.36,1.2,.54,1.91,.54" style="fill: #fff;"/>
          <polygon points="122.09 157.95 126.75 167.93 131.22 157.95 132.42 157.95 126.48 171.28 125.56 171.28 119.35 157.95 122.09 157.95" style="fill: #fff;"/>
          <path d="M139.86,171.41c-.89,0-1.73-.17-2.51-.5-.78-.33-1.46-.8-2.05-1.37-.59-.58-1.05-1.24-1.4-2.02-.34-.78-.51-1.6-.51-2.48,0-1.07,.16-2.03,.47-2.94,.31-.89,.76-1.67,1.32-2.33,.56-.66,1.25-1.16,2.03-1.52,.8-.38,1.69-.56,2.67-.56,.86,0,1.65,.16,2.38,.45,.71,.31,1.32,.71,1.85,1.22,.51,.52,.92,1.11,1.2,1.77,.29,.67,.44,1.37,.44,2.11h-9.84c0,.89,.12,1.71,.34,2.45,.23,.76,.55,1.41,.96,1.97,.43,.55,.91,.97,1.47,1.29,.58,.31,1.2,.47,1.89,.47,.56,0,1.11-.1,1.63-.28,.53-.18,1.01-.43,1.43-.72,.42-.31,.78-.66,1.08-1.04,.29-.39,.51-.78,.64-1.19l.75,.34c-.18,.67-.49,1.31-.91,1.91-.42,.59-.91,1.1-1.47,1.55-.56,.45-1.18,.79-1.85,1.05-.66,.26-1.34,.38-2.01,.38m2.61-9.23c0-.5-.09-.97-.27-1.38-.17-.45-.4-.82-.72-1.13-.31-.32-.66-.56-1.08-.73-.42-.17-.86-.27-1.34-.27-.4,0-.77,.1-1.14,.27-.35,.18-.67,.42-.96,.73-.28,.31-.52,.68-.71,1.12-.17,.42-.28,.88-.33,1.38h6.54Z" style="fill: #fff;"/>
          <path d="M155.9,157.95h2.62v2.71c.26-.34,.55-.69,.87-1.03,.33-.36,.69-.67,1.08-.96,.39-.28,.82-.52,1.3-.7,.47-.17,.98-.27,1.54-.27,.78,0,1.5,.17,2.13,.49,.62,.33,1.18,.77,1.63,1.33,.45,.57,.8,1.21,1.04,1.97,.25,.75,.36,1.56,.36,2.4,0,1.09-.15,2.1-.44,3.02-.29,.93-.72,1.72-1.27,2.39-.58,.66-1.25,1.18-2.03,1.56-.81,.38-1.69,.56-2.68,.56-.73,0-1.37-.07-1.9-.22-.55-.15-1.09-.4-1.62-.75v6.25h-2.62v-18.75Zm2.62,9.63c0,.4,.09,.77,.26,1.11,.17,.34,.4,.65,.72,.91,.31,.26,.67,.47,1.1,.62,.44,.16,.91,.22,1.43,.22,.49,0,.94-.12,1.37-.37,.44-.25,.82-.61,1.13-1.07,.33-.45,.59-1,.77-1.64,.18-.64,.28-1.34,.28-2.11,0-.97-.09-1.83-.26-2.55-.17-.72-.42-1.32-.72-1.81-.31-.48-.66-.83-1.09-1.08-.42-.24-.87-.36-1.36-.36-.38,0-.75,.07-1.1,.18-.34,.12-.67,.28-.98,.48-.31,.2-.59,.42-.86,.67-.26,.26-.49,.53-.7,.81v5.98Z" style="fill: #fff;"/>
          <path d="M176.77,171.41c-.88,0-1.73-.17-2.51-.5-.77-.33-1.46-.8-2.05-1.37-.59-.58-1.04-1.24-1.38-2.02-.34-.78-.51-1.6-.51-2.48,0-1.07,.15-2.03,.47-2.94,.31-.89,.74-1.67,1.31-2.33,.56-.66,1.25-1.16,2.05-1.52,.8-.38,1.68-.56,2.66-.56,.87,0,1.67,.16,2.37,.45,.73,.31,1.35,.71,1.86,1.22,.52,.52,.92,1.11,1.2,1.77,.29,.67,.44,1.37,.44,2.11h-9.83c0,.89,.11,1.71,.34,2.45,.22,.76,.54,1.41,.96,1.97,.42,.55,.89,.97,1.47,1.29,.56,.31,1.19,.47,1.87,.47,.56,0,1.11-.1,1.64-.28,.51-.18,.99-.43,1.42-.72,.43-.31,.77-.66,1.08-1.04,.29-.39,.52-.78,.64-1.19l.75,.34c-.18,.67-.49,1.31-.91,1.91-.42,.59-.91,1.1-1.47,1.55-.56,.45-1.18,.79-1.84,1.05-.67,.26-1.34,.38-2.02,.38m2.61-9.23c0-.5-.09-.97-.26-1.38-.18-.45-.43-.82-.74-1.13-.31-.32-.66-.56-1.08-.73-.42-.17-.86-.27-1.34-.27-.39,0-.77,.1-1.13,.27-.36,.18-.69,.42-.97,.73-.28,.31-.52,.68-.7,1.12-.18,.42-.31,.88-.34,1.38h6.54Z" style="fill: #fff;"/>
          <path d="M191.88,171.41c-1.02,0-1.94-.17-2.79-.53-.85-.36-1.58-.83-2.22-1.43-.61-.61-1.1-1.32-1.45-2.13-.34-.81-.51-1.68-.51-2.61s.17-1.88,.51-2.74c.34-.85,.83-1.58,1.45-2.22,.64-.64,1.37-1.14,2.22-1.51,.86-.37,1.78-.55,2.79-.55s1.91,.17,2.77,.5c.86,.34,1.58,.8,2.19,1.38,.62,.59,1.1,1.28,1.46,2.06,.34,.78,.53,1.64,.53,2.54,0,.99-.18,1.94-.53,2.81-.35,.88-.83,1.64-1.46,2.3-.61,.65-1.34,1.18-2.19,1.56-.86,.38-1.78,.56-2.77,.56m.49-.97c.51,0,.98-.13,1.41-.39,.43-.27,.81-.62,1.12-1.07,.31-.45,.55-.98,.72-1.57,.17-.6,.26-1.23,.26-1.89,0-.96-.07-1.85-.24-2.68-.16-.83-.43-1.56-.8-2.19-.37-.62-.83-1.11-1.43-1.46-.59-.35-1.31-.54-2.17-.54-.43,0-.86,.14-1.27,.38-.4,.26-.76,.61-1.08,1.04-.31,.44-.56,.96-.75,1.54-.2,.59-.29,1.21-.29,1.88,0,.95,.1,1.86,.31,2.7,.21,.84,.5,1.57,.88,2.2,.39,.62,.87,1.12,1.42,1.49,.56,.36,1.2,.54,1.92,.54" style="fill: #fff;"/>
          <path d="M201.34,157.95h2.61v2.71c.26-.34,.56-.69,.88-1.03,.32-.36,.69-.67,1.08-.96,.38-.28,.82-.52,1.3-.7,.47-.17,.98-.27,1.54-.27,.77,0,1.48,.17,2.12,.49,.64,.33,1.18,.77,1.63,1.33,.45,.57,.8,1.21,1.04,1.97,.25,.75,.37,1.56,.37,2.4,0,1.09-.15,2.1-.44,3.02-.31,.93-.74,1.72-1.29,2.39-.58,.66-1.25,1.18-2.03,1.56-.8,.38-1.69,.56-2.68,.56-.72,0-1.36-.07-1.9-.22-.54-.15-1.08-.4-1.62-.75v6.25h-2.61v-18.75Zm2.61,9.63c0,.4,.09,.77,.26,1.11,.17,.34,.42,.65,.72,.91,.31,.26,.67,.47,1.12,.62,.43,.16,.91,.22,1.42,.22s.94-.12,1.38-.37c.43-.25,.81-.61,1.13-1.07,.32-.45,.59-1,.76-1.64,.18-.64,.29-1.34,.29-2.11,0-.97-.1-1.83-.27-2.55-.17-.72-.42-1.32-.71-1.81-.31-.48-.67-.83-1.09-1.08-.43-.24-.88-.36-1.37-.36-.38,0-.75,.07-1.09,.18-.36,.12-.69,.28-.98,.48-.32,.2-.6,.42-.86,.67-.27,.26-.5,.53-.71,.81v5.98Z" style="fill: #fff;"/>
          <polygon points="219.09 171.13 216.48 171.13 216.48 151.94 218.33 151.21 219.09 151.21 219.09 171.13" style="fill: #fff;"/>
          <path d="M228.12,171.41c-.88,0-1.73-.17-2.51-.5-.77-.33-1.46-.8-2.05-1.37-.58-.58-1.05-1.24-1.38-2.02-.34-.78-.51-1.6-.51-2.48,0-1.07,.15-2.03,.47-2.94,.31-.89,.75-1.67,1.31-2.33,.56-.66,1.25-1.16,2.05-1.52,.8-.38,1.69-.56,2.66-.56,.87,0,1.65,.16,2.38,.45,.72,.31,1.34,.71,1.85,1.22,.51,.52,.93,1.11,1.21,1.77,.28,.67,.43,1.37,.43,2.11h-9.83c0,.89,.11,1.71,.33,2.45,.23,.76,.55,1.41,.97,1.97,.42,.55,.91,.97,1.47,1.29,.56,.31,1.19,.47,1.87,.47,.58,0,1.13-.1,1.64-.28,.53-.18,.99-.43,1.42-.72,.42-.31,.77-.66,1.08-1.04,.31-.39,.51-.78,.65-1.19l.75,.34c-.2,.67-.5,1.31-.92,1.91-.42,.59-.91,1.1-1.47,1.55-.56,.45-1.18,.79-1.84,1.05-.66,.26-1.34,.38-2.02,.38m2.62-9.23c0-.5-.09-.97-.27-1.38-.17-.45-.42-.82-.72-1.13-.32-.32-.67-.56-1.09-.73-.42-.17-.86-.27-1.32-.27-.4,0-.78,.1-1.14,.27-.37,.18-.69,.42-.96,.73-.29,.31-.53,.68-.7,1.12-.2,.42-.31,.88-.34,1.38h6.54Z" style="fill: #fff;"/>
          <path d="M236.18,159.05c.4-.11,.77-.26,1.11-.47,.34-.19,.65-.42,.89-.69,.26-.26,.45-.54,.6-.83,.15-.31,.22-.62,.22-.94,0-.18-.04-.35-.11-.48-.09-.15-.17-.22-.28-.22s-.2,.03-.28,.06c-.06,.05-.15,.1-.22,.16-.07,.05-.16,.09-.26,.14-.1,.05-.25,.06-.4,.06-.17,0-.34-.04-.49-.11-.15-.08-.29-.17-.4-.31-.11-.14-.2-.28-.27-.47-.06-.17-.11-.36-.11-.58s.06-.42,.15-.62c.09-.19,.22-.35,.38-.5,.15-.13,.34-.26,.55-.33,.22-.08,.44-.12,.69-.12,.32,0,.61,.07,.89,.21,.28,.14,.52,.33,.74,.59,.2,.24,.36,.53,.47,.86,.12,.32,.18,.67,.18,1.03,0,.58-.11,1.12-.33,1.61s-.5,.92-.88,1.29c-.37,.37-.8,.66-1.27,.88-.49,.23-.99,.36-1.56,.38v-.6Z" style="fill: #fff;"/>
          <path d="M246.88,170.51c.34,0,.69-.06,.99-.17,.29-.1,.55-.25,.78-.43,.21-.18,.38-.39,.5-.62,.12-.25,.18-.48,.18-.72,0-.4-.1-.77-.29-1.06-.2-.29-.47-.57-.8-.8-.34-.25-.71-.47-1.14-.66-.42-.21-.85-.4-1.29-.61-.44-.2-.88-.42-1.3-.67-.42-.25-.8-.53-1.13-.84-.34-.31-.6-.67-.81-1.08-.2-.4-.29-.9-.29-1.46,0-.52,.11-1.02,.33-1.46,.22-.46,.54-.84,.93-1.17,.4-.33,.88-.59,1.43-.77,.54-.18,1.15-.28,1.8-.28,.43,0,.85,.04,1.24,.1,.38,.06,.74,.17,1.11,.34,.36,.18,.72,.44,1.08,.75,.37,.32,.75,.74,1.15,1.25l-.98,.86c-.49-.81-1.04-1.42-1.65-1.82-.63-.4-1.29-.59-1.98-.59-.38,0-.71,.04-1.02,.13-.32,.09-.58,.21-.8,.37-.22,.16-.39,.36-.51,.56-.12,.21-.18,.44-.18,.67,0,.4,.11,.74,.33,1.04,.22,.29,.5,.56,.87,.79,.37,.23,.77,.45,1.23,.66,.47,.19,.93,.4,1.41,.62,.48,.2,.94,.42,1.41,.66,.45,.25,.87,.52,1.24,.83,.35,.32,.65,.67,.87,1.09,.21,.4,.33,.89,.33,1.43s-.11,1.09-.32,1.57c-.21,.48-.53,.92-.94,1.27-.42,.36-.94,.63-1.57,.84-.64,.21-1.37,.31-2.22,.31-.38,0-.77-.02-1.18-.09-.4-.06-.81-.17-1.23-.35-.42-.19-.83-.43-1.25-.74-.4-.32-.81-.74-1.2-1.26l1.07-.97c.32,.44,.61,.83,.92,1.15,.29,.31,.59,.59,.88,.78,.31,.2,.61,.35,.94,.44,.32,.09,.67,.14,1.04,.14" style="fill: #fff;"/>
          <path d="M267.76,171.41c-.88,0-1.73-.17-2.51-.5-.77-.33-1.46-.8-2.05-1.37-.59-.58-1.05-1.24-1.38-2.02-.34-.78-.51-1.6-.51-2.48,0-1.07,.15-2.03,.47-2.94,.29-.89,.75-1.67,1.31-2.33,.56-.66,1.24-1.16,2.03-1.52,.81-.38,1.69-.56,2.67-.56,.87,0,1.65,.16,2.38,.45,.72,.31,1.34,.71,1.85,1.22,.51,.52,.92,1.11,1.21,1.77,.27,.67,.42,1.37,.42,2.11h-9.81c0,.89,.11,1.71,.33,2.45,.23,.76,.55,1.41,.96,1.97,.42,.55,.91,.97,1.48,1.29,.56,.31,1.19,.47,1.87,.47,.56,0,1.11-.1,1.64-.28,.51-.18,.99-.43,1.41-.72,.43-.31,.78-.66,1.09-1.04,.29-.39,.52-.78,.64-1.19l.75,.34c-.18,.67-.49,1.31-.91,1.91-.42,.59-.91,1.1-1.48,1.55-.55,.45-1.16,.79-1.83,1.05-.67,.26-1.35,.38-2.02,.38m2.62-9.23c0-.5-.09-.97-.27-1.38-.18-.45-.43-.82-.74-1.13-.31-.32-.67-.56-1.08-.73-.42-.17-.86-.27-1.32-.27-.4,0-.78,.1-1.15,.27-.35,.18-.67,.42-.96,.73-.28,.31-.52,.68-.7,1.12-.18,.42-.29,.88-.34,1.38h6.56Z" style="fill: #fff;"/>
          <polygon points="275.81 171.13 274.38 171.13 279.89 164.41 275.22 157.96 278.31 157.96 281.55 162.38 285.15 157.96 286.59 157.96 282.21 163.3 287.86 171.13 284.79 171.13 280.59 165.31 275.81 171.13" style="fill: #fff;"/>
          <path d="M288.63,157.95h2.62v2.71c.26-.34,.55-.69,.87-1.03,.33-.36,.69-.67,1.08-.96,.39-.28,.83-.52,1.3-.7,.47-.17,.98-.27,1.54-.27,.78,0,1.49,.17,2.13,.49,.64,.33,1.18,.77,1.62,1.33,.45,.57,.81,1.21,1.04,1.97,.26,.75,.38,1.56,.38,2.4,0,1.09-.15,2.1-.45,3.02-.29,.93-.74,1.72-1.29,2.39-.56,.66-1.24,1.18-2.03,1.56-.8,.38-1.69,.56-2.67,.56-.74,0-1.36-.07-1.91-.22-.54-.15-1.08-.4-1.61-.75v6.25h-2.62v-18.75Zm2.62,9.63c0,.4,.09,.77,.25,1.11,.18,.34,.42,.65,.74,.91,.31,.26,.67,.47,1.1,.62,.43,.16,.91,.22,1.43,.22,.48,0,.94-.12,1.38-.37,.43-.25,.8-.61,1.13-1.07,.32-.45,.58-1,.76-1.64,.18-.64,.28-1.34,.28-2.11,0-.97-.09-1.83-.26-2.55-.17-.72-.42-1.32-.72-1.81-.31-.48-.66-.83-1.08-1.08-.43-.24-.88-.36-1.38-.36-.37,0-.74,.07-1.09,.18-.34,.12-.69,.28-.98,.48-.31,.2-.59,.42-.86,.67-.26,.26-.5,.53-.7,.81v5.98Z" style="fill: #fff;"/>
          <path d="M309.49,171.41c-.89,0-1.73-.17-2.51-.5-.77-.33-1.46-.8-2.05-1.37-.59-.58-1.05-1.24-1.4-2.02-.34-.78-.5-1.6-.5-2.48,0-1.07,.15-2.03,.47-2.94,.31-.89,.73-1.67,1.31-2.33,.56-.66,1.25-1.16,2.03-1.52,.81-.38,1.69-.56,2.67-.56,.86,0,1.65,.16,2.38,.45,.71,.31,1.34,.71,1.85,1.22,.51,.52,.92,1.11,1.2,1.77,.29,.67,.44,1.37,.44,2.11h-9.84c0,.89,.12,1.71,.34,2.45,.23,.76,.55,1.41,.96,1.97,.42,.55,.92,.97,1.48,1.29,.56,.31,1.19,.47,1.87,.47,.56,0,1.12-.1,1.64-.28,.53-.18,.99-.43,1.41-.72,.43-.31,.78-.66,1.09-1.04,.31-.39,.51-.78,.64-1.19l.76,.34c-.2,.67-.5,1.31-.92,1.91-.43,.59-.91,1.1-1.47,1.55-.58,.45-1.18,.79-1.84,1.05-.67,.26-1.34,.38-2.02,.38m2.61-9.23c0-.5-.09-.97-.26-1.38-.18-.45-.43-.82-.74-1.13-.31-.32-.67-.56-1.08-.73-.42-.17-.86-.27-1.32-.27-.42,0-.78,.1-1.15,.27-.36,.18-.67,.42-.96,.73-.28,.31-.51,.68-.7,1.12-.18,.42-.29,.88-.33,1.38h6.53Z" style="fill: #fff;"/>
          <path d="M323.77,171.41c-.86,0-1.67-.17-2.43-.51-.75-.33-1.41-.81-1.97-1.38-.55-.6-1.01-1.29-1.32-2.08-.32-.78-.49-1.64-.49-2.52,0-1,.18-1.94,.54-2.82,.36-.88,.85-1.64,1.47-2.29,.61-.65,1.34-1.16,2.17-1.54,.83-.39,1.73-.57,2.67-.57,.74,0,1.41,.09,2.03,.24,.62,.15,1.15,.39,1.61,.66,.45,.29,.8,.62,1.05,1,.26,.39,.38,.8,.38,1.24,0,.2-.06,.39-.15,.57-.11,.18-.23,.33-.4,.46-.16,.12-.34,.22-.55,.31-.21,.07-.43,.11-.64,.11-.23,0-.45-.04-.64-.13-.18-.08-.36-.19-.48-.32-.15-.14-.24-.29-.31-.47-.07-.16-.12-.34-.12-.53,0-.31-.02-.59-.09-.86-.06-.27-.17-.49-.34-.69-.16-.19-.39-.34-.67-.44-.29-.12-.65-.17-1.1-.17-.59,0-1.13,.12-1.6,.36-.48,.24-.87,.56-1.2,.99-.32,.39-.58,.88-.75,1.42-.17,.55-.26,1.14-.26,1.78,0,.83,.11,1.62,.33,2.39,.22,.75,.53,1.4,.93,1.97,.4,.56,.88,1.01,1.45,1.34,.56,.33,1.2,.5,1.9,.5,.6,0,1.14-.1,1.58-.29,.45-.18,.85-.44,1.18-.77,.33-.33,.63-.71,.86-1.15,.23-.43,.44-.9,.64-1.38l.8,.33c-.23,.83-.53,1.57-.89,2.22-.38,.66-.83,1.21-1.35,1.65-.5,.45-1.08,.81-1.72,1.04-.65,.23-1.35,.35-2.11,.35" style="fill: #fff;"/>
          <path d="M339.29,169.45c-.36,.6-.81,1.08-1.4,1.43-.58,.35-1.3,.53-2.16,.53-.43,0-.81-.07-1.14-.22-.33-.15-.6-.36-.81-.62-.21-.27-.36-.59-.47-.97-.11-.38-.16-.79-.16-1.25v-9.3h-2.28v-.64c.74,0,1.34-.14,1.81-.4,.48-.28,.86-.63,1.16-1.07,.31-.46,.55-.98,.71-1.57,.18-.61,.33-1.24,.47-1.91h.74v4.49h2.97v1.1h-2.97v9.3c0,.18,.05,.37,.12,.55,.06,.17,.17,.31,.29,.44,.13,.12,.27,.23,.45,.31,.17,.07,.36,.11,.55,.11,.29,0,.56-.09,.81-.22,.24-.15,.45-.32,.64-.54l.65,.45Z" style="fill: #fff;"/>
          <path d="M350.57,171.13h-2.61v-1.8c-.31,.23-.61,.48-.91,.74-.31,.23-.64,.46-.97,.67-.36,.2-.75,.36-1.16,.5-.43,.14-.92,.18-1.47,.18s-.99-.09-1.4-.24c-.4-.17-.77-.4-1.07-.7-.29-.3-.51-.64-.67-1.03-.16-.4-.25-.84-.25-1.3,0-.58,.13-1.08,.36-1.54,.23-.46,.53-.86,.92-1.22,.38-.36,.83-.68,1.36-.96,.51-.27,1.07-.53,1.64-.74,.59-.22,1.19-.42,1.8-.59,.61-.18,1.23-.34,1.81-.49v-.82c0-.6-.06-1.11-.18-1.51-.11-.41-.28-.74-.5-1-.22-.26-.49-.43-.81-.54-.32-.1-.66-.15-1.05-.15-.44,0-.81,.05-1.08,.16-.28,.12-.5,.27-.66,.45-.16,.18-.27,.4-.33,.64-.06,.24-.09,.49-.09,.74,0,.23-.01,.46-.05,.66-.05,.21-.11,.4-.2,.56-.1,.16-.23,.29-.4,.39-.16,.09-.38,.13-.64,.13-.42,0-.75-.14-1-.44-.25-.29-.38-.66-.38-1.09s.13-.84,.43-1.23c.29-.37,.67-.69,1.15-.97,.49-.26,1.07-.48,1.7-.65,.64-.15,1.31-.24,2.03-.24,.86,0,1.59,.09,2.19,.25,.59,.17,1.07,.4,1.43,.69,.37,.31,.64,.67,.81,1.12,.16,.43,.23,.91,.23,1.43v9.95Zm-2.61-7.67c-.56,.17-1.15,.4-1.78,.66-.62,.25-1.18,.55-1.7,.89-.51,.34-.94,.71-1.27,1.12-.34,.4-.5,.85-.5,1.3,0,.33,.06,.64,.17,.92,.12,.28,.27,.55,.47,.77,.2,.21,.43,.38,.69,.5,.26,.13,.53,.2,.8,.2,.31,0,.58-.04,.85-.12,.26-.09,.51-.18,.77-.32,.25-.12,.5-.28,.75-.45,.24-.18,.5-.37,.77-.56v-4.91Z" style="fill: #fff;"/>
          <path d="M361.08,169.45c-.34,.6-.81,1.08-1.4,1.43-.58,.35-1.3,.53-2.14,.53-.44,0-.82-.07-1.15-.22-.32-.15-.59-.36-.8-.62-.21-.27-.37-.59-.47-.97-.11-.38-.16-.79-.16-1.25v-9.3h-2.28v-.64c.74,0,1.34-.14,1.81-.4,.48-.28,.86-.63,1.16-1.07,.31-.46,.54-.98,.71-1.57,.18-.61,.33-1.24,.45-1.91h.75v4.49h2.97v1.1h-2.97v9.3c0,.18,.04,.37,.11,.55,.07,.17,.18,.31,.31,.44,.11,.12,.27,.23,.44,.31,.17,.07,.37,.11,.56,.11,.28,0,.56-.09,.8-.22,.26-.15,.47-.32,.64-.54l.65,.45Z" style="fill: #fff;"/>
          <path d="M364.07,151.21c.2,0,.39,.03,.58,.1,.18,.08,.34,.17,.48,.29,.13,.12,.25,.26,.33,.42,.09,.17,.12,.34,.12,.5,0,.18-.04,.35-.12,.51-.09,.15-.2,.29-.33,.42-.13,.12-.29,.21-.48,.29-.18,.05-.38,.09-.58,.09-.21,0-.39-.04-.58-.09-.17-.08-.33-.18-.48-.29-.14-.13-.25-.27-.33-.42-.07-.16-.11-.33-.11-.51,0-.17,.04-.34,.11-.5,.09-.17,.2-.3,.33-.42,.15-.12,.31-.21,.48-.29,.18-.07,.37-.1,.58-.1m-1.29,7.23l1.84-.75h.77v13.44h-2.61v-12.69Z" style="fill: #fff;"/>
          <path d="M375,171.41c-1.02,0-1.94-.17-2.79-.53-.84-.36-1.58-.83-2.21-1.43-.62-.61-1.12-1.32-1.46-2.13-.34-.81-.52-1.68-.52-2.61s.17-1.88,.52-2.74c.34-.85,.83-1.58,1.46-2.22,.62-.64,1.36-1.14,2.21-1.51,.86-.37,1.78-.55,2.79-.55s1.92,.17,2.77,.5c.85,.34,1.58,.8,2.21,1.38,.61,.59,1.1,1.28,1.45,2.06,.36,.78,.53,1.64,.53,2.54,0,.99-.17,1.94-.53,2.81-.34,.88-.83,1.64-1.45,2.3-.62,.65-1.36,1.18-2.21,1.56-.85,.38-1.76,.56-2.77,.56m.48-.97c.53,0,1.01-.13,1.43-.39,.42-.27,.78-.62,1.1-1.07,.32-.45,.56-.98,.72-1.57,.18-.6,.27-1.23,.27-1.89,0-.96-.09-1.85-.24-2.68-.16-.83-.43-1.56-.8-2.19-.37-.62-.86-1.11-1.45-1.46-.58-.35-1.31-.54-2.16-.54-.44,0-.87,.14-1.27,.38-.42,.26-.77,.61-1.09,1.04-.31,.44-.56,.96-.75,1.54-.2,.59-.28,1.21-.28,1.88,0,.95,.1,1.86,.31,2.7,.2,.84,.5,1.57,.88,2.2,.38,.62,.86,1.12,1.41,1.49,.56,.36,1.2,.54,1.91,.54" style="fill: #fff;"/>
          <path d="M384.45,157.95h2.62v2.41c.81-.89,1.64-1.56,2.49-2,.86-.44,1.74-.66,2.62-.66,.47,0,.89,.09,1.3,.31,.4,.21,.75,.49,1.05,.85,.29,.37,.53,.78,.71,1.26,.16,.48,.26,1,.26,1.55v9.47h-2.62v-9.01c0-.87-.2-1.54-.59-1.98-.38-.44-.89-.67-1.51-.67-.28,0-.58,.05-.88,.13-.31,.1-.64,.23-.94,.39-.32,.18-.64,.37-.96,.62-.32,.23-.62,.5-.93,.77v9.76h-2.62v-13.18Z" style="fill: #fff;"/>
        </g>
      </g>
    </g>
    <g>
      <path d="M12.32,213.71c-.42,.68-.84,1.38-1.32,2.06v13.02h-2.02v-10.5c-1.92,2.14-4.24,4.04-6.82,5.4-.3-.5-.88-1.26-1.28-1.66,3.8-1.86,7.08-5.06,9-8.32H1.44v-1.9H18.56v1.9h-6.24Zm.16,3.04c2.24,1.5,5.28,3.76,6.74,5.3l-1.56,1.44c-1.34-1.54-4.3-3.92-6.58-5.54l1.4-1.2Z" style="fill: #fff;"/>
      <path d="M31.04,226.01h7.84v1.46h-9.42v-16.32h1.58v6.36h8.62v1.36h-8.62v7.14Zm4.36-4.8c-.7,1.18-1.56,2.32-2.44,3.22l1.06-.12c-.06-.2-.14-.4-.2-.58l.8-.3c.3,.66,.58,1.56,.68,2.14l-.86,.36c-.02-.22-.08-.46-.16-.74-1.98,.28-2.42,.36-2.64,.48-.04-.22-.22-.78-.36-1.08,.3-.04,.56-.28,.9-.66,.16-.18,.5-.58,.88-1.12-.98,.18-1.28,.28-1.46,.38v-.02c-.06-.24-.24-.78-.38-1.08,.24-.04,.42-.22,.62-.48,.2-.28,.9-1.4,1.26-2.48l1.06,.46c-.34,.8-.8,1.6-1.28,2.22l.94-.1c.2-.34,.42-.74,.62-1.1l.96,.6Zm-.98-3.86c0-.22-.04-.46-.12-.74-1.98,.28-2.42,.38-2.64,.48-.06-.22-.22-.78-.36-1.06,.26-.06,.56-.3,.9-.68,.16-.16,.44-.52,.82-1.02-.92,.16-1.22,.28-1.4,.36-.08-.24-.24-.8-.36-1.08,.22-.04,.4-.22,.6-.5,.22-.28,.92-1.38,1.26-2.46l1.06,.46c-.36,.8-.8,1.6-1.26,2.22l.82-.1c.24-.34,.46-.72,.64-1.1l1,.62c-.72,1.12-1.54,2.22-2.38,3.1l1.04-.12c-.06-.2-.14-.4-.22-.58l.8-.32c.32,.68,.6,1.58,.68,2.16l-.88,.36Zm5.02,3.8c-.72,1.16-1.6,2.32-2.46,3.24l1.1-.12c-.06-.26-.16-.52-.26-.74l.88-.32c.32,.72,.62,1.68,.72,2.32l-.96,.34c-.02-.22-.06-.48-.14-.76-2,.3-2.42,.4-2.62,.52-.06-.22-.24-.8-.38-1.08,.3-.04,.56-.3,.9-.7,.16-.18,.5-.58,.9-1.14-.98,.18-1.28,.3-1.44,.4v-.02c-.06-.24-.24-.78-.38-1.08,.22-.04,.4-.22,.58-.48,.2-.28,.86-1.4,1.18-2.48l1.04,.46c-.32,.8-.76,1.6-1.18,2.24l.9-.1c.24-.36,.44-.76,.62-1.12l1,.62Zm-.66-3.86c-.02-.24-.08-.5-.16-.8-2.26,.34-2.7,.44-2.94,.54-.04-.22-.22-.78-.34-1.06,.28-.06,.56-.28,.9-.66,.14-.16,.5-.56,.92-1.08-1,.18-1.3,.28-1.48,.38-.06-.24-.24-.8-.36-1.08,.22-.04,.4-.22,.6-.48,.22-.3,.92-1.4,1.28-2.48l1.06,.46c-.36,.82-.82,1.6-1.28,2.24l.94-.12c.22-.32,.42-.66,.6-1l.96,.62c-.7,1.08-1.54,2.16-2.4,3.02l1.26-.14c-.06-.22-.16-.44-.24-.62l.86-.32c.32,.7,.64,1.62,.76,2.24l-.94,.34Zm8.34,1.02h-1.62v10.5h-1.58v-10.5h-1.94v.6c0,2.88-.22,6.98-1.64,9.7-.28-.28-.94-.74-1.32-.9,1.32-2.54,1.44-6.12,1.44-8.8v-6.54c1.72-.46,3.66-1.2,4.74-1.88l1.42,1.2c-1.3,.68-3.02,1.24-4.64,1.68v3.4h5.14v1.54Z" style="fill: #fff;"/>
      <path d="M63.08,221.11l.44,1.64c-2.1,1-4.34,2.04-6.08,2.82l-.74-1.86c.72-.26,1.64-.62,2.66-1.04v-5.76h-2.28v-1.76h2.28v-4.44h1.74v4.44h2.02v1.76h-2.02v5.04l1.98-.84Zm9.1,5.62c1.1,0,1.3-.5,1.46-2.68,.42,.28,1.14,.58,1.64,.68-.26,2.76-.82,3.66-2.98,3.66h-4.6c-2.46,0-3.16-.62-3.16-3.02v-5.78l-1.38,.6-.7-1.66,2.08-.88v-5.3h1.76v4.56l2.24-.94v-5.5h1.74v4.76l2.68-1.14,1.38,.46-.08,.3c-.16,2.78-.46,6.44-.96,8.72l-1.52-.42c.3-1.72,.52-4.5,.62-6.94l-2.12,.92v7.18h-1.74v-6.44l-2.24,.96v6.56c0,1.12,.22,1.34,1.5,1.34h4.38Z" style="fill: #fff;"/>
      <path d="M88.9,221.27v5.34c0,.9-.18,1.4-.7,1.68-.54,.3-1.3,.36-2.5,.36-.04-.46-.26-1.24-.5-1.74,.74,.04,1.44,.04,1.66,.02,.24,0,.32-.06,.32-.32v-4.7l-1.8,.66-.48-1.78c.66-.18,1.44-.46,2.28-.76v-3.96h-2.06v-1.72h2.06v-3.88h1.72v3.88h1.52v1.72h-1.52v3.36l1.44-.52,.3,1.7-1.74,.66Zm9.68,.68c1.16,1.72,2.94,3.28,4.68,4.14-.4,.34-.98,1-1.24,1.46-1.68-.98-3.34-2.62-4.54-4.46v5.72h-1.84v-5.56c-1.18,1.86-2.8,3.46-4.58,4.4-.26-.42-.8-1.08-1.2-1.4,1.88-.86,3.62-2.46,4.74-4.3h-3.62v-1.68h4.66v-2.08h1.84v2.08h5.34v1.68h-4.24Zm-2.52-8.32c-.2,2.8-.94,4.36-4.5,5.18-.14-.42-.58-1.1-.94-1.42,3.04-.58,3.6-1.62,3.74-3.76h1.7Zm-3.28,1.62h-1.72v-3.76h11.46v3.68h-1.8v-2.1h-7.94v2.18Zm8.72,1.46c.36,0,.9-.02,1.2-.1,.04,.44,.1,1.16,.14,1.54-.3,.1-.78,.12-1.3,.12h-2c-1.68,0-2.08-.54-2.08-2.24v-2.44h1.64v2.46c0,.52,.08,.66,.42,.66h1.98Z" style="fill: #fff;"/>
      <path d="M119.34,225.16c-1.28,1.24-3.2,2.54-4.74,3.34-.34-.32-1.02-.96-1.44-1.24,1.6-.7,3.4-1.76,4.5-2.8l1.68,.7Zm3.9-1.58v3.24c0,.9-.2,1.38-.92,1.64-.72,.28-1.74,.28-3.2,.28-.1-.5-.4-1.22-.66-1.7,1.14,.04,2.26,.06,2.58,.02,.32,0,.4-.08,.4-.3v-3.06c-5.52,.34-6.32,.44-6.9,.66-.06-.32-.3-1.14-.46-1.58,.68-.08,1.52-.36,2.68-.82,.56-.2,1.74-.68,3.12-1.32-3.04,.18-3.54,.28-3.92,.4-.06-.34-.3-1.12-.46-1.56,.4-.06,.88-.26,1.46-.54,.52-.26,2.08-1.08,3.42-2.06h-5.32v2.3h-1.76v-3.86h7.74v-1.58h-7.44v-1.62h7.44v-1.66h1.94v1.66h7.42v1.62h-7.42v1.58h7.78v3.86h-1.84v-2.3h-7.04l.52,.42c-1.16,.82-2.46,1.56-3.78,2.2l3.92-.2c1-.5,1.98-1.08,2.86-1.66l1.28,1.1c-2.46,1.48-5.1,2.74-7.72,3.74l7.6-.44c-.46-.44-.96-.88-1.38-1.24l1.3-.82c1.38,1.12,3.14,2.78,4,3.88l-1.4,.96c-.32-.44-.76-.96-1.3-1.52l-4.54,.28Zm2.7,.76c1.58,.84,3.74,2.14,4.86,3.06l-1.5,1.04c-1.02-.9-3.14-2.26-4.76-3.18l1.4-.92Z" style="fill: #fff;"/>
      <path d="M143.96,222.65c-.04,.26-.08,.52-.12,.78h7.5v5.22h-1.64v-.68h-4.3v.72h-1.58v-5.02c-.28,1.54-.74,3.1-1.52,4.38-.34-.26-1.14-.62-1.6-.78,1.56-2.46,1.74-5.86,1.74-8.12v-2.52h8.42v6.02h-6.9Zm4.2-11.48c-.1,.18-.22,.34-.34,.52,1.52,.9,3.28,1.98,4.22,2.7l-.96,1.56c-.96-.78-2.76-1.96-4.3-2.94-.52,.56-1.08,1.1-1.68,1.6h3.82v1.16h-4.14v-.88c-.98,.78-2.02,1.46-3.06,2.02-.18-.42-.68-1.34-1-1.74,2.24-1.04,4.5-2.7,5.74-4.64l1.7,.64Zm1.02,10.14v-1.12h-5.02c-.02,.36-.04,.74-.06,1.12h5.08Zm-5-3.34v1.06h5v-1.06h-5Zm1.22,6.78v1.8h4.3v-1.8h-4.3Zm9.18-1.16h-1.74v-11h1.74v11Zm3.72-13.06v15.94c0,1.08-.24,1.62-.88,1.9-.62,.32-1.66,.38-3.28,.38-.08-.5-.34-1.34-.6-1.86,1.14,.04,2.18,.04,2.5,.02,.34,0,.46-.1,.46-.46v-15.92h1.8Z" style="fill: #fff;"/>
      <path d="M172.12,223.21c-.5,1.4-1.3,3-2.02,4.02-.3-.24-.9-.68-1.28-.88,.74-.94,1.42-2.3,1.84-3.58l1.46,.44Zm2.58-1.3v6.78h-1.8v-6.78h-3.84v-1.58h3.84v-1.82h-3.96v-1.56h2.18c-.08-.68-.36-1.72-.7-2.5l1.52-.38c.32,.78,.64,1.8,.74,2.46l-1.48,.42h3.16c.36-.84,.78-2.06,.98-2.9l1.72,.36c-.34,.88-.68,1.8-1.02,2.54h2.34v1.56h-3.68v1.82h3.4v1.58h-3.4Zm3.36-7.88h-8.8v-1.54h3.66c-.22-.56-.48-1.2-.72-1.7l1.84-.48c.34,.68,.74,1.52,1,2.18h3.02v1.54Zm-1.42,8.58c.66,.94,1.34,2.2,1.66,3l-1.3,.78c-.32-.84-1-2.14-1.6-3.1l1.24-.68Zm10.52-3.8h-2.04v9.9h-1.82v-9.9h-2.34v.48c0,2.88-.26,6.88-2.04,9.42-.28-.34-1.04-.9-1.42-1.1,1.58-2.32,1.72-5.7,1.72-8.32v-6.92c2.22-.38,4.68-1,6.12-1.62l1.46,1.36c-1.64,.64-3.8,1.12-5.84,1.48v3.5h6.2v1.72Z" style="fill: #fff;"/>
      <path d="M198.82,222.41c1.54-.58,2.44-1.5,2.54-2.7-.08,.02-.18,.02-.28,.02-.9,0-1.68-.56-1.68-1.6s.78-1.6,1.7-1.6c1.26,0,1.92,.98,1.92,2.5,0,2.22-1.4,3.94-3.68,4.68l-.52-1.3Z" style="fill: #fff;"/>
      <path d="M226.32,213.71c-.42,.68-.84,1.38-1.32,2.06v13.02h-2.02v-10.5c-1.92,2.14-4.24,4.04-6.82,5.4-.3-.5-.88-1.26-1.28-1.66,3.8-1.86,7.08-5.06,9-8.32h-8.44v-1.9h17.12v1.9h-6.24Zm.16,3.04c2.24,1.5,5.28,3.76,6.74,5.3l-1.56,1.44c-1.34-1.54-4.3-3.92-6.58-5.54l1.4-1.2Z" style="fill: #fff;"/>
      <path d="M245.04,226.01h7.84v1.46h-9.42v-16.32h1.58v6.36h8.62v1.36h-8.62v7.14Zm4.36-4.8c-.7,1.18-1.56,2.32-2.44,3.22l1.06-.12c-.06-.2-.14-.4-.2-.58l.8-.3c.3,.66,.58,1.56,.68,2.14l-.86,.36c-.02-.22-.08-.46-.16-.74-1.98,.28-2.42,.36-2.64,.48-.04-.22-.22-.78-.36-1.08,.3-.04,.56-.28,.9-.66,.16-.18,.5-.58,.88-1.12-.98,.18-1.28,.28-1.46,.38v-.02c-.06-.24-.24-.78-.38-1.08,.24-.04,.42-.22,.62-.48,.2-.28,.9-1.4,1.26-2.48l1.06,.46c-.34,.8-.8,1.6-1.28,2.22l.94-.1c.2-.34,.42-.74,.62-1.1l.96,.6Zm-.98-3.86c0-.22-.04-.46-.12-.74-1.98,.28-2.42,.38-2.64,.48-.06-.22-.22-.78-.36-1.06,.26-.06,.56-.3,.9-.68,.16-.16,.44-.52,.82-1.02-.92,.16-1.22,.28-1.4,.36-.08-.24-.24-.8-.36-1.08,.22-.04,.4-.22,.6-.5,.22-.28,.92-1.38,1.26-2.46l1.06,.46c-.36,.8-.8,1.6-1.26,2.22l.82-.1c.24-.34,.46-.72,.64-1.1l1,.62c-.72,1.12-1.54,2.22-2.38,3.1l1.04-.12c-.06-.2-.14-.4-.22-.58l.8-.32c.32,.68,.6,1.58,.68,2.16l-.88,.36Zm5.02,3.8c-.72,1.16-1.6,2.32-2.46,3.24l1.1-.12c-.06-.26-.16-.52-.26-.74l.88-.32c.32,.72,.62,1.68,.72,2.32l-.96,.34c-.02-.22-.06-.48-.14-.76-2,.3-2.42,.4-2.62,.52-.06-.22-.24-.8-.38-1.08,.3-.04,.56-.3,.9-.7,.16-.18,.5-.58,.9-1.14-.98,.18-1.28,.3-1.44,.4v-.02c-.06-.24-.24-.78-.38-1.08,.22-.04,.4-.22,.58-.48,.2-.28,.86-1.4,1.18-2.48l1.04,.46c-.32,.8-.76,1.6-1.18,2.24l.9-.1c.24-.36,.44-.76,.62-1.12l1,.62Zm-.66-3.86c-.02-.24-.08-.5-.16-.8-2.26,.34-2.7,.44-2.94,.54-.04-.22-.22-.78-.34-1.06,.28-.06,.56-.28,.9-.66,.14-.16,.5-.56,.92-1.08-1,.18-1.3,.28-1.48,.38-.06-.24-.24-.8-.36-1.08,.22-.04,.4-.22,.6-.48,.22-.3,.92-1.4,1.28-2.48l1.06,.46c-.36,.82-.82,1.6-1.28,2.24l.94-.12c.22-.32,.42-.66,.6-1l.96,.62c-.7,1.08-1.54,2.16-2.4,3.02l1.26-.14c-.06-.22-.16-.44-.24-.62l.86-.32c.32,.7,.64,1.62,.76,2.24l-.94,.34Zm8.34,1.02h-1.62v10.5h-1.58v-10.5h-1.94v.6c0,2.88-.22,6.98-1.64,9.7-.28-.28-.94-.74-1.32-.9,1.32-2.54,1.44-6.12,1.44-8.8v-6.54c1.72-.46,3.66-1.2,4.74-1.88l1.42,1.2c-1.3,.68-3.02,1.24-4.64,1.68v3.4h5.14v1.54Z" style="fill: #fff;"/>
      <path d="M277.08,221.11l.44,1.64c-2.1,1-4.34,2.04-6.08,2.82l-.74-1.86c.72-.26,1.64-.62,2.66-1.04v-5.76h-2.28v-1.76h2.28v-4.44h1.74v4.44h2.02v1.76h-2.02v5.04l1.98-.84Zm9.1,5.62c1.1,0,1.3-.5,1.46-2.68,.42,.28,1.14,.58,1.64,.68-.26,2.76-.82,3.66-2.98,3.66h-4.6c-2.46,0-3.16-.62-3.16-3.02v-5.78l-1.38,.6-.7-1.66,2.08-.88v-5.3h1.76v4.56l2.24-.94v-5.5h1.74v4.76l2.68-1.14,1.38,.46-.08,.3c-.16,2.78-.46,6.44-.96,8.72l-1.52-.42c.3-1.72,.52-4.5,.62-6.94l-2.12,.92v7.18h-1.74v-6.44l-2.24,.96v6.56c0,1.12,.22,1.34,1.5,1.34h4.38Z" style="fill: #fff;"/>
      <path d="M304.52,225.96c1.16,.44,2.62,.56,4.44,.56,1.2,.02,6.96,.02,8.44-.04-.3,.44-.64,1.28-.76,1.84h-7.66c-4,0-6.4-.58-7.9-3.08-.2,1.4-.54,2.6-1.04,3.58-.3-.22-1.08-.66-1.5-.84,1.1-1.98,1.26-5.12,1.3-8.58l1.66,.12c-.02,.96-.06,1.88-.1,2.78,.36,1.14,.82,2,1.46,2.6v-6.74h-3.78v-1.66h3.48v-2.18h-3.08v-1.62h3.08v-2.24h1.7v2.24h3v1.62h-3v2.18h3.38v.7c1.56-.94,2.4-2.34,2.72-4.36h-2.5v-1.58h8.72s0,.46-.02,.68c-.16,3.48-.36,4.88-.8,5.4-.34,.38-.7,.52-1.24,.58-.46,.04-1.28,.06-2.16,.02-.04-.48-.22-1.14-.48-1.58,.76,.08,1.48,.08,1.76,.08s.46-.04,.6-.2c.24-.28,.38-1.16,.5-3.4h-2.62c-.42,2.76-1.58,4.54-3.56,5.76-.2-.2-.58-.52-.92-.78v.34h-3.12v2.54h2.9v1.62h-2.9v3.64Zm3.94-7.06h7.68v6.18h-7.68v-6.18Zm1.74,4.66h4.1v-3.14h-4.1v3.14Z" style="fill: #fff;"/>
      <path d="M332.58,225.86c1.26,.52,2.82,.66,4.8,.66,1.14,0,6.6,0,8-.04-.3,.44-.64,1.28-.74,1.84h-7.26c-4.14,0-6.66-.62-8.28-3.38-.24,1.36-.68,2.68-1.36,3.84-.26-.4-.84-.94-1.24-1.12,1.34-2.34,1.48-5.56,1.4-8.2l1.56,.08c.02,.8,.02,1.62-.02,2.46,.38,1.16,.84,2.02,1.46,2.68v-6.46h-3.98v-1.64h3.62v-2.18h-2.92v-1.62h2.92v-2.32h1.72v2.32h2.86v1.62h-2.86v2.18h3.22v1.64h-2.9v2.5h2.56v1.62h-2.56v3.52Zm6.92-5.58c.1,.46,.3,1.1,.46,1.44-3.3,1.96-3.84,2.3-4.14,2.66-.12-.44-.48-1.24-.76-1.62,.36-.2,.9-.66,.9-1.46v-7.52h3.72c-.06-1.08-.08-2.2-.1-3.32h1.7c0,1.14,0,2.26,.04,3.32h3.8v1.56h-3.72c.12,1.74,.28,3.34,.5,4.66,.6-1.14,1.12-2.34,1.46-3.6l1.46,.4c-.58,2-1.42,3.86-2.46,5.42,.34,1.14,.72,1.82,1.1,1.82,.3,0,.46-.84,.52-2.66,.34,.36,.86,.7,1.26,.86-.26,2.68-.72,3.46-1.96,3.44-.86,0-1.52-.7-2.06-1.94-.86,1.02-1.82,1.86-2.9,2.5-.26-.38-.76-.98-1.12-1.3,1.3-.7,2.46-1.74,3.44-3.02-.44-1.78-.7-4.06-.88-6.58h-2.12v6l1.86-1.06Zm3.98-6.58c-.38-.62-1.16-1.68-1.78-2.42l1.26-.66c.64,.72,1.44,1.72,1.84,2.32l-1.32,.76Z" style="fill: #fff;"/>
      <path d="M371.12,213.11v15.64h-1.96v-1h-10.12v1.08h-1.86v-15.72h5.04c.28-.86,.52-1.9,.66-2.68l2.22,.26c-.32,.84-.64,1.7-.98,2.42h7Zm-12.08,1.78v2.56h10.12v-2.56h-10.12Zm0,4.28v2.56h10.12v-2.56h-10.12Zm10.12,6.86v-2.58h-10.12v2.58h10.12Z" style="fill: #fff;"/>
      <path d="M400.06,219.47c-.9,1.66-2.04,3.18-3.38,4.54,.66,1.86,1.44,2.98,2.26,2.98,.48,0,.72-.98,.82-3.46,.42,.44,1.06,.88,1.56,1.04-.32,3.4-.94,4.32-2.56,4.32-1.52,0-2.7-1.32-3.58-3.46-1.24,1.06-2.56,1.96-3.96,2.7-.3-.46-.8-1.08-1.28-1.5,1.64-.76,3.2-1.82,4.62-3.06-.48-1.62-.82-3.54-1.06-5.6h-4.42v2.8l3.34-.66,.14,1.66c-1.14,.26-2.32,.54-3.48,.78v3.98c0,1.1-.26,1.64-.96,1.94s-1.82,.36-3.42,.36c-.1-.52-.42-1.38-.7-1.88,1.22,.04,2.38,.04,2.72,.02,.36-.02,.48-.12,.48-.44v-3.56c-1.42,.3-2.72,.58-3.86,.82l-.52-1.86c1.18-.2,2.72-.48,4.38-.8v-3.16h-4.04v-1.76h4.04v-2.76c-1.18,.2-2.36,.36-3.44,.5-.1-.42-.34-1.14-.58-1.54,2.78-.42,5.96-1.06,7.9-1.74l1.3,1.56c-.98,.32-2.12,.6-3.3,.84v3.14h4.24c-.16-1.8-.24-3.68-.26-5.58h1.92c-.02,1.92,.06,3.82,.22,5.58h5.68v1.76h-5.48c.2,1.5,.42,2.84,.72,4.06,.9-1.02,1.68-2.12,2.28-3.26l1.66,.7Zm-1.04-4.14c-.56-.94-1.86-2.38-2.98-3.38l1.4-.96c1.12,.96,2.46,2.32,3.08,3.26l-1.5,1.08Z" style="fill: #fff;"/>
    </g>
    <line y1="194.87" x2="398.33" y2="194.87" style="fill: none; stroke: #fff; stroke-miterlimit: 10; stroke-width: 1.8px;"/>
  </g>
</svg>