<?xml version="1.0" encoding="UTF-8"?>
<svg id="_圖層_2" data-name="圖層 2" xmlns="http://www.w3.org/2000/svg" width="1870.79" height="144" viewBox="0 0 1870.79 144">
  <g id="_設計" data-name="設計">
    <g>
      <path d="M112.2,106.2H37.8l-17.4,35.8H0L72.8,0h18l68.6,142h-30.4l-16.8-35.8Zm-5.4-11.4L75.8,28.6,43.4,94.8h63.4Z" style="fill: #353434;"/>
      <path d="M172.4,2h68.8c11.6,0,21.8,1.37,30.6,4.1,8.8,2.73,15.63,6.6,20.5,11.6,4.87,5,7.3,10.83,7.3,17.5,0,7.87-3.17,14.8-9.5,20.8-6.33,6-14.83,10.27-25.5,12.8,28.93,3.6,43.4,15.27,43.4,35,0,12.27-5.37,21.7-16.1,28.3-10.73,6.6-26.04,9.9-45.9,9.9h-73.6V2Zm61.2,61.6c11.87,0,20.97-2.3,27.3-6.9,6.33-4.6,9.5-11.37,9.5-20.3,0-7.6-3.1-13.33-9.3-17.2-6.2-3.87-15.17-5.8-26.9-5.8h-32.2V63.6h31.6Zm14.4,67c9.73,0,17.23-2.37,22.5-7.1,5.27-4.73,7.9-11.63,7.9-20.7s-3.93-15.93-11.8-20.6c-7.87-4.67-19.27-7-34.2-7h-30.4v55.4h46Z" style="fill: #353434;"/>
      <path d="M357.9,135.4c-11.93-5.73-21.03-14.03-27.3-24.9-6.27-10.87-9.4-23.9-9.4-39.1s3.17-27.73,9.5-38.4c6.33-10.67,15.43-18.83,27.3-24.5,11.87-5.67,26-8.5,42.4-8.5s30.3,2.83,42.1,8.5c11.8,5.67,20.87,13.83,27.2,24.5,6.33,10.67,9.5,23.47,9.5,38.4s-3.13,28.23-9.4,39.1c-6.27,10.87-15.33,19.17-27.2,24.9-11.87,5.73-25.93,8.6-42.2,8.6s-30.57-2.87-42.5-8.6Zm78.7-18.5c8.4-10.47,12.6-25.63,12.6-45.5s-4.2-34.33-12.6-44.6c-8.4-10.27-20.47-15.4-36.2-15.4s-28.03,5.17-36.5,15.5c-8.47,10.33-12.7,25.17-12.7,44.5s4.2,35.03,12.6,45.5c8.4,10.47,20.6,15.7,36.6,15.7s27.8-5.23,36.2-15.7Z" style="fill: #353434;"/>
      <path d="M476.6,2h31.8l52.6,110.4L616.6,2h19.6l-71.4,142h-18.2L476.6,2Z" style="fill: #353434;"/>
      <path d="M647.2,2h125.8V13.4h-96.2V61.2h85v11.4h-85v58h96.2v11.4h-125.8V2Z" style="fill: #353434;"/>
      <path d="M841,2h56.8c20.4,0,36.17,3.37,47.3,10.1,11.13,6.73,16.7,17.77,16.7,33.1s-5.47,26.2-16.4,33c-10.93,6.8-26.8,10.2-47.6,10.2h-27.2v53.6h-29.6V2Zm57.2,74.8c11.33,0,19.87-2.33,25.6-7,5.73-4.67,8.6-12.87,8.6-24.6s-2.83-19.63-8.5-24.5c-5.67-4.87-14.23-7.3-25.7-7.3h-27.6v63.4h27.6Z" style="fill: #353434;"/>
      <path d="M976.6,2h125.8V13.4h-96.2V61.2h85v11.4h-85v58h96.2v11.4h-125.8V2Z" style="fill: #353434;"/>
      <path d="M1151.1,135.4c-11.93-5.73-21.03-14.03-27.3-24.9-6.27-10.87-9.4-23.9-9.4-39.1s3.17-27.73,9.5-38.4c6.33-10.67,15.43-18.83,27.3-24.5,11.87-5.67,26-8.5,42.4-8.5s30.3,2.83,42.1,8.5c11.8,5.67,20.87,13.83,27.2,24.5,6.33,10.67,9.5,23.47,9.5,38.4s-3.13,28.23-9.4,39.1c-6.27,10.87-15.33,19.17-27.2,24.9-11.87,5.73-25.93,8.6-42.2,8.6s-30.57-2.87-42.5-8.6Zm78.7-18.5c8.4-10.47,12.6-25.63,12.6-45.5s-4.2-34.33-12.6-44.6c-8.4-10.27-20.47-15.4-36.2-15.4s-28.03,5.17-36.5,15.5c-8.47,10.33-12.7,25.17-12.7,44.5s4.2,35.03,12.6,45.5c8.4,10.47,20.6,15.7,36.6,15.7s27.8-5.23,36.2-15.7Z" style="fill: #353434;"/>
      <path d="M1293.59,2h56.8c20.4,0,36.17,3.37,47.3,10.1,11.13,6.73,16.7,17.77,16.7,33.1s-5.47,26.2-16.4,33c-10.93,6.8-26.8,10.2-47.6,10.2h-27.2v53.6h-29.6V2Zm57.2,74.8c11.33,0,19.87-2.33,25.6-7,5.73-4.67,8.6-12.87,8.6-24.6s-2.83-19.63-8.5-24.5c-5.67-4.87-14.23-7.3-25.7-7.3h-27.6v63.4h27.6Z" style="fill: #353434;"/>
      <path d="M1429.19,2h29.6V130.6h86.6v11.4h-116.2V2Z" style="fill: #353434;"/>
      <path d="M1559.19,2h125.8V13.4h-96.2V61.2h85v11.4h-85v58h96.2v11.4h-125.8V2Z" style="fill: #353434;"/>
      <path d="M1698.39,26.8c-1.2-9.87-1.8-15.8-1.8-17.8,0-2.8,.93-5,2.8-6.6,1.87-1.6,4.2-2.4,7-2.4s5.3,.83,7.1,2.5c1.8,1.67,2.7,3.9,2.7,6.7,0,1.73-.6,7.53-1.8,17.4-2.27,18.53-3.67,31.53-4.2,39h-7.6c-1.07-13.07-2.47-26-4.2-38.8Z" style="fill: #353434;"/>
      <path d="M1753.89,131.8c-12.47-8.13-19.1-19.6-19.9-34.4h24c.8,12.27,4.96,21.2,12.5,26.8,7.53,5.6,18.7,8.4,33.5,8.4,12.4,0,21.7-2.2,27.9-6.6s9.3-10.8,9.3-19.2c0-4.67-1.13-8.67-3.4-12-2.27-3.33-6.47-6.33-12.6-9-6.13-2.67-14.93-5.13-26.4-7.4-18-3.6-32.7-8.53-44.1-14.8-11.4-6.27-17.1-15.33-17.1-27.2,0-13.07,6-22.37,18-27.9,12-5.53,27.47-8.3,46.4-8.3,20.53,0,36.2,3.47,47,10.4,10.8,6.93,16.8,16.33,18,28.2h-23.6c-1.87-9.73-6.33-16.7-13.4-20.9-7.07-4.2-16.8-6.3-29.2-6.3-11.33,0-19.8,1.9-25.4,5.7-5.6,3.8-8.4,8.77-8.4,14.9,0,3.47,1,6.53,3,9.2,2,2.67,5.9,5.2,11.7,7.6,5.8,2.4,14.23,4.8,25.3,7.2,14.8,3.2,26.6,6.47,35.4,9.8,8.8,3.33,15.73,8,20.8,14,5.07,6,7.6,13.87,7.6,23.6,0,8.4-2.73,15.63-8.2,21.7-5.47,6.07-13.2,10.7-23.2,13.9s-21.67,4.8-35,4.8c-21.2,0-38.03-4.07-50.5-12.2Z" style="fill: #353434;"/>
    </g>
  </g>
</svg>