<?xml version="1.0" encoding="UTF-8"?>
<svg id="_圖層_2" data-name="圖層 2" xmlns="http://www.w3.org/2000/svg" width="244.99" height="28.03" viewBox="0 0 244.99 28.03">
  <g id="_設計" data-name="設計">
    <g>
      <path d="M0,27.36L11.62,.04l12.08,27.32h-5.6l-2.93-7.13H5.42l-2.92,7.13H0Zm6.15-8.81H14.39l-4.12-9.78-4.11,9.78Z" style="fill: #666;"/>
      <path d="M27.17,27.36V.58h10.13c3.02,0,5.39,.71,7.13,2.13,1.72,1.42,2.59,3.36,2.59,5.82s-.81,4.28-2.39,5.65c-1.6,1.37-3.8,2.06-6.59,2.06h-5.62v11.11h-5.25Zm5.25-12.76h2.33c2.34,0,4.11-.48,5.27-1.43,1.16-.96,1.75-2.4,1.75-4.32,0-2.2-.58-3.84-1.73-4.92-1.15-1.08-2.92-1.63-5.29-1.63h-2.33V14.6Z" style="fill: #666;"/>
      <path d="M51.82,27.36V.58h17.5v2h-12.25V12.38h11.38v2.02h-11.38v10.95h12.25v2.01h-17.5Z" style="fill: #666;"/>
      <path d="M71.84,27.36l9.46-12.68L71.89,.58h5.94l6.75,10.07L92.05,.58h2.98l-9.05,12.01,10.09,14.77h-5.99l-7.28-10.79-7.97,10.79h-2.98Z" style="fill: #666;"/>
      <path d="M135.06,14.84v9.04c-1.66,1.38-3.4,2.41-5.18,3.11-1.79,.69-3.65,1.04-5.56,1.04-4.23,0-7.64-1.29-10.25-3.88-2.61-2.58-3.91-5.97-3.91-10.17s1.31-7.31,3.94-9.99c2.64-2.65,5.89-3.99,9.79-3.99,2.36,0,4.42,.46,6.17,1.38,1.73,.91,3.18,2.3,4.32,4.15l-1.69,1.13c-.88-1.63-1.96-2.85-3.25-3.67-1.29-.81-2.78-1.22-4.48-1.22-2.83,0-5.07,1.11-6.74,3.33-1.65,2.22-2.48,5.23-2.48,9.07s.8,6.55,2.38,8.6c1.59,2.05,3.8,3.08,6.64,3.08,1.09,0,2.11-.15,3.08-.49,.95-.32,1.77-.78,2.46-1.39V14.84h4.76Z" style="fill: #666;"/>
      <path d="M140.88,27.36V.58h9.27c3.52,0,6.17,.66,7.97,1.98,1.79,1.32,2.7,3.27,2.7,5.85,0,1.92-.64,3.45-1.92,4.55-1.27,1.11-3.09,1.72-5.44,1.85l7.48,12.55h-5.88l-7.59-13.58c2.97-.19,5.08-.71,6.3-1.57,1.24-.87,1.85-2.2,1.85-4,0-1.98-.62-3.46-1.82-4.44-1.22-.97-3.05-1.47-5.5-1.47h-2.17V27.36h-5.24Z" style="fill: #666;"/>
      <path d="M178.54,28.03c-1.97,0-3.83-.34-5.56-1.02-1.75-.67-3.29-1.66-4.68-2.96-1.37-1.3-2.41-2.8-3.11-4.51-.72-1.71-1.07-3.54-1.07-5.51s.36-3.84,1.08-5.55c.71-1.71,1.77-3.21,3.15-4.48,1.38-1.28,2.95-2.26,4.69-2.95,1.75-.69,3.59-1.03,5.5-1.03,1.54,0,3.04,.23,4.49,.68,1.45,.46,2.82,1.11,4.09,1.98,1.9,1.31,3.36,2.95,4.37,4.9,1.02,1.95,1.53,4.12,1.53,6.46,0,1.97-.37,3.81-1.09,5.52-.72,1.7-1.78,3.2-3.16,4.5-1.4,1.3-2.97,2.3-4.7,2.96-1.73,.68-3.58,1.02-5.52,1.02Zm8.85-14.01c0-3.65-.83-6.62-2.48-8.9-1.64-2.26-3.77-3.4-6.37-3.4s-4.69,1.14-6.36,3.4c-1.66,2.28-2.48,5.24-2.48,8.9s.82,6.61,2.48,8.87c1.66,2.27,3.78,3.41,6.36,3.41s4.7-1.13,6.37-3.4c1.65-2.27,2.48-5.23,2.48-8.89Z" style="fill: #666;"/>
      <path d="M198.18,.58h5.25V16.74c0,3.16,.46,5.35,1.39,6.58,.94,1.25,2.51,1.86,4.73,1.86s3.78-.61,4.7-1.86c.91-1.24,1.39-3.42,1.39-6.58V.58h2.52V17.65c0,3.46-.83,6.05-2.49,7.78-1.65,1.73-4.15,2.6-7.47,2.6-1.48,0-2.91-.25-4.26-.77-1.37-.5-2.48-1.19-3.36-2.08-.85-.85-1.47-1.84-1.84-2.93-.36-1.11-.55-2.64-.55-4.6V.58Z" style="fill: #666;"/>
      <path d="M225.14,27.36V.58h10.13c3.03,0,5.39,.71,7.13,2.13,1.72,1.42,2.59,3.36,2.59,5.82s-.8,4.28-2.39,5.65c-1.59,1.37-3.78,2.06-6.58,2.06h-5.63v11.11h-5.25Zm5.25-12.76h2.33c2.35,0,4.11-.48,5.27-1.43,1.16-.96,1.75-2.4,1.75-4.32,0-2.2-.57-3.84-1.73-4.92-1.15-1.08-2.92-1.63-5.29-1.63h-2.33V14.6Z" style="fill: #666;"/>
    </g>
  </g>
</svg>