<?xml version="1.0" encoding="UTF-8"?>
<svg id="_圖層_2" data-name="圖層 2" xmlns="http://www.w3.org/2000/svg" width="4448.11" height="508.84" viewBox="0 0 4448.11 508.84">
  <g id="_設計" data-name="設計">
    <g>
      <path d="M0,496.76L210.95,.65l219.36,496.11h-101.59l-53.28-129.42H98.37l-53.07,129.42H0Zm111.73-160.05h149.48l-74.85-177.52-74.63,177.52Z" style="fill: #353434;"/>
      <path d="M493.3,496.76V10.58h183.99c54.79,0,97.94,12.83,129.42,38.71,31.27,25.77,47.02,61.05,47.02,105.7s-14.67,77.76-43.36,102.56c-29.12,24.81-69.02,37.41-119.71,37.41h-102.02v201.79h-95.34Zm95.34-231.67h42.28c42.49,0,74.63-8.62,95.77-25.87,21.14-17.47,31.7-43.58,31.7-78.52,0-39.9-10.57-69.66-31.49-89.4-20.93-19.64-53.06-29.66-95.99-29.66h-42.28v223.46Z" style="fill: #353434;"/>
      <path d="M940.88,496.76V10.58h317.72V46.81h-222.39V224.76h206.64v36.66h-206.64v198.88h222.39v36.46h-317.72Z" style="fill: #353434;"/>
      <path d="M1304.33,496.76l171.7-230.26L1305.19,10.58h107.84l122.52,182.91L1671.22,10.58h54.15l-164.36,218.07,183.13,268.11h-108.71l-132.22-195.96-144.74,195.96h-54.14Z" style="fill: #353434;"/>
      <path d="M2452.26,269.41v164.14c-30.2,25.02-61.69,43.68-94.05,56.41-32.57,12.51-66.22,18.87-100.94,18.87-76.79,0-138.7-23.4-186.15-70.43-47.46-46.82-70.95-108.39-70.95-184.64s23.72-132.76,71.61-181.29C2119.66,24.38,2178.75,0,2249.51,0c42.91,0,80.23,8.42,111.94,25.02,31.5,16.61,57.81,41.84,78.52,75.28l-30.64,20.49c-15.96-29.55-35.58-51.66-59.1-66.65-23.51-14.66-50.48-22.11-81.32-22.11-51.33,0-92.1,20.16-122.3,60.4-29.98,40.22-45.08,95.01-45.08,164.68s14.46,118.84,43.14,156.16c28.91,37.21,69.02,55.87,120.58,55.87,19.85,0,38.4-2.8,55.87-8.85,17.26-5.82,32.14-14.24,44.65-25.24v-165.65h86.49Z" style="fill: #353434;"/>
      <path d="M2557.95,496.76V10.58h168.25c63.84,0,111.94,12.07,144.73,36.01,32.57,24.05,48.97,59.43,48.97,106.13,0,34.95-11.65,62.56-34.94,82.61-23.08,20.17-56.08,31.16-98.8,33.54l135.89,227.89h-106.77l-137.83-246.54c53.92-3.46,92.31-12.94,114.31-28.47,22.43-15.75,33.65-39.91,33.65-72.69,0-36.02-11.22-62.88-33-80.67-22.22-17.69-55.44-26.75-99.87-26.75h-39.47V496.76h-95.13Z" style="fill: #353434;"/>
      <path d="M3241.71,508.84c-35.8,0-69.45-6.26-100.94-18.55-31.7-12.08-59.75-30.19-84.99-53.81-24.8-23.63-43.77-50.8-56.51-81.86-13.16-31.07-19.42-64.27-19.42-100.09s6.47-69.66,19.64-100.73c12.94-31.06,32.14-58.23,57.16-81.43,25.01-23.18,53.48-41.08,85.19-53.59,31.72-12.51,65.15-18.77,99.87-18.77,28.04,0,55.22,4.11,81.54,12.41,26.32,8.3,51.12,20.17,74.2,35.9,34.51,23.84,61.04,53.5,79.37,88.98,18.55,35.48,27.83,74.75,27.83,117.23,0,35.82-6.68,69.25-19.85,100.3-13.15,30.85-32.36,58.02-57.37,81.65-25.45,23.62-53.92,41.73-85.42,53.81-31.49,12.29-64.92,18.55-100.3,18.55Zm160.7-254.32c0-66.33-15.1-120.14-45.08-161.56-29.76-40.97-68.37-61.68-115.62-61.68s-85.19,20.7-115.39,61.68c-30.2,41.41-45.08,95.23-45.08,161.56s14.88,119.94,45.08,161.13c30.2,41.2,68.59,61.91,115.39,61.91s85.42-20.5,115.62-61.69c29.98-41.2,45.08-94.91,45.08-161.35Z" style="fill: #353434;"/>
      <path d="M3598.27,10.58h95.33V303.92c0,57.37,8.42,97.06,25.25,119.49,17.04,22.65,45.51,33.76,85.84,33.76s68.59-11.11,85.41-33.76c16.61-22.43,25.25-62.12,25.25-119.49V10.58h45.72V320.42c0,62.88-15.1,109.89-45.29,141.28-29.98,31.5-75.28,47.13-135.68,47.13-26.95,0-52.84-4.53-77.43-13.92-24.8-9.16-45.08-21.68-61.05-37.75-15.52-15.43-26.75-33.33-33.43-53.16-6.47-20.07-9.92-47.89-9.92-83.59V10.58Z" style="fill: #353434;"/>
      <path d="M4087.68,496.76V10.58h183.99c55.01,0,97.93,12.83,129.42,38.71,31.27,25.77,47.02,61.05,47.02,105.7s-14.46,77.76-43.36,102.56c-28.9,24.81-68.59,37.41-119.49,37.41h-102.24v201.79h-95.34Zm95.34-231.67h42.28c42.7,0,74.63-8.62,95.77-25.87,21.13-17.47,31.71-43.58,31.71-78.52,0-39.9-10.36-69.66-31.5-89.4-20.92-19.64-53.05-29.66-95.98-29.66h-42.28v223.46Z" style="fill: #353434;"/>
    </g>
  </g>
</svg>