<?xml version="1.0" encoding="UTF-8"?>
<svg id="_圖層_2" data-name="圖層 2" xmlns="http://www.w3.org/2000/svg" width="253.08" height="56" viewBox="0 0 253.08 56">
  <g id="_設計" data-name="設計">
    <g>
      <g>
        <path d="M2.75,47.57c0-5.2,2.88-8.41,7-8.41,1.92,0,3.41,.94,4.28,1.96l-.76,.87c-.87-.98-2.03-1.63-3.52-1.63-3.44,0-5.6,2.77-5.6,7.16s2.12,7.27,5.53,7.27c1.65,0,2.88-.69,4.04-1.96l.76,.85c-1.25,1.45-2.77,2.32-4.86,2.32-4.02,0-6.87-3.23-6.87-8.43Z" style="fill: #fff;"/>
        <path d="M21.33,39.45h1.34v15.1h7.41v1.16h-8.74v-16.26Z" style="fill: #fff;"/>
        <path d="M44.05,50.25h-6.34l-1.85,5.47h-1.34l5.69-16.26h1.38l5.69,16.26h-1.43l-1.81-5.47Zm-.36-1.07l-.98-2.94c-.67-1.9-1.2-3.61-1.78-5.58h-.09c-.56,1.96-1.12,3.68-1.76,5.58l-1,2.94h5.62Z" style="fill: #fff;"/>
        <path d="M52.15,53.57l.83-.94c1.18,1.34,2.86,2.16,4.71,2.16,2.41,0,3.9-1.27,3.9-3.12,0-1.96-1.27-2.59-2.88-3.3l-2.43-1.07c-1.45-.65-3.3-1.67-3.3-4.06s2.05-4.08,4.82-4.08c1.96,0,3.57,.85,4.6,1.96l-.76,.87c-.96-.98-2.23-1.63-3.84-1.63-2.07,0-3.46,1.09-3.46,2.77,0,1.85,1.58,2.54,2.77,3.06l2.43,1.07c1.85,.83,3.41,1.85,3.41,4.33s-2.07,4.42-5.26,4.42c-2.36,0-4.24-.98-5.53-2.43Z" style="fill: #fff;"/>
        <path d="M68.37,53.57l.83-.94c1.18,1.34,2.86,2.16,4.71,2.16,2.41,0,3.9-1.27,3.9-3.12,0-1.96-1.27-2.59-2.88-3.3l-2.43-1.07c-1.45-.65-3.3-1.67-3.3-4.06s2.05-4.08,4.82-4.08c1.96,0,3.57,.85,4.6,1.96l-.76,.87c-.96-.98-2.23-1.63-3.84-1.63-2.07,0-3.46,1.09-3.46,2.77,0,1.85,1.58,2.54,2.77,3.06l2.43,1.07c1.85,.83,3.41,1.85,3.41,4.33s-2.07,4.42-5.26,4.42c-2.36,0-4.24-.98-5.53-2.43Z" style="fill: #fff;"/>
        <path d="M86.11,39.45h1.34v16.26h-1.34v-16.26Z" style="fill: #fff;"/>
        <path d="M94.72,47.57c0-5.2,2.88-8.41,7-8.41,1.92,0,3.41,.94,4.28,1.96l-.76,.87c-.87-.98-2.03-1.63-3.52-1.63-3.44,0-5.6,2.77-5.6,7.16s2.12,7.27,5.53,7.27c1.65,0,2.88-.69,4.04-1.96l.76,.85c-1.25,1.45-2.77,2.32-4.86,2.32-4.02,0-6.87-3.23-6.87-8.43Z" style="fill: #fff;"/>
        <path d="M121.83,39.45h4.22c3.68,0,5.93,1.2,5.93,4.57s-2.23,4.82-5.84,4.82h-2.97v6.87h-1.34v-16.26Zm4.04,8.28c3.21,0,4.75-1.09,4.75-3.7s-1.61-3.46-4.84-3.46h-2.61v7.16h2.7Z" style="fill: #fff;"/>
        <path d="M148.05,55.71l-4.33-7.34h-3.32v7.34h-1.34v-16.26h4.75c3.23,0,5.42,1.18,5.42,4.35,0,2.59-1.58,4.08-4.06,4.46l4.39,7.45h-1.52Zm-7.65-8.45h3.1c2.81,0,4.37-1.12,4.37-3.46s-1.56-3.23-4.37-3.23h-3.1v6.69Z" style="fill: #fff;"/>
        <path d="M155.17,47.53c0-5.15,2.81-8.37,6.74-8.37s6.76,3.21,6.76,8.37-2.79,8.48-6.76,8.48-6.74-3.3-6.74-8.48Zm12.11,0c0-4.42-2.14-7.16-5.38-7.16s-5.33,2.74-5.33,7.16,2.12,7.27,5.33,7.27,5.38-2.86,5.38-7.27Z" style="fill: #fff;"/>
        <path d="M173.71,53.57l1-.67c.8,1.36,1.74,1.9,3.08,1.9,1.92,0,2.86-1.12,2.86-3.73v-11.62h1.34v11.76c0,2.68-1.14,4.8-4.15,4.8-1.87,0-3.26-.85-4.13-2.43Z" style="fill: #fff;"/>
        <path d="M190.25,39.45h8.99v1.14h-7.65v5.93h6.45v1.14h-6.45v6.89h7.9v1.16h-9.24v-16.26Z" style="fill: #fff;"/>
        <path d="M205.58,47.57c0-5.2,2.88-8.41,7-8.41,1.92,0,3.41,.94,4.28,1.96l-.76,.87c-.87-.98-2.03-1.63-3.52-1.63-3.44,0-5.6,2.77-5.6,7.16s2.12,7.27,5.53,7.27c1.65,0,2.88-.69,4.04-1.96l.76,.85c-1.25,1.45-2.77,2.32-4.86,2.32-4.02,0-6.87-3.23-6.87-8.43Z" style="fill: #fff;"/>
        <path d="M227.13,40.59h-5.11v-1.14h11.6v1.14h-5.13v15.12h-1.36v-15.12Z" style="fill: #fff;"/>
        <path d="M237.93,53.57l.83-.94c1.18,1.34,2.86,2.16,4.71,2.16,2.41,0,3.9-1.27,3.9-3.12,0-1.96-1.27-2.59-2.88-3.3l-2.43-1.07c-1.45-.65-3.3-1.67-3.3-4.06s2.05-4.08,4.82-4.08c1.96,0,3.57,.85,4.6,1.96l-.76,.87c-.96-.98-2.23-1.63-3.84-1.63-2.07,0-3.46,1.09-3.46,2.77,0,1.85,1.58,2.54,2.77,3.06l2.43,1.07c1.85,.83,3.41,1.85,3.41,4.33s-2.07,4.42-5.26,4.42c-2.36,0-4.24-.98-5.53-2.43Z" style="fill: #fff;"/>
      </g>
      <g>
        <path d="M0,28.26L12,.04l12.48,28.23h-5.78l-3.03-7.36H5.6l-3.02,7.36H0Zm6.36-9.11H14.86l-4.26-10.1-4.25,10.1Z" style="fill: #fff;"/>
        <path d="M28.07,28.26V.6h10.47c3.12,0,5.57,.73,7.36,2.2,1.78,1.47,2.68,3.47,2.68,6.01s-.83,4.42-2.47,5.84c-1.66,1.41-3.93,2.13-6.81,2.13h-5.8v11.48h-5.42Zm5.42-13.18h2.41c2.42,0,4.25-.49,5.45-1.47,1.2-.99,1.8-2.48,1.8-4.47,0-2.27-.6-3.96-1.79-5.09-1.19-1.12-3.02-1.69-5.46-1.69h-2.41V15.08Z" style="fill: #fff;"/>
        <path d="M53.53,28.26V.6h18.08V2.66h-12.65V12.79h11.76v2.09h-11.76v11.32h12.65v2.07h-18.08Z" style="fill: #fff;"/>
        <path d="M74.21,28.26l9.77-13.1L74.26,.6h6.14l6.97,10.41L95.09,.6h3.08l-9.35,12.41,10.42,15.25h-6.19l-7.52-11.15-8.24,11.15h-3.08Z" style="fill: #fff;"/>
        <path d="M139.53,15.33v9.34c-1.72,1.42-3.51,2.49-5.35,3.21-1.85,.71-3.77,1.07-5.74,1.07-4.37,0-7.89-1.33-10.59-4.01-2.7-2.66-4.04-6.17-4.04-10.51s1.35-7.55,4.07-10.32c2.72-2.74,6.09-4.12,10.11-4.12,2.44,0,4.56,.48,6.37,1.42,1.79,.95,3.29,2.38,4.47,4.28l-1.74,1.17c-.91-1.68-2.02-2.94-3.36-3.79-1.34-.83-2.87-1.26-4.63-1.26-2.92,0-5.24,1.15-6.96,3.44-1.71,2.29-2.56,5.41-2.56,9.37s.82,6.76,2.45,8.88c1.65,2.12,3.93,3.18,6.86,3.18,1.13,0,2.18-.16,3.18-.5,.98-.33,1.83-.81,2.54-1.44V15.33h4.92Z" style="fill: #fff;"/>
        <path d="M145.54,28.26V.6h9.57c3.63,0,6.37,.69,8.23,2.05,1.85,1.37,2.79,3.38,2.79,6.04,0,1.99-.66,3.56-1.99,4.7-1.31,1.15-3.19,1.77-5.62,1.91l7.73,12.97h-6.08l-7.84-14.03c3.07-.2,5.25-.74,6.5-1.62,1.28-.9,1.91-2.27,1.91-4.14,0-2.05-.64-3.58-1.88-4.59-1.26-1.01-3.15-1.52-5.68-1.52h-2.25V28.26h-5.41Z" style="fill: #fff;"/>
        <path d="M184.44,28.95c-2.04,0-3.95-.36-5.74-1.06-1.8-.69-3.4-1.72-4.84-3.06-1.41-1.34-2.49-2.89-3.22-4.66-.75-1.77-1.1-3.66-1.1-5.69s.37-3.96,1.12-5.73c.74-1.77,1.83-3.31,3.25-4.63,1.42-1.32,3.04-2.34,4.85-3.05,1.8-.71,3.71-1.07,5.68-1.07,1.6,0,3.14,.23,4.64,.71,1.5,.47,2.91,1.15,4.22,2.04,1.96,1.36,3.47,3.04,4.52,5.06,1.06,2.02,1.58,4.25,1.58,6.67,0,2.04-.38,3.94-1.13,5.71-.75,1.76-1.84,3.3-3.26,4.65-1.45,1.34-3.07,2.37-4.86,3.06-1.79,.7-3.69,1.06-5.71,1.06Zm9.14-14.47c0-3.77-.86-6.84-2.56-9.19-1.69-2.33-3.89-3.51-6.58-3.51s-4.85,1.18-6.57,3.51c-1.72,2.36-2.56,5.42-2.56,9.19s.85,6.82,2.56,9.17c1.72,2.34,3.9,3.52,6.57,3.52s4.86-1.17,6.58-3.51c1.71-2.34,2.56-5.4,2.56-9.18Z" style="fill: #fff;"/>
        <path d="M204.73,.6h5.42V17.29c0,3.26,.48,5.52,1.44,6.8,.97,1.29,2.59,1.92,4.88,1.92s3.9-.63,4.86-1.92c.95-1.28,1.44-3.53,1.44-6.8V.6h2.6V18.23c0,3.58-.86,6.25-2.58,8.04-1.71,1.79-4.28,2.68-7.72,2.68-1.53,0-3.01-.26-4.41-.79-1.41-.52-2.56-1.23-3.47-2.15-.88-.88-1.52-1.9-1.9-3.02-.37-1.14-.56-2.72-.56-4.76V.6Z" style="fill: #fff;"/>
        <path d="M232.58,28.26V.6h10.47c3.13,0,5.57,.73,7.36,2.2,1.78,1.47,2.68,3.47,2.68,6.01s-.82,4.42-2.47,5.84c-1.64,1.41-3.9,2.13-6.8,2.13h-5.82v11.48h-5.42Zm5.42-13.18h2.41c2.43,0,4.25-.49,5.45-1.47,1.2-.99,1.8-2.48,1.8-4.47,0-2.27-.59-3.96-1.79-5.09-1.19-1.12-3.02-1.69-5.46-1.69h-2.41V15.08Z" style="fill: #fff;"/>
      </g>
    </g>
  </g>
</svg>