<?xml version="1.0" encoding="UTF-8"?>
<svg id="_圖層_2" data-name="圖層 2" xmlns="http://www.w3.org/2000/svg" width="167.69" height="37.36" viewBox="0 0 167.69 37.36">
  <g id="_設計" data-name="設計">
    <g>
      <path d="M37.35,8.36c-.03-2.49-.78-4.59-2.28-6.09-3.3-3.29-9.57-2.99-16.39,.78h0C14.92,.98,11.33-.04,8.32,0,5.85,.05,3.76,.81,2.28,2.29,.73,3.83-.02,6.03,0,8.64c.03,2.95,1.05,6.42,3.06,10.05h0s0,0,0,0h0s0,0,0,0C1,22.43-.02,25.99,.01,29c.03,2.49,.78,4.59,2.28,6.08,1.56,1.56,3.79,2.32,6.43,2.27,2.93-.04,6.37-1.07,9.96-3.05h0s0,0,0,0c3.75,2.07,7.34,3.09,10.35,3.05,2.47-.04,4.56-.79,6.04-2.28,1.55-1.55,2.3-3.74,2.28-6.35-.03-2.95-1.05-6.42-3.05-10.05h0s0,0,0,0c2.06-3.73,3.08-7.3,3.05-10.31Zm-14.6,14.38c-1.39,1.39-2.84,2.66-4.33,3.78l-.11,.09c-.08,.06-.15,.11-.23,.17l-.18,.13c-.18,.13-.35,.25-.53,.38h0c-1,.7-2,1.32-2.96,1.83l-.05,.02c-.1,.06-.2,.11-.3,.16-.08,.04-.16,.08-.24,.12h-.01c-.21,.11-.42,.21-.62,.3h0c-2.84,1.29-5.1,1.48-6.05,.53-.4-.4-.6-1.04-.6-1.85,0-1.12,.38-2.56,1.13-4.21,.09-.21,.19-.41,.29-.62,.04-.08,.08-.17,.13-.25h0s0,0,0,0h0c.05-.11,.11-.21,.16-.31l.02-.04c.51-.96,1.12-1.96,1.82-2.96,.13-.18,.25-.35,.38-.54l.14-.18c.06-.08,.13-.17,.19-.25l.26-.35h0s0,0,0,0l-.26-.35c-.06-.08-.13-.17-.19-.25l-.14-.19c-.13-.18-.26-.36-.38-.53-.64-.91-1.21-1.82-1.69-2.71l-.15-.28c-.03-.05-.06-.11-.09-.17-.03-.05-.06-.11-.08-.16-.05-.08-.09-.17-.13-.25h0c-.06-.13-.12-.25-.18-.37-.04-.08-.08-.17-.11-.25-.74-1.64-1.12-3.09-1.13-4.21,0-.81,.2-1.45,.6-1.85,.96-.96,3.22-.76,6.06,.52,.2,.1,.41,.19,.62,.29h0c.08,.04,.17,.08,.25,.13,.06,.03,.11,.06,.17,.09,.06,.03,.11,.06,.17,.09l.27,.15c.88,.49,1.79,1.05,2.71,1.69,.09,.06,.18,.12,.27,.19,.09,.06,.17,.13,.26,.19l.19,.14c.08,.06,.16,.12,.24,.18l.09,.07c1.49,1.12,2.95,2.39,4.33,3.78,1.31,1.3,2.51,2.67,3.57,4.06-1.07,1.4-2.27,2.76-3.57,4.06Zm7.5-15.64c.38,.38,.58,.98,.6,1.74,.02,.98-.26,2.23-.84,3.65-.78-.92-1.61-1.83-2.47-2.69-.86-.86-1.76-1.68-2.68-2.46,2.53-1.03,4.52-1.13,5.4-.25Zm-9.74,2.62s.02-.01,.03-.02c.14-.1,.29-.19,.43-.28,.22-.14,.43-.28,.64-.4,.18-.11,.37-.22,.55-.33,.03-.02,.05-.03,.08-.04,.16-.09,.31-.18,.47-.26,.13,.1,.26,.21,.38,.32,.13,.1,.25,.2,.38,.31,.17,.15,.35,.3,.52,.45,.11,.1,.23,.2,.34,.3,.19,.17,.38,.35,.57,.52,.09,.09,.19,.17,.28,.26,.28,.26,.56,.53,.83,.81,.27,.27,.54,.55,.81,.83,.09,.09,.17,.19,.26,.28,.17,.19,.35,.38,.52,.57,.1,.11,.2,.23,.3,.34,.15,.17,.3,.35,.45,.52,.1,.13,.21,.25,.31,.38,.1,.13,.21,.26,.31,.39-.09,.15-.17,.31-.26,.47-.07,.12-.14,.24-.22,.37-.07,.13-.15,.25-.22,.37-.15,.25-.31,.5-.47,.74-.06,.08-.11,.17-.17,.25,0-.01-.01-.01-.01-.02-.23-.29-.46-.57-.7-.85-.04-.05-.08-.1-.12-.14-.23-.28-.47-.55-.71-.82-.04-.05-.09-.1-.13-.15-.25-.27-.5-.55-.75-.82-.03-.04-.07-.08-.1-.11-.27-.28-.55-.56-.82-.85-.28-.28-.56-.55-.85-.82-.04-.04-.07-.07-.11-.1-.27-.26-.54-.51-.82-.75-.05-.04-.1-.09-.15-.13-.27-.24-.55-.48-.83-.71-.05-.04-.09-.08-.14-.12-.28-.24-.57-.47-.86-.7,0,0-.01-.01-.02-.02,0,0,0,0,.01,0ZM3.29,4.42c.15-.21,.32-.42,.51-.6,.07-.07,.15-.14,.23-.22l.08-.07c.05-.04,.11-.09,.17-.13,.03-.02,.06-.05,.1-.07,.05-.04,.11-.08,.17-.12,.03-.02,.07-.04,.1-.06,.06-.04,.12-.08,.19-.11,.03-.02,.06-.04,.09-.05,.09-.05,.18-.1,.28-.15,0,0,0,0,0,0,.1-.05,.2-.09,.3-.13,.03-.02,.07-.03,.1-.04,.07-.03,.14-.06,.22-.08,.04-.02,.08-.03,.12-.04,.07-.03,.14-.05,.21-.07,.04-.01,.08-.02,.13-.03,.07-.02,.15-.04,.23-.06,.04,0,.08-.02,.11-.03,.11-.02,.22-.05,.34-.07h.02c.12-.02,.24-.04,.36-.06,.04,0,.08,0,.12-.01,.08,0,.17-.02,.26-.02,.05,0,.09,0,.15-.01,.08,0,.16,0,.25-.01,.05,0,.1,0,.15,0,.06,0,.12,0,.18,0,.13,0,.26,0,.39,0,.05,0,.1,0,.16,0,.18,0,.36,.02,.55,.04,.14,0,.27,.03,.42,.04,.05,0,.1,.01,.14,.02,.09,.01,.19,.03,.28,.04,.05,.01,.11,.02,.17,.03,.08,.01,.17,.03,.26,.04,.06,.01,.12,.02,.19,.04,.08,.01,.17,.03,.25,.05,.06,.01,.13,.03,.19,.04,.08,.02,.16,.04,.25,.06,.07,.02,.13,.03,.2,.05,.08,.02,.17,.04,.25,.07,.07,.02,.14,.04,.2,.06,.08,.02,.17,.05,.26,.08,.07,.02,.13,.04,.2,.06,.09,.02,.18,.06,.26,.08,.07,.02,.13,.04,.19,.06,.1,.03,.19,.06,.29,.1,.06,.02,.12,.04,.18,.06,.11,.04,.22,.08,.32,.12,.05,.02,.1,.03,.15,.05,.16,.06,.32,.12,.47,.19,.02,.01,.04,.02,.07,.03,.14,.06,.27,.11,.41,.17,.06,.02,.11,.05,.17,.07,.1,.05,.21,.09,.31,.14,.07,.03,.13,.06,.2,.09,.1,.04,.19,.09,.28,.13,.07,.03,.14,.07,.21,.1,.06,.03,.12,.06,.18,.09-.18,.12-.35,.23-.53,.35-.02,.01-.03,.02-.05,.03-.2,.13-.39,.27-.59,.41-.31,.22-.63,.45-.94,.68h0s-.04-.02-.06-.02c-.07-.03-.14-.06-.2-.1-.06-.02-.11-.05-.17-.08-.07-.03-.13-.06-.2-.09-.06-.02-.11-.05-.17-.07-.07-.03-.13-.05-.19-.08-.06-.02-.11-.05-.17-.07-.07-.02-.12-.05-.19-.07-.06-.02-.11-.04-.17-.06-.06-.02-.12-.05-.18-.07-.06-.02-.11-.04-.17-.06-.06-.02-.12-.04-.18-.06-.06-.02-.11-.03-.17-.06-.06-.02-.12-.04-.18-.06-.06-.02-.11-.03-.17-.05-.06-.02-.11-.03-.17-.05-.06-.02-.11-.03-.17-.04-.06-.02-.11-.03-.17-.04-.05-.01-.11-.03-.16-.04-.05-.01-.11-.03-.16-.04-.06-.01-.11-.03-.16-.04-.05-.01-.11-.02-.16-.03-.05-.01-.1-.02-.16-.03-.05-.01-.1-.02-.15-.03-.05-.01-.1-.02-.15-.03-.05,0-.1-.01-.15-.02-.05-.01-.1-.01-.15-.02-.05,0-.1-.01-.15-.02-.05,0-.1,0-.15-.01-.05,0-.1,0-.14-.01-.05,0-.1,0-.15,0-.05,0-.1,0-.14,0-.05,0-.1,0-.14,0s-.09,0-.14,0h-.14s-.09,0-.14,0c-.05,0-.09,0-.14,0-.04,0-.09,0-.13,0-.05,0-.09,0-.13,.01-.04,0-.08,.01-.13,.02-.04,0-.08,.01-.13,.02-.04,0-.08,.01-.12,.02-.04,0-.08,.02-.13,.03-.04,0-.08,.02-.12,.02-.04,0-.08,.02-.12,.03-.04,0-.08,.02-.12,.03-.04,.01-.08,.02-.12,.03-.04,.01-.08,.02-.11,.03-.04,.02-.08,.03-.12,.04-.04,.02-.07,.03-.11,.04-.04,.02-.07,.03-.11,.05-.03,.02-.07,.03-.1,.05-.04,.02-.07,.04-.11,.06-.03,.02-.07,.03-.09,.05-.04,.02-.07,.04-.11,.06-.03,.02-.06,.04-.09,.05-.04,.02-.07,.05-.1,.07l-.09,.06s-.07,.05-.1,.08c-.03,.02-.05,.04-.08,.06-.04,.03-.08,.06-.11,.09-.02,.02-.04,.03-.06,.05-.06,.05-.11,.1-.17,.16-.06,.06-.11,.11-.16,.17-.02,.02-.04,.04-.05,.06-.03,.04-.06,.07-.09,.11-.02,.03-.04,.05-.06,.07-.03,.04-.05,.07-.08,.11-.02,.03-.04,.06-.05,.08-.03,.03-.05,.07-.07,.11-.02,.03-.04,.06-.05,.09-.02,.03-.04,.07-.06,.11-.02,.03-.03,.07-.05,.1-.02,.04-.04,.08-.05,.11-.02,.03-.03,.07-.05,.1-.01,.04-.03,.07-.05,.11-.01,.03-.02,.07-.04,.11-.01,.04-.03,.08-.04,.11-.01,.04-.02,.07-.03,.11-.01,.04-.02,.08-.03,.12-.01,.04-.02,.07-.03,.11-.01,.04-.02,.08-.03,.13-.01,.04-.02,.08-.02,.12-.01,.04-.02,.08-.03,.13,0,.04,0,.08-.02,.12,0,.04-.01,.09-.02,.13,0,.04,0,.08-.02,.12,0,.04,0,.09-.01,.14,0,.04,0,.08,0,.13,0,.05,0,.09,0,.14,0,.04,0,.09,0,.13,0,.05,0,.09,0,.14h0s0,0,0,0v.14c0,.05,0,.1,0,.15,0,.05,0,.09,0,.14,0,.05,0,.1,0,.15,0,.05,0,.09,0,.14,0,.05,0,.1,.02,.15,0,.05,0,.09,.02,.14,0,.05,.01,.11,.02,.16,0,.05,.02,.09,.02,.15,0,.05,.02,.11,.02,.16,0,.05,.02,.1,.03,.15,.01,.05,.02,.11,.03,.16,.01,.05,.02,.1,.03,.15,.01,.05,.02,.11,.04,.17,.01,.05,.02,.1,.04,.16,.02,.05,.03,.11,.04,.17,.02,.05,.03,.11,.04,.16,.02,.06,.03,.12,.05,.17,.02,.05,.03,.11,.05,.16,.02,.06,.04,.12,.05,.17,.02,.05,.03,.11,.05,.17,.02,.06,.04,.12,.06,.18,.02,.05,.04,.11,.06,.17,.02,.06,.04,.12,.06,.18,.02,.05,.04,.11,.06,.17l.07,.19c.02,.05,.05,.11,.07,.17,.03,.06,.05,.12,.08,.19,.02,.06,.05,.12,.07,.17,.03,.06,.05,.13,.08,.19,.03,.06,.05,.12,.08,.18,.03,.06,.06,.13,.09,.19,.03,.06,.05,.12,.08,.18,.01,.02,.02,.04,.03,.06-.04,.05-.07,.1-.11,.14-.09,.13-.19,.25-.28,.38-.24,.33-.48,.67-.7,1-.13,.19-.26,.38-.39,.58-.03-.06-.06-.12-.09-.18-.03-.07-.07-.14-.1-.21-.05-.09-.09-.19-.14-.28-.03-.07-.06-.13-.09-.2-.05-.1-.09-.2-.14-.31-.03-.05-.05-.11-.08-.17-.06-.13-.11-.27-.17-.4,0-.03-.02-.05-.03-.08-.06-.16-.13-.32-.19-.48-.02-.05-.04-.09-.05-.15-.04-.11-.08-.21-.12-.32-.02-.06-.04-.12-.06-.18-.03-.09-.07-.19-.1-.28-.02-.07-.04-.13-.06-.19-.03-.09-.06-.18-.08-.27-.02-.07-.04-.13-.06-.19-.03-.09-.05-.18-.08-.27-.02-.07-.03-.13-.05-.19-.02-.09-.05-.17-.07-.26-.02-.07-.03-.13-.05-.2-.02-.08-.04-.17-.06-.25-.01-.06-.03-.13-.04-.19-.02-.08-.04-.17-.06-.25-.01-.06-.02-.12-.03-.18-.02-.09-.03-.18-.05-.27,0-.05-.02-.11-.03-.17-.01-.09-.02-.19-.04-.28,0-.05-.02-.09-.02-.14-.02-.14-.03-.28-.04-.42-.03-.33-.05-.65-.05-.97-.01-1.69,.38-3.1,1.15-4.17Zm-1.09,23.39c.21-2.29,1.07-4.94,2.51-7.65l.12-.23c.06-.1,.12-.21,.17-.32l.1-.18s.05-.09,.07-.13c.01-.03,.03-.06,.05-.08,.04-.07,.08-.14,.12-.21l.06-.1c.47-.8,.99-1.6,1.55-2.39,.42,.71,.89,1.44,1.4,2.16h0s0,0,0,0h0s0,0,0,0c-.51,.73-.98,1.45-1.4,2.16h0s-.33,.59-.33,.59c0,0,0,0,0,0h0s0,0,0,0l-.33,.63h0s-.32,.64-.32,.64l-.12,.25h0s0,0,0,0h0c-1,2.11-1.5,3.98-1.48,5.53,.01,1.37,.42,2.49,1.23,3.3,.85,.85,2.02,1.25,3.47,1.23,1.52-.02,3.33-.52,5.36-1.49h0s.25-.12,.25-.12l.65-.32h0s0,0,0,0h0s.62-.33,.62-.33h0s0,0,0,0h0s0,0,0,0h0s.6-.34,.6-.34h0s0,0,0,0h0c.8-.48,1.62-1.01,2.43-1.59l.51-.36h0s0,0,0,0h0s.04-.04,.04-.04c.09-.07,.18-.14,.28-.21l.26-.2s0,0,0,0l.48-.37h0s0,0,0,0h0c1.29-1.03,2.56-2.16,3.77-3.37,1.21-1.21,2.34-2.48,3.37-3.77h0s.37-.47,.37-.47h0s0,0,0,0h0s.04-.05,.04-.05h0s.4-.53,.4-.53l.32-.44s0,0,0,0l.23-.31h0s0,0,0,0h0c.51-.73,.98-1.46,1.4-2.17h0s.34-.59,.34-.59h0s0,0,0,0l.33-.62h0s.32-.64,.32-.64l.12-.25c.98-2.06,1.47-3.9,1.48-5.43,0-.05,0-.1,0-.15-.02-1.35-.43-2.45-1.23-3.25-1.73-1.73-4.86-1.64-8.83,.25-.08,.04-.17,.08-.25,.12l-.39,.19-.26,.13h0s0,0,0,0h0s-.37,.2-.37,.2h0s-.24,.13-.24,.13h0s0,0,0,0h0s0,0,0,0h0s-.6,.34-.6,.34h0s0,0,0,0h0c-.71,.43-1.44,.89-2.16,1.41h0s0,0,0,0c-.72-.51-1.45-.97-2.16-1.4,.79-.56,1.59-1.08,2.38-1.55h0s.08-.05,.08-.05c.08-.04,.15-.09,.23-.13,.07-.04,.14-.08,.22-.12l.07-.04h.03c.13-.09,.27-.16,.4-.24,.08-.04,.15-.08,.23-.12l.25-.14c1.27-.66,2.52-1.19,3.73-1.59,1.28-.42,2.52-.69,3.66-.79,2.48-.22,4.47,.33,5.75,1.61,1.08,1.08,1.64,2.66,1.66,4.62,0,.36-.01,.74-.05,1.12-.2,2.23-1.02,4.78-2.38,7.4l-.13,.25c-.04,.07-.08,.15-.12,.23-.07,.13-.15,.27-.22,.4l-.05,.09h0c-.04,.07-.08,.15-.12,.22-.04,.07-.08,.13-.12,.2l-.06,.11c-.58,.99-1.24,1.98-1.95,2.94h0c-.13,.19-.27,.37-.4,.55l-.18,.23h0s0,0,0,0h0c-.06,.08-.13,.16-.19,.24l-.05,.07c-.96,1.22-2.02,2.4-3.14,3.54-1.13,1.13-2.32,2.19-3.53,3.15l-.06,.04c-.08,.07-.17,.13-.25,.2l-.23,.18c-.18,.14-.36,.28-.55,.41-.96,.71-1.95,1.36-2.94,1.95l-.08,.05c-.08,.05-.16,.09-.24,.14-.03,.02-.07,.04-.1,.06l-.21,.12c-.21,.12-.42,.23-.63,.34h0c-2.71,1.44-5.35,2.31-7.65,2.52-2.48,.22-4.46-.33-5.74-1.61-1.08-1.08-1.65-2.66-1.66-4.62,0-.36,.01-.74,.05-1.12Zm28.06,2.44c-.88,.88-2.87,.78-5.4-.25,.93-.78,1.82-1.6,2.68-2.46,.86-.86,1.69-1.77,2.47-2.69,.54,1.34,.83,2.53,.84,3.49,.01,.84-.18,1.5-.6,1.91Zm3.3,3.29c-1.28,1.28-3.27,1.84-5.74,1.61-.14-.01-.28-.03-.42-.04-.05,0-.1-.01-.14-.02-.1-.01-.19-.03-.29-.04-.05,0-.11-.02-.17-.03-.09-.02-.18-.03-.26-.05-.06-.01-.12-.02-.18-.03-.09-.02-.17-.03-.26-.05-.07-.01-.13-.03-.19-.04-.08-.02-.17-.04-.26-.06-.06-.01-.13-.03-.19-.05-.08-.02-.17-.04-.26-.07-.07-.02-.13-.03-.19-.05-.09-.03-.18-.05-.26-.08-.07-.02-.13-.04-.19-.06-.09-.03-.18-.06-.28-.09-.06-.02-.12-.04-.19-.06-.1-.03-.19-.07-.29-.1-.06-.02-.11-.04-.17-.06-.11-.04-.23-.08-.34-.13-.04-.01-.08-.03-.13-.05-.16-.06-.32-.12-.48-.19,0,0-.02,0-.03-.01-.15-.06-.3-.12-.44-.18-.05-.02-.1-.05-.15-.07-.11-.05-.22-.1-.33-.14-.06-.03-.12-.06-.18-.08-.1-.05-.2-.09-.3-.14-.07-.03-.13-.06-.2-.1-.06-.03-.12-.06-.19-.09,.71-.46,1.41-.95,2.1-1.47h0s.06,.03,.09,.04c.06,.02,.11,.05,.16,.07,.08,.04,.16,.07,.24,.11,.06,.02,.11,.05,.16,.07,.08,.03,.15,.06,.23,.1,.05,.02,.1,.05,.15,.07,.08,.03,.15,.06,.24,.1,.05,.02,.1,.04,.14,.06,.08,.03,.17,.06,.25,.09,.04,.01,.08,.03,.12,.04,.12,.05,.24,.09,.36,.13,.02,0,.03,.01,.05,.02,.1,.03,.21,.07,.3,.1,.04,.01,.09,.02,.13,.04,.08,.02,.15,.05,.22,.06,.05,.01,.1,.03,.14,.04,.07,.02,.14,.03,.21,.05,.05,.01,.1,.02,.15,.03,.06,.01,.13,.03,.19,.04,.05,.01,.1,.02,.15,.03,.06,.01,.12,.02,.19,.04,.05,0,.1,.02,.15,.02,.06,.01,.12,.02,.18,.03,.05,0,.09,.01,.14,.02,.06,0,.12,.02,.19,.02,.04,0,.08,.01,.13,.02,.07,0,.14,.01,.2,.02,.03,0,.07,0,.1,0,.1,0,.2,0,.3,.01h.07c.07,0,.15,0,.22,0,0,0,.01,0,.02,0,.01,0,.02,0,.03,0,.16,0,.31,0,.46-.03,.15-.01,.3-.03,.44-.06,.01,0,.03,0,.04,0,.14-.02,.27-.06,.4-.09,.02,0,.03,0,.05-.02,.13-.03,.25-.07,.37-.12,.02,0,.04-.01,.06-.02,.12-.05,.23-.1,.34-.15,.02,0,.04-.02,.05-.03,.11-.06,.22-.12,.32-.18,.01-.01,.03-.02,.04-.03,.11-.07,.21-.14,.31-.22,.01,0,.02-.01,.03-.02,.1-.08,.2-.17,.3-.27,.05-.05,.11-.11,.16-.17,.02-.02,.03-.04,.05-.06,.03-.04,.06-.08,.1-.12,.02-.02,.04-.05,.06-.07,.03-.04,.05-.07,.08-.11,.02-.03,.04-.06,.06-.08,.02-.04,.05-.07,.07-.11,.02-.03,.03-.06,.05-.09,.02-.04,.04-.07,.06-.11,.02-.03,.03-.06,.05-.1,.02-.04,.04-.07,.06-.11,.01-.03,.03-.07,.04-.1,.02-.04,.04-.08,.05-.11,.01-.04,.03-.07,.04-.11,.02-.04,.03-.08,.05-.12,.01-.04,.02-.07,.03-.11,.01-.04,.02-.08,.03-.12,.01-.04,.02-.08,.03-.11,.01-.04,.02-.08,.03-.12,0-.04,.02-.08,.02-.12,0-.04,.02-.09,.02-.13,0-.04,.01-.08,.02-.12,0-.04,.01-.09,.02-.14,0-.04,0-.08,.01-.12,0-.05,0-.09,.02-.14,0-.04,0-.08,0-.12,0-.05,0-.09,0-.14,0-.04,0-.09,0-.13,0-.02,0-.05,0-.07,0-.02,0-.05,0-.07,0-.02,0-.04,0-.07,0-.02,0-.05,0-.07,0-.05,0-.1,0-.15,0-.04,0-.09,0-.14,0-.05,0-.1,0-.15,0-.05,0-.09,0-.14,0-.05,0-.1-.02-.16,0-.05,0-.09-.02-.14,0-.05-.01-.11-.02-.16,0-.05-.01-.1-.02-.15,0-.05-.02-.11-.03-.16,0-.05-.02-.1-.02-.15-.01-.05-.02-.11-.03-.17-.01-.05-.02-.1-.03-.15-.01-.05-.03-.11-.04-.17-.01-.05-.02-.1-.04-.15-.02-.06-.03-.12-.05-.17-.01-.05-.03-.11-.04-.16-.02-.06-.03-.12-.05-.18-.02-.05-.03-.1-.05-.16-.02-.06-.04-.12-.06-.18-.02-.05-.03-.11-.05-.16-.02-.06-.04-.12-.06-.19-.02-.05-.04-.11-.06-.16-.02-.06-.05-.12-.07-.19-.02-.05-.04-.11-.06-.16-.02-.07-.05-.13-.07-.19-.02-.05-.05-.11-.06-.17-.03-.06-.05-.13-.08-.19-.02-.05-.05-.11-.07-.17-.03-.07-.06-.13-.08-.19-.03-.06-.05-.12-.08-.17-.03-.07-.06-.13-.09-.2-.03-.06-.06-.12-.08-.18-.01-.02-.02-.04-.03-.06h0s0,0,0,0h0s0,0,0,0h0c.13-.18,.26-.35,.39-.53,.38-.52,.74-1.05,1.09-1.58,.03,.06,.06,.12,.09,.19,.03,.07,.06,.13,.1,.2,.05,.1,.09,.2,.14,.29,.03,.07,.06,.13,.09,.19,.05,.11,.09,.21,.14,.32,.03,.05,.05,.11,.07,.16,.06,.14,.12,.28,.18,.42,0,.02,.02,.04,.02,.05,.06,.16,.13,.32,.19,.48,.02,.04,.03,.09,.05,.14,.04,.11,.08,.22,.12,.33,.02,.06,.04,.12,.06,.18,.03,.1,.07,.19,.1,.29,.02,.07,.04,.13,.06,.19,.03,.09,.06,.18,.08,.27,.02,.07,.04,.13,.06,.2,.03,.09,.05,.17,.08,.26,.02,.07,.03,.13,.05,.2,.02,.09,.04,.17,.07,.26,.02,.07,.03,.13,.05,.2,.02,.08,.04,.17,.06,.25,.02,.07,.03,.13,.04,.19,.02,.08,.04,.17,.05,.25,.01,.06,.02,.12,.04,.19,.02,.09,.03,.17,.04,.26,.01,.06,.02,.12,.03,.17,.02,.1,.03,.19,.04,.28,0,.05,.01,.09,.02,.14,.02,.14,.03,.28,.04,.42,.03,.31,.04,.61,.05,.91,.03,2.06-.54,3.72-1.66,4.84Z" style="fill: #fff;"/>
      <g>
        <path d="M80.59,33.52c-4.91,0-7.31-1.62-7.31-1.62v-5.2h.53c.73,2.68,3.05,6.29,6.78,6.29,2.88,0,3.45-3.49,.37-5.52l-4.1-2.48c-3.9-2.48-4.91-6.13-2.56-8.97,0,0,1.5-1.99,5.85-1.99,4.67,0,6.66,1.18,6.66,1.18v4.35h-.53c-.61-2.52-2.84-4.99-6.13-4.99-2.64,0-3.82,2.88-.28,5.12l4.1,2.56c3.65,2.23,4.71,6.29,2.6,9.1,0,0-1.54,2.19-5.97,2.19Z" style="fill: #fff;"/>
        <path d="M111.52,33.52h-9.26v-.49c1.54-.45,1.62-2.23,1.62-4.3v-7.92c0-2.31-.93-3.41-3.09-3.41-1.06,0-2.27,.81-2.96,2.11v9.22c0,2.23,.2,3.9,1.67,4.26v.53h-9.26v-.53c1.54-.45,1.62-2.19,1.62-4.26V7.98c0-1.42-.45-1.91-2.11-2.52v-.53l8.08-1.71v15.43c.89-2.19,3.7-4.26,6.13-4.26,3.25,0,5.89,1.38,5.89,6.25v8.08c0,2.23,.24,3.94,1.66,4.3v.49Z" style="fill: #fff;"/>
        <path d="M147.18,33.52h-9.26v-.49c1.54-.45,1.62-2.23,1.62-4.3v-8c0-2.15-1.06-3.41-3.05-3.41-1.26,0-2.64,1.22-2.92,2.48v9.02c0,2.23,.2,3.82,1.66,4.22v.49h-9.26v-.49c1.54-.45,1.58-2.15,1.58-4.22v-9.54c0-1.42-.41-1.95-2.07-2.68v-.53l8.08-1.67v4.14c.97-2.31,3.65-4.14,6.05-4.14,3.21,0,5.89,1.3,5.89,6.17v8.16c0,2.23,.2,3.94,1.66,4.3v.49Z" style="fill: #fff;"/>
        <path d="M160.58,30.92c-2.72-.61-4.71-2.44-4.87-7.51h11.98c0-6.98-3.41-9.38-8.53-9.38s-9.87,3.49-9.87,9.83c0,5.12,3.98,9.66,9.3,9.66s7.96-3.05,8.53-5.6l-.53-.2c-.89,2.68-3.9,3.7-6.01,3.21Zm-1.42-16.37c1.93,0,3.02,2.91,3.12,7.61h-6.56c.15-3.7,1.42-7.61,3.44-7.61Z" style="fill: #fff;"/>
        <path d="M67.43,29.85c-.65-1.33-1.23-2.7-1.81-4.07-2.95-6.95-5.91-13.9-8.86-20.85-.08,0-.16,0-.24,0-.05,0-.17-.02-.22,0-.09,.06-.14,.34-.18,.44l-.37,.96c-.25,.64-.49,1.28-.74,1.92-.49,1.28-.99,2.56-1.48,3.83-.49,1.28-.99,2.56-1.48,3.83s-.99,2.56-1.48,3.83l-.12,.31c-1.35,3.51-2.72,7.03-4.64,10.26-.78,1.31-1.9,2.71-3.43,2.72,0,.16,0,.32,0,.49,3.61,0,7.23,0,10.84,0v-.52c-1.71,.28-3.48-.84-4.17-2.42s-.41-3.5,.5-4.97c2.71,0,5.42,0,8.13,0,.76,1.56,1.53,3.13,1.9,4.82,.13,.6,.21,1.25-.04,1.81s-.93,.97-1.49,.73c-.01,.18-.02,.37-.04,.55,4.3,0,8.61,0,12.91,0v-.53c-.67,.16-1.37-.12-1.88-.57s-.84-1.06-1.15-1.66c-.16-.3-.31-.61-.46-.92Zm-10.26-5.49h-7.18l3.4-8.89,3.77,8.89Z" style="fill: #fff;"/>
        <g>
          <path d="M123.38,33.52h-9.26v-.49c1.54-.49,1.62-2.19,1.62-4.26v-9.46c0-1.42-.45-1.99-2.11-2.72v-.53l8.08-1.67v14.38c0,2.23,.2,3.86,1.66,4.26v.49Z" style="fill: #fff;"/>
          <circle cx="117.89" cy="8.59" r="2.52" style="fill: #fff;"/>
        </g>
      </g>
    </g>
  </g>
</svg>