<?xml version="1.0" encoding="UTF-8"?>
<svg id="_圖層_2" data-name="圖層 2" xmlns="http://www.w3.org/2000/svg" width="170.74" height="46.25" xmlns:xlink="http://www.w3.org/1999/xlink" viewBox="0 0 170.74 46.25">
  <defs>
    <clipPath id="clippath">
      <polygon points="20.09 3.69 11.41 3.69 10.5 3.69 1.82 3.69 9.12 35.75 10.99 44.06 20.09 3.69" style="fill: #fff;"/>
    </clipPath>
    <clipPath id="clippath-1">
      <path d="M30.89,44.32l-1.48-6.2-.53-2.33-5.34-23.45-1.96-8.66L12.12,45.73h13.07c.19,0,.38-.01,.57-.03,2.82-.17,5.14-1.37,5.14-1.37Z" style="fill: #fff;"/>
    </clipPath>
    <clipPath id="clippath-2">
      <path d="M39.56,10.72s-2.48-3.61-8.38-5.7c-.05-.02-.09-.04-.15-.06-3.64-1.42-6.6-1.27-6.6-1.27h-1.47l7.3,32.05,1.88,8.32,5.41-24c.02-.09,.03-.18,.04-.27l1.97-9.07Z" style="fill: #fff;"/>
    </clipPath>
    <clipPath id="clippath-3">
      <path d="M40.77,11.43c3.16,3.56,5.08,8.25,5.08,13.39,0,8.35-5.08,15.52-12.32,18.58l7.23-31.97Z" style="fill: #fff;"/>
    </clipPath>
    <clipPath id="clippath-4">
      <polygon points="9.84 45.73 .46 4.52 .46 45.73 9.84 45.73" style="fill: #fff;"/>
    </clipPath>
  </defs>
  <g id="_設計" data-name="設計">
    <g>
      <g>
        <g>
          <path d="M62.95,42.21h-1.2c-.22-.96-.44-1.93-.68-2.89-.17-.68-.21-1.36-.24-2.05-.06,.74-.18,1.48-.35,2.21l-.66,2.73h-1.2l-1.41-6.95h1.41l.56,3.05c.1,.57,.18,1.17,.18,1.75,.06-.56,.15-1.12,.26-1.68l.65-3.12h1.08l.71,3.49c.08,.44,.16,.88,.2,1.31,0-.68,.06-1.35,.19-2.02l.5-2.78h1.44l-1.44,6.95Z" style="fill: #fff;"/>
          <path d="M72.31,41.35c-.41,.57-1.09,.98-1.81,.98s-1.4-.41-1.81-.98c-.53-.73-.62-1.73-.62-2.6s.09-1.86,.62-2.61c.41-.58,1.1-.97,1.81-.97s1.4,.4,1.81,.97c.53,.73,.62,1.74,.62,2.61s-.09,1.85-.62,2.6Zm-1.81-4.93c-.91,0-.98,1.66-.98,2.29s.07,2.29,.98,2.29,.98-1.66,.98-2.29-.07-2.29-.98-2.29Z" style="fill: #fff;"/>
          <path d="M80.25,42.21l-1.71-4.19c.05,.26,.07,.53,.07,.79v3.4h-1.37v-6.95h1.3l1.71,4.2c-.06-.31-.1-.62-.1-.94v-3.26h1.4v6.95h-1.29Z" style="fill: #fff;"/>
          <path d="M87.21,35.27c.51,0,.94,.02,1.41,.24,1.24,.56,1.59,2.03,1.59,3.27,0,1.87-.71,3.44-2.81,3.44h-1.34v-6.95h1.16Zm.26,5.68c1.09,.01,1.36-1.31,1.36-2.18,0-.69-.16-1.58-.71-2.04-.22-.19-.42-.23-.7-.24v4.46h.04Z" style="fill: #fff;"/>
          <path d="M94.48,42.21v-6.95h2.76v1.29h-1.39v1.5h1.22v1.31h-1.22v1.56h1.41v1.28h-2.78Z" style="fill: #fff;"/>
          <path d="M104.21,42.21l-1.22-3.2v3.2h-1.37v-6.95h1.49c.51,0,1.07,.04,1.51,.33,.55,.36,.82,1.04,.82,1.69,0,.79-.31,1.35-.99,1.77l1.21,3.16h-1.45Zm-1.22-3.96c.07,.01,.16,.01,.23,.01,.59,0,.89-.41,.89-.97s-.25-.95-.85-.95h-.26v1.91Z" style="fill: #fff;"/>
          <path d="M118.64,42.21l-1.71-4.19c.05,.26,.07,.53,.07,.79v3.4h-1.37v-6.95h1.3l1.71,4.2c-.06-.31-.1-.62-.1-.94v-3.26h1.4v6.95h-1.29Z" style="fill: #fff;"/>
          <path d="M124.44,42.21v-6.95h2.76v1.29h-1.39v1.5h1.22v1.31h-1.22v1.56h1.41v1.28h-2.78Z" style="fill: #fff;"/>
          <path d="M136.85,42.21h-1.2c-.22-.96-.44-1.93-.68-2.89-.17-.68-.21-1.36-.24-2.05-.06,.74-.18,1.48-.35,2.21l-.66,2.73h-1.2l-1.41-6.95h1.41l.56,3.05c.1,.57,.18,1.17,.18,1.75,.06-.56,.15-1.12,.26-1.68l.65-3.12h1.08l.71,3.49c.08,.44,.16,.88,.2,1.31,0-.68,.06-1.35,.19-2.02l.5-2.78h1.44l-1.44,6.95Z" style="fill: #fff;"/>
          <path d="M142.29,42.21v-6.95h1.37v5.65h1.44v1.3h-2.81Z" style="fill: #fff;"/>
          <path d="M152.13,42.21l-.26-1.17h-1.39l-.25,1.17h-1.38l1.62-6.95h1.44l1.67,6.95h-1.46Zm-.47-2.24c-.15-.67-.29-1.32-.4-2-.04-.3-.08-.61-.11-.92-.06,.98-.26,1.95-.46,2.92h.97Z" style="fill: #fff;"/>
          <path d="M160.59,42.21l-1.71-4.19c.05,.26,.07,.53,.07,.79v3.4h-1.38v-6.95h1.3l1.71,4.2c-.06-.31-.1-.62-.1-.94v-3.26h1.4v6.95h-1.29Z" style="fill: #fff;"/>
          <path d="M167.55,35.27c.51,0,.94,.02,1.41,.24,1.24,.56,1.59,2.03,1.59,3.27,0,1.87-.71,3.44-2.81,3.44h-1.34v-6.95h1.16Zm.26,5.68c1.09,.01,1.36-1.31,1.36-2.18,0-.69-.16-1.58-.71-2.04-.22-.19-.42-.23-.7-.24v4.46h.04Z" style="fill: #fff;"/>
        </g>
        <g>
          <polygon points="138.86 20.69 137.15 20.69 137.15 22.36 129.2 22.36 129.2 23.86 137.15 23.86 137.15 29.15 138.86 29.15 138.86 23.86 146.8 23.86 146.8 22.36 138.86 22.36 138.86 20.69" style="fill: #fff;"/>
          <path d="M110.8,7.2h-1.72v2.18h-3.81v1.5h1.63v5.46h-1.63v1.5h9.33v-1.5h-1.63v-5.46h1.63v-1.5h-3.81v-2.18Zm-2.28,9.14v-5.46h2.85v5.46h-2.85Z" style="fill: #fff;"/>
          <polygon points="110.8 18.48 109.08 18.48 109.08 19.87 105.27 19.87 105.27 21.37 109.08 21.37 109.08 29.15 110.8 29.15 110.8 21.37 114.6 21.37 114.6 19.87 110.8 19.87 110.8 18.48" style="fill: #fff;"/>
          <path d="M119.77,10.87c.88,0,1.69-.51,2.06-1.31l1.1-2.36h-1.65l-.75,1.6c-.16,.35-.51,.57-.9,.57h-4.35V29.15h1.61v-11.31h2.74v11.31h1.61v-11.31h1.63v-1.5h-5.98v-5.46h2.88Z" style="fill: #fff;"/>
          <polygon points="85.15 20.66 86.86 20.66 86.86 10.93 90.67 10.93 90.67 9.43 86.86 9.43 86.86 7.2 85.15 7.2 85.15 9.43 81.34 9.43 81.34 10.93 85.15 10.93 85.15 20.66" style="fill: #fff;"/>
          <path d="M98.94,9.48c0-1.26-1.02-2.28-2.28-2.28h-5.53v13.47h5.61c1.21,0,2.2-.99,2.2-2.2V9.48Zm-6.2,7.05h4.59v1.65c0,.54-.44,.98-.98,.98h-3.61v-2.63Zm4.59-4.98h-4.59v-2.85h3.61c.54,0,.98,.44,.98,.98v1.87Zm-4.59,3.48v-1.98h4.59v1.98h-4.59Z" style="fill: #fff;"/>
          <path d="M141.6,17.74v-6.09c0-1.25-1.02-2.28-2.28-2.28h-2.97l1.01-2.18h-1.65l-1.04,2.23v10.58s4.65,0,4.65,0c1.25,0,2.28-1.02,2.28-2.28Zm-1.61-3.58h-3.72v-3.29h2.73c.55,0,1,.45,1,1v2.29Zm-3.72,1.5h3.72v1.86c0,.55-.45,1-1,1h-2.73v-2.85Z" style="fill: #fff;"/>
          <path d="M168.46,7.2h-15.32V29.15h15.32c1.26,0,2.28-1.02,2.28-2.28V9.48c0-1.26-1.02-2.28-2.28-2.28Zm-13.71,1.5h13.39c.55,0,.99,.44,.99,.99V26.66c0,.55-.44,.99-.99,.99h-13.39V8.7Z" style="fill: #fff;"/>
          <polygon points="162.79 12.07 166.93 12.07 166.93 10.57 162.79 10.57 162.79 9.38 161.08 9.38 161.08 10.57 156.94 10.57 156.94 12.07 161.08 12.07 161.08 13.18 155.86 13.18 155.86 14.68 168.02 14.68 168.02 13.18 162.79 13.18 162.79 12.07" style="fill: #fff;"/>
          <path d="M167.25,19.47v-1.93c0-1.02-.83-1.85-1.85-1.85h-8.78v5.63h8.78c1.02,0,1.85-.83,1.85-1.85Zm-2.27-2.28c.37,0,.66,.3,.66,.66v1.31c0,.37-.3,.66-.66,.66h-6.76v-2.63h6.76Z" style="fill: #fff;"/>
          <path d="M161.71,22.15h-1.61v3.36c0,.65,.53,1.18,1.18,1.18h2.17v-1.5h-1.74v-3.05Z" style="fill: #fff;"/>
          <polygon points="156.19 26.7 157.85 26.7 159.07 22.15 157.4 22.15 156.19 26.7" style="fill: #fff;"/>
          <path d="M167.15,23.65v-1.5h-2.63c-.35,0-.66,.18-.83,.48-.17,.3-.17,.66,0,.96l1.79,3.11h1.84l-1.76-3.05h1.59Z" style="fill: #fff;"/>
          <polygon points="81.82 29.15 83.59 29.15 85.56 21.78 83.8 21.78 81.82 29.15" style="fill: #fff;"/>
          <path d="M89.86,26.91l-1.38-5.13h-1.77l1.52,5.69c.27,.99,1.17,1.69,2.2,1.69h8.51v-1.5h-8.12c-.45,0-.85-.3-.97-.74Z" style="fill: #fff;"/>
          <polygon points="93.9 26.54 92.62 21.78 90.85 21.78 92.13 26.54 93.9 26.54" style="fill: #fff;"/>
          <polygon points="96.26 26.54 98.03 26.54 96.76 21.78 94.99 21.78 96.26 26.54" style="fill: #fff;"/>
          <path d="M129.95,20.01h4.01v-1.5h-2.96l2.13-4.57c.11-.24,.09-.51-.05-.73-.14-.22-.38-.35-.64-.35h-1.23l2.64-5.66h-1.76l-2.54,5.45c-.09,.18-.13,.39-.13,.59v.36c0,.42,.34,.75,.75,.75h1l-1.84,3.96c-.08,.18-.13,.38-.13,.58v.37c0,.41,.34,.75,.75,.75Z" style="fill: #fff;"/>
          <path d="M145.97,13.94c.11-.24,.09-.51-.05-.73-.14-.22-.38-.35-.64-.35h-1.23l2.64-5.66h-1.76l-2.54,5.45c-.09,.18-.13,.39-.13,.59v.36c0,.42,.34,.75,.75,.75h1l-1.84,3.96c-.08,.18-.13,.38-.13,.58v.37c0,.41,.34,.75,.75,.75h4.01v-1.5h-2.96l2.13-4.57Z" style="fill: #fff;"/>
          <path d="M67.07,16.53h4.37c1.25,0,2.26-1.01,2.26-2.26v-4.81c0-1.25-1.01-2.26-2.26-2.26h-12.73v9.33h8.35Zm-6.64-3.92h4.92v2.42h-4.92v-2.42Zm6.64,0h4.92v1.43c0,.54-.44,.98-.98,.98h-3.94v-2.42Zm4.92-1.5h-4.92v-2.42h3.94c.54,0,.98,.44,.98,.98v1.43Zm-6.64,0h-4.92v-2.42h4.92v2.42Z" style="fill: #fff;"/>
          <path d="M70.48,17.43h-1.72v1.52h-5.11v-1.52h-1.72v1.52h-4.53v1.5h4.53v2.25h-4.53v1.5h17.6v-1.5h-4.53v-2.25h4.53v-1.5h-4.53v-1.52Zm-6.83,3.02h5.11v2.25h-5.11v-2.25Z" style="fill: #fff;"/>
          <polygon points="84.17 11.6 82.56 11.6 81.77 20.65 83.38 20.65 84.17 11.6" style="fill: #fff;"/>
          <polygon points="87.84 11.6 88.62 20.56 88.63 20.65 90.25 20.65 89.46 11.69 89.45 11.6 87.84 11.6" style="fill: #fff;"/>
          <polygon points="105.47 29.15 107.1 29.15 108.36 22.05 106.72 22.05 105.47 29.15" style="fill: #fff;"/>
          <polygon points="111.52 22.05 112.77 29.15 114.41 29.15 113.15 22.05 111.52 22.05" style="fill: #fff;"/>
          <polygon points="129.57 29.15 131.52 29.15 134.18 24.54 132.23 24.54 129.57 29.15" style="fill: #fff;"/>
          <polygon points="141.83 24.54 144.49 29.15 146.44 29.15 143.78 24.54 141.83 24.54" style="fill: #fff;"/>
          <polygon points="70.29 24.87 71.85 29.15 73.66 29.15 72.1 24.87 70.29 24.87" style="fill: #fff;"/>
          <polygon points="58.76 29.15 60.57 29.15 62.13 24.87 60.31 24.87 58.76 29.15" style="fill: #fff;"/>
        </g>
      </g>
      <g>
        <polygon points="20.09 3.69 11.41 3.69 10.5 3.69 1.82 3.69 9.12 35.75 10.99 44.06 20.09 3.69" style="fill: #fff;"/>
        <g style="clip-path: url(#clippath);">
          <polygon points="1.32 3.42 10.99 46.21 10.99 46.21 20.66 3.42 1.32 3.42" style="fill: #fff;"/>
        </g>
      </g>
      <g>
        <path d="M30.89,44.32l-1.48-6.2-.53-2.33-5.34-23.45-1.96-8.66L12.12,45.73h13.07c.19,0,.38-.01,.57-.03,2.82-.17,5.14-1.37,5.14-1.37Z" style="fill: #fff;"/>
        <g style="clip-path: url(#clippath-1);">
          <path d="M11.56,46.23h12.21c2.68,0,5.25-.47,7.63-1.34L21.63,1.67,11.56,46.23Z" style="fill: #fff;"/>
        </g>
      </g>
      <g>
        <path d="M39.56,10.72s-2.48-3.61-8.38-5.7c-.05-.02-.09-.04-.15-.06-3.64-1.42-6.6-1.27-6.6-1.27h-1.47l7.3,32.05,1.88,8.32,5.41-24c.02-.09,.03-.18,.04-.27l1.97-9.07Z" style="fill: #fff;"/>
        <g style="clip-path: url(#clippath-2);">
          <path d="M24.48,3.42h-2.05l9.38,41.51c.21-.08,.43-.16,.64-.24l7.77-34.37c-3.91-4.24-9.51-6.89-15.73-6.89Z" style="fill: #fff;"/>
        </g>
      </g>
      <g>
        <path d="M40.77,11.43c3.16,3.56,5.08,8.25,5.08,13.39,0,8.35-5.08,15.52-12.32,18.58l7.23-31.97Z" style="fill: #fff;"/>
        <g style="clip-path: url(#clippath-3);">
          <path d="M32.73,44.68c7.87-3.16,13.43-10.86,13.43-19.86,0-5.6-2.15-10.69-5.67-14.5l-7.77,34.37Z" style="fill: #fff;"/>
        </g>
      </g>
      <g>
        <g>
          <polygon points="9.84 45.73 .46 4.52 .46 45.73 9.84 45.73" style="fill: #fff;"/>
          <g style="clip-path: url(#clippath-4);">
            <polygon points="0 0 0 46.25 10.45 46.25 0 0 0 0" style="fill: #fff;"/>
          </g>
        </g>
        <polygon points="1.72 10.07 .46 3.68 .46 9.22 1.72 10.07" style="fill: #fff;"/>
      </g>
    </g>
  </g>
</svg>