<?xml version="1.0" encoding="UTF-8"?>
<svg id="_圖層_2" data-name="圖層 2" xmlns="http://www.w3.org/2000/svg" width="112.22" height="35.42" viewBox="0 0 112.22 35.42">
  <g id="_設計" data-name="設計">
    <g>
      <g>
        <path d="M27.3,35.42c-.19,0-.37-.07-.51-.22-.26-.28-.25-.72,.03-.99,1.89-1.78,2.89-3.84,2.91-5.98,.01-2.85-1.73-5.56-4.91-7.63-3.27-2.13-7.65-3.32-12.32-3.34-.05,0-.09,0-.14,0-4.16,0-8.18,.95-11.32,2.69-.34,.19-.76,.06-.95-.27-.19-.34-.06-.76,.27-.95,3.38-1.87,7.7-2.9,12.14-2.87,4.94,.03,9.58,1.29,13.08,3.57,3.59,2.34,5.56,5.47,5.54,8.81-.01,2.53-1.17,4.94-3.35,6.99-.14,.13-.31,.19-.48,.19Z" style="fill: #ca8a28;"/>
        <path d="M35.74,13.93c-.43-.55-1.22-.65-1.77-.22l-.05,.04L24.4,0,10.93,25.95l2.71,1.6c.22,.13,.47,.2,.71,.2,.48,0,.95-.25,1.21-.69,.39-.67,.17-1.53-.49-1.92l-.43-.26L24.89,5.13l8.48,12.24,2.15-1.68c.55-.43,.65-1.22,.22-1.77Z" style="fill: #0e282e;"/>
      </g>
      <rect x="47.69" width=".22" height="35.42" style="fill: #0e282e;"/>
      <g>
        <g>
          <path d="M59.6,.42h2.58c1.22,0,2.16,.37,2.84,1.1,.67,.73,1.01,1.79,1.01,3.16s-.33,2.41-1,3.13c-.66,.72-1.62,1.08-2.85,1.08h-2.58V.42Zm2.59,7.85c1.84,0,2.76-1.2,2.76-3.59s-.93-3.64-2.78-3.64h-1.59v7.22h1.6Z" style="fill: #ca8a28;"/>
          <path d="M71.13,1.18l-2.57,7.72h-.69L70.72,.42h1.16l2.8,8.47h-1.03l-2.53-7.72Z" style="fill: #ca8a28;"/>
          <path d="M77.25,8.9V.42h.99v7.85h3.77v.63h-4.76Z" style="fill: #ca8a28;"/>
          <path d="M84.8,8.9V.42h.99V8.9h-.99Z" style="fill: #ca8a28;"/>
          <path d="M93.24,1.18l-2.57,7.72h-.69L92.84,.42h1.16l2.8,8.47h-1.03l-2.53-7.72Z" style="fill: #0e282e;"/>
          <path d="M101.28,5.17h.12c.56,0,.99-.16,1.28-.48,.29-.32,.43-.86,.43-1.63,0-1.37-.61-2.06-1.83-2.06h-.94v7.9h-.99V.42h2.05c.86,0,1.53,.22,2.02,.67,.49,.45,.73,1.09,.73,1.92,0,.67-.14,1.22-.43,1.64-.29,.43-.67,.73-1.13,.91l2.13,3.32h-1.13l-2.29-3.73Z" style="fill: #0e282e;"/>
          <path d="M108.81,8.9V1.05h-2.41V.42h5.83v.63h-2.43v7.85h-.99Z" style="fill: #0e282e;"/>
        </g>
        <g>
          <path d="M84.8,21.21V12.74h.99v7.84h3.76v.63h-4.75Z" style="fill: #ca8a28;"/>
          <path d="M60.53,20.18c-.61-.76-.91-1.83-.91-3.19s.33-2.45,.99-3.22c.66-.77,1.59-1.15,2.8-1.15,.4,0,.78,.05,1.15,.16,.37,.1,.68,.22,.94,.35,.26,.13,.39,.2,.39,.21l-.12,.62s-.13-.07-.38-.2c-.25-.12-.54-.23-.88-.34-.33-.1-.67-.16-1.01-.16-.96,0-1.68,.31-2.14,.93-.47,.62-.7,1.55-.7,2.79s.23,2.14,.68,2.76c.45,.62,1.08,.93,1.89,.93,.65,0,1.12-.16,1.42-.47,.3-.31,.49-.63,.57-.94v-1.91h-1.73v-.56h2.56v4.4h-.48l-.25-.93c-.21,.3-.49,.56-.86,.76-.37,.2-.83,.3-1.38,.3-1.1,0-1.96-.38-2.57-1.15Z" style="fill: #ca8a28;"/>
          <path d="M91.97,21.21V12.74h4.56v.63h-3.57v3.26h3.27v.6h-3.27v3.36h3.85v.63h-4.84Z" style="fill: #ca8a28;"/>
          <path d="M108.47,21.21v-3.51l-2.8-4.96h1.11l2.33,4.17,2.32-4.17h.79l-2.76,4.9v3.57h-.99Z" style="fill: #ca8a28;"/>
          <path d="M71.57,13.49l-2.57,7.71h-.69l2.85-8.47h1.16l2.8,8.47h-1.03l-2.53-7.71Z" style="fill: #ca8a28;"/>
          <path d="M77.66,21.21V12.74h.99v7.84h3.76v.63h-4.75Z" style="fill: #ca8a28;"/>
          <path d="M101.28,17.48h.12c.57,0,.99-.16,1.28-.48,.29-.32,.43-.86,.43-1.63,0-1.37-.61-2.06-1.83-2.06h-.94v7.9h-.99V12.74h2.04c.86,0,1.53,.22,2.02,.67,.49,.45,.73,1.09,.73,1.92,0,.67-.14,1.22-.43,1.64-.29,.43-.66,.73-1.13,.91l2.12,3.32h-1.13l-2.29-3.73Z" style="fill: #ca8a28;"/>
        </g>
        <g>
          <path d="M64.38,26.57v-1.69h-.88v1.69h-3.9v5.11h3.9v3.32h.88v-3.32h3.9v-5.11h-3.9Zm-3.91,4.67v-4.23h3.03v4.23h-3.03Zm3.91,0v-4.23h3.03v4.23h-3.03Z" style="fill: #0e282e;"/>
          <g>
            <rect x="88.54" y="31.68" width="8.93" height=".43" style="fill: #0e282e;"/>
            <path d="M88.54,33.23h1.38c.02,.23,0,.74-.13,1.06-.31,0-.51-.01-.52-.01l-.03,.61c.05,0,.48,.02,1.1,.02,1.36,0,4.05-.16,5.25-.75,.11,.17,.31,.56,.45,.83h1.03c-.38-.74-.84-1.45-1.09-1.77h1.48v-.44h-8.93v.44Zm2.25,0h4.55l-.26,.26s.06,.04,.16,.17c-1.01,.45-3.28,.62-4.56,.64,.12-.39,.12-.84,.11-1.07Z" style="fill: #0e282e;"/>
            <path d="M95.42,26.12h2.06v-.43h-2.06v-.8h-.87v.8h-3.3v-.8h-.87v.8h-1.83v.43h1.83v.65h-1.83v.43h1.83v.83h-1.83v.43h.54c.01,.27,0,.65-.18,.96h-.36v.44h1.83v.69h-1.83v.43h4.27v-.43h-1.56v-.69h2.84c-.12,.31-.26,.58-.43,.82l.7,.51c.28-.38,.49-.81,.66-1.33h.84v-.44h-.72c.14-.59,.23-1.39,.26-2.23h.76c0,.58-.04,2.98,.59,3.97l.73-.47c-.56-.87-.47-3.16-.47-3.93h-1.6c0-.2,0-.26,0-.47v-.18Zm-5.61,3.31c.14-.39,.15-.7,.14-.96h1.7c-.01,.26,0,.57,.14,.96h-1.99Zm4.42,0h-1.52c-.17-.31-.19-.69-.18-.96h.79v-.43h-2.07v-.83h3.28c-.04,.86-.14,1.66-.29,2.23Zm.32-3.13c0,.21,0,.27,0,.47h-3.29v-.65h3.3v.18Z" style="fill: #0e282e;"/>
          </g>
          <g>
            <path d="M82.94,31.01v-.41h-4.24c.13-.27,.18-.44,.24-.73h4v-.44h-5.54v.44h.7c-.13,.41-.48,.98-1.24,1.84l.64,.59c.44-.5,.75-.92,.96-1.27h.72c-.22,.5-.73,1.57-2.21,2.76l.55,.68c1.99-1.59,2.47-3.06,2.59-3.44h.56c-.12,.55-.4,1.99-1.67,3.17l.6,.64c1.58-1.47,1.87-3.27,1.96-3.81h.5c.02,.86-.08,2.68-.77,3.31l.59,.65c1.04-.94,1.09-3.21,1.07-3.99Z" style="fill: #0e282e;"/>
            <path d="M82.33,24.89h-4.42v3.82h4.42v-3.82Zm-.87,3.38h-2.67v-1.26h2.67v1.26Zm0-1.7h-2.67v-1.25h2.67v1.25Z" style="fill: #0e282e;"/>
            <path d="M77.21,24.89h-3.2v10.04h.87v-2.85c.86-.04,1.29-.43,1.49-.76,.64-1.03,.16-2.69-.08-3.24l.92-3.19Zm-1.78,3.41c.22,.46,.6,1.91,.2,2.56-.05,.08-.2,.31-.75,.35v-5.88h1.28l-.8,2.82,.08,.16Z" style="fill: #0e282e;"/>
          </g>
          <g>
            <rect x="105.69" y="29.25" width=".87" height="5.71" style="fill: #0e282e;"/>
            <path d="M108.2,27.45v-2.56h-.88v2.56h-2.66s-.02,0-.02,0c0,.01-.32,1.42-1.79,2.92l.63,.62c.2-.2,.38-.41,.55-.61v4.61h.88v-5.9c.29-.53,.45-.96,.53-1.21h1.88v7.11h.88v-7.11h2.41v7.11h.88v-7.11h.73v-.44h-4.02Z" style="fill: #0e282e;"/>
            <rect x="108.96" y="29.25" width=".87" height="5.71" style="fill: #0e282e;"/>
            <rect x="109.24" y="25.73" width="2.9" height=".45" style="fill: #0e282e;"/>
            <path d="M105.55,25.2l-.82-.31s-.53,1.34-1.86,2.3l.51,.71c1.56-1.12,2.15-2.63,2.17-2.7Z" style="fill: #0e282e;"/>
          </g>
        </g>
      </g>
    </g>
  </g>
</svg>