<?xml version="1.0" encoding="UTF-8"?>
<svg id="_圖層_2" data-name="圖層 2" xmlns="http://www.w3.org/2000/svg" width="116.97" height="42.96" viewBox="0 0 116.97 42.96">
  <g id="_設計" data-name="設計">
    <g>
      <g>
        <polygon points="22.07 18.32 11.32 41.23 14.16 41.23 22.07 24.43 22.07 18.32" style="fill: #0062ae;"/>
        <polygon points="22.08 0 38 34.24 35.16 34.24 22.08 6.1 22.08 0" style="fill: #009644;"/>
        <polygon points="22.08 6.11 5.66 41.23 8.5 41.23 22.08 12.22 22.08 6.11" style="fill: #868686;"/>
        <polygon points="22.08 12.22 32.32 34.24 29.48 34.24 22.08 18.32 22.08 12.22" style="fill: #868686;"/>
        <polygon points="22.08 24.43 26.63 34.24 23.79 34.24 22.08 30.53 22.08 24.43" style="fill: #0062ae;"/>
        <polygon points="0 41.23 2.84 41.23 22.07 0 22.07 0 19.23 0 0 41.23" style="fill: #009644;"/>
      </g>
      <path d="M20.32,35.92l2.46,5.34h-.89l-.8-1.74h-2.24l-.82,1.74h-.44l2.52-5.34h.22Zm-1.31,3.26h1.92l-.95-2.07-.97,2.07Z" style="fill: #868686;"/>
      <path d="M23.26,35.39l.57-.22h.23v2.82c.07-.12,.15-.22,.26-.33,.1-.1,.22-.19,.34-.26,.12-.07,.25-.13,.39-.18,.13-.04,.26-.07,.39-.07,.23,0,.45,.05,.64,.14,.2,.09,.37,.22,.51,.39,.14,.16,.25,.35,.33,.57,.08,.22,.12,.45,.12,.7,0,.22-.03,.43-.08,.63-.05,.21-.13,.4-.23,.58-.09,.18-.21,.34-.34,.49-.14,.15-.29,.27-.46,.37-.17,.1-.34,.19-.54,.24-.19,.05-.39,.08-.6,.08-.3,0-.58-.04-.84-.12-.26-.08-.49-.2-.7-.36v-5.47Zm.8,5.21s.1,.1,.16,.15c.06,.05,.13,.09,.2,.14,.07,.04,.15,.07,.24,.1,.09,.02,.19,.04,.3,.04,.19,0,.36-.04,.51-.13,.15-.09,.28-.22,.39-.38,.11-.16,.19-.36,.25-.58,.06-.22,.09-.46,.09-.73,0-.2-.03-.39-.09-.56-.06-.18-.15-.33-.25-.46-.11-.13-.23-.23-.37-.31-.15-.08-.3-.11-.46-.11-.09,0-.19,.01-.28,.03-.09,.03-.19,.06-.27,.11-.09,.05-.16,.1-.24,.15-.07,.06-.13,.13-.18,.19v2.34Z" style="fill: #868686;"/>
      <path d="M29.76,41.34c-.31,0-.59-.05-.85-.16-.26-.11-.49-.25-.67-.44-.19-.19-.34-.4-.45-.65-.1-.25-.16-.51-.16-.8s.05-.57,.16-.84c.1-.26,.25-.48,.45-.68,.19-.19,.42-.35,.67-.46,.26-.11,.54-.17,.85-.17s.59,.05,.85,.15c.26,.1,.48,.24,.67,.42,.19,.18,.34,.39,.45,.63,.1,.24,.16,.5,.16,.78,0,.3-.05,.59-.16,.86-.11,.27-.25,.5-.45,.7-.19,.2-.41,.36-.67,.48-.26,.12-.54,.17-.85,.17m.15-.3c.16,0,.3-.04,.43-.12,.13-.08,.25-.19,.34-.33,.1-.14,.17-.3,.22-.48,.05-.18,.08-.37,.08-.58,0-.29-.03-.57-.07-.82-.05-.25-.13-.48-.24-.67-.11-.19-.26-.34-.44-.45-.18-.11-.4-.16-.67-.16-.13,0-.26,.04-.39,.12-.12,.08-.24,.19-.33,.32-.1,.13-.17,.29-.23,.47-.06,.18-.09,.37-.09,.57,0,.29,.03,.57,.09,.83,.06,.26,.15,.48,.27,.67,.12,.19,.26,.34,.43,.46,.17,.11,.37,.16,.58,.16" style="fill: #868686;"/>
      <polygon points="33.04 37.23 34.46 40.28 35.83 37.23 36.19 37.23 34.38 41.3 34.1 41.3 32.2 37.23 33.04 37.23" style="fill: #868686;"/>
      <path d="M38.47,41.34c-.27,0-.53-.05-.77-.15-.24-.1-.45-.24-.63-.42-.18-.18-.32-.38-.43-.62-.1-.24-.16-.49-.16-.76,0-.33,.05-.62,.14-.9,.09-.27,.23-.51,.4-.71,.17-.2,.38-.36,.62-.46,.24-.12,.52-.17,.82-.17,.26,0,.51,.05,.73,.14,.22,.1,.4,.22,.57,.37,.16,.16,.28,.34,.37,.54,.09,.2,.13,.42,.13,.64h-3.01c0,.27,.04,.52,.1,.75,.07,.23,.17,.43,.29,.6,.13,.17,.28,.3,.45,.39,.18,.09,.37,.14,.58,.14,.17,0,.34-.03,.5-.09,.16-.05,.31-.13,.44-.22,.13-.1,.24-.2,.33-.32,.09-.12,.16-.24,.19-.36l.23,.1c-.06,.2-.15,.4-.28,.58-.13,.18-.28,.34-.45,.47-.17,.14-.36,.24-.57,.32-.2,.08-.41,.12-.61,.12m.8-2.82c0-.15-.03-.3-.08-.42-.05-.14-.12-.25-.22-.34-.09-.1-.2-.17-.33-.22-.13-.05-.26-.08-.41-.08-.12,0-.24,.03-.35,.08-.11,.05-.21,.13-.29,.22-.09,.09-.16,.21-.22,.34-.05,.13-.09,.27-.1,.42h2Z" style="fill: #868686;"/>
      <path d="M43.37,37.23h.8v.83c.08-.1,.17-.21,.27-.31,.1-.11,.21-.21,.33-.29,.12-.09,.25-.16,.4-.22,.14-.05,.3-.08,.47-.08,.24,0,.46,.05,.65,.15,.19,.1,.36,.24,.5,.41,.14,.17,.24,.37,.32,.6,.07,.23,.11,.48,.11,.73,0,.33-.04,.64-.13,.92-.09,.28-.22,.53-.39,.73-.18,.2-.38,.36-.62,.48-.25,.12-.52,.17-.82,.17-.22,0-.42-.02-.58-.07-.17-.05-.33-.12-.49-.23v1.91h-.8v-5.73Zm.8,2.94c0,.12,.03,.24,.08,.34,.05,.1,.12,.2,.22,.28,.09,.08,.21,.14,.34,.19,.13,.05,.28,.07,.44,.07,.15,0,.29-.04,.42-.11,.13-.08,.25-.19,.34-.33,.1-.14,.18-.31,.24-.5,.06-.19,.09-.41,.09-.64,0-.3-.03-.56-.08-.78-.05-.22-.13-.4-.22-.55-.09-.15-.2-.25-.33-.33-.13-.07-.27-.11-.42-.11-.12,0-.23,.02-.34,.05-.1,.04-.21,.09-.3,.15-.09,.06-.18,.13-.26,.21-.08,.08-.15,.16-.21,.25v1.83Z" style="fill: #868686;"/>
      <path d="M49.75,41.34c-.27,0-.53-.05-.77-.15-.24-.1-.45-.24-.63-.42-.18-.18-.32-.38-.42-.62-.1-.24-.16-.49-.16-.76,0-.33,.04-.62,.14-.9,.09-.27,.22-.51,.4-.71,.17-.2,.38-.36,.63-.46,.24-.12,.51-.17,.81-.17,.27,0,.51,.05,.72,.14,.22,.1,.41,.22,.57,.37,.16,.16,.28,.34,.37,.54,.09,.2,.13,.42,.13,.64h-3c0,.27,.03,.52,.1,.75,.07,.23,.16,.43,.29,.6,.13,.17,.27,.3,.45,.39,.17,.09,.36,.14,.57,.14,.17,0,.34-.03,.5-.09,.16-.05,.3-.13,.43-.22,.13-.1,.24-.2,.33-.32,.09-.12,.16-.24,.19-.36l.23,.1c-.06,.2-.15,.4-.28,.58-.13,.18-.28,.34-.45,.47-.17,.14-.36,.24-.56,.32-.21,.08-.41,.12-.62,.12m.8-2.82c0-.15-.03-.3-.08-.42-.06-.14-.13-.25-.22-.34-.09-.1-.2-.17-.33-.22-.13-.05-.26-.08-.41-.08-.12,0-.24,.03-.34,.08-.11,.05-.21,.13-.3,.22-.09,.09-.16,.21-.21,.34-.06,.13-.09,.27-.1,.42h2Z" style="fill: #868686;"/>
      <path d="M54.36,41.34c-.31,0-.59-.05-.85-.16-.26-.11-.48-.25-.68-.44-.19-.19-.34-.4-.44-.65-.1-.25-.16-.51-.16-.8s.05-.57,.16-.84c.1-.26,.25-.48,.44-.68,.19-.19,.42-.35,.68-.46,.26-.11,.54-.17,.85-.17s.58,.05,.85,.15c.26,.1,.48,.24,.67,.42,.19,.18,.34,.39,.45,.63,.1,.24,.16,.5,.16,.78,0,.3-.06,.59-.16,.86-.11,.27-.25,.5-.45,.7-.19,.2-.41,.36-.67,.48-.26,.12-.54,.17-.85,.17m.15-.3c.16,0,.3-.04,.43-.12,.13-.08,.25-.19,.34-.33,.09-.14,.17-.3,.22-.48,.05-.18,.08-.37,.08-.58,0-.29-.02-.57-.07-.82-.05-.25-.13-.48-.24-.67-.11-.19-.25-.34-.44-.45-.18-.11-.4-.16-.66-.16-.13,0-.26,.04-.39,.12-.12,.08-.23,.19-.33,.32-.09,.13-.17,.29-.23,.47-.06,.18-.09,.37-.09,.57,0,.29,.03,.57,.09,.83,.06,.26,.15,.48,.27,.67,.12,.19,.27,.34,.43,.46,.17,.11,.37,.16,.59,.16" style="fill: #868686;"/>
      <path d="M57.25,37.23h.8v.83c.08-.1,.17-.21,.27-.31,.1-.11,.21-.21,.33-.29,.12-.09,.25-.16,.4-.22,.14-.05,.3-.08,.47-.08,.24,0,.45,.05,.65,.15,.19,.1,.36,.24,.5,.41,.14,.17,.24,.37,.32,.6,.07,.23,.11,.48,.11,.73,0,.33-.04,.64-.13,.92-.09,.28-.22,.53-.39,.73-.18,.2-.38,.36-.62,.48-.24,.12-.52,.17-.82,.17-.22,0-.42-.02-.58-.07-.16-.05-.33-.12-.49-.23v1.91h-.8v-5.73Zm.8,2.94c0,.12,.03,.24,.08,.34,.05,.1,.13,.2,.22,.28,.09,.08,.21,.14,.34,.19,.13,.05,.28,.07,.43,.07s.29-.04,.42-.11c.13-.08,.25-.19,.34-.33,.1-.14,.18-.31,.23-.5,.06-.19,.09-.41,.09-.64,0-.3-.03-.56-.08-.78-.05-.22-.13-.4-.22-.55-.09-.15-.21-.25-.33-.33-.13-.07-.27-.11-.42-.11-.12,0-.23,.02-.33,.05-.11,.04-.21,.09-.3,.15-.1,.06-.18,.13-.26,.21-.08,.08-.15,.16-.22,.25v1.83Z" style="fill: #868686;"/>
      <polygon points="62.68 41.26 61.88 41.26 61.88 35.39 62.45 35.17 62.68 35.17 62.68 41.26" style="fill: #868686;"/>
      <path d="M65.44,41.34c-.27,0-.53-.05-.77-.15-.24-.1-.45-.24-.63-.42-.18-.18-.32-.38-.42-.62-.1-.24-.16-.49-.16-.76,0-.33,.04-.62,.14-.9,.09-.27,.23-.51,.4-.71,.17-.2,.38-.36,.63-.46,.24-.12,.52-.17,.81-.17,.27,0,.51,.05,.73,.14,.22,.1,.41,.22,.57,.37,.16,.16,.28,.34,.37,.54,.09,.2,.13,.42,.13,.64h-3c0,.27,.03,.52,.1,.75,.07,.23,.17,.43,.3,.6,.13,.17,.28,.3,.45,.39,.17,.09,.36,.14,.57,.14,.18,0,.34-.03,.5-.09,.16-.05,.3-.13,.43-.22,.13-.1,.24-.2,.33-.32,.09-.12,.16-.24,.2-.36l.23,.1c-.06,.2-.15,.4-.28,.58-.13,.18-.28,.34-.45,.47-.17,.14-.36,.24-.56,.32-.2,.08-.41,.12-.62,.12m.8-2.82c0-.15-.03-.3-.08-.42-.05-.14-.13-.25-.22-.34-.1-.1-.21-.17-.33-.22-.13-.05-.26-.08-.4-.08-.12,0-.24,.03-.35,.08-.11,.05-.21,.13-.29,.22-.09,.09-.16,.21-.21,.34-.06,.13-.09,.27-.1,.42h2Z" style="fill: #868686;"/>
      <path d="M67.9,37.57c.12-.03,.24-.08,.34-.14,.1-.06,.2-.13,.27-.21,.08-.08,.14-.16,.18-.25,.05-.09,.07-.19,.07-.29,0-.05-.01-.11-.03-.15-.03-.05-.05-.07-.09-.07s-.06,0-.09,.02c-.02,.01-.05,.03-.07,.05-.02,.01-.05,.03-.08,.04-.03,.01-.07,.02-.12,.02-.05,0-.1-.01-.15-.03-.04-.02-.09-.05-.12-.09-.03-.04-.06-.09-.08-.14-.02-.05-.03-.11-.03-.18s.02-.13,.04-.19c.03-.06,.07-.11,.12-.15,.04-.04,.1-.08,.17-.1,.07-.02,.13-.04,.21-.04,.1,0,.19,.02,.27,.06,.09,.04,.16,.1,.22,.18,.06,.07,.11,.16,.14,.26,.04,.1,.06,.21,.06,.31,0,.18-.03,.34-.1,.49-.07,.15-.15,.28-.27,.39-.11,.11-.24,.2-.39,.27-.15,.07-.3,.11-.48,.12v-.18Z" style="fill: #868686;"/>
      <path d="M71.17,41.07c.1,0,.21-.02,.3-.05,.09-.03,.17-.07,.24-.13,.06-.06,.12-.12,.15-.19,.04-.07,.06-.15,.06-.22,0-.12-.03-.24-.09-.32-.06-.09-.14-.17-.24-.25-.1-.08-.22-.14-.35-.2-.13-.06-.26-.12-.39-.19-.13-.06-.27-.13-.4-.2-.13-.08-.24-.16-.34-.26-.1-.1-.18-.2-.25-.33-.06-.12-.09-.28-.09-.45,0-.16,.03-.31,.1-.45,.07-.14,.16-.26,.28-.36,.12-.1,.27-.18,.44-.24,.16-.06,.35-.09,.55-.09,.13,0,.26,.01,.38,.03,.12,.02,.22,.05,.34,.1,.11,.06,.22,.13,.33,.23,.11,.1,.23,.22,.35,.38l-.3,.26c-.15-.25-.32-.43-.51-.56-.19-.12-.39-.18-.61-.18-.12,0-.22,.01-.31,.04-.1,.03-.18,.07-.24,.11-.07,.05-.12,.11-.16,.17-.04,.07-.06,.13-.06,.21,0,.12,.03,.23,.1,.32,.07,.09,.15,.17,.27,.24,.11,.07,.24,.14,.37,.2,.14,.06,.28,.12,.43,.19,.15,.06,.29,.13,.43,.2,.14,.08,.27,.16,.38,.25,.11,.1,.2,.21,.27,.33,.06,.12,.1,.27,.1,.44s-.03,.33-.1,.48c-.06,.15-.16,.28-.29,.39-.13,.11-.29,.19-.48,.26-.19,.06-.42,.09-.68,.09-.12,0-.24,0-.36-.03-.12-.02-.25-.05-.37-.11-.13-.06-.25-.13-.38-.23-.12-.1-.25-.23-.37-.39l.33-.3c.1,.13,.19,.25,.28,.35,.09,.1,.18,.18,.27,.24,.09,.06,.19,.11,.29,.13,.1,.03,.21,.04,.32,.04" style="fill: #868686;"/>
      <path d="M77.55,41.34c-.27,0-.53-.05-.77-.15-.24-.1-.45-.24-.63-.42-.18-.18-.32-.38-.42-.62-.1-.24-.16-.49-.16-.76,0-.33,.04-.62,.14-.9,.09-.27,.23-.51,.4-.71,.17-.2,.38-.36,.62-.46,.25-.12,.52-.17,.82-.17,.27,0,.51,.05,.73,.14,.22,.1,.41,.22,.57,.37,.16,.16,.28,.34,.37,.54,.08,.2,.13,.42,.13,.64h-3c0,.27,.03,.52,.1,.75,.07,.23,.17,.43,.29,.6,.13,.17,.28,.3,.45,.39,.17,.09,.36,.14,.57,.14,.17,0,.34-.03,.5-.09,.16-.05,.3-.13,.43-.22,.13-.1,.24-.2,.33-.32,.09-.12,.16-.24,.19-.36l.23,.1c-.06,.2-.15,.4-.28,.58-.13,.18-.28,.34-.45,.47-.17,.14-.36,.24-.56,.32-.21,.08-.41,.12-.62,.12m.8-2.82c0-.15-.03-.3-.08-.42-.06-.14-.13-.25-.22-.34-.09-.1-.21-.17-.33-.22-.13-.05-.26-.08-.4-.08-.12,0-.24,.03-.35,.08-.11,.05-.21,.13-.29,.22-.09,.09-.16,.21-.21,.34-.06,.13-.09,.27-.1,.42h2Z" style="fill: #868686;"/>
      <polygon points="80.01 41.26 79.58 41.26 81.26 39.2 79.83 37.23 80.78 37.23 81.77 38.58 82.87 37.23 83.31 37.23 81.97 38.86 83.69 41.26 82.76 41.26 81.47 39.48 80.01 41.26" style="fill: #868686;"/>
      <path d="M83.93,37.23h.8v.83c.08-.1,.17-.21,.27-.31,.1-.11,.21-.21,.33-.29,.12-.09,.25-.16,.4-.22,.14-.05,.3-.08,.47-.08,.24,0,.46,.05,.65,.15,.19,.1,.36,.24,.49,.41,.14,.17,.25,.37,.32,.6,.08,.23,.12,.48,.12,.73,0,.33-.04,.64-.14,.92-.09,.28-.22,.53-.39,.73-.17,.2-.38,.36-.62,.48-.24,.12-.52,.17-.82,.17-.22,0-.42-.02-.58-.07-.16-.05-.33-.12-.49-.23v1.91h-.8v-5.73Zm.8,2.94c0,.12,.03,.24,.07,.34,.06,.1,.13,.2,.22,.28,.09,.08,.21,.14,.34,.19,.13,.05,.28,.07,.44,.07,.15,0,.29-.04,.42-.11,.13-.08,.24-.19,.34-.33,.1-.14,.18-.31,.23-.5,.06-.19,.09-.41,.09-.64,0-.3-.03-.56-.08-.78-.05-.22-.13-.4-.22-.55-.09-.15-.2-.25-.33-.33-.13-.07-.27-.11-.42-.11-.11,0-.22,.02-.33,.05-.1,.04-.21,.09-.3,.15-.09,.06-.18,.13-.26,.21-.08,.08-.15,.16-.21,.25v1.83Z" style="fill: #868686;"/>
      <path d="M90.31,41.34c-.27,0-.53-.05-.77-.15-.24-.1-.45-.24-.63-.42-.18-.18-.32-.38-.43-.62-.1-.24-.15-.49-.15-.76,0-.33,.04-.62,.14-.9,.09-.27,.22-.51,.4-.71,.17-.2,.38-.36,.62-.46,.25-.12,.52-.17,.82-.17,.26,0,.51,.05,.73,.14,.22,.1,.41,.22,.57,.37,.16,.16,.28,.34,.37,.54,.09,.2,.13,.42,.13,.64h-3.01c0,.27,.04,.52,.1,.75,.07,.23,.17,.43,.29,.6,.13,.17,.28,.3,.45,.39,.17,.09,.36,.14,.57,.14,.17,0,.34-.03,.5-.09,.16-.05,.3-.13,.43-.22,.13-.1,.24-.2,.33-.32,.09-.12,.16-.24,.19-.36l.23,.1c-.06,.2-.15,.4-.28,.58-.13,.18-.28,.34-.45,.47-.18,.14-.36,.24-.56,.32-.21,.08-.41,.12-.62,.12m.8-2.82c0-.15-.03-.3-.08-.42-.06-.14-.13-.25-.22-.34-.09-.1-.21-.17-.33-.22-.13-.05-.26-.08-.4-.08-.13,0-.24,.03-.35,.08-.11,.05-.21,.13-.29,.22-.09,.09-.16,.21-.21,.34-.06,.13-.09,.27-.1,.42h2Z" style="fill: #868686;"/>
      <path d="M94.67,41.34c-.26,0-.51-.05-.74-.16-.23-.1-.43-.25-.6-.42-.17-.18-.31-.39-.4-.64-.1-.24-.15-.5-.15-.77,0-.31,.06-.59,.16-.86,.11-.27,.26-.5,.45-.7,.19-.2,.41-.36,.66-.47,.25-.12,.53-.17,.82-.17,.22,0,.43,.03,.62,.07s.35,.12,.49,.2c.14,.09,.24,.19,.32,.31,.08,.12,.12,.25,.12,.38,0,.06-.02,.12-.04,.17-.03,.05-.07,.1-.12,.14-.05,.04-.1,.07-.17,.09-.06,.02-.13,.03-.19,.03-.07,0-.14-.01-.19-.04-.06-.02-.11-.06-.15-.1-.04-.04-.07-.09-.09-.14-.02-.05-.04-.1-.04-.16,0-.09,0-.18-.03-.26-.02-.08-.05-.15-.1-.21-.05-.06-.12-.1-.21-.13-.09-.04-.2-.05-.34-.05-.18,0-.34,.04-.49,.11-.15,.07-.27,.17-.37,.3-.1,.12-.18,.27-.23,.43-.05,.17-.08,.35-.08,.54,0,.25,.03,.49,.1,.73,.07,.23,.16,.43,.28,.6,.12,.17,.27,.31,.44,.41,.17,.1,.37,.15,.58,.15,.18,0,.35-.03,.48-.09,.14-.06,.26-.13,.36-.24,.1-.1,.19-.22,.26-.35,.07-.13,.13-.28,.19-.42l.24,.1c-.07,.25-.16,.48-.27,.68-.12,.2-.25,.37-.41,.51-.15,.14-.33,.25-.52,.32-.2,.07-.41,.11-.64,.11" style="fill: #868686;"/>
      <path d="M99.41,40.74c-.11,.18-.25,.33-.43,.44-.18,.11-.4,.16-.66,.16-.13,0-.25-.02-.35-.07-.1-.05-.18-.11-.25-.19-.06-.08-.11-.18-.14-.3-.03-.12-.05-.24-.05-.38v-2.84h-.7v-.19c.22,0,.41-.04,.55-.12,.15-.08,.26-.19,.36-.33,.09-.14,.17-.3,.22-.48,.06-.19,.1-.38,.14-.58h.22v1.37h.91v.34h-.91v2.84c0,.06,.01,.11,.04,.17,.02,.05,.05,.1,.09,.14,.04,.04,.08,.07,.14,.09,.05,.02,.11,.03,.17,.03,.09,0,.17-.03,.25-.07,.07-.04,.14-.1,.19-.16l.2,.14Z" style="fill: #868686;"/>
      <path d="M102.86,41.26h-.8v-.55c-.09,.07-.19,.15-.28,.22-.09,.07-.19,.14-.3,.2-.11,.06-.23,.11-.36,.15-.13,.04-.28,.06-.45,.06s-.3-.03-.43-.07c-.12-.05-.24-.12-.33-.21-.09-.09-.16-.2-.21-.32-.05-.12-.07-.26-.07-.4,0-.18,.04-.33,.11-.47,.07-.14,.16-.26,.28-.37,.12-.11,.25-.21,.42-.29,.16-.08,.33-.16,.5-.22,.18-.07,.36-.13,.55-.18,.19-.05,.37-.1,.55-.15v-.25c0-.18-.02-.34-.06-.46-.03-.13-.09-.23-.15-.31-.07-.08-.15-.13-.25-.17-.1-.03-.2-.05-.32-.05-.13,0-.25,.01-.33,.05-.09,.04-.15,.08-.2,.14-.05,.06-.08,.12-.1,.19-.02,.07-.03,.15-.03,.22s0,.14-.02,.2c-.01,.06-.03,.12-.06,.17-.03,.05-.07,.09-.12,.12-.05,.03-.12,.04-.19,.04-.13,0-.23-.04-.31-.13-.07-.09-.12-.2-.12-.33s.04-.26,.13-.38c.09-.11,.21-.21,.35-.3,.15-.08,.33-.15,.52-.2,.19-.05,.4-.07,.62-.07,.26,0,.49,.03,.67,.08,.18,.05,.33,.12,.44,.21,.11,.09,.19,.21,.25,.34,.05,.13,.07,.28,.07,.44v3.04Zm-.8-2.34c-.17,.05-.35,.12-.54,.2-.19,.08-.36,.17-.52,.27-.16,.1-.29,.22-.39,.34-.1,.12-.15,.26-.15,.4,0,.1,.02,.2,.05,.28,.04,.09,.08,.17,.14,.23,.06,.06,.13,.12,.21,.15,.08,.04,.16,.06,.24,.06,.09,0,.18-.01,.26-.04,.08-.03,.16-.06,.24-.1,.07-.04,.15-.08,.23-.14,.07-.06,.15-.11,.24-.17v-1.5Z" style="fill: #868686;"/>
      <path d="M106.07,40.74c-.1,.18-.25,.33-.43,.44-.18,.11-.4,.16-.66,.16-.13,0-.25-.02-.35-.07-.1-.05-.18-.11-.24-.19-.06-.08-.11-.18-.14-.3-.03-.12-.05-.24-.05-.38v-2.84h-.7v-.19c.22,0,.41-.04,.55-.12,.15-.08,.26-.19,.36-.33,.09-.14,.16-.3,.22-.48,.06-.19,.1-.38,.14-.58h.23v1.37h.91v.34h-.91v2.84c0,.06,.01,.11,.03,.17,.02,.05,.06,.1,.09,.14,.03,.04,.08,.07,.13,.09,.05,.02,.11,.03,.17,.03,.09,0,.17-.03,.24-.07,.08-.04,.14-.1,.19-.16l.2,.14Z" style="fill: #868686;"/>
      <path d="M106.99,35.17c.06,0,.12,0,.18,.03,.06,.02,.1,.05,.15,.09,.04,.04,.07,.08,.1,.13,.03,.05,.04,.1,.04,.15,0,.05-.01,.11-.04,.16-.03,.04-.06,.09-.1,.13-.04,.04-.09,.07-.15,.09-.06,.01-.12,.03-.18,.03-.06,0-.12-.01-.18-.03-.05-.02-.1-.05-.15-.09-.04-.04-.07-.08-.1-.13-.02-.05-.03-.1-.03-.16,0-.05,.01-.1,.03-.15,.03-.05,.06-.09,.1-.13,.04-.04,.09-.06,.15-.09,.06-.02,.11-.03,.18-.03m-.39,2.21l.56-.23h.24v4.11h-.8v-3.88Z" style="fill: #868686;"/>
      <path d="M110.33,41.34c-.31,0-.59-.05-.85-.16-.26-.11-.48-.25-.67-.44-.19-.19-.34-.4-.45-.65-.1-.25-.16-.51-.16-.8s.05-.57,.16-.84c.1-.26,.25-.48,.45-.68,.19-.19,.42-.35,.67-.46,.26-.11,.54-.17,.85-.17s.59,.05,.85,.15c.26,.1,.48,.24,.67,.42,.19,.18,.34,.39,.44,.63,.11,.24,.16,.5,.16,.78,0,.3-.05,.59-.16,.86-.1,.27-.25,.5-.44,.7-.19,.2-.42,.36-.67,.48-.26,.12-.54,.17-.85,.17m.15-.3c.16,0,.31-.04,.44-.12,.13-.08,.24-.19,.34-.33,.1-.14,.17-.3,.22-.48,.06-.18,.08-.37,.08-.58,0-.29-.03-.57-.07-.82-.05-.25-.13-.48-.24-.67-.11-.19-.26-.34-.44-.45-.18-.11-.4-.16-.66-.16-.13,0-.27,.04-.39,.12-.13,.08-.24,.19-.33,.32-.09,.13-.17,.29-.23,.47-.06,.18-.09,.37-.09,.57,0,.29,.03,.57,.09,.83,.06,.26,.15,.48,.27,.67,.12,.19,.26,.34,.43,.46,.17,.11,.37,.16,.58,.16" style="fill: #868686;"/>
      <path d="M113.21,37.23h.8v.74c.25-.27,.5-.48,.76-.61,.26-.13,.53-.2,.8-.2,.14,0,.27,.03,.4,.1,.12,.06,.23,.15,.32,.26,.09,.11,.16,.24,.22,.39,.05,.15,.08,.31,.08,.47v2.89h-.8v-2.75c0-.27-.06-.47-.18-.61-.12-.13-.27-.21-.46-.21-.09,0-.18,.01-.27,.04-.09,.03-.19,.07-.29,.12-.1,.06-.19,.11-.29,.19-.1,.07-.19,.15-.28,.24v2.98h-.8v-4.03Z" style="fill: #868686;"/>
      <path d="M95.29,24.68h-4.62v1.21h4.81v1.36h-4.81v1.33h5.64v1.44h-5.64v1.67c.28,0,.57,0,.87,.02,2.27,0,3.96-.05,5.07-.15l-.32,1.99c-5.98,0-9.64-.14-10.96-.42-1.2-.29-2.15-.75-2.86-1.38-.08-.06-.14-.12-.21-.17-.61,.77-1.43,1.58-2.48,2.42l-1.04-1.82c1.02-.68,1.8-1.43,2.35-2.23-.57-.99-1.18-2.29-1.84-3.92l1.59-.59c.44,1.07,.84,1.96,1.19,2.67,.04-.09,.07-.17,.09-.25,.26-.83,.43-1.99,.51-3.46h-3.35v-1.23c1.21-1.41,2.3-2.97,3.26-4.66h-3.5v-1.44h5.53v1.67c-1.1,1.77-2.09,3.18-2.97,4.24h2.9c-.05,2.18-.27,3.93-.66,5.24-.16,.62-.37,1.18-.61,1.68,.47,.53,1.15,.93,2.05,1.21,.73,.23,1.95,.39,3.65,.49v-1.59h-4.58v-1.44h4.58v-1.33h-3.75v-1.36h3.75v-1.21h-3.52v-1.36h3.52v-1.55h-4.58v-1.44h4.58v-1.4h-3.52v-1.36h3.52v-1.36h1.74v1.36h4.62v2.76h1.1v1.44h-1.1v2.92Zm-4.62-5.76v1.4h2.88v-1.4h-2.88Zm0,2.84v1.55h2.88v-1.55h-2.88Z" style="fill: #868686;"/>
      <path d="M103,16.2c.28,.64,.55,1.36,.81,2.16h2.71v1.59h-7.35v-1.59h2.84c-.26-.68-.56-1.31-.87-1.87l1.86-.28Zm2.73,10.72v5.6h-4.24v1.4h-1.74v-7.01h5.98Zm-5.87-5.64h5.91v1.51h-5.91v-1.51Zm0,2.8h5.91v1.51h-5.91v-1.51Zm1.63,6.85h2.5v-2.42h-2.5v2.42Zm12.95-14.24v4.45c0,.48,.24,.72,.72,.72h1.51v1.76h-1.95c-.74,0-1.29-.16-1.63-.47-.37-.31-.55-.87-.55-1.67v-3.2h-2.92c-.04,1.3-.15,2.24-.34,2.82-.23,.76-.83,1.65-1.8,2.67l-1.42-1.23c.81-.88,1.31-1.58,1.51-2.1,.15-.48,.23-1.73,.23-3.75h6.63Zm-7.59,7.35h8.39v1.36c-.46,1.94-1.23,3.62-2.33,5.04,1.09,.66,2.44,1.22,4.07,1.7l-1.16,1.7c-1.8-.63-3.24-1.31-4.3-2.04-1.1,.85-2.56,1.58-4.39,2.2l-1.06-1.61c1.64-.52,2.96-1.12,3.96-1.8-1.11-1.06-2.03-2.29-2.75-3.69l1.59-.93c.68,1.38,1.55,2.51,2.59,3.39,.87-1.02,1.51-2.27,1.91-3.73h-6.53v-1.59Z" style="fill: #868686;"/>
      <path d="M38.96,20.07h6.9v-3.59h2v3.59h6.97v8.85h-6.97v4.76h-2v-4.76h-6.9v-8.85Zm6.9,7.17v-5.49h-4.87v5.49h4.87Zm6.95,0v-5.49h-4.95v5.49h4.95Z" style="fill: #868686;"/>
      <path d="M58.48,17.21h6.03v1.32c-.45,1.41-.97,2.92-1.56,4.51,.5,.85,.86,1.63,1.08,2.31,.27,.71,.41,1.31,.41,1.81v.03c.53-.31,1-.65,1.41-1,.33-.27,.65-.63,.96-1.08h-2.53v-1.48h11.81v1.48h-7.33c-.2,.38-.42,.71-.66,1.01h7.45c-.04,3.97-.42,6.24-1.12,6.81-.37,.49-1.67,.75-3.91,.75l-.37-1.76c.56,.1,1.02,.14,1.39,.14,.7,0,1.23-.15,1.59-.46,.33-.28,.54-1.62,.64-4.03h-.68c-.81,1.56-1.63,2.73-2.45,3.49-1.03,1.01-2.56,1.88-4.59,2.6l-.93-1.41c1.86-.62,3.3-1.37,4.33-2.26,.67-.6,1.29-1.4,1.85-2.42h-1.31c-.54,.83-1.22,1.54-2.03,2.13-.98,.77-2.23,1.48-3.77,2.14l-1.02-1.26c1.38-.52,2.53-1.09,3.46-1.7,.52-.33,1.01-.76,1.46-1.3h-1.36c-.62,.53-1.36,1.02-2.23,1.47l-.32-.4c-.11,.24-.25,.45-.39,.6-.41,.5-1.31,.75-2.68,.75l-.56-1.76c.35,.05,.66,.07,.93,.07,.37,0,.64-.09,.79-.25,.2-.14,.31-.43,.31-.9,0-.56-.1-1.09-.29-1.59-.21-.65-.6-1.41-1.18-2.28,.71-1.76,1.22-3.25,1.55-4.45h-2.32v14.85h-1.85V17.21Zm6.49-.14h9.9v5.71h-9.9v-5.71Zm1.77,2.17h6.32v-.95h-6.32v.95Zm6.32,2.27v-1.08h-6.32v1.08h6.32Z" style="fill: #868686;"/>
    </g>
  </g>
</svg>