<?xml version="1.0" encoding="UTF-8"?>
<svg id="_圖層_2" data-name="圖層 2" xmlns="http://www.w3.org/2000/svg" width="112.87" height="25.15" viewBox="0 0 112.87 25.15">
  <g id="_設計" data-name="設計">
    <g>
      <path d="M25.14,5.63c-.02-1.68-.53-3.09-1.53-4.1-2.22-2.22-6.44-2.01-11.04,.53h0C10.04,.66,7.63-.03,5.6,0,3.94,.03,2.53,.54,1.53,1.54,.49,2.58-.02,4.06,0,5.81c.02,1.99,.71,4.32,2.06,6.76h0s0,0,0,0h0s0,0,0,0C.67,15.1-.02,17.5,0,19.52c.02,1.68,.53,3.09,1.53,4.1,1.05,1.05,2.55,1.56,4.33,1.53,1.97-.03,4.29-.72,6.7-2.05h0s0,0,0,0c2.53,1.39,4.94,2.08,6.97,2.05,1.66-.03,3.07-.53,4.07-1.53,1.04-1.04,1.55-2.52,1.53-4.27-.02-1.99-.71-4.32-2.06-6.76h0s0,0,0,0c1.39-2.51,2.08-4.91,2.05-6.94ZM15.31,15.31c-.93,.93-1.91,1.79-2.92,2.55l-.08,.06c-.05,.04-.1,.08-.15,.11l-.12,.09c-.12,.09-.24,.17-.36,.25h0c-.67,.47-1.35,.89-1.99,1.23l-.03,.02c-.07,.04-.14,.07-.2,.11-.05,.03-.11,.06-.16,.08h0c-.14,.07-.28,.14-.42,.2h0c-1.91,.87-3.43,1-4.07,.36-.27-.27-.4-.7-.4-1.25,0-.75,.26-1.73,.76-2.83,.06-.14,.13-.28,.2-.42,.03-.06,.05-.11,.09-.17h0s0,0,0,0h0c.04-.07,.07-.14,.11-.21v-.03c.36-.64,.77-1.32,1.24-1.99,.08-.12,.17-.24,.26-.36l.09-.12c.04-.06,.08-.11,.13-.17l.18-.24h0s0,0,0,0l-.18-.24c-.04-.06-.09-.11-.13-.17l-.09-.13c-.09-.12-.17-.24-.26-.36-.43-.61-.81-1.23-1.14-1.82l-.1-.19s-.04-.08-.06-.11c-.02-.04-.04-.07-.06-.11-.03-.06-.06-.11-.09-.17h0c-.04-.09-.08-.17-.12-.25-.03-.06-.05-.11-.08-.17-.5-1.1-.76-2.08-.76-2.83,0-.55,.13-.98,.4-1.25,.64-.64,2.17-.51,4.08,.35,.14,.06,.27,.13,.42,.2h0c.06,.03,.11,.06,.17,.09,.04,.02,.07,.04,.11,.06,.04,.02,.07,.04,.11,.06l.18,.1c.59,.33,1.21,.71,1.82,1.14,.06,.04,.12,.08,.18,.13,.06,.04,.12,.08,.18,.13l.13,.09c.05,.04,.11,.08,.16,.12l.06,.05c1,.75,1.98,1.61,2.92,2.54,.88,.88,1.69,1.79,2.41,2.73-.72,.94-1.53,1.86-2.4,2.74Zm5.05-10.53c.26,.26,.39,.66,.4,1.17,.01,.66-.18,1.5-.56,2.46-.52-.62-1.08-1.23-1.66-1.81-.58-.58-1.19-1.13-1.81-1.66,1.7-.69,3.04-.76,3.63-.17Zm-6.55,1.76s.01,0,.02-.01c.1-.07,.19-.13,.29-.19,.14-.09,.29-.19,.43-.27,.12-.08,.25-.15,.37-.22,.02-.01,.03-.02,.05-.03,.1-.06,.21-.12,.31-.18,.09,.07,.17,.14,.26,.21,.08,.07,.17,.14,.25,.21,.12,.1,.23,.2,.35,.3,.08,.07,.15,.13,.23,.2,.13,.12,.26,.23,.38,.35,.06,.06,.13,.11,.19,.17,.19,.18,.37,.36,.56,.54,.18,.18,.36,.37,.54,.56,.06,.06,.12,.13,.17,.19,.12,.13,.24,.25,.35,.38,.07,.08,.14,.16,.2,.23,.1,.12,.2,.23,.3,.35,.07,.08,.14,.17,.21,.25,.07,.09,.14,.17,.21,.26-.06,.1-.12,.21-.18,.31-.05,.08-.1,.16-.15,.25-.05,.08-.1,.17-.15,.25-.1,.17-.21,.34-.32,.5-.04,.06-.07,.11-.12,.17,0,0,0,0-.01-.01-.15-.19-.31-.38-.47-.57-.03-.03-.05-.07-.08-.1-.16-.19-.32-.37-.48-.55-.03-.03-.06-.07-.09-.1-.17-.18-.34-.37-.51-.55-.02-.03-.05-.05-.07-.08-.18-.19-.37-.38-.55-.57-.19-.19-.38-.37-.57-.55-.02-.02-.05-.05-.07-.07-.18-.17-.37-.34-.55-.51-.03-.03-.07-.06-.1-.09-.18-.16-.37-.32-.56-.48-.03-.03-.06-.05-.09-.08-.19-.16-.38-.32-.58-.47,0,0,0,0-.01-.01,0,0,0,0,0,0ZM2.22,2.97c.1-.14,.22-.28,.34-.41,.05-.05,.1-.1,.16-.14l.05-.05s.08-.06,.11-.09c.02-.02,.04-.03,.07-.05,.04-.03,.07-.05,.11-.08,.02-.01,.04-.03,.07-.04,.04-.03,.08-.05,.13-.08,.02-.01,.04-.03,.06-.04,.06-.04,.12-.07,.19-.1,0,0,0,0,0,0,.07-.03,.13-.06,.21-.09,.02-.01,.04-.02,.07-.03,.05-.02,.1-.04,.15-.06,.03-.01,.05-.02,.08-.03,.05-.02,.09-.03,.14-.05,.03,0,.06-.02,.09-.02,.05-.01,.1-.03,.15-.04,.03,0,.05-.01,.08-.02,.08-.02,.15-.03,.23-.05h.01c.08-.02,.16-.03,.25-.04,.03,0,.06,0,.08,0,.06,0,.12-.01,.17-.01,.03,0,.06,0,.1,0,.05,0,.11,0,.17,0,.03,0,.07,0,.1,0,.04,0,.08,0,.12,0,.09,0,.17,0,.27,0,.03,0,.07,0,.11,0,.12,0,.24,.01,.37,.02,.09,0,.18,.02,.28,.03,.03,0,.06,0,.1,.01,.06,0,.13,.02,.19,.03,.04,0,.08,.01,.12,.02,.06,0,.12,.02,.17,.03,.04,0,.08,.02,.13,.03,.06,0,.11,.02,.17,.03,.04,0,.09,.02,.13,.03,.05,.01,.11,.03,.17,.04,.04,.01,.09,.02,.13,.03,.06,.01,.11,.03,.17,.04,.04,.01,.09,.03,.14,.04,.06,.02,.12,.03,.17,.05,.04,.01,.09,.03,.14,.04,.06,.02,.12,.04,.18,.06,.04,.01,.09,.03,.13,.04,.06,.02,.13,.04,.19,.07,.04,.01,.08,.03,.12,.04,.07,.03,.15,.05,.22,.08,.03,.01,.07,.02,.1,.04,.11,.04,.21,.08,.32,.13,.01,0,.03,.01,.05,.02,.09,.04,.18,.08,.27,.12,.04,.02,.07,.03,.11,.05,.07,.03,.14,.06,.21,.09,.04,.02,.09,.04,.13,.06,.06,.03,.13,.06,.19,.09,.05,.02,.09,.05,.14,.07,.04,.02,.08,.04,.12,.06-.12,.08-.24,.16-.35,.24-.01,0-.02,.02-.03,.02-.13,.09-.27,.18-.4,.27-.21,.15-.42,.3-.63,.46h0s-.02-.01-.04-.02c-.04-.02-.09-.04-.14-.06-.04-.02-.08-.04-.11-.05-.04-.02-.09-.04-.13-.06-.04-.02-.08-.03-.11-.05-.04-.02-.09-.04-.13-.05-.04-.01-.08-.03-.11-.05-.04-.02-.08-.03-.13-.05-.04-.01-.08-.03-.12-.04-.04-.02-.08-.03-.12-.05-.04-.01-.07-.03-.11-.04-.04-.01-.08-.03-.12-.04-.04-.01-.08-.02-.11-.04-.04-.01-.08-.03-.12-.04-.04-.01-.07-.02-.11-.03-.04-.01-.08-.02-.11-.04-.04-.01-.07-.02-.11-.03-.04-.01-.08-.02-.11-.03-.03,0-.07-.02-.11-.03-.04,0-.07-.02-.11-.03-.04,0-.07-.02-.11-.03-.04,0-.07-.02-.11-.02-.03,0-.07-.01-.11-.02-.03,0-.07-.01-.1-.02-.03,0-.07-.01-.1-.02-.03,0-.07,0-.1-.01-.03,0-.07,0-.1-.01-.03,0-.07,0-.1-.01-.03,0-.07,0-.1,0-.03,0-.06,0-.1,0-.03,0-.07,0-.1,0-.03,0-.06,0-.1,0-.03,0-.06,0-.1,0s-.06,0-.09,0h-.09s-.06,0-.09,0c-.03,0-.06,0-.09,0-.03,0-.06,0-.09,0-.03,0-.06,0-.09,0-.03,0-.06,0-.09,.01-.03,0-.06,0-.09,.01-.03,0-.06,0-.08,.01-.03,0-.06,.01-.09,.02-.03,0-.05,.01-.08,.02-.03,0-.05,.01-.08,.02-.03,0-.05,.01-.08,.02-.03,0-.05,.02-.08,.02-.02,0-.05,.02-.08,.02-.03,.01-.05,.02-.08,.03-.02,.01-.05,.02-.07,.03-.02,.01-.05,.02-.08,.03-.02,.01-.05,.02-.07,.03-.02,.01-.05,.03-.08,.04-.02,.01-.04,.02-.06,.03-.03,.01-.05,.03-.07,.04-.02,.01-.04,.03-.06,.04-.02,.02-.05,.03-.07,.05l-.06,.04s-.05,.04-.07,.05c-.02,.01-.04,.03-.05,.04-.03,.02-.05,.04-.08,.06-.01,.01-.03,.02-.04,.04-.04,.04-.08,.07-.11,.11-.04,.04-.07,.07-.11,.11-.01,.01-.02,.03-.04,.04-.02,.02-.04,.05-.06,.08-.01,.02-.03,.03-.04,.05-.02,.02-.04,.05-.06,.07-.01,.02-.02,.04-.04,.06-.02,.02-.03,.05-.05,.07-.01,.02-.02,.04-.03,.06-.01,.02-.03,.05-.04,.07-.01,.02-.02,.04-.03,.06-.01,.03-.02,.05-.04,.08-.01,.02-.02,.04-.03,.07,0,.02-.02,.05-.03,.08,0,.02-.02,.05-.03,.07,0,.02-.02,.05-.03,.08,0,.02-.02,.05-.02,.07,0,.03-.02,.05-.02,.08,0,.02-.01,.05-.02,.07,0,.03-.01,.06-.02,.09,0,.02-.01,.05-.02,.08,0,.03-.01,.06-.02,.09,0,.03,0,.05-.01,.08,0,.03,0,.06-.01,.09,0,.03,0,.06-.01,.08,0,.03,0,.06,0,.09,0,.03,0,.06,0,.09,0,.03,0,.06,0,.09,0,.03,0,.06,0,.09,0,.03,0,.06,0,.1h0s0,0,0,0v.09s0,.07,0,.1c0,.03,0,.06,0,.09,0,.03,0,.07,0,.1,0,.03,0,.06,0,.1,0,.03,0,.07,.01,.1,0,.03,0,.06,.01,.1,0,.04,0,.07,.01,.11,0,.03,.01,.06,.02,.1,0,.03,.01,.07,.02,.11,0,.03,.01,.07,.02,.1,0,.04,.01,.07,.02,.11,0,.03,.01,.07,.02,.1,0,.04,.02,.07,.03,.11,0,.03,.02,.07,.02,.11,.01,.04,.02,.08,.03,.11,.01,.04,.02,.07,.03,.11,.01,.04,.02,.08,.03,.12,.01,.03,.02,.07,.03,.11,.01,.04,.03,.08,.04,.12,.01,.04,.02,.08,.04,.11,.01,.04,.03,.08,.04,.12,.01,.04,.03,.08,.04,.11,.02,.04,.03,.08,.04,.12,.02,.04,.03,.08,.04,.11l.05,.12s.03,.08,.05,.11c.02,.04,.04,.08,.05,.13,.02,.04,.03,.08,.05,.12,.02,.04,.04,.09,.06,.13,.02,.04,.04,.08,.05,.12,.02,.04,.04,.09,.06,.13,.02,.04,.04,.08,.06,.12,0,.01,.01,.03,.02,.04-.02,.03-.05,.06-.07,.1-.06,.08-.13,.17-.19,.26-.16,.22-.32,.45-.47,.68-.09,.13-.18,.26-.26,.39-.02-.04-.04-.08-.06-.12-.02-.05-.05-.1-.07-.14-.03-.06-.06-.13-.09-.19-.02-.04-.04-.09-.06-.13-.03-.07-.06-.14-.09-.21-.02-.04-.04-.08-.05-.11-.04-.09-.08-.18-.11-.27,0-.02-.01-.03-.02-.05-.04-.11-.08-.21-.13-.32-.01-.03-.03-.06-.04-.1-.03-.07-.06-.14-.08-.22-.01-.04-.03-.08-.04-.12-.02-.06-.05-.13-.07-.19-.01-.04-.03-.09-.04-.13-.02-.06-.04-.12-.06-.18-.01-.04-.03-.09-.04-.13-.02-.06-.04-.12-.05-.18-.01-.04-.02-.09-.04-.13-.02-.06-.03-.12-.04-.17-.01-.04-.02-.09-.03-.13-.01-.06-.03-.11-.04-.17,0-.04-.02-.09-.03-.13-.01-.06-.02-.12-.04-.17,0-.04-.02-.08-.02-.12-.01-.06-.02-.12-.03-.18,0-.04-.01-.07-.02-.11,0-.06-.02-.13-.03-.19,0-.03-.01-.06-.01-.09-.01-.1-.02-.19-.03-.28-.02-.22-.03-.44-.03-.65,0-1.14,.26-2.09,.77-2.81Zm-.74,15.75c.14-1.54,.72-3.32,1.69-5.15l.08-.15c.04-.07,.08-.14,.12-.21l.07-.12s.03-.06,.05-.09c0-.02,.02-.04,.03-.05,.03-.05,.06-.1,.08-.14l.04-.07c.32-.54,.67-1.08,1.04-1.61,.28,.48,.6,.97,.94,1.45h0s0,0,0,0h0s0,0,0,0c-.34,.49-.66,.98-.94,1.46h0s-.22,.4-.22,.4c0,0,0,0,0,0h0s0,0,0,0l-.22,.42h0s-.21,.43-.21,.43l-.08,.17h0s0,0,0,0h0c-.68,1.42-1.01,2.68-1,3.73,0,.92,.28,1.67,.83,2.22,.57,.57,1.36,.84,2.34,.83,1.02-.02,2.24-.35,3.61-1h0s.17-.08,.17-.08l.44-.22h0s0,0,0,0h0s.42-.22,.42-.22h0s0,0,0,0h0s0,0,0,0h0s.41-.23,.41-.23h0s0,0,0,0h0c.54-.32,1.09-.68,1.63-1.07l.34-.24h0s0,0,0,0h0s.03-.02,.03-.02c.06-.05,.12-.09,.19-.14l.17-.13s0,0,0,0l.33-.25h0s0,0,0,0h0c.87-.69,1.72-1.45,2.54-2.27,.82-.82,1.58-1.67,2.27-2.54h0s.25-.32,.25-.32h0s0,0,0,0h0s.02-.03,.02-.03h0s.27-.36,.27-.36l.22-.3s0,0,0,0l.15-.21h0s0,0,0,0h0c.34-.49,.66-.98,.94-1.46h0s.23-.4,.23-.4h0s0,0,0,0l.22-.42h0s.21-.43,.21-.43l.08-.17c.66-1.39,.99-2.62,1-3.65,0-.03,0-.07,0-.1-.01-.91-.29-1.65-.83-2.19-1.16-1.16-3.27-1.1-5.94,.17-.06,.03-.11,.05-.17,.08l-.26,.13-.18,.09h0s0,0,0,0h0s-.25,.14-.25,.14h0s-.16,.09-.16,.09h0s0,0,0,0h0s0,0,0,0h0s-.41,.23-.41,.23h0s0,0,0,0h0c-.48,.29-.97,.6-1.46,.95h0s0,0,0,0c-.49-.34-.97-.66-1.45-.94,.53-.38,1.07-.73,1.61-1.04h0s.05-.03,.05-.03c.05-.03,.1-.06,.15-.09,.05-.03,.1-.06,.15-.08l.05-.03h.02c.09-.06,.18-.11,.27-.16,.05-.03,.1-.05,.15-.08l.17-.09c.85-.44,1.7-.8,2.51-1.07,.86-.28,1.69-.47,2.47-.53,1.67-.15,3.01,.22,3.87,1.08,.73,.72,1.11,1.79,1.12,3.11,0,.24,0,.5-.03,.76-.13,1.5-.69,3.22-1.6,4.98l-.09,.17s-.05,.1-.08,.15c-.05,.09-.1,.18-.15,.27l-.03,.06h0s-.05,.1-.08,.15c-.03,.04-.05,.09-.08,.14l-.04,.07c-.39,.66-.83,1.33-1.31,1.98h0c-.09,.13-.18,.25-.27,.37l-.12,.15h0s0,0,0,0h0c-.04,.05-.08,.11-.13,.16l-.04,.04c-.65,.82-1.36,1.62-2.12,2.38-.76,.76-1.56,1.47-2.38,2.12l-.04,.03c-.06,.05-.11,.09-.17,.13l-.15,.12c-.12,.1-.25,.19-.37,.28-.65,.48-1.31,.92-1.98,1.31l-.05,.03c-.05,.03-.1,.06-.16,.09-.02,.01-.05,.03-.07,.04l-.14,.08c-.14,.08-.28,.16-.42,.23h0c-1.82,.97-3.6,1.56-5.15,1.7-1.67,.15-3-.22-3.87-1.08-.73-.72-1.11-1.79-1.12-3.11,0-.24,0-.5,.03-.76Zm18.89,1.64c-.59,.59-1.93,.53-3.63-.17,.62-.52,1.23-1.08,1.81-1.66,.58-.58,1.14-1.19,1.66-1.81,.37,.9,.56,1.71,.57,2.35,0,.57-.12,1.01-.4,1.29Zm2.22,2.22c-.86,.86-2.2,1.24-3.87,1.09-.09,0-.19-.02-.28-.03-.03,0-.06,0-.09-.01-.06,0-.13-.02-.19-.03-.04,0-.08-.01-.11-.02-.06-.01-.12-.02-.18-.03-.04,0-.08-.01-.12-.02-.06-.01-.12-.02-.17-.03-.04,0-.09-.02-.13-.03-.06-.01-.11-.03-.17-.04-.04,0-.09-.02-.13-.03-.06-.01-.12-.03-.17-.04-.04-.01-.09-.02-.13-.03-.06-.02-.12-.04-.18-.05-.04-.01-.09-.03-.13-.04-.06-.02-.12-.04-.19-.06-.04-.01-.08-.03-.13-.04-.06-.02-.13-.04-.2-.07-.04-.01-.08-.03-.12-.04-.08-.03-.15-.06-.23-.08-.03,0-.06-.02-.09-.03-.11-.04-.21-.08-.32-.13,0,0-.01,0-.02,0-.1-.04-.2-.08-.3-.12-.03-.02-.07-.03-.1-.05-.07-.03-.15-.06-.22-.1-.04-.02-.08-.04-.12-.06-.07-.03-.13-.06-.2-.09-.04-.02-.09-.04-.13-.07-.04-.02-.08-.04-.13-.06,.48-.31,.95-.64,1.41-.99h0s.04,.02,.06,.03c.04,.02,.07,.03,.11,.05,.05,.02,.11,.05,.16,.07,.04,.01,.07,.03,.11,.05,.05,.02,.1,.04,.16,.06,.03,.02,.07,.03,.1,.05,.05,.02,.1,.04,.16,.06,.03,.01,.06,.02,.1,.04,.06,.02,.11,.04,.17,.06,.03,0,.05,.02,.08,.03,.08,.03,.16,.06,.24,.08,.01,0,.02,0,.03,.01,.07,.02,.14,.04,.21,.07,.03,0,.06,.02,.09,.03,.05,.01,.1,.03,.15,.04,.03,0,.06,.02,.1,.03,.05,.01,.09,.02,.14,.03,.03,0,.06,.02,.1,.02,.04,0,.09,.02,.13,.03,.03,0,.07,.01,.1,.02,.04,0,.08,.02,.13,.03,.03,0,.07,.01,.1,.02,.04,0,.08,.01,.12,.02,.03,0,.06,0,.09,.01,.04,0,.08,.01,.13,.02,.03,0,.06,0,.09,.01,.05,0,.09,0,.14,.01,.02,0,.05,0,.07,0,.07,0,.14,0,.2,0h.05s.1,0,.15,0c0,0,0,0,.01,0,0,0,.01,0,.02,0,.11,0,.21,0,.31-.02,.1,0,.2-.02,.3-.04,0,0,.02,0,.02,0,.09-.02,.18-.04,.27-.06,.01,0,.02,0,.03-.01,.09-.02,.17-.05,.25-.08,.01,0,.03,0,.04-.01,.08-.03,.16-.07,.23-.1,.01,0,.02-.01,.04-.02,.07-.04,.15-.08,.22-.12,0,0,.02-.01,.03-.02,.07-.05,.14-.1,.21-.15,0,0,.01-.01,.02-.02,.07-.06,.14-.12,.2-.18,.04-.03,.07-.07,.11-.11,.01-.01,.02-.03,.03-.04,.02-.02,.04-.05,.07-.08,.01-.01,.03-.03,.04-.05,.02-.02,.04-.05,.05-.07,.01-.02,.03-.04,.04-.06,.01-.02,.03-.05,.05-.07,.01-.02,.02-.04,.03-.06,.01-.02,.03-.05,.04-.07,.01-.02,.02-.04,.03-.06,.01-.02,.03-.05,.04-.08,0-.02,.02-.04,.03-.07,.01-.02,.02-.05,.03-.08,0-.02,.02-.05,.03-.07,.01-.03,.02-.05,.03-.08,0-.02,.01-.05,.02-.07,0-.03,.02-.05,.02-.08,0-.02,.01-.05,.02-.08,0-.03,.01-.06,.02-.08,0-.03,.01-.05,.02-.08,0-.03,.01-.06,.02-.09,0-.02,0-.05,.01-.08,0-.03,0-.06,.01-.09,0-.03,0-.05,0-.08,0-.03,0-.06,.01-.09,0-.03,0-.06,0-.08,0-.03,0-.06,0-.1,0-.03,0-.06,0-.09,0-.02,0-.03,0-.05,0-.02,0-.03,0-.05,0-.02,0-.03,0-.05,0-.02,0-.03,0-.05,0-.03,0-.07,0-.1,0-.03,0-.06,0-.09,0-.03,0-.07,0-.1,0-.03,0-.06,0-.09,0-.03,0-.07-.01-.11,0-.03,0-.06-.01-.09,0-.04,0-.07-.01-.11,0-.03,0-.07-.01-.1,0-.04-.01-.07-.02-.11,0-.03-.01-.07-.02-.1,0-.04-.01-.07-.02-.11,0-.03-.02-.07-.02-.1,0-.04-.02-.08-.03-.12,0-.03-.02-.07-.02-.1-.01-.04-.02-.08-.03-.12,0-.03-.02-.07-.03-.11-.01-.04-.02-.08-.03-.12-.01-.03-.02-.07-.03-.11-.01-.04-.03-.08-.04-.12-.01-.04-.02-.07-.03-.11-.01-.04-.03-.08-.04-.12-.01-.04-.03-.07-.04-.11-.02-.04-.03-.08-.05-.12-.01-.04-.03-.07-.04-.11-.02-.04-.03-.09-.05-.13-.02-.04-.03-.07-.04-.11-.02-.04-.04-.09-.05-.13-.02-.04-.03-.08-.05-.11-.02-.04-.04-.09-.06-.13-.02-.04-.04-.08-.05-.12-.02-.04-.04-.09-.06-.13-.02-.04-.04-.08-.06-.12,0-.02-.01-.03-.02-.04h0s0,0,0,0h0s0,0,0,0h0c.09-.12,.18-.24,.26-.35,.26-.35,.5-.71,.73-1.06,.02,.04,.04,.08,.06,.13,.02,.04,.04,.09,.07,.13,.03,.07,.06,.13,.09,.2,.02,.04,.04,.09,.06,.13,.03,.07,.06,.14,.09,.21,.02,.04,.03,.07,.05,.11,.04,.1,.08,.19,.12,.29,0,.01,.01,.02,.02,.04,.04,.11,.08,.21,.13,.32,.01,.03,.02,.06,.04,.09,.03,.08,.05,.15,.08,.22,.01,.04,.03,.08,.04,.12,.02,.07,.04,.13,.07,.19,.01,.04,.03,.09,.04,.13,.02,.06,.04,.12,.06,.18,.01,.04,.03,.09,.04,.13,.02,.06,.03,.12,.05,.18,.01,.04,.02,.09,.04,.13,.02,.06,.03,.12,.04,.17,.01,.04,.02,.09,.03,.13,.01,.06,.03,.11,.04,.17,.01,.04,.02,.09,.03,.13,.01,.06,.02,.11,.03,.17,0,.04,.02,.08,.02,.12,.01,.06,.02,.12,.03,.17,0,.04,.01,.08,.02,.12,.01,.07,.02,.13,.03,.19,0,.03,0,.06,.01,.1,.01,.09,.02,.19,.03,.28,.02,.21,.03,.41,.03,.61,.02,1.39-.36,2.5-1.12,3.26Z" style="fill: #231815;"/>
      <g>
        <path d="M54.24,22.56c-3.31,0-4.92-1.09-4.92-1.09v-3.5h.36c.49,1.8,2.05,4.24,4.56,4.24,1.94,0,2.32-2.35,.25-3.72l-2.76-1.67c-2.62-1.67-3.31-4.13-1.72-6.04,0,0,1.01-1.34,3.94-1.34,3.14,0,4.48,.79,4.48,.79v2.92h-.36c-.41-1.69-1.91-3.36-4.13-3.36-1.78,0-2.57,1.94-.19,3.44l2.76,1.72c2.46,1.5,3.17,4.24,1.75,6.12,0,0-1.04,1.48-4.02,1.48Z" style="fill: #231815;"/>
        <path d="M75.06,22.56h-6.23v-.33c1.04-.3,1.09-1.5,1.09-2.9v-5.33c0-1.56-.63-2.3-2.08-2.3-.71,0-1.53,.55-2,1.42v6.2c0,1.5,.14,2.62,1.12,2.87v.36h-6.23v-.36c1.04-.3,1.09-1.48,1.09-2.87V5.37c0-.96-.3-1.28-1.42-1.69v-.36l5.44-1.15V12.56c.6-1.48,2.49-2.87,4.13-2.87,2.19,0,3.96,.93,3.96,4.21v5.44c0,1.5,.16,2.65,1.12,2.9v.33Z" style="fill: #231815;"/>
        <path d="M99.07,22.56h-6.23v-.33c1.04-.3,1.09-1.5,1.09-2.9v-5.38c0-1.45-.71-2.3-2.05-2.3-.85,0-1.78,.82-1.97,1.67v6.07c0,1.5,.14,2.57,1.12,2.84v.33h-6.23v-.33c1.04-.3,1.07-1.45,1.07-2.84v-6.42c0-.96-.27-1.31-1.39-1.8v-.36l5.44-1.12v2.79c.66-1.56,2.46-2.79,4.07-2.79,2.16,0,3.96,.87,3.96,4.15v5.49c0,1.5,.14,2.65,1.12,2.9v.33Z" style="fill: #231815;"/>
        <path d="M108.09,20.82c-1.83-.41-3.17-1.64-3.28-5.06h8.06c0-4.7-2.3-6.31-5.74-6.31s-6.64,2.35-6.64,6.61c0,3.44,2.68,6.51,6.26,6.51s5.36-2.05,5.74-3.77l-.36-.14c-.6,1.8-2.62,2.49-4.05,2.16Zm-.96-11.02c1.3,0,2.03,1.96,2.1,5.12h-4.41c.1-2.49,.95-5.12,2.31-5.12Z" style="fill: #231815;"/>
        <path d="M45.39,20.09c-.44-.9-.83-1.82-1.22-2.74-1.99-4.68-3.98-9.36-5.97-14.03-.05,0-.11,0-.16,0-.04,0-.12-.01-.15,0-.06,.04-.1,.23-.12,.29l-.25,.65c-.17,.43-.33,.86-.5,1.29-.33,.86-.66,1.72-1,2.58l-1,2.58c-.33,.86-.66,1.72-1,2.58l-.08,.21c-.91,2.36-1.83,4.73-3.12,6.91-.53,.88-1.28,1.82-2.31,1.83,0,.11,0,.22,0,.33,2.43,0,4.87,0,7.3,0v-.35c-1.15,.19-2.34-.56-2.81-1.63s-.28-2.35,.34-3.34c1.82,0,3.65,0,5.47,0,.51,1.05,1.03,2.11,1.28,3.25,.09,.4,.14,.84-.02,1.22s-.62,.65-1,.49c0,.12-.02,.25-.02,.37,2.9,0,5.79,0,8.69,0v-.36c-.45,.11-.93-.08-1.26-.38s-.57-.71-.77-1.11c-.11-.21-.21-.41-.31-.62Zm-6.9-3.7h-4.83l2.29-5.98,2.54,5.98Z" style="fill: #231815;"/>
        <g>
          <path d="M83.05,22.56h-6.23v-.33c1.04-.33,1.09-1.48,1.09-2.87v-6.37c0-.96-.3-1.34-1.42-1.83v-.36l5.44-1.12v9.68c0,1.5,.14,2.6,1.12,2.87v.33Z" style="fill: #231815;"/>
          <circle cx="79.35" cy="5.78" r="1.7" style="fill: #231815;"/>
        </g>
      </g>
    </g>
  </g>
</svg>