<?xml version="1.0" encoding="UTF-8"?>
<svg id="_圖層_2" data-name="圖層 2" xmlns="http://www.w3.org/2000/svg" width="173.23" height="54.7" viewBox="0 0 173.23 54.7">
  <g id="_設計" data-name="設計">
    <g>
      <path d="M42.15,54.65c-.6,0-1.1-.51-1.1-1.1,0-.28,.14-.6,.32-.78,2.94-2.76,4.45-5.92,4.5-9.23,.05-4.41-2.66-8.59-7.58-11.8-5.05-3.21-11.8-5.05-19.01-5.1h-.23c-6.43,0-12.63,1.47-17.45,4.18-.55,.28-1.19,.09-1.47-.46-.28-.51-.09-1.15,.41-1.42,5.24-2.89,11.89-4.5,18.74-4.41,7.62,.05,14.79,2.02,20.21,5.51,5.56,3.63,8.59,8.45,8.54,13.59,0,3.9-1.79,7.62-5.19,10.79-.18,.14-.41,.23-.69,.23h0Z" style="fill: #fff;"/>
      <path d="M55.15,21.49c-.64-.83-1.88-1.01-2.71-.32h0l-.09,.05L37.65,0,16.85,40.05l4.18,2.48c.32,.18,.69,.32,1.1,.32,.78,0,1.47-.41,1.88-1.06,.6-1.01,.28-2.34-.78-2.94l-.64-.41L38.43,7.95l13.09,18.88,3.31-2.57c.87-.69,1.01-1.93,.32-2.76Z" style="fill: #fff;"/>
      <path d="M74.44,0V54.7h-.32V0h.32Z" style="fill: #fff;"/>
      <path d="M91.98,.64h4c1.88,0,3.35,.55,4.36,1.7,1.06,1.15,1.56,2.76,1.56,4.87s-.51,3.72-1.56,4.82c-1.01,1.1-2.48,1.65-4.41,1.65h-4l.05-13.04h0Zm4,12.12c2.85,0,4.27-1.84,4.27-5.56s-1.42-5.6-4.27-5.6h-2.48V12.77h2.48Z" style="fill: #fff;"/>
      <path d="M109.8,1.84l-3.95,11.89h-1.06L109.2,.64h1.79l4.32,13.09h-1.61l-3.9-11.89Z" style="fill: #fff;"/>
      <path d="M119.21,13.73V.64h1.52V12.77h5.83v.96h-7.35Z" style="fill: #fff;"/>
      <path d="M130.88,13.73V.64h1.52V13.73h-1.52Z" style="fill: #fff;"/>
      <path d="M143.92,1.84l-3.95,11.89h-1.06l4.41-13.09h1.79l4.32,13.09h-1.61l-3.9-11.89Z" style="fill: #fff;"/>
      <path d="M156.32,7.99h.18c.87,0,1.52-.23,1.97-.73,.46-.51,.64-1.33,.64-2.53,0-2.11-.92-3.17-2.8-3.17h-1.47V13.78h-1.52V.64h3.17c1.33,0,2.39,.37,3.12,1.06s1.15,1.7,1.15,2.99c0,1.01-.23,1.88-.64,2.53-.46,.64-1.01,1.15-1.75,1.42l3.26,5.14h-1.75l-3.58-5.79Z" style="fill: #fff;"/>
      <path d="M167.94,13.73V1.61h-3.72V.64h9v.96h-3.77V13.73h-1.52Z" style="fill: #fff;"/>
      <path d="M119.86,45.15v8.82h-1.33v-8.82h1.33Z" style="fill: #fff;"/>
      <path d="M122.38,42.34v-3.95h-1.38v3.95h-4.13s-.51,2.2-2.76,4.5l.96,.96c.28-.32,.6-.6,.83-.92v7.12h1.38v-9.09c.46-.83,.69-1.47,.83-1.88h2.89v10.98h1.38v-10.98h3.72v10.98h1.38v-10.98h1.15v-.69h-6.25Z" style="fill: #fff;"/>
      <path d="M124.91,45.15v8.82h-1.33v-8.82h1.33Z" style="fill: #fff;"/>
      <path d="M128.49,39.73v.69h-4.5v-.69h4.5Z" style="fill: #fff;"/>
      <path d="M118.3,38.9l-1.29-.51s-.83,2.07-2.89,3.54l.78,1.1c2.43-1.7,3.35-4.04,3.4-4.13h0Z" style="fill: #fff;"/>
      <path d="M150.81,40.64v-.69h-4.96v-1.56h-1.38v1.56h-6.29v.6c0,4.13-.14,11.16-1.38,12.58l1.01,.87c1.01-1.15,1.42-4.41,1.61-7.49h5.05v.96h-3.95v4.27h.37c-.14,.37-.41,.96-.78,1.38l1.01,.92c.78-.87,1.19-2.16,1.19-2.25h5.65c.05,.09,.41,1.38,1.19,2.25l1.01-.92c-.37-.41-.64-1.01-.78-1.38h.41v-4.27h-3.95v-.96h4.96v-.69h-11.34c.05-1.15,.09-2.25,.09-3.17h2.3v2.11h6.57v-2.11h2.39v-.69h-2.39v-1.38l2.39,.05h0Zm-6.34,10.43h-2.62v-1.1h2.62v1.1Zm0-1.79h-2.62v-1.1h2.62v1.1Zm1.38-1.1h2.62v1.1h-2.62v-1.1Zm0,1.79h2.62v1.1h-2.62v-1.1Zm-4-7.99h-2.3v-1.38h2.3v1.38h0Zm5.24,2.16h-3.86v-1.47h3.86v1.47Zm0-2.16h-3.86v-1.38h3.86v1.38Z" style="fill: #fff;"/>
      <path d="M173.22,47.85v-.69h-8.22c.37-.55,.41-.73,.55-1.06h7.67v-.69h-8.82c-.41,.96-.96,1.65-1.84,2.34v-5.97h2.76v2.62h6.61v-5.97h-6.61v2.71h-2.76v-2.85h-1.33v2.85h-1.84v.69h1.84v6.89c-1.01,.6-1.84,.87-1.84,.87l.41,1.29c.14-.05,2.8-.92,4.68-3.03h1.7c-.28,.78-1.1,2.57-3.49,4.18l.73,1.1c3.12-2.16,3.95-4.59,4.13-5.28h1.79c-.18,.87-.78,3.08-2.71,4.91l.92,.96c2.43-2.25,3.03-5.01,3.17-5.88h1.19c.05,1.33-.14,4.09-1.19,5.05l.87,1.01c1.79-1.7,1.61-5.47,1.61-6.06h0Zm-6.61-8.73h3.95v2.02h-3.95v-2.02Zm0,2.66h3.95v1.93h-3.95v-1.93Z" style="fill: #fff;"/>
      <path d="M105.44,48.96v.69h-13.46v-.69h13.46Z" style="fill: #fff;"/>
      <path d="M91.98,51.3h2.11c.05,.37,0,1.01-.18,1.52h-.78l-.05,.92c.09,0,.73,.05,1.7,.05,2.07,0,5.97-.14,7.81-1.06,.18,.28,.51,.87,.69,1.29h1.56c-.6-1.15-1.29-2.2-1.65-2.71h2.25v-.69h-13.46v.69h0Zm3.49,0h6.71l-.41,.41s.09,.05,.23,.28c-1.56,.69-4.78,.87-6.75,.87,.23-.6,.23-1.19,.23-1.56Z" style="fill: #fff;"/>
      <path d="M98.92,47.35h-2.8v-1.01h4.09c-.18,.46-.41,.87-.64,1.24l1.06,.78c.41-.6,.73-1.24,1.01-2.02h1.42v-.69h-1.24c.23-.92,.37-1.97,.41-3.26h1.15c.09,1.33,.37,4.41,1.33,5.92l1.1-.73c-.87-1.33-1.1-4.68-1.15-5.88h-2.43v-1.19h3.17v-.64h-3.17v-1.47h-1.33v1.47h-4.82v-1.47h-1.33v1.47h-2.8v.64h2.8v1.19h-2.8v.69h2.8v.96h-2.8v.69h.83c0,.41,0,1.1-.28,1.61h-.55v.69h2.8v1.01h-2.8v.69h6.93l.05-.69h0Zm-2.8-6.8h4.82v1.19h-4.78v-1.19h-.05Zm0,1.88h4.78c-.05,1.33-.23,2.39-.46,3.26h-2.07c-.28-.46-.28-1.19-.28-1.61h.83v-.69h-2.8s0-.96,0-.96Zm-1.33,3.26h-.83c.23-.6,.23-1.19,.23-1.61h2.62c0,.41,0,1.01,.23,1.61h-.83v-.6h-1.33l-.09,.6h0Z" style="fill: #fff;"/>
      <path d="M130.42,20.71l-3.95,11.89h-1.06l4.41-13.09h1.79l4.32,13.09h-1.61l-3.9-11.89h0Z" style="fill: #fff;"/>
      <path d="M167.71,20.71l-3.95,11.89h-1.06l4.41-13.09h1.79l4.32,13.09h-1.61l-3.9-11.89h0Z" style="fill: #fff;"/>
      <path d="M92.03,19.52h3.12c1.33,0,2.39,.37,3.12,1.06s1.1,1.75,1.1,3.08c0,1.01-.18,1.84-.6,2.53-.41,.64-.92,1.1-1.56,1.42-.64,.28-1.33,.46-2.07,.41h-1.65v4.59h-1.52v-13.09h.05Zm2.94,7.67c1.88,0,2.8-1.15,2.8-3.44,0-1.15-.23-1.97-.73-2.53s-1.19-.83-2.07-.83h-1.42v6.75l1.42,.05h0Z" style="fill: #fff;"/>
      <path d="M108.56,32.61v-13.09h1.52v12.12h5.83v.96h-7.35Z" style="fill: #fff;"/>
      <path d="M145.21,32.61v-.83l7.07-11.3h-6.89v-.96h8.77v.83l-7.12,11.3h7.12v.96h-8.96Z" style="fill: #fff;"/>
    </g>
  </g>
</svg>