<?xml version="1.0" encoding="UTF-8"?>
<svg id="_圖層_2" data-name="圖層 2" xmlns="http://www.w3.org/2000/svg" width="122.36" height="31.76" viewBox="0 0 122.36 31.76">
  <g id="_設計" data-name="設計">
    <g>
      <g>
        <path d="M15.88,0h-1.52l6.96,30.8c.16-.06,.32-.12,.47-.18L27.55,5.12C24.65,1.97,20.49,0,15.88,0Z" style="fill: #87b828;"/>
        <path d="M21.79,30.62c5.84-2.34,9.97-8.06,9.97-14.74,0-4.15-1.59-7.93-4.2-10.76l-5.76,25.5Z" style="fill: #1b94d3;"/>
        <polygon points="0 0 0 31.76 7.18 31.76 0 0 0 0" style="fill: #d11577;"/>
        <path d="M7.18,31.76H15.88c1.91,0,3.74-.34,5.44-.96L14.35,0,7.18,31.76Z" style="fill: #f3d922;"/>
        <polygon points="0 0 7.18 31.76 7.18 31.76 14.35 0 0 0" style="fill: #e89112;"/>
      </g>
      <g>
        <g>
          <path d="M44.19,28.5h-.87c-.16-.69-.32-1.4-.49-2.09-.12-.49-.15-.99-.17-1.49-.05,.54-.13,1.07-.26,1.6l-.48,1.98h-.87l-1.02-5.04h1.02l.41,2.21c.08,.42,.13,.85,.13,1.27,.05-.41,.11-.82,.19-1.22l.47-2.27h.79l.51,2.53c.06,.32,.11,.63,.14,.95,0-.49,.05-.98,.14-1.47l.36-2.02h1.04l-1.04,5.04Z" style="fill: #040000;"/>
          <path d="M50.98,27.87c-.29,.42-.79,.71-1.31,.71s-1.01-.29-1.31-.71c-.39-.53-.45-1.25-.45-1.89s.07-1.35,.45-1.9c.29-.42,.8-.7,1.31-.7s1.01,.29,1.31,.7c.38,.53,.45,1.26,.45,1.9s-.07,1.34-.45,1.89Zm-1.31-3.57c-.66,0-.71,1.2-.71,1.66s.05,1.66,.71,1.66,.71-1.2,.71-1.66-.05-1.66-.71-1.66Z" style="fill: #040000;"/>
          <path d="M56.74,28.5l-1.24-3.04c.04,.19,.05,.39,.05,.57v2.46h-1v-5.04h.94l1.24,3.04c-.05-.23-.08-.45-.08-.68v-2.36h1.01v5.04h-.94Z" style="fill: #040000;"/>
          <path d="M61.78,23.46c.37,0,.68,.02,1.02,.17,.9,.41,1.16,1.47,1.16,2.37,0,1.36-.51,2.49-2.04,2.49h-.97v-5.04h.84Zm.19,4.12c.79,0,.99-.95,.99-1.58,0-.5-.11-1.15-.51-1.48-.16-.14-.3-.17-.51-.17v3.23h.03Z" style="fill: #040000;"/>
          <path d="M67.06,28.5v-5.04h2v.94h-1v1.09h.88v.95h-.88v1.13h1.02v.93h-2.02Z" style="fill: #040000;"/>
          <path d="M74.11,28.5l-.88-2.32v2.32h-1v-5.04h1.08c.37,0,.78,.03,1.1,.24,.4,.26,.6,.76,.6,1.22,0,.57-.23,.98-.72,1.28l.88,2.29h-1.05Zm-.88-2.87c.05,0,.11,0,.17,0,.43,0,.64-.29,.64-.7s-.18-.69-.62-.69h-.19v1.38Z" style="fill: #040000;"/>
          <path d="M84.58,28.5l-1.24-3.04c.04,.19,.05,.39,.05,.57v2.46h-1v-5.04h.94l1.24,3.04c-.05-.23-.08-.45-.08-.68v-2.36h1.01v5.04h-.94Z" style="fill: #040000;"/>
          <path d="M88.78,28.5v-5.04h2v.94h-1v1.09h.88v.95h-.88v1.13h1.02v.93h-2.02Z" style="fill: #040000;"/>
          <path d="M97.78,28.5h-.87c-.16-.69-.32-1.4-.49-2.09-.12-.49-.15-.99-.17-1.49-.05,.54-.13,1.07-.26,1.6l-.48,1.98h-.87l-1.02-5.04h1.02l.41,2.21c.08,.42,.13,.85,.13,1.27,.05-.41,.11-.82,.19-1.22l.47-2.27h.79l.51,2.53c.06,.32,.11,.63,.14,.95,0-.49,.05-.98,.14-1.47l.36-2.02h1.04l-1.04,5.04Z" style="fill: #040000;"/>
          <path d="M101.73,28.5v-5.04h1v4.09h1.04v.94h-2.04Z" style="fill: #040000;"/>
          <path d="M108.86,28.5l-.19-.85h-1l-.18,.85h-1l1.18-5.04h1.04l1.21,5.04h-1.06Zm-.34-1.62c-.11-.48-.21-.96-.29-1.45-.03-.22-.06-.45-.08-.66-.05,.71-.19,1.41-.33,2.11h.7Z" style="fill: #040000;"/>
          <path d="M115,28.5l-1.24-3.04c.04,.19,.05,.39,.05,.57v2.46h-1v-5.04h.94l1.24,3.04c-.05-.23-.08-.45-.08-.68v-2.36h1.01v5.04h-.94Z" style="fill: #040000;"/>
          <path d="M120.05,23.46c.37,0,.68,.02,1.02,.17,.9,.41,1.16,1.47,1.16,2.37,0,1.36-.51,2.49-2.04,2.49h-.97v-5.04h.84Zm.19,4.12c.79,0,.99-.95,.99-1.58,0-.5-.11-1.15-.51-1.48-.16-.14-.3-.17-.51-.17v3.23h.03Z" style="fill: #040000;"/>
        </g>
        <g>
          <polygon points="99.24 12.89 98 12.89 98 14.1 92.24 14.1 92.24 15.19 98 15.19 98 19.02 99.24 19.02 99.24 15.19 105 15.19 105 14.1 99.24 14.1 99.24 12.89" style="fill: #040000;"/>
          <path d="M78.89,3.1h-1.25v1.58h-2.76v1.09h1.18v3.96h-1.18v1.09h6.77v-1.09h-1.18v-3.96h1.18v-1.09h-2.76v-1.58Zm-1.66,6.63v-3.96h2.07v3.96h-2.07Z" style="fill: #040000;"/>
          <polygon points="78.89 11.28 77.65 11.28 77.65 12.29 74.88 12.29 74.88 13.38 77.65 13.38 77.65 19.02 78.89 19.02 78.89 13.38 81.65 13.38 81.65 12.29 78.89 12.29 78.89 11.28" style="fill: #040000;"/>
          <path d="M85.4,5.77c.64,0,1.22-.37,1.49-.95l.8-1.71h-1.2l-.54,1.16c-.12,.25-.37,.41-.65,.41h-3.15v14.34h1.17V10.82h1.99v8.2h1.17V10.82h1.18v-1.09h-4.34v-3.96h2.09Z" style="fill: #040000;"/>
          <polygon points="60.29 12.87 61.53 12.87 61.53 5.81 64.3 5.81 64.3 4.72 61.53 4.72 61.53 3.1 60.29 3.1 60.29 4.72 57.53 4.72 57.53 5.81 60.29 5.81 60.29 12.87" style="fill: #040000;"/>
          <path d="M70.29,4.76c0-.91-.74-1.65-1.65-1.65h-4.01V12.87h4.07c.88,0,1.59-.71,1.59-1.59V4.76Zm-4.5,5.11h3.33v1.2c0,.39-.32,.71-.71,.71h-2.62v-1.91Zm3.33-3.61h-3.33v-2.07h2.62c.39,0,.71,.32,.71,.71v1.35Zm-3.33,2.52v-1.44h3.33v1.44h-3.33Z" style="fill: #040000;"/>
          <path d="M101.23,10.75V6.33c0-.91-.74-1.65-1.65-1.65h-2.16l.74-1.58h-1.2l-.75,1.62v7.67s3.37,0,3.37,0c.91,0,1.65-.74,1.65-1.65Zm-1.17-2.59h-2.7v-2.38h1.98c.4,0,.72,.32,.72,.72v1.66Zm-2.7,1.09h2.7v1.35c0,.4-.32,.72-.72,.72h-1.98v-2.07Z" style="fill: #040000;"/>
          <path d="M120.71,3.1h-11.11v15.92h11.11c.91,0,1.65-.74,1.65-1.65V4.76c0-.91-.74-1.65-1.65-1.65Zm-9.94,1.09h9.71c.4,0,.72,.32,.72,.72v12.31c0,.4-.32,.72-.72,.72h-9.71V4.19Z" style="fill: #040000;"/>
          <polygon points="116.6 6.64 119.6 6.64 119.6 5.55 116.6 5.55 116.6 4.68 115.35 4.68 115.35 5.55 112.36 5.55 112.36 6.64 115.35 6.64 115.35 7.44 111.57 7.44 111.57 8.53 120.39 8.53 120.39 7.44 116.6 7.44 116.6 6.64" style="fill: #040000;"/>
          <path d="M119.83,12v-1.4c0-.74-.6-1.34-1.34-1.34h-6.37v4.09h6.37c.74,0,1.34-.6,1.34-1.34Zm-1.65-1.65c.26,0,.48,.22,.48,.48v.95c0,.26-.22,.48-.48,.48h-4.9v-1.91h4.9Z" style="fill: #040000;"/>
          <path d="M115.81,13.95h-1.17v2.44c0,.47,.38,.86,.86,.86h1.57v-1.09h-1.26v-2.21Z" style="fill: #040000;"/>
          <polygon points="111.81 17.24 113.01 17.24 113.9 13.95 112.69 13.95 111.81 17.24" style="fill: #040000;"/>
          <path d="M119.75,15.03v-1.09h-1.91c-.25,0-.48,.13-.6,.35-.13,.22-.13,.48,0,.7l1.3,2.25h1.33l-1.28-2.21h1.15Z" style="fill: #040000;"/>
          <polygon points="57.88 19.02 59.16 19.02 60.59 13.68 59.31 13.68 57.88 19.02" style="fill: #040000;"/>
          <path d="M63.7,17.4l-1-3.72h-1.28l1.11,4.12c.19,.72,.85,1.22,1.59,1.22h6.17v-1.09h-5.89c-.33,0-.62-.22-.7-.54Z" style="fill: #040000;"/>
          <polygon points="66.64 17.13 65.71 13.68 64.43 13.68 65.35 17.13 66.64 17.13" style="fill: #040000;"/>
          <polygon points="68.35 17.13 69.63 17.13 68.71 13.68 67.43 13.68 68.35 17.13" style="fill: #040000;"/>
          <path d="M92.78,12.4h2.91v-1.09h-2.15l1.55-3.32c.08-.17,.07-.37-.03-.53-.1-.16-.28-.26-.47-.26h-.89l1.91-4.1h-1.28l-1.84,3.95c-.06,.13-.1,.28-.1,.43v.26c0,.3,.24,.55,.55,.55h.73l-1.34,2.87c-.06,.13-.09,.28-.09,.42v.27c0,.3,.24,.54,.54,.54Z" style="fill: #040000;"/>
          <path d="M104.4,7.99c.08-.17,.07-.37-.03-.53-.1-.16-.28-.26-.46-.26h-.89l1.91-4.1h-1.28l-1.84,3.95c-.06,.13-.1,.28-.1,.43v.26c0,.3,.24,.55,.55,.55h.73l-1.34,2.87c-.06,.13-.09,.28-.09,.42v.27c0,.3,.24,.54,.54,.54h2.91v-1.09h-2.15l1.55-3.32Z" style="fill: #040000;"/>
          <path d="M47.18,9.87h3.17c.9,0,1.64-.74,1.64-1.64v-3.49c0-.9-.74-1.64-1.64-1.64h-9.23v6.77h6.06Zm-4.81-2.84h3.57v1.75h-3.57v-1.75Zm4.81,0h3.57v1.04c0,.39-.32,.71-.71,.71h-2.85v-1.75Zm3.57-1.09h-3.57v-1.75h2.85c.39,0,.71,.32,.71,.71v1.04Zm-4.81,0h-3.57v-1.75h3.57v1.75Z" style="fill: #040000;"/>
          <path d="M49.65,10.52h-1.25v1.1h-3.71v-1.1h-1.25v1.1h-3.28v1.09h3.28v1.63h-3.28v1.09h12.76v-1.09h-3.28v-1.63h3.28v-1.09h-3.28v-1.1Zm-4.95,2.19h3.71v1.63h-3.71v-1.63Z" style="fill: #040000;"/>
          <polygon points="59.58 6.3 58.41 6.3 57.84 12.86 59.01 12.86 59.58 6.3" style="fill: #040000;"/>
          <polygon points="62.24 6.3 62.81 12.79 62.82 12.86 63.99 12.86 63.42 6.36 63.41 6.3 62.24 6.3" style="fill: #040000;"/>
          <polygon points="75.03 19.02 76.21 19.02 77.12 13.87 75.94 13.87 75.03 19.02" style="fill: #040000;"/>
          <polygon points="79.42 13.87 80.32 19.02 81.51 19.02 80.6 13.87 79.42 13.87" style="fill: #040000;"/>
          <polygon points="92.5 19.02 93.92 19.02 95.85 15.68 94.44 15.68 92.5 19.02" style="fill: #040000;"/>
          <polygon points="101.39 15.68 103.33 19.02 104.74 19.02 102.81 15.68 101.39 15.68" style="fill: #040000;"/>
          <polygon points="49.52 15.92 50.64 19.02 51.96 19.02 50.83 15.92 49.52 15.92" style="fill: #040000;"/>
          <polygon points="41.15 19.02 42.47 19.02 43.59 15.92 42.28 15.92 41.15 19.02" style="fill: #040000;"/>
        </g>
      </g>
    </g>
  </g>
</svg>