<?xml version="1.0" encoding="UTF-8"?>
<svg id="_圖層_2" data-name="圖層 2" xmlns="http://www.w3.org/2000/svg" width="1207.79" height="190.67" xmlns:xlink="http://www.w3.org/1999/xlink" viewBox="0 0 1207.79 190.67">
  <defs>
    <clipPath id="clippath">
      <rect width="1207.79" height="190.67" style="fill: none;"/>
    </clipPath>
  </defs>
  <g id="_設計" data-name="設計">
    <g style="clip-path: url(#clippath);">
      <g>
        <path d="M667.48,180.8c-14-6.58-24.75-16.06-32.24-28.45-7.5-12.39-11.24-27.08-11.24-44.06s3.75-31.47,11.24-43.94c7.49-12.47,18.2-22.03,32.13-28.68,13.92-6.65,30.37-9.98,49.34-9.98,22.64,0,41.15,4.82,55.53,14.46,14.38,9.64,22.87,22.87,25.47,39.7h-27.08c-2.75-13.16-8.72-23.29-17.9-30.4-9.18-7.11-20.96-10.67-35.34-10.67-18.51,0-32.97,6.08-43.37,18.24-10.41,12.16-15.6,29.18-15.6,51.06s5.16,38.93,15.49,51.17c10.33,12.24,24.82,18.36,43.49,18.36,8.26,0,15.75-.88,22.49-2.64,6.73-1.76,13.61-4.7,20.65-8.83v-50.25h-55.3v-12.16h89.26v63.1c-8.42,7.5-19.5,13.35-33.27,17.55-13.77,4.21-28.46,6.31-44.06,6.31-19.12,0-35.68-3.29-49.68-9.87Z" style="fill: #fff;"/>
        <path d="M824.55,75.93h29.83v23.41c2.75-8.11,7.26-14.42,13.54-18.93,6.27-4.51,14.07-6.77,23.41-6.77,2.75,0,5.35,.31,7.8,.92l-2.06,18.13c-2.45-1.22-5.66-1.84-9.64-1.84-11.01,0-19.28,4.55-24.78,13.65-5.51,9.1-8.26,19.93-8.26,32.47v51.4h-29.83V75.93Z" style="fill: #fff;"/>
        <path d="M943.07,183.55c-10.33-4.74-18.28-11.51-23.87-20.31-5.59-8.8-8.38-19.16-8.38-31.09s2.79-22.29,8.38-31.09c5.58-8.79,13.54-15.56,23.87-20.31,10.33-4.74,22.45-7.11,36.37-7.11s26.04,2.37,36.37,7.11c10.33,4.74,18.24,11.51,23.75,20.31,5.51,8.8,8.26,19.16,8.26,31.09s-2.75,22.3-8.26,31.09c-5.51,8.8-13.42,15.57-23.75,20.31-10.33,4.74-22.45,7.11-36.37,7.11s-26.04-2.37-36.37-7.11Zm64.6-16.64c6.88-8.49,10.33-20.08,10.33-34.77s-3.44-26.27-10.33-34.76c-6.88-8.49-16.29-12.74-28.23-12.74s-21.34,4.25-28.22,12.74-10.33,20.08-10.33,34.76,3.44,26.27,10.33,34.77,16.29,12.74,28.22,12.74,21.34-4.25,28.23-12.74Z" style="fill: #fff;"/>
        <path d="M1085,179.08c-8.57-7.72-12.85-18.32-12.85-31.78V75.93h29.6v73.66c0,9.79,2.26,17.25,6.77,22.37,4.51,5.13,11.13,7.69,19.85,7.69,10.25,0,18.39-3.59,24.44-10.79,6.04-7.19,9.06-16.9,9.06-29.14v-63.79h29.6v112.44h-29.6v-19.05c-3.52,6.58-8.99,11.78-16.41,15.6-7.42,3.82-15.8,5.74-25.13,5.74-15,0-26.77-3.86-35.34-11.59Z" style="fill: #fff;"/>
      </g>
      <g>
        <path d="M-116.66,188.37L-34.93-3.85,50.06,188.37H10.7l-20.64-50.15H-78.55l-20.56,50.15h-17.55Zm43.29-62.01H-15.46L-44.46,57.58l-28.92,68.78Z" style="fill: #fff;"/>
        <path d="M74.47,188.37V0h71.29c21.23,0,37.95,4.97,50.15,15,12.12,9.99,18.22,23.65,18.22,40.95s-5.68,30.13-16.8,39.74c-11.28,9.61-26.74,14.5-46.38,14.5h-39.53v78.19h-36.94Zm36.94-89.76h16.38c16.46,0,28.92-3.34,37.11-10.02,8.19-6.77,12.28-16.89,12.28-30.42,0-15.46-4.09-26.99-12.2-34.64-8.11-7.61-20.56-11.49-37.19-11.49h-16.38V98.61Z" style="fill: #fff;"/>
        <path d="M247.88,188.37V0h123.1V14.04h-86.17V82.98h80.06v14.21h-80.06v77.05h86.17v14.13h-123.1Z" style="fill: #fff;"/>
        <path d="M388.7,188.37l66.52-89.22L389.03,0h41.78l47.47,70.87L530.85,0h20.98l-63.68,84.49,70.95,103.88h-42.12l-51.23-75.92-56.08,75.92h-20.97Z" style="fill: #fff;"/>
      </g>
    </g>
  </g>
</svg>