<?xml version="1.0" encoding="UTF-8"?>
<svg id="_圖層_2" data-name="圖層 2" xmlns="http://www.w3.org/2000/svg" width="278.45" height="72.27" viewBox="0 0 278.45 72.27">
  <g id="_設計" data-name="設計">
    <g>
      <g>
        <path d="M36.13,0h-3.47l15.84,70.09c.36-.13,.72-.27,1.08-.41L62.7,11.64C56.1,4.49,46.64,0,36.13,0Z" style="fill: #85b628;"/>
        <path d="M49.58,69.68c13.3-5.34,22.69-18.34,22.69-33.55,0-9.45-3.63-18.05-9.57-24.49l-13.12,58.04Z" style="fill: #1b92d1;"/>
        <polygon points="0 0 0 72.27 16.33 72.27 0 0 0 0" style="fill: #cf1577;"/>
        <path d="M16.33,72.27h19.8c4.35,0,8.51-.77,12.37-2.17L32.66,0,16.33,72.27Z" style="fill: #f1d722;"/>
        <polygon points="0 0 16.33 72.27 16.33 72.27 32.66 0 0 0" style="fill: #e68f12;"/>
      </g>
      <g>
        <g>
          <path d="M100.56,64.85h-1.98c-.36-1.58-.72-3.18-1.12-4.76-.27-1.12-.34-2.25-.4-3.39-.1,1.22-.29,2.44-.58,3.64l-1.08,4.5h-1.98l-2.32-11.47h2.32l.93,5.04c.17,.95,.29,1.93,.29,2.89,.1-.93,.24-1.86,.43-2.77l1.07-5.16h1.79l1.17,5.76c.14,.72,.26,1.44,.33,2.17,0-1.12,.1-2.23,.31-3.34l.82-4.59h2.37l-2.37,11.47Z" style="fill: #040000;"/>
          <path d="M116.02,63.42c-.67,.95-1.81,1.62-2.99,1.62s-2.3-.67-2.99-1.62c-.88-1.2-1.03-2.85-1.03-4.3s.15-3.08,1.03-4.32c.67-.96,1.82-1.6,2.99-1.6s2.3,.65,2.99,1.6c.88,1.2,1.03,2.87,1.03,4.32s-.15,3.06-1.03,4.3Zm-2.99-8.13c-1.5,0-1.62,2.73-1.62,3.78s.12,3.78,1.62,3.78,1.62-2.73,1.62-3.78-.12-3.78-1.62-3.78Z" style="fill: #040000;"/>
          <path d="M129.13,64.85l-2.82-6.91c.09,.43,.12,.88,.12,1.31v5.6h-2.27v-11.47h2.15l2.82,6.93c-.1-.52-.17-1.03-.17-1.55v-5.38h2.3v11.47h-2.13Z" style="fill: #040000;"/>
          <path d="M140.6,53.39c.84,0,1.55,.03,2.32,.4,2.05,.93,2.63,3.35,2.63,5.4,0,3.09-1.17,5.67-4.64,5.67h-2.22v-11.47h1.91Zm.43,9.37c1.81,.02,2.25-2.17,2.25-3.59,0-1.13-.26-2.61-1.17-3.37-.36-.31-.69-.38-1.15-.4v7.36h.07Z" style="fill: #040000;"/>
          <path d="M152.6,64.85v-11.47h4.56v2.13h-2.29v2.48h2.01v2.17h-2.01v2.58h2.32v2.11h-4.59Z" style="fill: #040000;"/>
          <path d="M168.66,64.85l-2.01-5.28v5.28h-2.27v-11.47h2.46c.84,0,1.77,.07,2.49,.55,.91,.6,1.36,1.72,1.36,2.78,0,1.31-.52,2.23-1.63,2.92l1.99,5.21h-2.39Zm-2.01-6.53c.12,.02,.26,.02,.38,.02,.98,0,1.46-.67,1.46-1.6s-.41-1.56-1.41-1.56h-.43v3.15Z" style="fill: #040000;"/>
          <path d="M192.48,64.85l-2.82-6.91c.09,.43,.12,.88,.12,1.31v5.6h-2.27v-11.47h2.15l2.82,6.93c-.1-.52-.17-1.03-.17-1.55v-5.38h2.3v11.47h-2.13Z" style="fill: #040000;"/>
          <path d="M202.05,64.85v-11.47h4.56v2.13h-2.29v2.48h2.01v2.17h-2.01v2.58h2.32v2.11h-4.59Z" style="fill: #040000;"/>
          <path d="M222.52,64.85h-1.98c-.36-1.58-.72-3.18-1.12-4.76-.27-1.12-.34-2.25-.39-3.39-.1,1.22-.29,2.44-.58,3.64l-1.08,4.5h-1.98l-2.32-11.47h2.32l.93,5.04c.17,.95,.29,1.93,.29,2.89,.1-.93,.24-1.86,.43-2.77l1.07-5.16h1.79l1.17,5.76c.14,.72,.26,1.44,.33,2.17,0-1.12,.1-2.23,.31-3.34l.82-4.59h2.37l-2.37,11.47Z" style="fill: #040000;"/>
          <path d="M231.5,64.85v-11.47h2.27v9.32h2.37v2.15h-4.64Z" style="fill: #040000;"/>
          <path d="M247.74,64.85l-.43-1.92h-2.29l-.41,1.92h-2.27l2.68-11.47h2.37l2.75,11.47h-2.41Zm-.77-3.7c-.24-1.1-.48-2.18-.65-3.3-.07-.5-.14-1.01-.19-1.51-.1,1.62-.43,3.21-.76,4.81h1.6Z" style="fill: #040000;"/>
          <path d="M261.71,64.85l-2.82-6.91c.09,.43,.12,.88,.12,1.31v5.6h-2.27v-11.47h2.15l2.82,6.93c-.1-.52-.17-1.03-.17-1.55v-5.38h2.3v11.47h-2.13Z" style="fill: #040000;"/>
          <path d="M273.19,53.39c.84,0,1.55,.03,2.32,.4,2.05,.93,2.63,3.35,2.63,5.4,0,3.09-1.17,5.67-4.64,5.67h-2.22v-11.47h1.91Zm.43,9.37c1.81,.02,2.25-2.17,2.25-3.59,0-1.13-.26-2.61-1.17-3.37-.36-.31-.69-.38-1.15-.4v7.36h.07Z" style="fill: #040000;"/>
        </g>
        <g>
          <polygon points="225.85 29.33 223.02 29.33 223.02 32.09 209.91 32.09 209.91 34.56 223.02 34.56 223.02 43.29 225.85 43.29 225.85 34.56 238.96 34.56 238.96 32.09 225.85 32.09 225.85 29.33" style="fill: #040000;"/>
          <path d="M179.53,7.07h-2.83v3.59h-6.28v2.47h2.69v9.02h-2.69v2.47h15.4v-2.47h-2.69V13.13h2.69v-2.47h-6.28v-3.59Zm-3.77,15.08V13.13h4.71v9.02h-4.71Z" style="fill: #040000;"/>
          <polygon points="179.53 25.68 176.7 25.68 176.7 27.98 170.42 27.98 170.42 30.45 176.7 30.45 176.7 43.29 179.53 43.29 179.53 30.45 185.82 30.45 185.82 27.98 179.53 27.98 179.53 25.68" style="fill: #040000;"/>
          <path d="M194.34,13.13c1.45,0,2.78-.85,3.39-2.16l1.82-3.9h-2.73l-1.23,2.65c-.27,.57-.85,.94-1.48,.94h-7.17V43.29h2.65V24.62h4.53v18.67h2.65V24.62h2.69v-2.47h-9.87V13.13h4.75Z" style="fill: #040000;"/>
          <polygon points="137.2 29.29 140.04 29.29 140.04 13.22 146.32 13.22 146.32 10.74 140.04 10.74 140.04 7.07 137.2 7.07 137.2 10.74 130.92 10.74 130.92 13.22 137.2 13.22 137.2 29.29" style="fill: #040000;"/>
          <path d="M159.96,10.83c0-2.08-1.69-3.76-3.76-3.76h-9.12V29.29h9.26c2,0,3.63-1.63,3.63-3.63V10.83Zm-10.23,11.64h7.58v2.72c0,.9-.73,1.62-1.62,1.62h-5.96v-4.35Zm7.58-8.22h-7.58v-4.71h5.96c.9,0,1.62,.73,1.62,1.62v3.08Zm-7.58,5.75v-3.27h7.58v3.27h-7.58Z" style="fill: #040000;"/>
          <path d="M230.38,24.46V14.41c0-2.07-1.68-3.76-3.76-3.76h-4.91l1.67-3.59h-2.73l-1.72,3.68-.02,17.46h7.7c2.07,0,3.76-1.68,3.76-3.76Zm-2.65-5.9h-6.14v-5.42h4.5c.91,0,1.64,.74,1.64,1.64v3.78Zm-6.14,2.47h6.14v3.06c0,.91-.74,1.64-1.64,1.64h-4.5v-4.71Z" style="fill: #040000;"/>
          <path d="M274.69,7.07h-25.28V43.29h25.28c2.07,0,3.76-1.69,3.76-3.76V10.83c0-2.07-1.69-3.76-3.76-3.76Zm-22.63,2.47h22.1c.9,0,1.64,.73,1.64,1.64v28.01c0,.9-.73,1.64-1.64,1.64h-22.1V9.54Z" style="fill: #040000;"/>
          <polygon points="265.35 15.11 272.17 15.11 272.17 12.63 265.35 12.63 265.35 10.66 262.52 10.66 262.52 12.63 255.69 12.63 255.69 15.11 262.52 15.11 262.52 16.94 253.9 16.94 253.9 19.41 273.97 19.41 273.97 16.94 265.35 16.94 265.35 15.11" style="fill: #040000;"/>
          <path d="M272.71,27.31v-3.18c0-1.69-1.37-3.06-3.06-3.06h-14.5v9.3h14.5c1.69,0,3.06-1.37,3.06-3.06Zm-3.75-3.77c.6,0,1.09,.49,1.09,1.09v2.16c0,.6-.49,1.09-1.09,1.09h-11.15v-4.35h11.15Z" style="fill: #040000;"/>
          <path d="M263.55,31.74h-2.65v5.55c0,1.08,.87,1.95,1.95,1.95h3.58v-2.47h-2.87v-5.03Z" style="fill: #040000;"/>
          <polygon points="254.44 39.24 257.18 39.24 259.19 31.74 256.45 31.74 254.44 39.24" style="fill: #040000;"/>
          <path d="M272.53,34.21v-2.47h-4.35c-.57,0-1.08,.3-1.37,.79-.29,.5-.29,1.09,0,1.58l2.96,5.13h3.04l-2.9-5.03h2.62Z" style="fill: #040000;"/>
          <polygon points="131.71 43.29 134.63 43.29 137.89 31.12 134.97 31.12 131.71 43.29" style="fill: #040000;"/>
          <path d="M144.97,39.59l-2.27-8.47h-2.92l2.52,9.38c.44,1.64,1.93,2.78,3.63,2.78h14.04v-2.47h-13.4c-.75,0-1.4-.5-1.6-1.22Z" style="fill: #040000;"/>
          <polygon points="151.65 38.98 149.54 31.12 146.62 31.12 148.73 38.98 151.65 38.98" style="fill: #040000;"/>
          <polygon points="155.55 38.98 158.47 38.98 156.36 31.12 153.44 31.12 155.55 38.98" style="fill: #040000;"/>
          <path d="M211.15,28.21h6.62v-2.47h-4.89l3.52-7.55c.18-.39,.15-.84-.08-1.2-.23-.36-.63-.58-1.06-.58h-2.02l4.35-9.34h-2.91l-4.19,8.99c-.14,.3-.22,.64-.22,.98v.59c0,.69,.56,1.24,1.24,1.24h1.66l-3.04,6.53c-.14,.3-.21,.63-.21,.96v.61c0,.68,.55,1.24,1.24,1.24Z" style="fill: #040000;"/>
          <path d="M237.59,18.19c.18-.39,.15-.84-.08-1.2-.23-.36-.63-.58-1.06-.58h-2.02l4.35-9.34h-2.91l-4.19,8.99c-.14,.3-.22,.64-.22,.98v.59c0,.69,.56,1.24,1.24,1.24h1.66l-3.04,6.53c-.14,.3-.21,.63-.21,.96v.61c0,.68,.55,1.24,1.24,1.24h6.62v-2.47h-4.89l3.52-7.55Z" style="fill: #040000;"/>
          <path d="M107.36,22.47h7.22c2.06,0,3.73-1.67,3.73-3.73v-7.94c0-2.06-1.67-3.73-3.73-3.73h-21.01v15.4h13.78Zm-10.95-6.46h8.12v3.99h-8.12v-3.99Zm10.95,0h8.12v2.37c0,.9-.73,1.62-1.62,1.62h-6.49v-3.99Zm8.12-2.47h-8.12v-3.99h6.49c.89,0,1.62,.73,1.62,1.62v2.37Zm-10.95,0h-8.12v-3.99h8.12v3.99Z" style="fill: #040000;"/>
          <path d="M113,23.94h-2.83v2.51h-8.44v-2.51h-2.83v2.51h-7.47v2.47h7.47v3.72h-7.47v2.47h29.04v-2.47h-7.47v-3.72h7.47v-2.47h-7.47v-2.51Zm-11.27,4.99h8.44v3.72h-8.44v-3.72Z" style="fill: #040000;"/>
          <polygon points="135.59 14.33 132.93 14.33 131.62 29.26 134.29 29.26 135.59 14.33" style="fill: #040000;"/>
          <polygon points="141.65 14.33 142.94 29.11 142.95 29.26 145.62 29.26 144.32 14.48 144.31 14.33 141.65 14.33" style="fill: #040000;"/>
          <polygon points="170.74 43.29 173.44 43.29 175.5 31.57 172.81 31.57 170.74 43.29" style="fill: #040000;"/>
          <polygon points="180.73 31.57 182.8 43.29 185.49 43.29 183.42 31.57 180.73 31.57" style="fill: #040000;"/>
          <polygon points="210.51 43.29 213.73 43.29 218.13 35.68 214.91 35.68 210.51 43.29" style="fill: #040000;"/>
          <polygon points="230.74 35.68 235.14 43.29 238.36 43.29 233.96 35.68 230.74 35.68" style="fill: #040000;"/>
          <polygon points="112.68 36.24 115.25 43.29 118.24 43.29 115.68 36.24 112.68 36.24" style="fill: #040000;"/>
          <polygon points="93.65 43.29 96.64 43.29 99.21 36.24 96.22 36.24 93.65 43.29" style="fill: #040000;"/>
        </g>
      </g>
    </g>
  </g>
</svg>