<?xml version="1.0" encoding="UTF-8"?>
<svg id="_圖層_2" data-name="圖層 2" xmlns="http://www.w3.org/2000/svg" width="194.71" height="84.68" viewBox="0 0 194.71 84.68">
  <g id="_底" data-name="底">
    <g>
      <path d="M21.52,60.66s-.14,3.33-3.75,1.97c0,0-5.91-2.57-6.91,1.91,0,0-.52,.97,2.86,4.62,0,0,4.8,4.78,4.63,7.15-.3,4.3-.98,7.03-8.16,8.25,0,0-6.58,.33-10.2-1.65l.12-5.09s5.2,2.93,9.76,2.09c0,0,2.9-.2,2.52-2.66-.38-2.44-7.54-7.99-7.15-12.12,.39-4.13,2.64-8.01,10.8-7.75,0,0,5.71,.55,5.47,3.28m12.47,9.08c-.32,2.37-4.81,1.54-11.27,4.68-6.46,3.14-4.47,9-2.35,9.85,1.13,.46,7.28,.19,7.81,0,.53-.18,1.72-3.87,1.72-3.87l-3.42,.65c-3.32,.38-3.01-2.16-1.34-2.97,1.42-.69,7.17-2.53,7.17-2.53-.34,1.5-1.58,8.62-1.58,8.62l5.79-.15c.37-5.97,1.58-7.74,2.85-12.58,1.27-4.84-.25-7.01-3.94-7.5-3.69-.49-11.5,.21-12,2.85-.49,2.64,2.31,2.61,2.31,2.61,9.81-2.39,8.25,.35,8.25,.35m6.29-3.14l2.46,17.7,7.72-.08c.94-2.29,9.57-16.42,9.57-16.42,1.43-5.63-3.81-3.56-4.5-2.41-.69,1.15-8.37,13.6-8.37,13.42,.06-2.37-1.36-12.18-1.37-12.97,0-.79-1.51-2.09-3.09-1.9-1.58,.2-2.25,2.57-2.25,2.57m32.25,3.78c-.19-1.22-.91-2.97-3.11-2.94-2.19,.03-4.61,3.12-4.61,3.12l7.72-.17Zm3.02,3.39s2.43-2.22,1.61-5.64c-.68-2.77-7.64-8.51-16.06,.36-1.24,1.31-7.17,10.07-.54,14.92,0,0,3.44,2.07,10.89,.76l2.31-4.76s-6.21,1.65-8.41,.8c-2.49-.97-2.93-2.34-1.47-6.21l11.67-.22Zm6.91,6.16c3.24,8.39,16.71,3.33,16.71,3.33l.62,.96,6.58-.16-2.15-4.18c1.12-1.16,3.04-3.37,4.41-6.01,1.37-2.65-2.51-4.19-3.28-2.78-.78,1.41-3.64,4.95-3.64,4.95-5.25-6.43-7.5-12.73-5.41-14.07,2.09-1.34,5.95-.5,7.54-.61,1.58-.11,3.04-2.67,.92-3.96-2.12-1.29-10.19-1.11-13.4,1.9-3.22,3.01-1.93,7.92-1.93,7.92-.87,.71-9.68,5.37-6.97,12.71m5.78-1.29c2.67,3.83,8.51,.44,8.51,.44-2.22-2.35-5.09-8.55-5.09-8.55,0,0-6.1,4.28-3.42,8.11m30.01-16.21c-2.19,9.33,8.11,11.68,7.09,15.11-2.05,5.55-12.2-.31-12.2-.31l-.65,5.36s3.09,1.63,7.48,1.85c4.39,.21,8.77-.97,10.91-5.65,2.14-4.67-1.22-7.01-3.97-10.22-2.75-3.21-3.83-4.96-2.26-6.29,1.56-1.33,6.76,.27,6.76,.27,3.34,.58,3.78-3.38,1.09-4.83-2.56-1.38-11.95-1.63-14.25,4.71m28.93,6.89c-.07,2.2-5.06,2.69-5.06,2.69-10.77,1.88-10.8,7.49-10.8,7.49,.16,6.67,10.32,4.8,10.32,4.8l1.53-3.96c-.96,.54-4.3,.4-4.3,.4-2.91-1.29-.38-2.72,.23-3.08,.61-.36,6.73-2.09,6.73-2.09l-1.92,8.8,6.31-.43c.03-5.7,1.9-11.25,1.9-11.34,2.24-4.67,.28-6.94,.28-6.94-2.66-2.86-12.29-1.28-12.29-1.28-5.77,1.82-2.71,5.39-.31,4.48,.97-.37,7.44-1.75,7.37,.45m6.74-2.62c-.06,2.46,2.3,2.35,2.3,2.35l-3.09,15.3,5.88,.03,2.91-15.57,4.04,.05c1.38-1.85,.57-4.65,.57-4.65l-3.68-.05c.14-3.6,3.39-2.93,3.39-2.93,3.24-.92,2.33-4.15,.74-4.22-1.58-.07-4.13-.4-6.66,.95-2.53,1.34-2.92,6.17-2.92,6.17-.26,0-3.42,.13-3.48,2.59m24.6,3.86c-1.65-6.56-7.72,.09-7.72,.09l7.72-.09Zm-7.62,9.47c-2.82-1.46-1.56-5.95-1.56-5.95l12.55-.22c2.51-2.13,2.62-9.33-5.55-9.86-8.16-.53-15.34,9.64-12.1,16.71,2.87,6.29,13.98,3.36,13.98,3.36l1.62-4.4s-6.12,1.82-8.95,.35" style="fill: #746661; fill-rule: evenodd;"/>
      <path d="M38.09,15.57L41.31,.88l10.3,.09-3.87,14.07,23.98,.06-.62,5.03-24.47,.36s-4.27,19.43,17.08,27.2c.89,.26,2.22,4.99-2.64,3.45-5.84-.99-18.41-9.15-21.49-18.16,0,0-10.85,18.17-29.94,18.62,0,0-4.31-.74-1.49-3.83,0,0,18.26-1.25,28.38-26.93l-19.8-.26c-3.05,.05-2.76-5.16,.19-5.11l21.18,.1Zm38.31,.6l54.62-.42,2.32-11.14c-33.24-9.7-54.97,.42-54.97,.42l-1.97,11.14Zm9.75-4.75l6.39,.03,.99-4.74-6.62,.09-.77,4.62Zm15.72-.46c-.11,.35,6.04,.27,6.04,.27l.98-5.8-5.91,.08-1.11,5.46Zm15.49,.25s5.8,.4,6.03,.15l.17-4.26-5.69-.75-.52,4.85Zm-44.36,31.25l7.8-.11c-3.04,2.53-11.99,5.02-11.99,5.02-3.17,1.93,.4,3.77,.4,3.77,12.66,.77,22.5-6.34,22.5-6.34l-2.87-2.56,16.91,.23c-2.23,1.45-2.8,2.76-2.8,2.76,6.81,4.98,21.01,5.85,21.01,5.85,5.91-.2,1.83-4.04,1.83-4.04-8.17-.84-12.96-4.9-12.96-4.9l9.7-.37,4.66-21.11c-25.4-7.33-49.65,.11-49.65,.11l-4.54,21.7Zm12.88-16.96l31.09-.33,.44-2.25c-11.97-2.31-31.21-.27-31.21-.27l-.31,2.84Zm-1.33,6.4l31.2-.44c.69-.96,.2-2.48,.2-2.48l-30.74-.04c-1.06,.61-.67,2.97-.67,2.97m-1.34,6.28l31.45-.33c.58-.6,.2-2.72,.2-2.72l-30.86,.09c-1.38,.2-.79,2.96-.79,2.96m61.72-20.96c.81-4.43,2.03-7.61,2.03-7.61,2.51-.67,15.24-1.17,15.24-1.17,22.01-.38,23.22,.94,23.22,.94,.11,1.9-1.38,8.15-1.38,8.15l8.68-.12c.9-3.57,1.99-10.45,1.99-10.45-6.69-4.32-22.88-4.18-22.88-4.18l.17-2.67-8.76-.11-.65,2.78c-2.99,.04-23.49,.79-24.37,4.49-.87,3.7-2.16,10.17-2.16,10.17l8.86-.23Zm2.65-2.33c-.06,2.76,2.41,2.73,2.41,2.73l7.03-.1c-11.03,6.94-19.18,5.8-19.18,5.8-4.17,1.24-.34,3.95-.34,3.95,9.36,2.63,20.8-3.21,20.8-3.21-10.61,8.36-23.32,9.17-23.32,9.17-1.89,.19-1.69,3.42,1.17,3.77,7.74,.37,24.08-5.63,24.08-5.63-12.32,10.68-27.56,11.05-27.56,11.05-2.9,1.7,.45,3.87,1.39,3.69,13.04,.92,27.05-7.33,27.05-7.33,.29,3.55-1.28,4.92-1.28,4.92-3.03,3.52-11.29,.4-11.83,1.12-.54,.71,.05,3.08,.05,3.08,1.59,.77,11.45,5.84,15.98,2.53,4.53-3.3,5.66-12.79,5.66-12.79,3.4,5.88,15.16,10.68,16.11,11.14,.95,.46,1.91,.92,2.91-.35,.69-.88-.83-2.59-.83-2.59-5.65-3.24-12.63-11.2-12.63-11.2-2.55-2.01-.98-2.43-.98-2.43,13.77-2.88,17.44-11.23,17.44-11.23l-11.13-.16c-1.9,5.48-10.63,7.74-10.63,7.74-1.19-6.3-1.19-11.28-1.19-11.28l12.87-.02c2.02-2.39,.57-4.43,.57-4.43h-33.08s-1.5-.06-1.55,2.07" style="fill: #00883c; fill-rule: evenodd;"/>
    </g>
  </g>
</svg>