<?xml version="1.0" encoding="UTF-8"?>
<svg id="_圖層_2" data-name="圖層 2" xmlns="http://www.w3.org/2000/svg" width="111.58" height="12.76" viewBox="0 0 111.58 12.76">
  <g id="_設計" data-name="設計">
    <g>
      <path d="M0,12.46L5.29,.02l5.5,12.44h-2.55l-1.34-3.25H2.47l-1.33,3.25H0Zm2.8-4.01h3.75l-1.88-4.45-1.87,4.45Z" style="fill: #888;"/>
      <path d="M12.37,12.46V.27h4.62c1.37,0,2.46,.32,3.25,.97,.78,.65,1.18,1.53,1.18,2.65s-.37,1.95-1.09,2.57c-.73,.62-1.73,.94-3,.94h-2.56v5.06h-2.39Zm2.39-5.81h1.06c1.07,0,1.87-.22,2.4-.65,.53-.44,.8-1.09,.8-1.97,0-1-.27-1.75-.79-2.24-.52-.49-1.33-.74-2.41-.74h-1.06V6.65Z" style="fill: #888;"/>
      <path d="M23.6,12.46V.27h7.97v.91h-5.58V5.64h5.18v.92h-5.18v4.99h5.58v.91h-7.97Z" style="fill: #888;"/>
      <path d="M32.72,12.46l4.31-5.78L32.74,.27h2.71l3.07,4.59L41.92,.27h1.36l-4.12,5.47,4.59,6.73h-2.73l-3.32-4.92-3.63,4.92h-1.36Z" style="fill: #888;"/>
      <path d="M61.51,6.76v4.12c-.76,.63-1.55,1.1-2.36,1.42-.82,.31-1.66,.47-2.53,.47-1.93,0-3.48-.59-4.67-1.77-1.19-1.17-1.78-2.72-1.78-4.63s.6-3.33,1.8-4.55c1.2-1.21,2.68-1.82,4.46-1.82,1.08,0,2.01,.21,2.81,.63,.79,.42,1.45,1.05,1.97,1.89l-.77,.51c-.4-.74-.89-1.3-1.48-1.67-.59-.37-1.27-.55-2.04-.55-1.29,0-2.31,.51-3.07,1.51-.75,1.01-1.13,2.38-1.13,4.13s.36,2.98,1.08,3.92c.73,.93,1.73,1.4,3.02,1.4,.5,0,.96-.07,1.4-.22,.43-.15,.81-.36,1.12-.63V6.76h2.17Z" style="fill: #888;"/>
      <path d="M64.16,12.46V.27h4.22c1.6,0,2.81,.3,3.63,.9,.82,.6,1.23,1.49,1.23,2.66,0,.88-.29,1.57-.88,2.07-.58,.51-1.41,.78-2.48,.84l3.41,5.72h-2.68l-3.46-6.18c1.35-.09,2.32-.32,2.87-.71,.56-.4,.84-1,.84-1.82,0-.9-.28-1.58-.83-2.02-.56-.44-1.39-.67-2.51-.67h-.99V12.46h-2.39Z" style="fill: #888;"/>
      <path d="M81.31,12.76c-.9,0-1.74-.16-2.53-.47-.8-.3-1.5-.76-2.13-1.35-.62-.59-1.1-1.27-1.42-2.05-.33-.78-.49-1.61-.49-2.51s.16-1.75,.49-2.53c.32-.78,.81-1.46,1.43-2.04,.63-.58,1.34-1.03,2.14-1.34,.8-.31,1.63-.47,2.51-.47,.7,0,1.39,.1,2.05,.31,.66,.21,1.28,.51,1.86,.9,.87,.6,1.53,1.34,1.99,2.23,.47,.89,.7,1.87,.7,2.94,0,.9-.17,1.74-.5,2.52-.33,.77-.81,1.46-1.44,2.05-.64,.59-1.35,1.05-2.14,1.35-.79,.31-1.63,.47-2.52,.47Zm4.03-6.38c0-1.66-.38-3.01-1.13-4.05-.75-1.03-1.71-1.55-2.9-1.55s-2.14,.52-2.89,1.55c-.76,1.04-1.13,2.39-1.13,4.05s.37,3.01,1.13,4.04c.76,1.03,1.72,1.55,2.89,1.55s2.14-.51,2.9-1.55c.75-1.03,1.13-2.38,1.13-4.05Z" style="fill: #888;"/>
      <path d="M90.26,.27h2.39V7.62c0,1.44,.21,2.43,.63,3,.43,.57,1.14,.85,2.15,.85s1.72-.28,2.14-.85c.42-.56,.63-1.56,.63-3V.27h1.15v7.77c0,1.58-.38,2.76-1.14,3.54-.75,.79-1.89,1.18-3.4,1.18-.68,0-1.33-.11-1.94-.35-.62-.23-1.13-.54-1.53-.95-.39-.39-.67-.84-.84-1.33-.16-.5-.25-1.2-.25-2.1V.27Z" style="fill: #888;"/>
      <path d="M102.53,12.46V.27h4.62c1.38,0,2.46,.32,3.25,.97,.78,.65,1.18,1.53,1.18,2.65s-.36,1.95-1.09,2.57c-.72,.62-1.72,.94-3,.94h-2.56v5.06h-2.39Zm2.39-5.81h1.06c1.07,0,1.87-.22,2.4-.65,.53-.44,.8-1.09,.8-1.97,0-1-.26-1.75-.79-2.24-.52-.49-1.33-.74-2.41-.74h-1.06V6.65Z" style="fill: #888;"/>
    </g>
  </g>
</svg>