<?xml version="1.0" encoding="UTF-8"?>
<svg id="_圖層_2" data-name="圖層 2" xmlns="http://www.w3.org/2000/svg" width="427.47" height="191.16" viewBox="0 0 427.47 191.16">
  <g id="_設計" data-name="設計">
    <g>
      <path d="M180.56,58.3l32.93-.03c5.42,0,10.51,.67,15.26,2.01,4.77,1.33,8.89,3.25,12.41,5.77,3.52,2.52,6.31,5.63,8.34,9.33,2.05,3.71,3.08,7.94,3.08,12.72s-1,9.46-2.95,12.95c-1.97,3.48-4.56,6.39-7.77,8.67-3.21,2.31-6.87,4.02-10.96,5.15-4.09,1.13-7.88,1.85-12.37,2.02-1.82,.05-3.93,.17-5.88,.05-1.97-.09-4-.23-5.87-.39-1.85-.16-3.48-.44-5.03-.65-1.54-.17-4.16-.52-5.15-.73v38.5s-16.03,0-16.03,0V58.3Zm16.03,50.98c1.99,.57,5.46,1.33,7.8,1.75,2.4,.49,4.93,.64,7.32,.64,3.89,0,7.29-.95,10.19-2.11,2.92-1.18,5.34-2.75,7.25-4.74,1.91-2.01,3.36-4.36,4.32-7.09,.98-2.7,1.46-6.22,1.46-9.31,0-3.59-.61-6.86-1.89-9.81-1.26-2.95-2.96-5.44-5.13-7.54-2.18-2.09-4.73-3.69-7.64-4.8-2.91-1.13-6.06-1.67-9.43-1.67h-14.25v44.67Z" style="fill: #4d4d4d;"/>
      <polygon points="326.9 58.3 326.9 64.45 276.62 64.45 276.62 98.61 310.24 98.61 310.24 104.76 276.62 104.76 276.62 147.52 326.9 147.52 326.9 153.66 260.58 153.66 260.58 58.3 326.9 58.3" style="fill: #4d4d4d;"/>
      <polygon points="341.12 153.66 332.67 153.66 372.84 106.66 336.25 58.3 355.27 58.3 382.95 94.94 414.14 58.3 422.67 58.3 386.85 100.19 427.47 153.66 408.29 153.66 376.8 111.93 341.12 153.66" style="fill: #4d4d4d;"/>
      <polygon points="99.06 82.23 50.8 185.02 63.54 185.02 99.06 109.63 99.06 82.23" style="fill: #666;"/>
      <polygon points="99.07 0 170.55 153.66 157.78 153.66 99.07 27.4 99.07 0" style="fill: #666;"/>
      <polygon points="99.07 27.41 25.4 185.02 38.16 185.02 99.07 54.82 99.07 27.41" style="fill: #4d4d4d;"/>
      <polygon points="99.07 54.84 145.03 153.66 132.29 153.66 99.07 82.23 99.07 54.84" style="fill: #4d4d4d;"/>
      <polygon points="99.07 109.64 119.51 153.66 106.75 153.66 99.07 137.03 99.07 109.64" style="fill: #666;"/>
      <polygon points="0 185.02 12.75 185.02 99.06 .01 99.06 0 86.29 0 0 185.02" style="fill: #666;"/>
      <g>
        <path d="M85.92,166.18l8.73,18.95h-3.16l-2.84-6.18h-7.93l-2.92,6.18h-1.57l8.93-18.95h.77Zm-4.66,11.58h6.81l-3.36-7.33-3.45,7.33Z" style="fill: #666;"/>
        <path d="M96.36,164.32l2.02-.8h.81v9.99c.24-.41,.54-.79,.93-1.16,.36-.35,.77-.66,1.22-.93,.44-.27,.89-.48,1.38-.64,.47-.15,.93-.24,1.38-.24,.82,0,1.58,.17,2.29,.51,.7,.33,1.3,.8,1.82,1.37,.51,.57,.89,1.25,1.17,2.03,.28,.76,.43,1.59,.43,2.47,0,.78-.09,1.53-.28,2.25-.19,.74-.45,1.42-.81,2.05-.33,.64-.74,1.2-1.22,1.73-.49,.52-1.02,.96-1.62,1.33-.6,.37-1.22,.66-1.9,.86-.69,.19-1.39,.29-2.14,.29-1.05,0-2.05-.13-2.99-.41-.93-.28-1.75-.7-2.48-1.29v-19.41Zm2.83,18.46c.17,.17,.37,.34,.58,.52,.21,.18,.45,.33,.72,.48,.27,.14,.54,.26,.86,.35,.33,.09,.68,.13,1.08,.13,.66,0,1.26-.15,1.81-.47,.54-.32,1-.76,1.39-1.34,.39-.57,.68-1.26,.9-2.05,.2-.79,.32-1.64,.32-2.58,0-.7-.12-1.37-.33-1.98-.23-.64-.52-1.17-.89-1.62-.39-.45-.82-.82-1.33-1.09-.52-.28-1.05-.4-1.63-.4-.33,0-.66,.04-1,.12-.32,.1-.66,.22-.97,.38-.31,.16-.58,.34-.86,.54-.25,.23-.48,.45-.65,.69v8.3Z" style="fill: #666;"/>
        <path d="M119.42,185.43c-1.09,0-2.1-.19-3.02-.57-.92-.39-1.73-.9-2.39-1.55-.69-.66-1.21-1.43-1.58-2.31-.37-.88-.56-1.82-.56-2.83s.19-2.04,.56-2.98c.37-.92,.89-1.71,1.58-2.4,.66-.69,1.47-1.24,2.39-1.63,.92-.4,1.93-.59,3.02-.59s2.09,.18,3.02,.54c.92,.37,1.71,.86,2.38,1.49,.68,.64,1.2,1.39,1.58,2.24,.37,.85,.56,1.77,.56,2.75,0,1.08-.19,2.1-.56,3.05-.39,.95-.9,1.77-1.58,2.5-.66,.7-1.46,1.28-2.38,1.69-.93,.41-1.93,.61-3.02,.61m.53-1.05c.57,0,1.08-.15,1.53-.43,.48-.29,.88-.67,1.21-1.16,.35-.49,.61-1.06,.8-1.7,.19-.65,.28-1.33,.28-2.05,0-1.04-.09-2.01-.27-2.9-.17-.9-.47-1.69-.86-2.37-.4-.68-.92-1.2-1.55-1.58-.64-.38-1.43-.58-2.36-.58-.47,0-.92,.15-1.37,.41-.44,.28-.84,.66-1.17,1.13-.35,.48-.61,1.04-.81,1.67-.21,.64-.32,1.31-.32,2.04,0,1.03,.11,2.01,.33,2.93,.23,.91,.53,1.7,.96,2.38,.43,.68,.93,1.22,1.54,1.61,.6,.39,1.3,.58,2.07,.58" style="fill: #666;"/>
        <polygon points="131.04 170.83 136.09 181.65 140.94 170.83 142.24 170.83 135.8 185.29 134.8 185.29 128.07 170.83 131.04 170.83" style="fill: #666;"/>
        <path d="M150.3,185.43c-.97,0-1.87-.19-2.72-.54-.85-.36-1.58-.86-2.22-1.49-.64-.62-1.14-1.35-1.51-2.19-.37-.84-.56-1.73-.56-2.69,0-1.16,.17-2.21,.51-3.19,.33-.97,.82-1.81,1.43-2.52,.61-.71,1.35-1.26,2.2-1.65,.86-.41,1.83-.61,2.9-.61,.93,0,1.79,.17,2.58,.49,.77,.34,1.43,.77,2.01,1.32,.56,.56,1,1.2,1.3,1.92,.32,.72,.48,1.49,.48,2.28h-10.67c0,.97,.13,1.85,.37,2.66,.25,.82,.6,1.53,1.04,2.14,.47,.6,.98,1.06,1.59,1.39,.62,.33,1.3,.51,2.05,.51,.61,0,1.21-.11,1.77-.31,.57-.19,1.09-.46,1.55-.78,.45-.34,.85-.71,1.17-1.13,.32-.42,.56-.85,.69-1.29l.81,.37c-.2,.72-.53,1.41-.98,2.07-.45,.64-.98,1.2-1.59,1.68-.61,.48-1.28,.86-2.01,1.14-.72,.28-1.45,.41-2.18,.41m2.83-10c0-.54-.09-1.05-.29-1.5-.19-.48-.44-.89-.78-1.22-.33-.34-.72-.6-1.17-.8-.45-.19-.93-.29-1.45-.29-.44,0-.84,.11-1.24,.29-.38,.19-.73,.45-1.04,.8-.31,.33-.56,.74-.77,1.21-.19,.45-.31,.96-.36,1.5h7.09Z" style="fill: #666;"/>
        <path d="M167.69,170.83h2.84v2.94c.28-.37,.6-.74,.94-1.12,.36-.38,.74-.73,1.17-1.04,.43-.31,.89-.56,1.41-.76,.5-.19,1.06-.29,1.67-.29,.85,0,1.62,.19,2.31,.53,.68,.36,1.28,.84,1.77,1.44,.49,.62,.86,1.31,1.13,2.13,.27,.81,.39,1.69,.39,2.6,0,1.18-.16,2.27-.48,3.27-.32,1-.78,1.87-1.38,2.59-.62,.72-1.35,1.28-2.21,1.69-.88,.41-1.83,.61-2.91,.61-.8,0-1.49-.08-2.06-.24-.6-.17-1.18-.44-1.75-.81v6.77h-2.84v-20.32Zm2.84,10.44c0,.43,.09,.84,.28,1.21,.19,.37,.44,.7,.78,.99,.33,.28,.73,.51,1.2,.67,.48,.17,.98,.24,1.55,.24,.53,0,1.02-.13,1.49-.4,.48-.27,.89-.66,1.22-1.16,.36-.49,.64-1.09,.84-1.78,.2-.69,.31-1.45,.31-2.28,0-1.06-.09-1.98-.28-2.76-.19-.78-.45-1.43-.78-1.97-.33-.52-.72-.9-1.18-1.17-.45-.26-.94-.39-1.47-.39-.41,0-.81,.07-1.2,.19-.37,.13-.73,.31-1.06,.52-.33,.21-.64,.45-.93,.73-.28,.29-.53,.58-.76,.88v6.48Z" style="fill: #666;"/>
        <path d="M190.31,185.43c-.96,0-1.87-.19-2.72-.54-.84-.36-1.58-.86-2.22-1.49-.64-.62-1.13-1.35-1.5-2.19-.37-.84-.56-1.73-.56-2.69,0-1.16,.16-2.21,.5-3.19,.33-.97,.8-1.81,1.42-2.52,.61-.71,1.35-1.26,2.22-1.65,.86-.41,1.82-.61,2.88-.61,.94,0,1.81,.17,2.56,.49,.8,.34,1.46,.77,2.02,1.32,.56,.56,1,1.2,1.3,1.92,.32,.72,.48,1.49,.48,2.28h-10.65c0,.97,.12,1.85,.37,2.66,.24,.82,.58,1.53,1.04,2.14,.45,.6,.97,1.06,1.59,1.39,.61,.33,1.29,.51,2.03,.51,.61,0,1.21-.11,1.78-.31,.56-.19,1.08-.46,1.54-.78,.46-.34,.84-.71,1.17-1.13,.32-.42,.56-.85,.69-1.29l.81,.37c-.2,.72-.53,1.41-.98,2.07-.45,.64-.98,1.2-1.59,1.68-.61,.48-1.28,.86-1.99,1.14-.73,.28-1.45,.41-2.19,.41m2.83-10c0-.54-.09-1.05-.28-1.5-.2-.48-.47-.89-.8-1.22-.33-.34-.72-.6-1.17-.8-.45-.19-.93-.29-1.45-.29-.43,0-.84,.11-1.22,.29-.39,.19-.74,.45-1.05,.8-.31,.33-.56,.74-.76,1.21-.2,.45-.33,.96-.37,1.5h7.09Z" style="fill: #666;"/>
        <path d="M206.69,185.43c-1.1,0-2.1-.19-3.03-.57-.92-.39-1.71-.9-2.4-1.55-.66-.66-1.2-1.43-1.57-2.31-.37-.88-.56-1.82-.56-2.83s.19-2.04,.56-2.98c.37-.92,.9-1.71,1.57-2.4,.69-.69,1.49-1.24,2.4-1.63,.93-.4,1.93-.59,3.03-.59s2.07,.18,3,.54c.93,.37,1.71,.86,2.38,1.49,.68,.64,1.2,1.39,1.58,2.24,.37,.85,.57,1.77,.57,2.75,0,1.08-.2,2.1-.57,3.05-.39,.95-.9,1.77-1.58,2.5-.66,.7-1.45,1.28-2.38,1.69-.93,.41-1.93,.61-3,.61m.53-1.05c.56,0,1.06-.15,1.53-.43,.47-.29,.88-.67,1.21-1.16,.33-.49,.6-1.06,.78-1.7,.19-.65,.28-1.33,.28-2.05,0-1.04-.08-2.01-.27-2.9-.17-.9-.46-1.69-.86-2.37-.4-.68-.9-1.2-1.55-1.58-.64-.38-1.42-.58-2.35-.58-.47,0-.93,.15-1.38,.41-.44,.28-.82,.66-1.17,1.13-.33,.48-.61,1.04-.81,1.67-.21,.64-.32,1.31-.32,2.04,0,1.03,.11,2.01,.33,2.93,.23,.91,.54,1.7,.96,2.38,.43,.68,.94,1.22,1.54,1.61,.61,.39,1.3,.58,2.09,.58" style="fill: #666;"/>
        <path d="M216.95,170.83h2.83v2.94c.28-.37,.61-.74,.96-1.12,.34-.38,.74-.73,1.17-1.04,.41-.31,.89-.56,1.41-.76,.5-.19,1.06-.29,1.67-.29,.84,0,1.61,.19,2.3,.53,.69,.36,1.28,.84,1.77,1.44,.49,.62,.86,1.31,1.13,2.13,.27,.81,.4,1.69,.4,2.6,0,1.18-.16,2.27-.48,3.27-.33,1-.8,1.87-1.39,2.59-.62,.72-1.35,1.28-2.21,1.69-.86,.41-1.83,.61-2.91,.61-.78,0-1.47-.08-2.06-.24-.58-.17-1.17-.44-1.75-.81v6.77h-2.83v-20.32Zm2.83,10.44c0,.43,.09,.84,.28,1.21,.19,.37,.45,.7,.78,.99,.33,.28,.73,.51,1.21,.67,.47,.17,.98,.24,1.54,.24s1.02-.13,1.5-.4c.46-.27,.88-.66,1.22-1.16,.35-.49,.64-1.09,.82-1.78,.2-.69,.32-1.45,.32-2.28,0-1.06-.11-1.98-.29-2.76-.19-.78-.45-1.43-.77-1.97-.33-.52-.73-.9-1.18-1.17-.47-.26-.96-.39-1.49-.39-.41,0-.81,.07-1.18,.19-.39,.13-.74,.31-1.06,.52-.34,.21-.65,.45-.93,.73-.29,.29-.54,.58-.77,.88v6.48Z" style="fill: #666;"/>
        <polygon points="236.2 185.13 233.37 185.13 233.37 164.32 235.37 163.53 236.2 163.53 236.2 185.13" style="fill: #666;"/>
        <path d="M245.99,185.43c-.96,0-1.87-.19-2.72-.54-.84-.36-1.58-.86-2.22-1.49-.62-.62-1.14-1.35-1.5-2.19-.37-.84-.56-1.73-.56-2.69,0-1.16,.16-2.21,.5-3.19,.33-.97,.81-1.81,1.42-2.52,.61-.71,1.35-1.26,2.22-1.65,.86-.41,1.83-.61,2.88-.61,.94,0,1.79,.17,2.58,.49,.78,.34,1.45,.77,2.01,1.32,.56,.56,1.01,1.2,1.31,1.92,.31,.72,.47,1.49,.47,2.28h-10.65c0,.97,.12,1.85,.36,2.66,.25,.82,.6,1.53,1.05,2.14,.45,.6,.98,1.06,1.59,1.39,.61,.33,1.29,.51,2.03,.51,.62,0,1.22-.11,1.78-.31,.57-.19,1.08-.46,1.54-.78,.45-.34,.84-.71,1.17-1.13s.56-.85,.7-1.29l.81,.37c-.21,.72-.54,1.41-1,2.07-.45,.64-.98,1.2-1.59,1.68-.61,.48-1.28,.86-1.99,1.14-.72,.28-1.45,.41-2.19,.41m2.84-10c0-.54-.09-1.05-.29-1.5-.19-.48-.45-.89-.78-1.22-.35-.34-.73-.6-1.18-.8-.45-.19-.93-.29-1.44-.29-.44,0-.85,.11-1.24,.29-.4,.19-.74,.45-1.04,.8-.32,.33-.57,.74-.76,1.21-.21,.45-.33,.96-.37,1.5h7.09Z" style="fill: #666;"/>
        <path d="M254.73,172.03c.44-.12,.84-.28,1.21-.5,.37-.21,.7-.45,.97-.74,.28-.28,.49-.58,.65-.9,.16-.33,.24-.67,.24-1.02,0-.19-.04-.38-.12-.52-.09-.16-.19-.24-.31-.24s-.21,.03-.31,.07c-.07,.05-.16,.11-.24,.17-.08,.05-.17,.09-.28,.15-.11,.05-.27,.07-.44,.07-.19,0-.37-.04-.53-.12-.16-.09-.32-.19-.44-.33-.12-.15-.21-.31-.29-.5-.07-.19-.12-.39-.12-.62s.07-.45,.16-.67c.09-.21,.24-.38,.41-.54,.16-.15,.37-.28,.6-.36,.24-.09,.48-.13,.74-.13,.34,0,.66,.08,.97,.23,.31,.15,.56,.36,.8,.64,.21,.26,.39,.57,.5,.93,.13,.34,.2,.73,.2,1.12,0,.63-.12,1.21-.36,1.74-.24,.53-.54,1-.96,1.4-.4,.41-.86,.71-1.38,.95-.53,.25-1.08,.38-1.69,.41v-.65Z" style="fill: #666;"/>
        <path d="M266.32,184.45c.37,0,.74-.07,1.08-.19,.32-.11,.6-.27,.85-.47,.23-.2,.41-.43,.54-.68,.13-.27,.2-.52,.2-.78,0-.44-.11-.84-.32-1.15-.21-.31-.5-.62-.86-.87-.37-.27-.77-.5-1.24-.72-.45-.23-.92-.44-1.39-.66-.48-.22-.96-.46-1.41-.72-.45-.27-.86-.57-1.22-.91-.37-.34-.65-.72-.88-1.18-.21-.44-.32-.98-.32-1.59,0-.57,.12-1.1,.36-1.58,.24-.5,.58-.91,1.01-1.27,.44-.36,.96-.64,1.55-.84,.58-.2,1.25-.31,1.95-.31,.47,0,.92,.04,1.34,.11,.41,.07,.8,.19,1.21,.37,.39,.2,.78,.48,1.17,.81,.4,.35,.81,.8,1.25,1.35l-1.06,.93c-.53-.88-1.13-1.54-1.79-1.97-.68-.43-1.4-.64-2.15-.64-.41,0-.77,.04-1.1,.14-.34,.1-.62,.23-.86,.4-.24,.17-.43,.39-.56,.61-.13,.23-.2,.48-.2,.73,0,.44,.12,.8,.36,1.12,.24,.31,.54,.6,.94,.86s.84,.48,1.33,.71c.5,.21,1.01,.43,1.53,.67,.52,.21,1.02,.46,1.53,.72,.49,.27,.94,.56,1.34,.9,.38,.35,.7,.73,.94,1.18,.23,.43,.36,.96,.36,1.55s-.12,1.18-.35,1.7c-.23,.52-.57,1-1.02,1.37-.45,.39-1.02,.68-1.7,.91-.69,.23-1.49,.33-2.4,.33-.41,0-.84-.03-1.28-.09-.44-.07-.88-.19-1.33-.38-.45-.21-.9-.47-1.35-.8-.44-.34-.88-.8-1.3-1.37l1.16-1.05c.34,.48,.66,.9,1,1.24,.32,.34,.64,.64,.96,.84,.33,.21,.66,.38,1.02,.48,.34,.09,.73,.15,1.13,.15" style="fill: #666;"/>
        <path d="M288.96,185.43c-.96,0-1.87-.19-2.72-.54-.84-.36-1.58-.86-2.22-1.49-.64-.62-1.14-1.35-1.5-2.19-.37-.84-.56-1.73-.56-2.69,0-1.16,.16-2.21,.5-3.19,.32-.97,.81-1.81,1.42-2.52,.61-.71,1.34-1.26,2.21-1.65,.88-.41,1.83-.61,2.9-.61,.94,0,1.79,.17,2.58,.49,.78,.34,1.45,.77,2.01,1.32,.56,.56,1,1.2,1.32,1.92,.29,.72,.45,1.49,.45,2.28h-10.64c0,.97,.12,1.85,.36,2.66,.25,.82,.6,1.53,1.04,2.14,.45,.6,.98,1.06,1.61,1.39,.61,.33,1.29,.51,2.03,.51,.61,0,1.21-.11,1.78-.31,.56-.19,1.08-.46,1.53-.78,.47-.34,.85-.71,1.18-1.13,.32-.42,.56-.85,.69-1.29l.81,.37c-.2,.72-.53,1.41-.98,2.07-.45,.64-.98,1.2-1.61,1.68-.6,.48-1.26,.86-1.98,1.14-.73,.28-1.46,.41-2.19,.41m2.84-10c0-.54-.09-1.05-.29-1.5-.2-.48-.47-.89-.8-1.22-.33-.34-.73-.6-1.17-.8-.45-.19-.93-.29-1.43-.29-.44,0-.85,.11-1.25,.29-.38,.19-.73,.45-1.04,.8-.31,.33-.56,.74-.76,1.21-.2,.45-.32,.96-.37,1.5h7.11Z" style="fill: #666;"/>
        <polygon points="297.69 185.13 296.13 185.13 302.11 177.83 297.05 170.85 300.4 170.85 303.9 175.64 307.81 170.85 309.38 170.85 304.62 176.64 310.74 185.13 307.42 185.13 302.87 178.82 297.69 185.13" style="fill: #666;"/>
        <path d="M311.58,170.83h2.84v2.94c.28-.37,.6-.74,.94-1.12,.36-.38,.74-.73,1.17-1.04,.43-.31,.9-.56,1.41-.76,.5-.19,1.06-.29,1.67-.29,.85,0,1.62,.19,2.31,.53,.69,.36,1.28,.84,1.75,1.44,.49,.62,.88,1.31,1.13,2.13,.28,.81,.41,1.69,.41,2.6,0,1.18-.16,2.27-.49,3.27-.32,1-.8,1.87-1.39,2.59-.61,.72-1.34,1.28-2.2,1.69-.86,.41-1.83,.61-2.9,.61-.8,0-1.47-.08-2.07-.24-.58-.17-1.17-.44-1.74-.81v6.77h-2.84v-20.32Zm2.84,10.44c0,.43,.09,.84,.27,1.21,.2,.37,.45,.7,.8,.99,.33,.28,.73,.51,1.2,.67,.46,.17,.98,.24,1.55,.24,.52,0,1.02-.13,1.5-.4,.47-.27,.86-.66,1.22-1.16,.35-.49,.62-1.09,.82-1.78,.2-.69,.31-1.45,.31-2.28,0-1.06-.09-1.98-.28-2.76-.19-.78-.45-1.43-.78-1.97-.33-.52-.72-.9-1.17-1.17-.47-.26-.96-.39-1.5-.39-.4,0-.8,.07-1.18,.19-.37,.13-.74,.31-1.06,.52-.33,.21-.64,.45-.93,.73-.28,.29-.54,.58-.76,.88v6.48Z" style="fill: #666;"/>
        <path d="M334.2,185.43c-.97,0-1.87-.19-2.72-.54-.84-.36-1.58-.86-2.22-1.49-.64-.62-1.14-1.35-1.51-2.19-.37-.84-.54-1.73-.54-2.69,0-1.16,.16-2.21,.5-3.19,.33-.97,.8-1.81,1.42-2.52,.61-.71,1.35-1.26,2.21-1.65,.88-.41,1.83-.61,2.9-.61,.93,0,1.79,.17,2.58,.49,.77,.34,1.45,.77,2.01,1.32,.56,.56,1,1.2,1.3,1.92,.32,.72,.48,1.49,.48,2.28h-10.67c0,.97,.13,1.85,.37,2.66,.25,.82,.6,1.53,1.04,2.14,.45,.6,1,1.06,1.61,1.39,.61,.33,1.29,.51,2.03,.51,.61,0,1.21-.11,1.78-.31,.57-.19,1.08-.46,1.53-.78,.46-.34,.85-.71,1.18-1.13s.56-.85,.69-1.29l.82,.37c-.21,.72-.54,1.41-1,2.07-.47,.64-.98,1.2-1.59,1.68-.62,.48-1.28,.86-1.99,1.14-.73,.28-1.45,.41-2.19,.41m2.83-10c0-.54-.09-1.05-.28-1.5-.2-.48-.47-.89-.8-1.22-.33-.34-.73-.6-1.17-.8-.45-.19-.93-.29-1.43-.29-.45,0-.85,.11-1.25,.29-.39,.19-.73,.45-1.04,.8-.31,.33-.56,.74-.76,1.21-.2,.45-.32,.96-.36,1.5h7.08Z" style="fill: #666;"/>
        <path d="M349.68,185.43c-.93,0-1.81-.19-2.63-.56-.81-.36-1.53-.88-2.14-1.5-.6-.65-1.09-1.39-1.44-2.26-.34-.85-.53-1.77-.53-2.74,0-1.09,.2-2.1,.58-3.06,.39-.96,.92-1.78,1.59-2.48,.66-.7,1.45-1.26,2.35-1.67,.9-.42,1.87-.62,2.9-.62,.8,0,1.53,.09,2.2,.26,.68,.17,1.25,.42,1.74,.71,.49,.32,.86,.68,1.14,1.08,.28,.42,.41,.87,.41,1.35,0,.21-.07,.43-.16,.62-.12,.19-.25,.36-.44,.5-.17,.13-.37,.24-.6,.33-.23,.08-.46,.12-.69,.12-.25,0-.49-.04-.69-.14-.2-.09-.38-.21-.52-.35-.16-.15-.27-.32-.33-.5-.08-.17-.13-.37-.13-.57,0-.33-.03-.64-.09-.93-.07-.29-.19-.53-.37-.74-.17-.21-.43-.37-.73-.48-.32-.13-.7-.19-1.2-.19-.64,0-1.22,.13-1.74,.39-.52,.26-.94,.61-1.3,1.07-.34,.43-.62,.95-.81,1.54-.19,.6-.28,1.24-.28,1.93,0,.9,.12,1.75,.36,2.59,.24,.81,.57,1.51,1.01,2.14,.44,.61,.96,1.09,1.57,1.45,.61,.36,1.3,.54,2.06,.54,.65,0,1.24-.11,1.71-.32,.49-.2,.92-.48,1.28-.84,.36-.36,.68-.77,.93-1.24,.25-.47,.48-.98,.69-1.49l.86,.35c-.25,.9-.57,1.71-.97,2.41-.41,.72-.9,1.31-1.46,1.79-.54,.49-1.17,.88-1.86,1.12-.7,.25-1.46,.38-2.29,.38" style="fill: #666;"/>
        <path d="M366.51,183.31c-.39,.65-.88,1.17-1.51,1.55-.62,.39-1.41,.57-2.34,.57-.46,0-.88-.08-1.24-.24-.36-.17-.65-.39-.88-.68-.23-.29-.39-.64-.5-1.05-.12-.41-.17-.86-.17-1.35v-10.08h-2.47v-.69c.8,0,1.45-.15,1.97-.43,.52-.3,.93-.68,1.26-1.16,.33-.5,.6-1.06,.77-1.71,.2-.66,.36-1.35,.5-2.07h.8v4.87h3.21v1.19h-3.21v10.08c0,.2,.05,.4,.13,.6,.07,.18,.19,.34,.32,.48,.15,.13,.29,.25,.49,.33,.19,.08,.38,.12,.6,.12,.32,0,.61-.09,.88-.24,.27-.16,.49-.35,.69-.58l.7,.49Z" style="fill: #666;"/>
        <path d="M378.73,185.13h-2.83v-1.95c-.33,.25-.66,.52-.98,.8-.33,.25-.69,.5-1.05,.72-.39,.22-.81,.39-1.26,.54-.46,.15-1,.2-1.59,.2s-1.08-.09-1.51-.27c-.44-.18-.84-.44-1.16-.76-.32-.33-.56-.7-.73-1.12-.17-.43-.27-.91-.27-1.41,0-.62,.15-1.17,.38-1.67,.25-.5,.57-.93,1-1.32,.41-.39,.9-.74,1.47-1.04,.56-.29,1.16-.57,1.78-.8,.64-.24,1.29-.46,1.95-.64,.66-.19,1.33-.37,1.97-.53v-.89c0-.65-.07-1.2-.2-1.64-.12-.45-.31-.8-.54-1.08-.24-.28-.53-.47-.88-.59-.35-.11-.72-.17-1.14-.17-.48,0-.88,.05-1.17,.17-.31,.13-.54,.29-.72,.49-.17,.2-.29,.43-.36,.69-.07,.27-.09,.53-.09,.8,0,.25-.01,.5-.05,.72-.05,.23-.12,.44-.21,.61-.11,.17-.25,.31-.44,.43-.17,.09-.41,.15-.69,.15-.45,0-.81-.15-1.09-.48-.27-.32-.41-.72-.41-1.18s.15-.91,.47-1.33c.32-.4,.73-.75,1.25-1.05,.53-.29,1.16-.52,1.85-.7,.69-.17,1.42-.26,2.21-.26,.93,0,1.73,.09,2.38,.27,.64,.18,1.16,.43,1.55,.75,.4,.33,.69,.73,.88,1.21,.17,.46,.25,.98,.25,1.55v10.79Zm-2.83-8.32c-.61,.19-1.25,.44-1.93,.72-.68,.27-1.28,.6-1.85,.96-.56,.37-1.02,.77-1.38,1.22-.37,.44-.54,.92-.54,1.41,0,.36,.07,.7,.19,1,.13,.31,.29,.59,.5,.83,.21,.23,.46,.41,.74,.54,.28,.15,.57,.22,.86,.22,.33,0,.62-.05,.92-.13,.28-.09,.56-.2,.84-.35,.27-.13,.54-.3,.81-.49,.27-.2,.54-.4,.84-.61v-5.33Z" style="fill: #666;"/>
        <path d="M390.13,183.31c-.37,.65-.88,1.17-1.51,1.55-.62,.39-1.41,.57-2.32,.57-.48,0-.89-.08-1.25-.24-.35-.17-.64-.39-.86-.68-.23-.29-.4-.64-.5-1.05-.12-.41-.17-.86-.17-1.35v-10.08h-2.47v-.69c.8,0,1.45-.15,1.97-.43,.52-.3,.93-.68,1.26-1.16,.33-.5,.58-1.06,.77-1.71,.2-.66,.36-1.35,.49-2.07h.81v4.87h3.22v1.19h-3.22v10.08c0,.2,.04,.4,.12,.6,.08,.18,.2,.34,.33,.48,.12,.13,.29,.25,.48,.33,.19,.08,.4,.12,.61,.12,.31,0,.61-.09,.86-.24,.28-.16,.5-.35,.69-.58l.7,.49Z" style="fill: #666;"/>
        <path d="M393.37,163.53c.21,0,.43,.03,.62,.11,.2,.09,.37,.18,.52,.31,.15,.13,.27,.28,.36,.46,.09,.18,.13,.37,.13,.54,0,.19-.04,.38-.13,.55-.09,.16-.21,.31-.36,.45-.15,.13-.32,.23-.52,.32-.2,.05-.41,.09-.62,.09-.23,0-.43-.04-.62-.09-.19-.09-.36-.19-.52-.32-.15-.14-.27-.29-.36-.45-.08-.17-.12-.36-.12-.55,0-.18,.04-.37,.12-.54,.09-.18,.21-.33,.36-.46,.16-.13,.33-.23,.52-.31,.2-.08,.4-.11,.62-.11m-1.4,7.84l1.99-.81h.84v14.57h-2.83v-13.76Z" style="fill: #666;"/>
        <path d="M405.22,185.43c-1.1,0-2.1-.19-3.03-.57-.92-.39-1.71-.9-2.39-1.55-.68-.66-1.21-1.43-1.58-2.31-.37-.88-.56-1.82-.56-2.83s.19-2.04,.56-2.98c.37-.92,.9-1.71,1.58-2.4,.68-.69,1.47-1.24,2.39-1.63,.93-.4,1.93-.59,3.03-.59s2.09,.18,3,.54c.92,.37,1.71,.86,2.39,1.49,.66,.64,1.2,1.39,1.57,2.24,.38,.85,.57,1.77,.57,2.75,0,1.08-.19,2.1-.57,3.05-.37,.95-.9,1.77-1.57,2.5-.68,.7-1.47,1.28-2.39,1.69-.92,.41-1.91,.61-3,.61m.52-1.05c.57,0,1.09-.15,1.55-.43,.45-.29,.85-.67,1.2-1.16,.35-.49,.61-1.06,.78-1.7,.2-.65,.29-1.33,.29-2.05,0-1.04-.09-2.01-.27-2.9-.17-.9-.47-1.69-.86-2.37-.4-.68-.93-1.2-1.57-1.58-.62-.38-1.42-.58-2.34-.58-.48,0-.94,.15-1.38,.41-.45,.28-.84,.66-1.18,1.13-.33,.48-.61,1.04-.81,1.67-.21,.64-.31,1.31-.31,2.04,0,1.03,.11,2.01,.33,2.93,.21,.91,.54,1.7,.96,2.38,.41,.68,.93,1.22,1.53,1.61,.61,.39,1.3,.58,2.07,.58" style="fill: #666;"/>
        <path d="M415.46,170.83h2.84v2.61c.88-.97,1.78-1.69,2.7-2.17,.93-.48,1.89-.71,2.84-.71,.51,0,.97,.1,1.41,.34,.44,.23,.81,.53,1.14,.92,.32,.4,.57,.85,.77,1.37,.17,.52,.28,1.09,.28,1.68v10.26h-2.84v-9.77c0-.94-.21-1.67-.64-2.15-.41-.48-.97-.73-1.63-.73-.31,0-.62,.05-.96,.15-.33,.11-.69,.25-1.02,.42-.35,.2-.69,.4-1.04,.67-.35,.25-.68,.54-1.01,.84v10.58h-2.84v-14.29Z" style="fill: #666;"/>
      </g>
    </g>
  </g>
</svg>