<?xml version="1.0" encoding="UTF-8"?>
<svg id="_圖層_2" data-name="圖層 2" xmlns="http://www.w3.org/2000/svg" width="1524.89" height="214.78" viewBox="0 0 1524.89 214.78">
  <g id="_設計" data-name="設計">
    <g>
      <path d="M74.43,133.18H25.07l-11.54,23.75H0L48.29,62.73h11.94l45.51,94.19h-20.17l-11.14-23.75Zm-3.58-7.56l-20.56-43.91-21.49,43.91h42.06Z" style="fill: #fff;"/>
      <path d="M116.02,149.43c-6.86-5.88-10.28-14.22-10.28-25.01s3.43-19.12,10.28-25.01c6.85-5.88,16.43-8.82,28.72-8.82,10.35,0,18.62,1.95,24.81,5.84,6.19,3.89,9.86,9.42,11.01,16.58h-13c-1.06-5.13-3.47-9.09-7.23-11.87-3.76-2.79-8.47-4.18-14.13-4.18-7.43,0-13.16,2.39-17.18,7.16-4.03,4.78-6.04,11.54-6.04,20.3s2.01,15.52,6.04,20.3c4.02,4.78,9.75,7.16,17.18,7.16,5.48,0,10.15-1.41,14-4.25,3.85-2.83,6.3-6.77,7.36-11.81h13c-1.15,7.16-4.84,12.69-11.08,16.58-6.24,3.89-14.48,5.84-24.74,5.84-12.29,0-21.87-2.94-28.72-8.82Z" style="fill: #fff;"/>
      <path d="M201.19,149.43c-6.86-5.88-10.28-14.22-10.28-25.01s3.43-19.12,10.28-25.01c6.85-5.88,16.43-8.82,28.72-8.82,10.35,0,18.62,1.95,24.81,5.84,6.19,3.89,9.86,9.42,11.01,16.58h-13c-1.06-5.13-3.47-9.09-7.23-11.87-3.76-2.79-8.47-4.18-14.13-4.18-7.43,0-13.16,2.39-17.18,7.16-4.03,4.78-6.04,11.54-6.04,20.3s2.01,15.52,6.04,20.3c4.02,4.78,9.75,7.16,17.18,7.16,5.48,0,10.15-1.41,14-4.25,3.85-2.83,6.3-6.77,7.36-11.81h13c-1.15,7.16-4.84,12.69-11.08,16.58-6.24,3.89-14.48,5.84-24.74,5.84-12.29,0-21.87-2.94-28.72-8.82Z" style="fill: #fff;"/>
      <path d="M294.72,154.14c-5.97-2.74-10.57-6.65-13.8-11.74-3.23-5.08-4.84-11.08-4.84-17.98s1.61-12.89,4.84-17.98c3.23-5.08,7.83-9,13.8-11.74,5.97-2.74,12.98-4.11,21.03-4.11s15.06,1.37,21.03,4.11c5.97,2.74,10.55,6.66,13.73,11.74,3.18,5.09,4.78,11.08,4.78,17.98s-1.59,12.89-4.78,17.98c-3.18,5.09-7.76,9-13.73,11.74-5.97,2.74-12.98,4.11-21.03,4.11s-15.06-1.37-21.03-4.11Zm37.35-9.62c3.98-4.91,5.97-11.61,5.97-20.1s-1.99-15.19-5.97-20.1c-3.98-4.91-9.42-7.36-16.32-7.36s-12.34,2.45-16.32,7.36c-3.98,4.91-5.97,11.61-5.97,20.1s1.99,15.19,5.97,20.1,9.42,7.36,16.32,7.36,12.34-2.45,16.32-7.36Z" style="fill: #fff;"/>
      <path d="M368.42,91.92h16.98v10.08c1.59-3.45,4.33-6.21,8.23-8.29,3.89-2.08,8.31-3.12,13.27-3.12,6.46,0,11.74,1.26,15.85,3.78s7.05,6.08,8.82,10.68c1.94-5.04,4.89-8.71,8.82-11.01,3.93-2.3,8.51-3.45,13.73-3.45,9.02,0,15.81,2.08,20.36,6.24,4.55,4.16,6.83,10.22,6.83,18.18v41.92h-17.25v-43.12c0-5.39-1.24-9.55-3.71-12.47-2.48-2.92-5.93-4.38-10.35-4.38-5.31,0-9.44,2.37-12.4,7.1-2.96,4.73-4.44,11.43-4.44,20.1v32.77h-16.72v-37.41c0-7.25-1.28-12.82-3.85-16.72-2.57-3.89-6.24-5.84-11.01-5.84-5.04,0-8.98,2.01-11.81,6.04-2.83,4.03-4.25,9.71-4.25,17.05v36.88h-17.11V91.92Z" style="fill: #fff;"/>
      <path d="M495.64,91.92h17.25v10.61c2.56-3.71,5.95-6.63,10.15-8.76,4.2-2.12,8.96-3.18,14.26-3.18,10.79,0,19.17,2.94,25.14,8.82,5.97,5.88,8.96,14,8.96,24.34,0,7.08-1.39,13.2-4.18,18.37-2.79,5.17-6.72,9.15-11.81,11.94-5.09,2.79-11.08,4.18-17.98,4.18-5.66,0-10.57-1.08-14.73-3.25-4.16-2.17-7.43-5.37-9.82-9.62v36.75h-17.25V91.92Zm52.93,52.47c3.8-5.26,5.7-12.23,5.7-20.9s-1.81-15.06-5.44-19.7c-3.63-4.64-8.67-6.97-15.12-6.97s-11.43,2.5-15.19,7.5c-3.76,5-5.64,11.7-5.64,20.1s1.81,15.48,5.44,20.43c3.63,4.95,8.62,7.43,14.99,7.43s11.45-2.63,15.26-7.89Z" style="fill: #fff;"/>
      <path d="M589.57,153.08c-4.6-3.45-6.9-8.4-6.9-14.86s2.76-11.89,8.29-15.52c5.53-3.63,13.51-5.44,23.95-5.44h18.04v-4.51c0-5.13-1.46-9.04-4.38-11.74-2.92-2.7-7.12-4.05-12.6-4.05s-9.53,1.31-12.67,3.91c-3.14,2.61-5.06,6.39-5.77,11.34h-13c.97-6.99,4.29-12.34,9.95-16.05,5.66-3.71,13.31-5.57,22.95-5.57,10.52,0,18.59,2.04,24.21,6.1,5.62,4.07,8.42,9.91,8.42,17.51v21.23c0,7.78,.66,14.95,1.99,21.49h-16.05c-.89-3.36-1.51-6.59-1.86-9.68-2.57,3.8-5.93,6.59-10.08,8.36-4.16,1.77-8.76,2.65-13.8,2.65-9.2,0-16.1-1.72-20.7-5.17Zm38.27-5.9c3.4-3.32,5.11-7.63,5.11-12.94v-10.48h-13.27c-6.55,0-11.5,1.22-14.86,3.65-3.36,2.43-5.04,5.99-5.04,10.68s1.21,8.09,3.65,10.48c2.43,2.39,5.99,3.58,10.68,3.58,5.75,0,10.33-1.66,13.73-4.98Z" style="fill: #fff;"/>
      <path d="M666.78,91.92h17.11v11.01c2.03-3.8,5.19-6.81,9.49-9.02,4.29-2.21,9.13-3.32,14.53-3.32,8.67,0,15.48,2.21,20.43,6.63,4.95,4.42,7.43,10.53,7.43,18.31v41.39h-17.11v-42.72c0-5.57-1.33-9.84-3.98-12.8-2.65-2.96-6.5-4.44-11.54-4.44-5.93,0-10.61,2.08-14.06,6.24-3.45,4.16-5.17,9.77-5.17,16.85v36.88h-17.11V91.92Z" style="fill: #fff;"/>
      <path d="M741.74,178.55l3.98-7.16c.97,1.24,2.48,2.28,4.51,3.12,2.03,.84,3.93,1.26,5.7,1.26,3.27,0,6.35-.75,9.22-2.26,2.87-1.5,5.15-3.6,6.83-6.3,1.68-2.7,2.52-5.68,2.52-8.96,0-3.71-.66-6.68-1.99-8.89l-30.78-57.45h18.04l25.47,49.62,23.88-49.62h10.35l-32.5,67c-3.98,8.23-8.34,14.33-13.07,18.31-4.73,3.98-10.02,5.97-15.85,5.97-7.08,0-12.52-1.55-16.32-4.64Z" style="fill: #fff;"/>
      <path d="M853.44,178.55l3.98-7.16c.97,1.24,2.48,2.28,4.51,3.12,2.03,.84,3.93,1.26,5.7,1.26,3.27,0,6.35-.75,9.22-2.26,2.87-1.5,5.15-3.6,6.83-6.3,1.68-2.7,2.52-5.68,2.52-8.96,0-3.71-.66-6.68-1.99-8.89l-30.78-57.45h18.04l25.47,49.62,23.88-49.62h10.35l-32.5,67c-3.98,8.23-8.34,14.33-13.07,18.31-4.73,3.98-10.02,5.97-15.85,5.97-7.08,0-12.52-1.55-16.32-4.64Z" style="fill: #fff;"/>
      <path d="M954.47,154.14c-5.97-2.74-10.57-6.65-13.8-11.74-3.23-5.08-4.84-11.08-4.84-17.98s1.61-12.89,4.84-17.98c3.23-5.08,7.83-9,13.8-11.74,5.97-2.74,12.98-4.11,21.03-4.11s15.06,1.37,21.03,4.11c5.97,2.74,10.55,6.66,13.73,11.74,3.18,5.09,4.78,11.08,4.78,17.98s-1.59,12.89-4.78,17.98c-3.18,5.09-7.76,9-13.73,11.74-5.97,2.74-12.98,4.11-21.03,4.11s-15.06-1.37-21.03-4.11Zm37.35-9.62c3.98-4.91,5.97-11.61,5.97-20.1s-1.99-15.19-5.97-20.1c-3.98-4.91-9.42-7.36-16.32-7.36s-12.34,2.45-16.32,7.36c-3.98,4.91-5.97,11.61-5.97,20.1s1.99,15.19,5.97,20.1,9.42,7.36,16.32,7.36,12.34-2.45,16.32-7.36Z" style="fill: #fff;"/>
      <path d="M1033.87,151.56c-4.95-4.47-7.43-10.59-7.43-18.37v-41.26h17.11v42.59c0,5.66,1.3,9.97,3.91,12.94,2.61,2.96,6.43,4.44,11.48,4.44,5.92,0,10.63-2.08,14.13-6.24,3.49-4.16,5.24-9.77,5.24-16.85v-36.88h17.11v65.01h-17.11v-11.01c-2.04,3.8-5.2,6.81-9.49,9.02-4.29,2.21-9.13,3.32-14.53,3.32-8.67,0-15.48-2.23-20.43-6.7Z" style="fill: #fff;"/>
    </g>
    <g>
      <path d="M1166.73,109.68h19.47v3.59h-15.19v11.41h12.89v3.59h-12.89v15.14h-4.28v-33.73Z" style="fill: #fff;"/>
      <path d="M1189.69,126.43c0-10.81,5.94-17.4,14.4-17.4s14.4,6.58,14.4,17.4-5.94,17.58-14.4,17.58-14.4-6.76-14.4-17.58Zm24.44,0c0-8.47-4-13.67-10.03-13.67s-10.03,5.2-10.03,13.67,3.96,13.85,10.03,13.85,10.03-5.43,10.03-13.85Z" style="fill: #fff;"/>
      <path d="M1244.32,143.41l-8.19-14.31h-6.07v14.31h-4.28v-33.73h10.58c6.86,0,11.78,2.44,11.78,9.48,0,5.25-3.04,8.38-7.64,9.48l8.65,14.77h-4.83Zm-14.27-17.76h5.66c5.29,0,8.19-2.12,8.19-6.49s-2.9-6.03-8.19-6.03h-5.66v12.52Z" style="fill: #fff;"/>
    </g>
    <g>
      <path d="M1322.66,157.44c-5.12,0-8.62-1.24-10.5-3.71-1.88-2.47-2.82-5.5-2.82-9.09,0-4.78,1.06-9.9,3.2-15.36,2.13-5.46,3.88-9.73,5.25-12.8-2.22,2.39-4.35,4.7-6.4,6.91-2.05,2.22-3.5,3.84-4.35,4.86-.51,.68-.94,1.02-1.28,1.02s-.51-.42-.51-1.28c0-1.36,.42-2.64,1.28-3.84,2.39-3.07,5.12-6.31,8.19-9.73,3.07-3.41,6.06-7,8.96-10.75,3.41-6.31,7.21-13.7,11.39-22.14,4.18-8.45,8.53-17.15,13.06-26.11,4.52-8.96,8.96-17.24,13.31-24.83,4.35-7.59,8.23-13.7,11.65-18.3,2.9-1.19,5.67-2.73,8.32-4.61,2.64-1.88,5.29-3.62,7.94-5.25,2.64-1.62,5.42-2.43,8.32-2.43,1.88,0,3.28,.51,4.22,1.54,.94,1.02,1.58,2.22,1.92,3.58,.17,.51,.26,1.45,.26,2.82,0,3.93-1.32,8.7-3.97,14.34-2.65,5.63-5.72,11.14-9.22,16.51-3.5,5.38-6.53,9.77-9.09,13.18-6.83,9.56-13.82,18.22-20.99,25.98-7.17,7.77-13.61,14.25-19.33,19.46-5.72,5.21-9.86,9-12.42,11.39-1.2,2.22-2.6,5.16-4.22,8.83-1.62,3.67-3.03,7.51-4.22,11.52-1.2,4.01-1.79,7.72-1.79,11.14,0,2.9,.68,5.34,2.05,7.3,1.36,1.96,3.67,2.94,6.91,2.94h1.54c.51,0,1.11-.08,1.79-.26,2.9-.51,6.06-2.13,9.47-4.86,3.41-2.73,6.82-5.89,10.24-9.47,3.41-3.58,6.48-7,9.22-10.24,1.19-1.36,2.3-2.69,3.33-3.97,1.02-1.28,1.7-2.18,2.05-2.69,1.19,1.2,1.15,2.69-.13,4.48-1.28,1.79-2.35,3.29-3.2,4.48-1.2,1.54-2.9,3.63-5.12,6.27-2.22,2.65-4.78,5.5-7.68,8.58-3.24,3.24-7.26,6.49-12.03,9.73-4.78,3.24-9.64,4.86-14.59,4.86Zm10.75-58.88c5.29-4.44,11.99-10.79,20.1-19.07,8.1-8.28,16.08-18.3,23.94-30.08,.85-1.36,2.26-3.67,4.22-6.91,1.96-3.24,4.01-6.95,6.14-11.14,2.13-4.18,3.97-8.28,5.5-12.29,1.54-4.01,2.3-7.46,2.3-10.37,0-2.73-.77-4.1-2.3-4.1-1.88,0-4.35,1.62-7.42,4.86-3.58,3.76-7.64,9.26-12.16,16.51-4.52,7.26-9.26,15.32-14.21,24.19-4.95,8.88-9.69,17.58-14.21,26.11-4.52,8.54-8.49,15.96-11.9,22.27Z" style="fill: #fff;"/>
      <path d="M1369.25,157.7c-1.71,0-3.12-.34-4.22-1.02-1.11-.68-1.66-1.96-1.66-3.84,0-2.39,.64-5.2,1.92-8.45,1.28-3.24,2.73-6.48,4.35-9.73,1.62-3.24,2.86-5.89,3.71-7.94,1.19-2.39,2.69-5.5,4.48-9.34s3.5-7.51,5.12-11.01c1.62-3.5,2.77-5.93,3.46-7.3-2.39,2.56-5.25,5.76-8.58,9.6-3.33,3.84-6.44,7.55-9.34,11.14-2.9,3.58-5.12,6.4-6.66,8.45-.51,.68-.94,1.02-1.28,1.02s-.51-.42-.51-1.28c0-1.36,.42-2.64,1.28-3.84,3.24-4.1,6.87-8.7,10.88-13.82,4.01-5.12,7.64-9.86,10.88-14.21,3.24-4.35,5.29-7.21,6.14-8.58,1.88-.34,4.65-.85,8.32-1.54,3.67-.68,6.18-1.62,7.55-2.82,.51-.51,1.02-.77,1.54-.77,.34,0,.55,.3,.64,.9,.08,.6-.13,1.24-.64,1.92-1.02,1.2-2.82,4.1-5.38,8.7-2.56,4.61-5.25,9.69-8.06,15.23-2.82,5.55-5.42,10.54-7.81,14.98-2.39,4.61-4.44,9.05-6.14,13.31-1.71,4.27-2.56,7.34-2.56,9.22,0,2.39,1.19,3.58,3.58,3.58,2.22,0,5.08-1.36,8.58-4.1,3.5-2.73,7.04-6.02,10.62-9.86,3.58-3.84,6.74-7.38,9.47-10.62,.85-1.02,1.92-2.26,3.2-3.71,1.28-1.45,2.09-2.34,2.43-2.69,.34,.34,.51,.94,.51,1.79-.17,1.2-.6,2.35-1.28,3.46-.68,1.11-1.37,2.09-2.05,2.94-3.58,4.44-7.51,9-11.78,13.7-4.27,4.7-8.96,8.62-14.08,11.78-5.12,3.16-10.67,4.74-16.64,4.74Zm44.54-98.56c-2.39,0-4.1-.77-5.12-2.3-.68-.85-1.02-1.96-1.02-3.33,0-2.73,1.28-4.95,3.84-6.66,1.88-1.02,3.58-1.54,5.12-1.54,2.56,0,4.35,.77,5.38,2.3,.68,.86,1.02,1.96,1.02,3.33,0,2.73-1.37,4.95-4.1,6.66-1.54,1.02-3.24,1.54-5.12,1.54Z" style="fill: #fff;"/>
      <path d="M1350.3,214.78c-6.66,0-12.24-1.07-16.77-3.2-4.52-2.14-7.55-5.34-9.09-9.6-.17-.51-.3-1.02-.38-1.54-.08-.51-.13-1.11-.13-1.79,0-2.56,.6-5.42,1.79-8.58,1.2-3.16,2.48-6.53,3.84-10.11,.51-1.02,1.11-1.54,1.79-1.54,1.2,0,1.54,.85,1.02,2.56-1.19,2.56-1.79,5.29-1.79,8.19,0,5.97,2.6,10.79,7.81,14.46,5.21,3.67,11.14,5.5,17.79,5.5,5.12,0,10.07-1.2,14.85-3.58,8.02-4.1,14.59-9.73,19.71-16.9,5.12-7.17,9.64-14.42,13.57-21.76,5.97-11.43,11.14-23.42,15.49-35.97,4.35-12.54,9-24.96,13.95-37.25h-5.89c-.86,0-1.79,.09-2.82,.26-1.02,.17-1.96,.34-2.82,.51l-.51-.26c.34-1.88,2-3.54,4.99-4.99,2.98-1.45,5.33-2.18,7.04-2.18h3.07c2.56-6.14,5.59-12.88,9.09-20.22,3.5-7.34,7.3-14.72,11.39-22.14,4.1-7.42,8.58-14.21,13.44-20.35,4.86-6.14,9.94-11.01,15.23-14.59,8.7-6.14,18.34-9.22,28.93-9.22,2.05,0,4.05,.64,6.02,1.92,1.96,1.28,2.86,3.2,2.69,5.76l-.77,9.22c0,.34-.26,.6-.77,.77-.51,.17-.86,.09-1.02-.26-.68-3.41-2.52-5.93-5.5-7.55-2.99-1.62-6.44-2.43-10.37-2.43-6.32,0-12.08,2.05-17.28,6.14-5.21,4.1-10.8,11.69-16.77,22.78-2.22,4.27-4.65,9.3-7.3,15.1-2.65,5.8-5.25,11.78-7.81,17.92s-5.04,11.86-7.42,17.15h18.43c1.19,0,2.43-.04,3.71-.13,1.28-.08,2.52-.21,3.71-.38,0,.68-.47,1.32-1.41,1.92-.94,.6-1.75,1.07-2.43,1.41-4.27,2.22-8.28,3.46-12.03,3.71-3.76,.26-8.02,.3-12.8,.13-3.76,9.39-7.3,18.3-10.62,26.75-3.33,8.45-6.96,16.68-10.88,24.7-3.24,7.17-7.26,14.76-12.03,22.78-4.78,8.02-10.24,15.62-16.38,22.78s-13.01,12.97-20.61,17.41c-7.59,4.44-15.91,6.66-24.96,6.66Z" style="fill: #fff;"/>
      <path d="M1470.87,158.98c-7,0-11.86-1.37-14.59-4.1-2.73-2.73-4.1-6.06-4.1-9.98,0-4.95,1.32-10.24,3.97-15.87,2.64-5.63,5.16-10.41,7.55-14.34,2.73-4.1,6.4-8.36,11.01-12.8,4.61-4.44,9.64-8.19,15.1-11.26,5.46-3.07,10.75-4.61,15.87-4.61,4.44,0,7.51,1.07,9.22,3.2,1.7,2.14,2.56,4.65,2.56,7.55,0,5.29-1.58,9.64-4.74,13.06-3.16,3.42-7.04,6.19-11.65,8.32-4.61,2.14-9.05,3.88-13.31,5.25-2.56,.68-5.55,1.37-8.96,2.05-3.42,.68-6.66,1.02-9.73,1.02-1.2,3.07-2.14,6.06-2.82,8.96-.68,2.9-1.02,5.55-1.02,7.94,0,2.9,.72,5.29,2.18,7.17,1.45,1.88,3.88,2.82,7.3,2.82,1.36,0,2.98-.17,4.86-.51,1.88-.34,3.92-.85,6.14-1.54,5.12-1.7,10.15-4.44,15.1-8.19,4.95-3.75,9.51-7.81,13.7-12.16,4.18-4.35,7.38-7.98,9.6-10.88,.51,.51,.77,1.11,.77,1.79,0,.86-.6,2.22-1.79,4.1-3.42,4.78-7.85,9.73-13.31,14.85-5.46,5.12-11.52,9.43-18.18,12.93-6.66,3.5-13.57,5.25-20.74,5.25Zm.26-37.63c2.22,.17,4.74,.13,7.55-.13,2.82-.26,5.59-.81,8.32-1.66,7-2.05,12.07-5.33,15.23-9.86,3.16-4.52,4.74-8.58,4.74-12.16,0-2.05-.43-3.75-1.28-5.12-.86-1.36-2.22-2.05-4.1-2.05-4.95,0-9.39,1.84-13.31,5.5-3.93,3.67-7.34,7.9-10.24,12.67-2.9,4.78-5.21,9.05-6.91,12.8Z" style="fill: #fff;"/>
    </g>
  </g>
</svg>