<?xml version="1.0" encoding="UTF-8"?>
<svg id="_圖層_2" data-name="圖層 2" xmlns="http://www.w3.org/2000/svg" width="224.33" height="53.3" viewBox="0 0 224.33 53.3">
  <g id="_設計" data-name="設計">
    <g>
      <g>
        <g>
          <path d="M136.05,51.47l4.19-9.85,4.35,9.85h-2.02l-1.06-2.57h-3.51l-1.05,2.57h-.9Zm2.22-3.18h2.97l-1.49-3.52-1.48,3.52Z" style="fill: #f9f9ef;"/>
          <path d="M145.84,51.47v-9.65h3.65c1.09,0,1.94,.25,2.57,.77,.62,.51,.93,1.21,.93,2.1s-.29,1.54-.86,2.04c-.58,.49-1.37,.74-2.38,.74h-2.02v4h-1.89Zm1.89-4.6h.84c.84,0,1.48-.17,1.9-.51,.42-.35,.63-.86,.63-1.56,0-.79-.21-1.38-.62-1.77-.42-.39-1.05-.59-1.91-.59h-.84v4.43Z" style="fill: #f9f9ef;"/>
          <path d="M154.72,51.47v-9.65h6.31v.72h-4.41v3.53h4.1v.73h-4.1v3.95h4.41v.72h-6.31Z" style="fill: #f9f9ef;"/>
          <path d="M161.93,51.47l3.41-4.57-3.39-5.08h2.14l2.43,3.63,2.69-3.63h1.07l-3.26,4.33,3.63,5.32h-2.16l-2.62-3.89-2.87,3.89h-1.07Z" style="fill: #f9f9ef;"/>
          <path d="M184.72,46.96v3.26c-.6,.5-1.22,.87-1.87,1.12-.65,.25-1.31,.37-2,.37-1.52,0-2.75-.46-3.69-1.4-.94-.93-1.41-2.15-1.41-3.66s.47-2.63,1.42-3.6c.95-.95,2.12-1.44,3.53-1.44,.85,0,1.59,.17,2.22,.5,.63,.33,1.15,.83,1.56,1.49l-.61,.41c-.32-.59-.71-1.03-1.17-1.32-.47-.29-1-.44-1.61-.44-1.02,0-1.83,.4-2.43,1.2-.6,.8-.89,1.89-.89,3.27s.29,2.36,.86,3.1c.57,.74,1.37,1.11,2.39,1.11,.39,0,.76-.06,1.11-.18,.34-.12,.64-.28,.89-.5v-3.29h1.72Z" style="fill: #f9f9ef;"/>
          <path d="M186.81,51.47v-9.65h3.34c1.27,0,2.22,.24,2.87,.71,.65,.48,.97,1.18,.97,2.11,0,.69-.23,1.24-.69,1.64-.46,.4-1.11,.62-1.96,.67l2.7,4.52h-2.12l-2.74-4.89c1.07-.07,1.83-.26,2.27-.57,.45-.31,.67-.79,.67-1.44,0-.71-.22-1.25-.65-1.6-.44-.35-1.1-.53-1.98-.53h-.78v9.03h-1.89Z" style="fill: #f9f9ef;"/>
          <path d="M200.38,51.71c-.71,0-1.38-.12-2-.37-.63-.24-1.19-.6-1.69-1.07-.49-.47-.87-1.01-1.12-1.62-.26-.62-.39-1.28-.39-1.99s.13-1.38,.39-2c.26-.62,.64-1.16,1.13-1.62,.5-.46,1.06-.82,1.69-1.06,.63-.25,1.29-.37,1.98-.37,.56,0,1.1,.08,1.62,.25,.52,.16,1.01,.4,1.47,.71,.68,.47,1.21,1.06,1.58,1.77,.37,.7,.55,1.48,.55,2.33,0,.71-.13,1.37-.39,1.99-.26,.61-.64,1.15-1.14,1.62-.51,.47-1.07,.83-1.7,1.07-.62,.24-1.29,.37-1.99,.37Zm3.19-5.05c0-1.32-.3-2.38-.89-3.21-.59-.81-1.36-1.22-2.29-1.22s-1.69,.41-2.29,1.22c-.6,.82-.89,1.89-.89,3.21s.3,2.38,.89,3.2c.6,.82,1.36,1.23,2.29,1.23s1.7-.41,2.29-1.22c.6-.82,.89-1.88,.89-3.2Z" style="fill: #f9f9ef;"/>
          <path d="M207.46,41.82h1.89v5.82c0,1.14,.17,1.93,.5,2.37,.34,.45,.9,.67,1.7,.67s1.36-.22,1.7-.67c.33-.45,.5-1.23,.5-2.37v-5.82h.91v6.15c0,1.25-.3,2.18-.9,2.8-.6,.63-1.49,.94-2.69,.94-.53,0-1.05-.09-1.54-.28-.49-.18-.89-.43-1.21-.75-.31-.31-.53-.66-.66-1.06-.13-.4-.2-.95-.2-1.66v-6.15Z" style="fill: #f9f9ef;"/>
          <path d="M217.17,51.47v-9.65h3.65c1.09,0,1.94,.25,2.57,.77,.62,.51,.93,1.21,.93,2.1s-.29,1.54-.86,2.04c-.57,.49-1.36,.74-2.37,.74h-2.03v4h-1.89Zm1.89-4.6h.84c.85,0,1.48-.17,1.9-.51,.42-.35,.63-.86,.63-1.56,0-.79-.21-1.38-.63-1.77-.42-.39-1.05-.59-1.9-.59h-.84v4.43Z" style="fill: #f9f9ef;"/>
        </g>
        <g>
          <path d="M136.05,19.98h6.93v-3.6h2.01v3.6h7.01v8.9h-7.01v4.78h-2.01v-4.78h-6.93v-8.9Zm6.93,7.21v-5.52h-4.89v5.52h4.89Zm6.98,0v-5.52h-4.97v5.52h4.97Z" style="fill: #f9f9ef;"/>
          <path d="M158.16,17.11h6.06v1.33c-.45,1.42-.97,2.93-1.57,4.54,.5,.86,.87,1.64,1.09,2.32,.27,.71,.41,1.31,.41,1.82v.03c.53-.32,1-.65,1.42-1,.33-.27,.65-.63,.97-1.09h-2.54v-1.49h11.88v1.49h-7.37c-.2,.38-.42,.72-.67,1.01h7.49c-.04,4-.42,6.28-1.13,6.84-.38,.5-1.68,.75-3.93,.75l-.37-1.77c.56,.1,1.03,.15,1.4,.15,.7,0,1.24-.15,1.6-.46,.33-.28,.55-1.63,.64-4.05h-.68c-.81,1.57-1.64,2.74-2.46,3.51-1.04,1.02-2.57,1.89-4.61,2.62l-.93-1.42c1.87-.62,3.32-1.38,4.35-2.28,.67-.6,1.29-1.41,1.86-2.43h-1.31c-.55,.84-1.23,1.54-2.05,2.14-.98,.77-2.24,1.49-3.79,2.15l-1.03-1.27c1.38-.53,2.54-1.09,3.48-1.71,.53-.33,1.02-.76,1.47-1.31h-1.37c-.62,.53-1.37,1.02-2.24,1.48l-.33-.4c-.11,.24-.25,.45-.39,.6-.41,.5-1.31,.76-2.7,.76l-.56-1.77c.35,.05,.66,.07,.93,.07,.38,0,.64-.09,.8-.25,.21-.14,.31-.44,.31-.91,0-.56-.1-1.09-.29-1.6-.21-.65-.6-1.41-1.19-2.29,.71-1.77,1.23-3.27,1.56-4.47h-2.34v14.93h-1.86V17.11Zm6.53-.14h9.95v5.74h-9.95v-5.74Zm1.78,2.18h6.36v-.96h-6.36v.96Zm6.36,2.28v-1.09h-6.36v1.09h6.36Z" style="fill: #f9f9ef;"/>
          <path d="M186.01,16.22l1.85,.35c-.28,.58-.55,1.11-.83,1.62h4.37c-.38-.52-.8-1.01-1.26-1.47l2-.29c.45,.52,.87,1.11,1.26,1.76h5.75v1.4h-6.37v1.03h5.68v1.27h-5.68v1.01h5.68v1.28h-5.68v1.08h6.53v1.47h-7.17v.96h7.87v1.47h-5.7c.79,.75,1.51,1.27,2.16,1.55,.87,.42,2.07,.82,3.62,1.2l-1.02,1.55c-1.85-.55-3.23-1.12-4.12-1.69-.92-.61-1.8-1.47-2.66-2.6h-.16v4.51h-1.85v-4.51h-.15c-.56,.72-1.19,1.3-1.9,1.77-1.12,.77-2.73,1.53-4.86,2.28l-1.03-1.54c2.16-.6,3.7-1.17,4.6-1.68,.45-.23,.87-.51,1.23-.83h-5.91v-1.47h8.02v-.96h-5.98v-4.58c-.31,.37-.62,.7-.93,.99l-1.34-1.54c1.75-1.63,3.08-3.42,3.98-5.37Zm4.98,4.4v-1.03h-4.8c-.04,.06-.08,.12-.1,.16v.87h4.9Zm0,2.28v-1.01h-4.9v1.01h4.9Zm0,2.35v-1.08h-4.9v1.08h4.9Z" style="fill: #f9f9ef;"/>
          <path d="M223.41,16.79v16.73h-1.63v-.54h-13.89v.54h-1.63V16.79h17.16Zm-15.53,14.79h13.89v-13.39h-13.89v13.39Zm.68-12.43h5.3v-.71h1.56v.71h5.66v1.2h-5.66v.66h4.9v4.49h-.95c.6,.58,1.1,1.1,1.47,1.55l-1.22,.81c-.18-.26-.38-.52-.58-.79-.13,.01-.26,.02-.35,.02v.92h2.49v1.16h-2.49v.81c0,.45-.13,.77-.41,.96-.23,.21-.66,.31-1.3,.31h-2.25l-.23-1.27c.8,.1,1.48,.15,2.02,.15,.42,0,.63-.12,.63-.35v-.61h-4.88c.44,.48,.82,1,1.13,1.55l-1.48,.6c-.38-.72-.82-1.36-1.3-1.91l.77-.24h-2.74v-1.16h8.5v-.81c-2.41,.15-5.11,.29-8.08,.42l-.31-1.31c1.73-.03,3.44-.09,5.12-.16v-.65h-4.68v-4.49h4.68v-.66h-5.3v-1.2Zm2.12,3.6h3.18v-.66h-3.18v.66Zm3.18,1.62v-.66h-3.18v.66h3.18Zm1.56-2.28v.66h3.42v-.66h-3.42Zm3.42,2.28v-.66h-3.42v.66h3.42Zm-.68,1.61c-.14-.18-.29-.33-.45-.49h-2.29v.6c.93-.04,1.85-.08,2.74-.11Z" style="fill: #f9f9ef;"/>
        </g>
      </g>
      <path d="M50.24,16.22h9.16c1.51,0,2.92,.18,4.25,.55,1.33,.37,2.47,.91,3.45,1.61,.98,.7,1.76,1.57,2.32,2.59,.57,1.03,.86,2.21,.86,3.54s-.28,2.63-.82,3.6c-.55,.97-1.27,1.78-2.16,2.41-.89,.64-1.91,1.12-3.05,1.43-1.14,.31-2.19,.51-3.44,.56-.51,.01-1.09,.05-1.64,.01-.55-.03-1.11-.06-1.63-.11-.51-.04-.97-.12-1.4-.18-.43-.05-1.16-.14-1.43-.2v10.71s-4.46,0-4.46,0V16.22Zm4.46,14.19c.55,.16,1.52,.37,2.17,.49,.67,.14,1.37,.18,2.04,.18,1.08,0,2.03-.26,2.84-.59,.81-.33,1.49-.77,2.02-1.32,.53-.56,.94-1.21,1.2-1.97,.27-.75,.41-1.73,.41-2.59,0-1-.17-1.91-.52-2.73-.35-.82-.82-1.51-1.43-2.1-.61-.58-1.32-1.03-2.13-1.33-.81-.31-1.69-.46-2.62-.46h-3.97v12.43Z" style="fill: #f9f9ef;"/>
      <polygon points="90.96 16.22 90.96 17.93 76.97 17.93 76.97 27.44 86.33 27.44 86.33 29.15 76.97 29.15 76.97 41.05 90.96 41.05 90.96 42.76 72.51 42.76 72.51 16.22 90.96 16.22" style="fill: #f9f9ef;"/>
      <polygon points="94.92 42.76 92.57 42.76 103.75 29.68 93.56 16.22 98.86 16.22 106.56 26.42 115.24 16.22 117.61 16.22 107.64 27.88 118.95 42.76 113.61 42.76 104.85 31.15 94.92 42.76" style="fill: #f9f9ef;"/>
      <polygon points="27.57 7.63 7.07 51.48 10.62 51.48 27.57 15.25 27.57 7.63" style="fill: #f9f9ef;"/>
      <polygon points="27.57 15.26 40.36 42.76 36.81 42.76 27.57 22.88 27.57 15.26" style="fill: #f9f9ef;"/>
      <g>
        <polygon points="27.56 22.88 14.13 51.48 17.68 51.48 27.56 30.51 27.56 22.88" style="fill: #b0b0b0;"/>
        <polygon points="27.57 0 47.46 42.76 43.9 42.76 27.57 7.62 27.57 0" style="fill: #b0b0b0;"/>
        <polygon points="27.57 30.51 33.26 42.76 29.7 42.76 27.57 38.13 27.57 30.51" style="fill: #b0b0b0;"/>
        <polygon points="0 51.48 3.55 51.48 27.56 0 27.56 0 24.01 0 0 51.48" style="fill: #b0b0b0;"/>
        <g>
          <path d="M24.27,46.35l2.43,5.27h-.88l-.79-1.72h-2.21l-.81,1.72h-.44l2.48-5.27h.21Zm-1.3,3.22h1.9l-.94-2.04-.96,2.04Z" style="fill: #b0b0b0;"/>
          <path d="M27.18,45.84l.56-.22h.23v2.78c.07-.11,.15-.22,.26-.32,.1-.1,.21-.18,.34-.26,.12-.07,.25-.13,.38-.18,.13-.04,.26-.07,.38-.07,.23,0,.44,.05,.64,.14,.2,.09,.36,.22,.51,.38,.14,.16,.25,.35,.33,.56,.08,.21,.12,.44,.12,.69,0,.22-.03,.43-.08,.63-.05,.21-.13,.4-.23,.57-.09,.18-.21,.33-.34,.48-.14,.14-.28,.27-.45,.37-.17,.1-.34,.18-.53,.24-.19,.05-.39,.08-.6,.08-.29,0-.57-.04-.83-.11-.26-.08-.49-.2-.69-.36v-5.4Zm.79,5.14s.1,.1,.16,.14c.06,.05,.13,.09,.2,.13,.07,.04,.15,.07,.24,.1,.09,.02,.19,.04,.3,.04,.18,0,.35-.04,.5-.13,.15-.09,.28-.21,.39-.37,.11-.16,.19-.35,.25-.57,.06-.22,.09-.46,.09-.72,0-.2-.03-.38-.09-.55-.06-.18-.14-.33-.25-.45-.11-.13-.23-.23-.37-.3-.14-.08-.29-.11-.45-.11-.09,0-.18,.01-.28,.03-.09,.03-.18,.06-.27,.11-.08,.04-.16,.09-.24,.15-.07,.06-.13,.13-.18,.19v2.31Z" style="fill: #b0b0b0;"/>
          <path d="M33.6,51.71c-.3,0-.58-.05-.84-.16-.26-.11-.48-.25-.67-.43-.19-.18-.34-.4-.44-.64-.1-.25-.16-.51-.16-.79s.05-.57,.16-.83c.1-.26,.25-.48,.44-.67,.18-.19,.41-.34,.67-.45,.26-.11,.54-.16,.84-.16s.58,.05,.84,.15c.26,.1,.48,.24,.66,.42,.19,.18,.33,.39,.44,.62,.1,.24,.16,.49,.16,.77,0,.3-.05,.58-.16,.85-.11,.26-.25,.49-.44,.69-.18,.2-.41,.36-.66,.47-.26,.11-.54,.17-.84,.17m.15-.29c.16,0,.3-.04,.43-.12,.13-.08,.24-.19,.34-.32,.1-.14,.17-.3,.22-.47,.05-.18,.08-.37,.08-.57,0-.29-.03-.56-.07-.81-.05-.25-.13-.47-.24-.66-.11-.19-.25-.33-.43-.44-.18-.11-.4-.16-.66-.16-.13,0-.26,.04-.38,.11-.12,.08-.23,.18-.33,.31-.1,.13-.17,.29-.23,.47-.06,.18-.09,.36-.09,.57,0,.29,.03,.56,.09,.82,.06,.25,.15,.47,.27,.66,.12,.19,.26,.34,.43,.45,.17,.11,.36,.16,.58,.16" style="fill: #b0b0b0;"/>
          <polygon points="36.83 47.65 38.24 50.66 39.58 47.65 39.95 47.65 38.15 51.67 37.88 51.67 36 47.65 36.83 47.65" style="fill: #b0b0b0;"/>
          <path d="M42.19,51.71c-.27,0-.52-.05-.76-.15-.24-.1-.44-.24-.62-.41-.18-.17-.32-.38-.42-.61-.1-.23-.16-.48-.16-.75,0-.32,.05-.61,.14-.89,.09-.27,.23-.5,.4-.7,.17-.2,.38-.35,.61-.46,.24-.11,.51-.17,.81-.17,.26,0,.5,.05,.72,.14,.21,.09,.4,.21,.56,.37,.16,.16,.28,.33,.36,.53,.09,.2,.13,.41,.13,.64h-2.97c0,.27,.04,.52,.1,.74,.07,.23,.17,.43,.29,.6,.13,.17,.27,.29,.44,.39,.17,.09,.36,.14,.57,.14,.17,0,.34-.03,.49-.09,.16-.05,.3-.13,.43-.22,.13-.09,.24-.2,.33-.31,.09-.12,.16-.24,.19-.36l.23,.1c-.06,.2-.15,.39-.27,.57-.13,.18-.27,.33-.44,.47-.17,.13-.35,.24-.56,.32-.2,.08-.4,.11-.61,.11m.79-2.78c0-.15-.03-.29-.08-.42-.05-.13-.12-.25-.22-.34-.09-.1-.2-.17-.33-.22-.13-.05-.26-.08-.4-.08-.12,0-.23,.03-.34,.08-.11,.05-.2,.13-.29,.22-.09,.09-.16,.21-.21,.34-.05,.13-.09,.27-.1,.42h1.97Z" style="fill: #b0b0b0;"/>
          <path d="M47.03,47.65h.79v.82c.08-.1,.17-.21,.26-.31,.1-.11,.21-.2,.33-.29,.12-.08,.25-.16,.39-.21,.14-.05,.3-.08,.47-.08,.24,0,.45,.05,.64,.15,.19,.1,.35,.23,.49,.4,.14,.17,.24,.36,.31,.59,.07,.23,.11,.47,.11,.72,0,.33-.04,.63-.13,.91-.09,.28-.22,.52-.38,.72-.17,.2-.38,.36-.61,.47-.24,.11-.51,.17-.81,.17-.22,0-.41-.02-.57-.07-.17-.05-.33-.12-.49-.23v1.89h-.79v-5.66Zm.79,2.91c0,.12,.03,.23,.08,.34,.05,.1,.12,.2,.22,.28,.09,.08,.2,.14,.33,.19,.13,.05,.27,.07,.43,.07,.15,0,.28-.04,.41-.11,.13-.08,.25-.18,.34-.32,.1-.14,.18-.3,.23-.5,.06-.19,.09-.4,.09-.64,0-.29-.03-.55-.08-.77-.05-.22-.13-.4-.22-.55-.09-.14-.2-.25-.33-.33-.13-.07-.26-.11-.41-.11-.11,0-.23,.02-.33,.05-.1,.04-.2,.08-.3,.14-.09,.06-.18,.13-.26,.2-.08,.08-.15,.16-.21,.24v1.8Z" style="fill: #b0b0b0;"/>
          <path d="M53.32,51.71c-.27,0-.52-.05-.76-.15-.23-.1-.44-.24-.62-.41-.18-.17-.31-.38-.42-.61-.1-.23-.16-.48-.16-.75,0-.32,.04-.61,.14-.89,.09-.27,.22-.5,.4-.7,.17-.2,.38-.35,.62-.46,.24-.11,.51-.17,.8-.17,.26,0,.5,.05,.71,.14,.22,.09,.41,.21,.56,.37,.16,.16,.28,.33,.36,.53,.09,.2,.13,.41,.13,.64h-2.96c0,.27,.03,.52,.1,.74,.07,.23,.16,.43,.29,.6,.13,.17,.27,.29,.44,.39,.17,.09,.36,.14,.57,.14,.17,0,.34-.03,.5-.09,.16-.05,.3-.13,.43-.22,.13-.09,.23-.2,.33-.31,.09-.12,.16-.24,.19-.36l.23,.1c-.06,.2-.15,.39-.27,.57-.13,.18-.27,.33-.44,.47-.17,.13-.35,.24-.55,.32-.2,.08-.4,.11-.61,.11m.79-2.78c0-.15-.03-.29-.08-.42-.06-.13-.13-.25-.22-.34-.09-.1-.2-.17-.33-.22-.13-.05-.26-.08-.4-.08-.12,0-.23,.03-.34,.08-.11,.05-.21,.13-.29,.22-.09,.09-.16,.21-.21,.34-.06,.13-.09,.27-.1,.42h1.97Z" style="fill: #b0b0b0;"/>
          <path d="M57.88,51.71c-.31,0-.58-.05-.84-.16-.26-.11-.48-.25-.67-.43-.18-.18-.33-.4-.44-.64-.1-.25-.16-.51-.16-.79s.05-.57,.16-.83c.1-.26,.25-.48,.44-.67,.19-.19,.41-.34,.67-.45,.26-.11,.54-.16,.84-.16s.58,.05,.84,.15c.26,.1,.48,.24,.66,.42,.19,.18,.33,.39,.44,.62,.1,.24,.16,.49,.16,.77,0,.3-.06,.58-.16,.85-.11,.26-.25,.49-.44,.69-.18,.2-.4,.36-.66,.47-.26,.11-.54,.17-.84,.17m.15-.29c.16,0,.3-.04,.43-.12,.13-.08,.24-.19,.34-.32,.09-.14,.17-.3,.22-.47,.05-.18,.08-.37,.08-.57,0-.29-.02-.56-.07-.81-.05-.25-.13-.47-.24-.66-.11-.19-.25-.33-.43-.44-.18-.11-.4-.16-.65-.16-.13,0-.26,.04-.38,.11-.12,.08-.23,.18-.33,.31-.09,.13-.17,.29-.23,.47-.06,.18-.09,.36-.09,.57,0,.29,.03,.56,.09,.82,.06,.25,.15,.47,.27,.66,.12,.19,.26,.34,.43,.45,.17,.11,.36,.16,.58,.16" style="fill: #b0b0b0;"/>
          <path d="M60.74,47.65h.79v.82c.08-.1,.17-.21,.27-.31,.1-.11,.21-.2,.33-.29,.11-.08,.25-.16,.39-.21,.14-.05,.3-.08,.47-.08,.23,0,.45,.05,.64,.15,.19,.1,.35,.23,.49,.4,.14,.17,.24,.36,.31,.59,.07,.23,.11,.47,.11,.72,0,.33-.04,.63-.13,.91-.09,.28-.22,.52-.39,.72-.17,.2-.38,.36-.61,.47-.24,.11-.51,.17-.81,.17-.22,0-.41-.02-.57-.07-.16-.05-.33-.12-.49-.23v1.89h-.79v-5.66Zm.79,2.91c0,.12,.03,.23,.08,.34,.05,.1,.13,.2,.22,.28,.09,.08,.2,.14,.34,.19,.13,.05,.27,.07,.43,.07s.28-.04,.42-.11c.13-.08,.24-.18,.34-.32,.1-.14,.18-.3,.23-.5,.06-.19,.09-.4,.09-.64,0-.29-.03-.55-.08-.77-.05-.22-.13-.4-.21-.55-.09-.14-.2-.25-.33-.33-.13-.07-.27-.11-.41-.11-.11,0-.23,.02-.33,.05-.11,.04-.21,.08-.3,.14-.1,.06-.18,.13-.26,.2-.08,.08-.15,.16-.21,.24v1.8Z" style="fill: #b0b0b0;"/>
          <polygon points="66.09 51.62 65.3 51.62 65.3 45.84 65.86 45.61 66.09 45.61 66.09 51.62" style="fill: #b0b0b0;"/>
          <path d="M68.82,51.71c-.27,0-.52-.05-.76-.15-.23-.1-.44-.24-.62-.41-.17-.17-.32-.38-.42-.61-.1-.23-.16-.48-.16-.75,0-.32,.04-.61,.14-.89,.09-.27,.23-.5,.4-.7,.17-.2,.38-.35,.62-.46,.24-.11,.51-.17,.8-.17,.26,0,.5,.05,.72,.14,.22,.09,.4,.21,.56,.37,.16,.16,.28,.33,.37,.53,.09,.2,.13,.41,.13,.64h-2.96c0,.27,.03,.52,.1,.74,.07,.23,.17,.43,.29,.6,.13,.17,.27,.29,.44,.39,.17,.09,.36,.14,.57,.14,.17,0,.34-.03,.5-.09,.16-.05,.3-.13,.43-.22,.13-.09,.23-.2,.33-.31s.16-.24,.2-.36l.23,.1c-.06,.2-.15,.39-.28,.57-.13,.18-.27,.33-.44,.47-.17,.13-.35,.24-.55,.32-.2,.08-.4,.11-.61,.11m.79-2.78c0-.15-.03-.29-.08-.42-.05-.13-.13-.25-.22-.34-.1-.1-.2-.17-.33-.22-.13-.05-.26-.08-.4-.08-.12,0-.24,.03-.34,.08-.11,.05-.21,.13-.29,.22-.09,.09-.16,.21-.21,.34-.06,.13-.09,.27-.1,.42h1.97Z" style="fill: #b0b0b0;"/>
          <path d="M71.25,47.98c.12-.03,.23-.08,.34-.14,.1-.06,.2-.13,.27-.21,.08-.08,.14-.16,.18-.25,.04-.09,.07-.19,.07-.28,0-.05-.01-.11-.03-.15-.03-.04-.05-.07-.08-.07s-.06,0-.08,.02c-.02,.01-.04,.03-.07,.05-.02,.01-.05,.03-.08,.04-.03,.01-.07,.02-.12,.02-.05,0-.1-.01-.15-.03-.04-.02-.09-.05-.12-.09-.03-.04-.06-.09-.08-.14-.02-.05-.03-.11-.03-.17s.02-.13,.04-.19c.03-.06,.07-.11,.11-.15,.04-.04,.1-.08,.17-.1,.07-.02,.13-.04,.21-.04,.1,0,.18,.02,.27,.06,.09,.04,.16,.1,.22,.18,.06,.07,.11,.16,.14,.26,.04,.1,.06,.2,.06,.31,0,.18-.03,.34-.1,.48-.07,.15-.15,.28-.27,.39-.11,.11-.24,.2-.38,.26-.15,.07-.3,.11-.47,.11v-.18Z" style="fill: #b0b0b0;"/>
          <path d="M74.47,51.44c.1,0,.21-.02,.3-.05,.09-.03,.17-.07,.24-.13,.06-.06,.11-.12,.15-.19,.04-.07,.06-.14,.06-.22,0-.12-.03-.23-.09-.32-.06-.09-.14-.17-.24-.24-.1-.07-.21-.14-.34-.2-.13-.06-.26-.12-.39-.18-.13-.06-.27-.13-.39-.2-.13-.07-.24-.16-.34-.25-.1-.09-.18-.2-.24-.33-.06-.12-.09-.27-.09-.44,0-.16,.03-.31,.1-.44,.07-.14,.16-.25,.28-.35,.12-.1,.27-.18,.43-.23,.16-.06,.35-.09,.54-.09,.13,0,.26,.01,.37,.03,.11,.02,.22,.05,.34,.1,.11,.06,.22,.13,.33,.23,.11,.1,.23,.22,.35,.38l-.3,.26c-.15-.24-.31-.43-.5-.55-.19-.12-.39-.18-.6-.18-.11,0-.21,.01-.31,.04-.1,.03-.17,.06-.24,.11-.07,.05-.12,.11-.16,.17-.04,.06-.06,.13-.06,.2,0,.12,.03,.22,.1,.31,.07,.09,.15,.17,.26,.24s.23,.13,.37,.2c.14,.06,.28,.12,.43,.19,.14,.06,.28,.13,.43,.2,.14,.08,.26,.16,.37,.25,.11,.1,.2,.2,.26,.33,.06,.12,.1,.27,.1,.43s-.03,.33-.1,.47c-.06,.14-.16,.28-.28,.38-.13,.11-.28,.19-.47,.25-.19,.06-.41,.09-.67,.09-.11,0-.23,0-.35-.03-.12-.02-.24-.05-.37-.11-.13-.06-.25-.13-.38-.22-.12-.1-.24-.22-.36-.38l.32-.29c.1,.13,.18,.25,.28,.35,.09,.09,.18,.18,.27,.23,.09,.06,.18,.11,.28,.13,.1,.03,.2,.04,.31,.04" style="fill: #b0b0b0;"/>
          <path d="M80.77,51.71c-.27,0-.52-.05-.76-.15-.23-.1-.44-.24-.62-.41-.18-.17-.32-.38-.42-.61-.1-.23-.16-.48-.16-.75,0-.32,.04-.61,.14-.89,.09-.27,.23-.5,.4-.7,.17-.2,.37-.35,.61-.46,.24-.11,.51-.17,.81-.17,.26,0,.5,.05,.72,.14,.22,.09,.4,.21,.56,.37,.16,.16,.28,.33,.37,.53,.08,.2,.13,.41,.13,.64h-2.96c0,.27,.03,.52,.1,.74,.07,.23,.17,.43,.29,.6,.13,.17,.27,.29,.45,.39,.17,.09,.36,.14,.57,.14,.17,0,.34-.03,.5-.09,.16-.05,.3-.13,.43-.22,.13-.09,.24-.2,.33-.31,.09-.12,.16-.24,.19-.36l.23,.1c-.06,.2-.15,.39-.27,.57-.13,.18-.27,.33-.45,.47-.17,.13-.35,.24-.55,.32-.2,.08-.41,.11-.61,.11m.79-2.78c0-.15-.03-.29-.08-.42-.06-.13-.13-.25-.22-.34-.09-.1-.2-.17-.33-.22-.13-.05-.26-.08-.4-.08-.12,0-.24,.03-.35,.08-.11,.05-.2,.13-.29,.22-.09,.09-.16,.21-.21,.34-.06,.13-.09,.27-.1,.42h1.98Z" style="fill: #b0b0b0;"/>
          <polygon points="83.2 51.62 82.77 51.62 84.43 49.59 83.02 47.65 83.96 47.65 84.93 48.98 86.02 47.65 86.45 47.65 85.13 49.26 86.83 51.62 85.91 51.62 84.64 49.87 83.2 51.62" style="fill: #b0b0b0;"/>
          <path d="M87.07,47.65h.79v.82c.08-.1,.17-.21,.26-.31,.1-.11,.21-.2,.33-.29,.12-.08,.25-.16,.39-.21,.14-.05,.3-.08,.47-.08,.24,0,.45,.05,.64,.15,.19,.1,.35,.23,.49,.4,.14,.17,.24,.36,.31,.59,.08,.23,.11,.47,.11,.72,0,.33-.04,.63-.14,.91-.09,.28-.22,.52-.39,.72-.17,.2-.37,.36-.61,.47-.24,.11-.51,.17-.81,.17-.22,0-.41-.02-.58-.07-.16-.05-.33-.12-.48-.23v1.89h-.79v-5.66Zm.79,2.91c0,.12,.03,.23,.07,.34,.06,.1,.13,.2,.22,.28,.09,.08,.2,.14,.33,.19,.13,.05,.27,.07,.43,.07,.14,0,.28-.04,.42-.11,.13-.08,.24-.18,.34-.32,.1-.14,.17-.3,.23-.5,.06-.19,.09-.4,.09-.64,0-.29-.03-.55-.08-.77-.05-.22-.13-.4-.22-.55-.09-.14-.2-.25-.33-.33-.13-.07-.27-.11-.42-.11-.11,0-.22,.02-.33,.05-.1,.04-.21,.08-.3,.14-.09,.06-.18,.13-.26,.2-.08,.08-.15,.16-.21,.24v1.8Z" style="fill: #b0b0b0;"/>
          <path d="M93.36,51.71c-.27,0-.52-.05-.76-.15-.23-.1-.44-.24-.62-.41-.18-.17-.32-.38-.42-.61-.1-.23-.15-.48-.15-.75,0-.32,.04-.61,.14-.89,.09-.27,.22-.5,.4-.7,.17-.2,.38-.35,.61-.46,.24-.11,.51-.17,.81-.17,.26,0,.5,.05,.72,.14,.21,.09,.4,.21,.56,.37,.16,.16,.28,.33,.36,.53,.09,.2,.13,.41,.13,.64h-2.97c0,.27,.04,.52,.1,.74,.07,.23,.17,.43,.29,.6,.13,.17,.28,.29,.45,.39,.17,.09,.36,.14,.57,.14,.17,0,.34-.03,.5-.09,.16-.05,.3-.13,.43-.22,.13-.09,.24-.2,.33-.31s.16-.24,.19-.36l.23,.1c-.06,.2-.15,.39-.28,.57-.13,.18-.27,.33-.44,.47-.17,.13-.35,.24-.55,.32-.2,.08-.4,.11-.61,.11m.79-2.78c0-.15-.03-.29-.08-.42-.06-.13-.13-.25-.22-.34-.09-.1-.2-.17-.33-.22-.13-.05-.26-.08-.4-.08-.13,0-.24,.03-.35,.08-.11,.05-.2,.13-.29,.22-.08,.09-.16,.21-.21,.34-.06,.13-.09,.27-.1,.42h1.97Z" style="fill: #b0b0b0;"/>
          <path d="M97.67,51.71c-.26,0-.5-.05-.73-.16-.23-.1-.43-.24-.59-.42-.17-.18-.3-.39-.4-.63-.1-.24-.15-.49-.15-.76,0-.3,.06-.58,.16-.85,.11-.27,.26-.5,.44-.69,.18-.2,.4-.35,.65-.46,.25-.12,.52-.17,.81-.17,.22,0,.43,.03,.61,.07,.19,.05,.35,.12,.48,.2,.14,.09,.24,.19,.32,.3,.08,.12,.11,.24,.11,.38,0,.06-.02,.12-.04,.17-.03,.05-.07,.1-.12,.14-.05,.04-.1,.07-.17,.09-.06,.02-.13,.03-.19,.03-.07,0-.14-.01-.19-.04-.06-.02-.11-.06-.14-.1-.04-.04-.07-.09-.09-.14-.02-.05-.04-.1-.04-.16,0-.09,0-.18-.03-.26-.02-.08-.05-.15-.1-.21-.05-.06-.12-.1-.2-.13-.09-.03-.2-.05-.33-.05-.18,0-.34,.04-.48,.11-.14,.07-.26,.17-.36,.3-.1,.12-.17,.26-.23,.43-.05,.17-.08,.34-.08,.54,0,.25,.03,.49,.1,.72,.07,.23,.16,.42,.28,.59,.12,.17,.27,.3,.44,.4,.17,.1,.36,.15,.57,.15,.18,0,.34-.03,.48-.09,.14-.06,.26-.13,.35-.23,.1-.1,.19-.21,.26-.35,.07-.13,.13-.27,.19-.42l.24,.1c-.07,.25-.16,.47-.27,.67-.11,.2-.25,.37-.41,.5-.15,.14-.33,.24-.52,.31-.2,.07-.41,.11-.64,.11" style="fill: #b0b0b0;"/>
          <path d="M102.35,51.12c-.11,.18-.24,.33-.42,.43-.17,.11-.39,.16-.65,.16-.13,0-.24-.02-.34-.07-.1-.05-.18-.11-.24-.19-.06-.08-.11-.18-.14-.29-.03-.11-.05-.24-.05-.38v-2.81h-.69v-.19c.22,0,.4-.04,.55-.12,.14-.08,.26-.19,.35-.32,.09-.14,.17-.3,.21-.48,.06-.18,.1-.38,.14-.58h.22v1.35h.89v.33h-.89v2.81c0,.06,.01,.11,.04,.17,.02,.05,.05,.09,.09,.13,.04,.04,.08,.07,.14,.09,.05,.02,.11,.03,.17,.03,.09,0,.17-.03,.24-.07,.07-.04,.14-.1,.19-.16l.2,.14Z" style="fill: #b0b0b0;"/>
          <path d="M105.75,51.62h-.79v-.54c-.09,.07-.18,.14-.27,.22-.09,.07-.19,.14-.29,.2-.11,.06-.23,.11-.35,.15-.13,.04-.28,.06-.44,.06s-.3-.03-.42-.07c-.12-.05-.23-.12-.32-.21-.09-.09-.16-.19-.2-.31-.05-.12-.07-.25-.07-.39,0-.17,.04-.33,.11-.46,.07-.14,.16-.26,.28-.37,.11-.11,.25-.21,.41-.29,.16-.08,.32-.16,.5-.22,.18-.07,.36-.13,.54-.18,.18-.05,.37-.1,.55-.15v-.25c0-.18-.02-.33-.06-.46-.03-.12-.08-.22-.15-.3-.07-.08-.15-.13-.24-.16-.1-.03-.2-.05-.32-.05-.13,0-.24,.01-.33,.05-.08,.04-.15,.08-.2,.14-.05,.06-.08,.12-.1,.19-.02,.07-.03,.15-.03,.22,0,.07,0,.14-.01,.2-.01,.06-.03,.12-.06,.17-.03,.05-.07,.09-.12,.12-.05,.03-.11,.04-.19,.04-.13,0-.23-.04-.3-.13-.07-.09-.11-.2-.11-.33s.04-.25,.13-.37c.09-.11,.2-.21,.35-.29,.15-.08,.32-.15,.51-.2,.19-.05,.4-.07,.61-.07,.26,0,.48,.03,.66,.08,.18,.05,.32,.12,.43,.21,.11,.09,.19,.2,.24,.34,.05,.13,.07,.27,.07,.43v3Zm-.79-2.31c-.17,.05-.35,.12-.54,.2-.19,.08-.35,.17-.51,.27-.16,.1-.28,.21-.38,.34-.1,.12-.15,.26-.15,.39,0,.1,.02,.19,.05,.28,.04,.09,.08,.16,.14,.23,.06,.06,.13,.11,.21,.15,.08,.04,.16,.06,.24,.06,.09,0,.17-.01,.26-.04,.08-.03,.16-.06,.23-.1,.07-.04,.15-.08,.23-.14,.07-.06,.15-.11,.23-.17v-1.48Z" style="fill: #b0b0b0;"/>
          <path d="M108.92,51.12c-.1,.18-.24,.33-.42,.43-.17,.11-.39,.16-.65,.16-.13,0-.25-.02-.35-.07-.1-.05-.18-.11-.24-.19-.06-.08-.11-.18-.14-.29-.03-.11-.05-.24-.05-.38v-2.81h-.69v-.19c.22,0,.4-.04,.55-.12,.14-.08,.26-.19,.35-.32,.09-.14,.16-.3,.21-.48,.06-.18,.1-.38,.14-.58h.23v1.35h.89v.33h-.89v2.81c0,.06,.01,.11,.03,.17,.02,.05,.06,.09,.09,.13,.03,.04,.08,.07,.13,.09,.05,.02,.11,.03,.17,.03,.09,0,.17-.03,.24-.07,.08-.04,.14-.1,.19-.16l.2,.14Z" style="fill: #b0b0b0;"/>
          <path d="M109.83,45.61c.06,0,.12,0,.17,.03,.06,.02,.1,.05,.14,.09,.04,.04,.07,.08,.1,.13,.03,.05,.04,.1,.04,.15,0,.05-.01,.11-.04,.15-.03,.04-.06,.09-.1,.13-.04,.04-.09,.06-.14,.09-.06,.01-.11,.03-.17,.03-.06,0-.12-.01-.17-.03-.05-.02-.1-.05-.14-.09-.04-.04-.07-.08-.1-.13-.02-.05-.03-.1-.03-.15,0-.05,.01-.1,.03-.15,.03-.05,.06-.09,.1-.13,.04-.04,.09-.06,.14-.09,.06-.02,.11-.03,.17-.03m-.39,2.18l.55-.23h.23v4.05h-.79v-3.83Z" style="fill: #b0b0b0;"/>
          <path d="M113.12,51.71c-.31,0-.58-.05-.84-.16-.25-.11-.48-.25-.67-.43-.19-.18-.34-.4-.44-.64-.1-.25-.16-.51-.16-.79s.05-.57,.16-.83c.1-.26,.25-.48,.44-.67,.19-.19,.41-.34,.67-.45,.26-.11,.54-.16,.84-.16s.58,.05,.84,.15c.25,.1,.48,.24,.67,.42,.18,.18,.33,.39,.44,.62,.11,.24,.16,.49,.16,.77,0,.3-.05,.58-.16,.85-.1,.26-.25,.49-.44,.69-.19,.2-.41,.36-.67,.47-.26,.11-.53,.17-.84,.17m.14-.29c.16,0,.3-.04,.43-.12,.13-.08,.24-.19,.33-.32,.1-.14,.17-.3,.22-.47,.06-.18,.08-.37,.08-.57,0-.29-.03-.56-.07-.81-.05-.25-.13-.47-.24-.66-.11-.19-.26-.33-.44-.44-.17-.11-.4-.16-.65-.16-.13,0-.26,.04-.38,.11-.13,.08-.23,.18-.33,.31-.09,.13-.17,.29-.23,.47-.06,.18-.08,.36-.08,.57,0,.29,.03,.56,.09,.82,.06,.25,.15,.47,.27,.66,.11,.19,.26,.34,.43,.45,.17,.11,.36,.16,.58,.16" style="fill: #b0b0b0;"/>
          <path d="M115.97,47.65h.79v.73c.24-.27,.5-.47,.75-.6,.26-.13,.52-.2,.79-.2,.14,0,.27,.03,.39,.09,.12,.06,.23,.15,.32,.26,.09,.11,.16,.24,.21,.38,.05,.15,.08,.3,.08,.47v2.86h-.79v-2.72c0-.26-.06-.46-.18-.6-.11-.13-.27-.2-.45-.2-.09,0-.17,.01-.27,.04-.09,.03-.19,.07-.28,.12-.1,.06-.19,.11-.29,.19-.1,.07-.19,.15-.28,.23v2.94h-.79v-3.98Z" style="fill: #b0b0b0;"/>
        </g>
      </g>
    </g>
  </g>
</svg>