<?xml version="1.0" encoding="UTF-8"?>
<svg id="_圖層_2" data-name="圖層 2" xmlns="http://www.w3.org/2000/svg" width="246.95" height="47.2" viewBox="0 0 246.95 47.2">
  <g id="_設計" data-name="設計">
    <g>
      <path d="M0,10.16H18.74V.41h5.43V10.16h18.95v24.06H24.18v12.93h-5.43v-12.93H0V10.16ZM18.74,29.65V14.72H5.51v14.93h13.23Zm18.88,0V14.72h-13.44v14.93h13.44Z" style="fill: #4d4d4d;"/>
      <path d="M66.19,2.39h16.38v3.59c-1.21,3.83-2.63,7.93-4.24,12.27,1.36,2.32,2.34,4.44,2.94,6.28,.73,1.92,1.11,3.55,1.11,4.92v.09c1.44-.85,2.71-1.76,3.84-2.72,.9-.73,1.77-1.71,2.61-2.94h-6.88v-4.03h32.11v4.03h-19.91c-.54,1.03-1.13,1.94-1.81,2.74h20.24c-.11,10.8-1.13,16.97-3.05,18.5-1.02,1.34-4.55,2.04-10.62,2.04l-1-4.77c1.52,.26,2.78,.39,3.78,.39,1.9,0,3.34-.41,4.32-1.25,.9-.76,1.48-4.41,1.73-10.95h-1.84c-2.19,4.25-4.44,7.41-6.66,9.5-2.8,2.76-6.95,5.12-12.46,7.08l-2.52-3.84c5.05-1.68,8.97-3.74,11.77-6.15,1.82-1.62,3.5-3.81,5.03-6.58h-3.55c-1.48,2.27-3.32,4.18-5.53,5.78-2.65,2.08-6.07,4.03-10.23,5.82l-2.78-3.44c3.74-1.42,6.87-2.96,9.41-4.63,1.42-.89,2.75-2.06,3.98-3.53h-3.71c-1.69,1.43-3.71,2.76-6.07,3.99l-.88-1.09c-.31,.65-.67,1.21-1.06,1.63-1.11,1.36-3.55,2.04-7.3,2.04l-1.52-4.77c.94,.12,1.79,.19,2.52,.19,1.02,0,1.73-.24,2.15-.68,.56-.37,.84-1.18,.84-2.45,0-1.52-.27-2.96-.79-4.32-.56-1.77-1.63-3.82-3.21-6.2,1.92-4.78,3.32-8.83,4.2-12.1h-6.32V47.2h-5.03V2.39Zm17.65-.38h26.9v15.51h-26.9V2.01Zm4.82,5.9h17.19v-2.58h-17.19v2.58Zm17.19,6.17v-2.94h-17.19v2.94h17.19Z" style="fill: #4d4d4d;"/>
      <path d="M143.29,0l4.99,.95c-.75,1.56-1.5,3.01-2.25,4.38h11.81c-1.02-1.4-2.15-2.73-3.42-3.98l5.42-.8c1.23,1.41,2.36,3,3.42,4.77h15.53v3.78h-17.22v2.78h15.34v3.44h-15.34v2.72h15.34v3.45h-15.34v2.92h17.65v3.98h-19.38v2.58h21.28v3.97h-15.4c2.13,2.04,4.09,3.43,5.84,4.19,2.34,1.13,5.61,2.21,9.77,3.24l-2.75,4.18c-4.99-1.48-8.72-3.02-11.14-4.58-2.48-1.66-4.88-3.98-7.18-7.02h-.42v12.19h-5.01v-12.19h-.4c-1.52,1.94-3.23,3.52-5.15,4.78-3.01,2.09-7.39,4.15-13.13,6.16l-2.78-4.17c5.84-1.62,10-3.15,12.44-4.53,1.23-.63,2.34-1.38,3.32-2.25h-15.98v-3.97h21.68v-2.58h-16.17v-12.38c-.84,1-1.67,1.88-2.51,2.68l-3.63-4.18c4.72-4.4,8.31-9.25,10.77-14.53Zm13.46,11.9v-2.78h-12.98c-.12,.15-.21,.32-.27,.44v2.34h13.25Zm0,6.15v-2.72h-13.25v2.72h13.25Zm0,6.37v-2.92h-13.25v2.92h13.25Z" style="fill: #4d4d4d;"/>
      <path d="M246.95,1.55V46.77h-4.42v-1.45h-37.56v1.45h-4.42V1.55h46.39Zm-41.98,39.98h37.56V5.33h-37.56V41.53Zm1.84-33.61h14.32v-1.93h4.21v1.93h15.3v3.24h-15.3v1.79h13.25v12.13h-2.57c1.63,1.56,2.98,2.97,3.97,4.18l-3.3,2.2c-.48-.7-1.02-1.41-1.56-2.14-.36,.04-.69,.06-.96,.06v2.48h6.72v3.13h-6.72v2.2c0,1.23-.36,2.08-1.11,2.58-.63,.56-1.79,.85-3.51,.85h-6.09l-.63-3.43c2.17,.26,3.99,.39,5.45,.39,1.13,0,1.69-.32,1.69-.94v-1.65h-13.19c1.19,1.31,2.21,2.7,3.05,4.19l-3.99,1.63c-1.04-1.95-2.23-3.68-3.51-5.17l2.09-.65h-7.41v-3.13h22.97v-2.18c-6.51,.4-13.81,.78-21.85,1.14l-.83-3.54c4.69-.09,9.29-.24,13.85-.43v-1.76h-12.65V12.93h12.65v-1.79h-14.32v-3.24Zm5.72,9.75h8.6v-1.79h-8.6v1.79Zm8.6,4.37v-1.78h-8.6v1.78h8.6Zm4.21-6.15v1.79h9.26v-1.79h-9.26Zm9.26,6.15v-1.78h-9.26v1.78h9.26Zm-1.84,4.35c-.38-.48-.79-.9-1.21-1.32h-6.2v1.61c2.51-.12,4.99-.22,7.41-.3Z" style="fill: #4d4d4d;"/>
    </g>
  </g>
</svg>