<?xml version="1.0" encoding="UTF-8"?>
<svg id="_圖層_2" data-name="圖層 2" xmlns="http://www.w3.org/2000/svg" width="1511.19" height="144" viewBox="0 0 1511.19 144">
  <g id="_設計" data-name="設計">
    <g>
      <path d="M0,2H125.8V13.4H29.6V61.2H114.6v11.4H29.6v58H125.8v11.4H0V2Z" style="fill: #353434;"/>
      <path d="M237.4,142l-41.8-54.2-46.6,54.2h-21.6l58-67.6L129.6,2h34l39.6,51.6L247.6,2h21.6l-55.8,65,57.6,75h-33.6Z" style="fill: #353434;"/>
      <path d="M281.8,2h56.8c20.4,0,36.17,3.37,47.3,10.1,11.13,6.73,16.7,17.77,16.7,33.1s-5.47,26.2-16.4,33c-10.93,6.8-26.8,10.2-47.6,10.2h-27.2v53.6h-29.6V2Zm57.2,74.8c11.33,0,19.87-2.33,25.6-7,5.73-4.67,8.6-12.87,8.6-24.6s-2.83-19.63-8.5-24.5c-5.67-4.87-14.23-7.3-25.7-7.3h-27.6v63.4h27.6Z" style="fill: #353434;"/>
      <path d="M417.39,2h125.8V13.4h-96.2V61.2h85v11.4h-85v58h96.2v11.4h-125.8V2Z" style="fill: #353434;"/>
      <path d="M575.19,125.3c-13.33-12.47-20-30.43-20-53.9s6.63-40.73,19.9-53c13.27-12.27,32.43-18.4,57.5-18.4,21.33,0,38.2,4.1,50.6,12.3,12.4,8.2,19.67,19.9,21.8,35.1h-23.6c-2.27-11.6-7.53-20.5-15.8-26.7-8.27-6.2-18.93-9.3-32-9.3-15.73,0-27.73,5.13-36,15.4-8.27,10.27-12.4,25.13-12.4,44.6s4.2,35.03,12.6,45.5c8.4,10.47,20.47,15.7,36.2,15.7,12.93,0,23.5-3.1,31.7-9.3,8.2-6.2,13.43-15.1,15.7-26.7h23.6c-2.13,15.2-9.4,26.9-21.8,35.1-12.4,8.2-29.13,12.3-50.2,12.3-25.2,0-44.47-6.23-57.8-18.7Z" style="fill: #353434;"/>
      <path d="M768.39,13.4h-58.4V2h146.2V13.4h-58.4V142h-29.4V13.4Z" style="fill: #353434;"/>
      <path d="M948.19,106.2h-74.4l-17.4,35.8h-20.4L908.79,0h18l68.6,142h-30.4l-16.8-35.8Zm-5.4-11.4l-31-66.2-32.4,66.2h63.4Z" style="fill: #353434;"/>
      <path d="M1033.79,13.4h-58.4V2h146.2V13.4h-58.4V142h-29.4V13.4Z" style="fill: #353434;"/>
      <path d="M1140.99,2h29.6V142h-29.6V2Z" style="fill: #353434;"/>
      <path d="M1235.89,135.4c-11.93-5.73-21.03-14.03-27.3-24.9-6.27-10.87-9.4-23.9-9.4-39.1s3.17-27.73,9.5-38.4c6.33-10.67,15.43-18.83,27.3-24.5,11.87-5.67,26-8.5,42.4-8.5s30.3,2.83,42.1,8.5c11.8,5.67,20.87,13.83,27.2,24.5,6.33,10.67,9.5,23.47,9.5,38.4s-3.13,28.23-9.4,39.1c-6.27,10.87-15.33,19.17-27.2,24.9-11.87,5.73-25.93,8.6-42.2,8.6s-30.57-2.87-42.5-8.6Zm78.7-18.5c8.4-10.47,12.6-25.63,12.6-45.5s-4.2-34.33-12.6-44.6c-8.4-10.27-20.47-15.4-36.2-15.4s-28.03,5.17-36.5,15.5c-8.47,10.33-12.7,25.17-12.7,44.5s4.2,35.03,12.6,45.5c8.4,10.47,20.6,15.7,36.6,15.7s27.8-5.23,36.2-15.7Z" style="fill: #353434;"/>
      <path d="M1378.59,2h29.2l76.2,99.2V2h27.2V142h-18.8l-86.6-114v114h-27.2V2Z" style="fill: #353434;"/>
    </g>
  </g>
</svg>