<?xml version="1.0" encoding="UTF-8"?>
<svg id="_圖層_2" data-name="圖層 2" xmlns="http://www.w3.org/2000/svg" width="371.97" height="53.3" viewBox="0 0 371.97 53.3">
  <g id="_設計" data-name="設計">
    <g>
      <g>
        <path d="M0,38.56l5.29-12.44,5.5,12.44h-2.55l-1.34-3.25H2.47l-1.33,3.25H0Zm2.8-4.01h3.75l-1.88-4.45-1.87,4.45Z" style="fill: #fff;"/>
        <path d="M12.37,38.56v-12.2h4.62c1.37,0,2.46,.32,3.25,.97,.78,.65,1.18,1.53,1.18,2.65s-.37,1.95-1.09,2.57c-.73,.62-1.73,.94-3,.94h-2.56v5.06h-2.39Zm2.39-5.81h1.06c1.07,0,1.87-.22,2.4-.65,.53-.44,.8-1.09,.8-1.97,0-1-.27-1.75-.79-2.24-.52-.49-1.33-.74-2.41-.74h-1.06v5.61Z" style="fill: #fff;"/>
        <path d="M23.6,38.56v-12.2h7.97v.91h-5.58v4.46h5.18v.92h-5.18v4.99h5.58v.91h-7.97Z" style="fill: #fff;"/>
        <path d="M32.72,38.56l4.31-5.78-4.29-6.42h2.71l3.07,4.59,3.4-4.59h1.36l-4.12,5.47,4.59,6.73h-2.73l-3.32-4.92-3.63,4.92h-1.36Z" style="fill: #fff;"/>
        <path d="M61.51,32.85v4.12c-.76,.63-1.55,1.1-2.36,1.42-.82,.31-1.66,.47-2.53,.47-1.93,0-3.48-.59-4.67-1.77-1.19-1.17-1.78-2.72-1.78-4.63s.6-3.33,1.8-4.55c1.2-1.21,2.68-1.82,4.46-1.82,1.08,0,2.01,.21,2.81,.63,.79,.42,1.45,1.05,1.97,1.89l-.77,.51c-.4-.74-.89-1.3-1.48-1.67-.59-.37-1.27-.55-2.04-.55-1.29,0-2.31,.51-3.07,1.51-.75,1.01-1.13,2.38-1.13,4.13s.36,2.98,1.08,3.92c.73,.93,1.73,1.4,3.02,1.4,.5,0,.96-.07,1.4-.22,.43-.15,.81-.36,1.12-.63v-4.16h2.17Z" style="fill: #fff;"/>
        <path d="M64.16,38.56v-12.2h4.22c1.6,0,2.81,.3,3.63,.9,.82,.6,1.23,1.49,1.23,2.66,0,.88-.29,1.57-.88,2.07-.58,.51-1.41,.78-2.48,.84l3.41,5.72h-2.68l-3.46-6.18c1.35-.09,2.32-.32,2.87-.71,.56-.4,.84-1,.84-1.82,0-.9-.28-1.58-.83-2.02-.56-.44-1.39-.67-2.51-.67h-.99v11.42h-2.39Z" style="fill: #fff;"/>
        <path d="M81.31,38.86c-.9,0-1.74-.16-2.53-.47-.8-.3-1.5-.76-2.13-1.35-.62-.59-1.1-1.27-1.42-2.05-.33-.78-.49-1.61-.49-2.51s.16-1.75,.49-2.53c.32-.78,.81-1.46,1.43-2.04,.63-.58,1.34-1.03,2.14-1.34,.8-.31,1.63-.47,2.51-.47,.7,0,1.39,.1,2.05,.31,.66,.21,1.28,.51,1.86,.9,.87,.6,1.53,1.34,1.99,2.23,.47,.89,.7,1.87,.7,2.94,0,.9-.17,1.74-.5,2.52-.33,.77-.81,1.46-1.44,2.05-.64,.59-1.35,1.05-2.14,1.35-.79,.31-1.63,.47-2.52,.47Zm4.03-6.38c0-1.66-.38-3.01-1.13-4.05-.75-1.03-1.71-1.55-2.9-1.55s-2.14,.52-2.89,1.55c-.76,1.04-1.13,2.39-1.13,4.05s.37,3.01,1.13,4.04c.76,1.03,1.72,1.55,2.89,1.55s2.14-.51,2.9-1.55c.75-1.03,1.13-2.38,1.13-4.05Z" style="fill: #fff;"/>
        <path d="M90.26,26.36h2.39v7.36c0,1.44,.21,2.43,.63,3,.43,.57,1.14,.85,2.15,.85s1.72-.28,2.14-.85c.42-.56,.63-1.56,.63-3v-7.36h1.15v7.77c0,1.58-.38,2.76-1.14,3.54-.75,.79-1.89,1.18-3.4,1.18-.68,0-1.33-.11-1.94-.35-.62-.23-1.13-.54-1.53-.95-.39-.39-.67-.84-.84-1.33-.16-.5-.25-1.2-.25-2.1v-7.77Z" style="fill: #fff;"/>
        <path d="M102.53,38.56v-12.2h4.62c1.38,0,2.46,.32,3.25,.97,.78,.65,1.18,1.53,1.18,2.65s-.36,1.95-1.09,2.57c-.72,.62-1.72,.94-3,.94h-2.56v5.06h-2.39Zm2.39-5.81h1.06c1.07,0,1.87-.22,2.4-.65,.53-.44,.8-1.09,.8-1.97,0-1-.26-1.75-.79-2.24-.52-.49-1.33-.74-2.41-.74h-1.06v5.61Z" style="fill: #fff;"/>
      </g>
      <g>
        <path d="M287.52,25.92h6.7v-3.49h1.94v3.49h6.78v8.6h-6.78v4.62h-1.94v-4.62h-6.7v-8.6Zm6.7,6.97v-5.34h-4.73v5.34h4.73Zm6.75,0v-5.34h-4.81v5.34h4.81Z" style="fill: #fff;"/>
        <path d="M308.9,23.14h5.86v1.28c-.43,1.37-.94,2.84-1.52,4.39,.49,.83,.84,1.59,1.05,2.25,.26,.69,.4,1.27,.4,1.76v.03c.52-.31,.97-.63,1.37-.97,.32-.26,.63-.61,.93-1.05h-2.46v-1.44h11.48v1.44h-7.12c-.19,.37-.41,.69-.65,.98h7.24c-.04,3.86-.41,6.07-1.09,6.62-.36,.48-1.63,.73-3.8,.73l-.36-1.71c.54,.09,1,.14,1.35,.14,.68,0,1.19-.15,1.54-.45,.32-.27,.53-1.58,.62-3.91h-.66c-.78,1.52-1.59,2.65-2.38,3.4-1,.99-2.49,1.83-4.46,2.53l-.9-1.37c1.81-.6,3.21-1.34,4.21-2.2,.65-.58,1.25-1.36,1.8-2.35h-1.27c-.53,.81-1.19,1.49-1.98,2.07-.95,.74-2.17,1.44-3.66,2.08l-1-1.23c1.34-.51,2.46-1.06,3.36-1.65,.51-.32,.98-.74,1.42-1.26h-1.33c-.6,.51-1.33,.99-2.17,1.43l-.32-.39c-.11,.23-.24,.43-.38,.58-.4,.49-1.27,.73-2.61,.73l-.54-1.71c.34,.04,.64,.07,.9,.07,.36,0,.62-.09,.77-.24,.2-.13,.3-.42,.3-.88,0-.54-.1-1.06-.28-1.55-.2-.63-.58-1.37-1.15-2.22,.69-1.71,1.19-3.16,1.5-4.33h-2.26v14.44h-1.8V23.14Zm6.31-.14h9.62v5.55h-9.62v-5.55Zm1.72,2.11h6.15v-.92h-6.15v.92Zm6.15,2.21v-1.05h-6.15v1.05h6.15Z" style="fill: #fff;"/>
        <path d="M335.82,22.28l1.79,.34c-.27,.56-.54,1.07-.8,1.57h4.22c-.36-.5-.77-.97-1.22-1.42l1.94-.28c.44,.5,.84,1.07,1.22,1.71h5.56v1.35h-6.16v1h5.49v1.23h-5.49v.97h5.49v1.23h-5.49v1.04h6.31v1.43h-6.93v.92h7.61v1.42h-5.51c.76,.73,1.46,1.23,2.09,1.5,.84,.41,2.01,.79,3.5,1.16l-.98,1.49c-1.79-.53-3.12-1.08-3.98-1.64-.89-.59-1.74-1.43-2.57-2.51h-.15v4.36h-1.79v-4.36h-.14c-.54,.69-1.15,1.26-1.84,1.71-1.08,.75-2.64,1.48-4.7,2.2l-1-1.49c2.09-.58,3.58-1.13,4.45-1.62,.44-.23,.84-.49,1.19-.8h-5.71v-1.42h7.75v-.92h-5.78v-4.43c-.3,.36-.6,.67-.9,.96l-1.3-1.49c1.69-1.57,2.97-3.31,3.85-5.2Zm4.81,4.25v-1h-4.64c-.04,.05-.08,.11-.1,.16v.84h4.74Zm0,2.2v-.97h-4.74v.97h4.74Zm0,2.28v-1.04h-4.74v1.04h4.74Z" style="fill: #fff;"/>
        <path d="M371.97,22.84v16.17h-1.58v-.52h-13.43v.52h-1.58V22.84h16.59Zm-15.01,14.3h13.43v-12.94h-13.43v12.94Zm.66-12.02h5.12v-.69h1.5v.69h5.47v1.16h-5.47v.64h4.74v4.34h-.92c.58,.56,1.06,1.06,1.42,1.49l-1.18,.79c-.17-.25-.36-.5-.56-.77-.13,.01-.25,.02-.34,.02v.89h2.4v1.12h-2.4v.79c0,.44-.13,.74-.4,.92-.23,.2-.64,.3-1.26,.3h-2.18l-.23-1.23c.78,.09,1.43,.14,1.95,.14,.41,0,.6-.11,.6-.34v-.59h-4.72c.43,.47,.79,.96,1.09,1.5l-1.43,.58c-.37-.7-.8-1.31-1.26-1.85l.75-.23h-2.65v-1.12h8.21v-.78c-2.33,.14-4.94,.28-7.81,.41l-.3-1.27c1.68-.03,3.32-.09,4.95-.15v-.63h-4.53v-4.34h4.53v-.64h-5.12v-1.16Zm2.05,3.49h3.08v-.64h-3.08v.64Zm3.08,1.56v-.64h-3.08v.64h3.08Zm1.5-2.2v.64h3.31v-.64h-3.31Zm3.31,2.2v-.64h-3.31v.64h3.31Zm-.66,1.56c-.14-.17-.28-.32-.43-.47h-2.22v.58c.9-.04,1.79-.08,2.65-.11Z" style="fill: #fff;"/>
      </g>
      <path d="M185.61,16.22h9.16c1.51,0,2.92,.18,4.25,.55,1.33,.37,2.47,.91,3.45,1.61,.98,.7,1.76,1.57,2.32,2.59,.57,1.03,.86,2.21,.86,3.54s-.28,2.63-.82,3.6c-.55,.97-1.27,1.78-2.16,2.41-.89,.64-1.91,1.12-3.05,1.43-1.14,.31-2.19,.51-3.44,.56-.51,.01-1.09,.05-1.64,.01-.55-.03-1.11-.06-1.63-.11-.51-.04-.97-.12-1.4-.18-.43-.05-1.16-.14-1.43-.2v10.71s-4.46,0-4.46,0V16.22Zm4.46,14.19c.55,.16,1.52,.37,2.17,.49,.67,.14,1.37,.18,2.04,.18,1.08,0,2.03-.26,2.84-.59,.81-.33,1.49-.77,2.02-1.32,.53-.56,.94-1.21,1.2-1.97,.27-.75,.41-1.73,.41-2.59,0-1-.17-1.91-.52-2.73-.35-.82-.82-1.51-1.43-2.1-.61-.58-1.32-1.03-2.13-1.33-.81-.31-1.69-.46-2.62-.46h-3.97v12.43Z" style="fill: #fff;"/>
      <polygon points="226.32 16.22 226.32 17.93 212.33 17.93 212.33 27.44 221.69 27.44 221.69 29.15 212.33 29.15 212.33 41.05 226.32 41.05 226.32 42.76 207.87 42.76 207.87 16.22 226.32 16.22" style="fill: #fff;"/>
      <polygon points="230.28 42.76 227.93 42.76 239.11 29.68 228.93 16.22 234.22 16.22 241.92 26.42 250.6 16.22 252.97 16.22 243.01 27.88 254.31 42.76 248.97 42.76 240.21 31.15 230.28 42.76" style="fill: #fff;"/>
      <polygon points="162.93 7.63 142.43 51.48 145.98 51.48 162.93 15.25 162.93 7.63" style="fill: #fff;"/>
      <polygon points="162.93 15.26 175.72 42.76 172.17 42.76 162.93 22.88 162.93 15.26" style="fill: #fff;"/>
      <g>
        <polygon points="162.92 22.88 149.5 51.48 153.04 51.48 162.92 30.51 162.92 22.88" style="fill: #fff;"/>
        <polygon points="162.93 0 182.82 42.76 179.27 42.76 162.93 7.62 162.93 0" style="fill: #fff;"/>
        <polygon points="162.93 30.51 168.62 42.76 165.07 42.76 162.93 38.13 162.93 30.51" style="fill: #fff;"/>
        <polygon points="135.36 51.48 138.91 51.48 162.92 0 162.92 0 159.37 0 135.36 51.48" style="fill: #fff;"/>
        <g>
          <path d="M159.64,46.35l2.43,5.27h-.88l-.79-1.72h-2.21l-.81,1.72h-.44l2.48-5.27h.21Zm-1.3,3.22h1.9l-.94-2.04-.96,2.04Z" style="fill: #fff;"/>
          <path d="M162.54,45.84l.56-.22h.23v2.78c.07-.11,.15-.22,.26-.32,.1-.1,.21-.18,.34-.26,.12-.07,.25-.13,.38-.18,.13-.04,.26-.07,.38-.07,.23,0,.44,.05,.64,.14,.2,.09,.36,.22,.51,.38,.14,.16,.25,.35,.33,.56,.08,.21,.12,.44,.12,.69,0,.22-.03,.43-.08,.63-.05,.21-.13,.4-.23,.57-.09,.18-.21,.33-.34,.48-.14,.14-.28,.27-.45,.37-.17,.1-.34,.18-.53,.24-.19,.05-.39,.08-.6,.08-.29,0-.57-.04-.83-.11-.26-.08-.49-.2-.69-.36v-5.4Zm.79,5.14s.1,.1,.16,.14c.06,.05,.13,.09,.2,.13,.07,.04,.15,.07,.24,.1,.09,.02,.19,.04,.3,.04,.18,0,.35-.04,.5-.13,.15-.09,.28-.21,.39-.37,.11-.16,.19-.35,.25-.57,.06-.22,.09-.46,.09-.72,0-.2-.03-.38-.09-.55-.06-.18-.14-.33-.25-.45-.11-.13-.23-.23-.37-.3-.14-.08-.29-.11-.45-.11-.09,0-.18,.01-.28,.03-.09,.03-.18,.06-.27,.11-.08,.04-.16,.09-.24,.15-.07,.06-.13,.13-.18,.19v2.31Z" style="fill: #fff;"/>
          <path d="M168.96,51.71c-.3,0-.58-.05-.84-.16-.26-.11-.48-.25-.67-.43-.19-.18-.34-.4-.44-.64-.1-.25-.16-.51-.16-.79s.05-.57,.16-.83c.1-.26,.25-.48,.44-.67,.18-.19,.41-.34,.67-.45,.26-.11,.54-.16,.84-.16s.58,.05,.84,.15c.26,.1,.48,.24,.66,.42,.19,.18,.33,.39,.44,.62,.1,.24,.16,.49,.16,.77,0,.3-.05,.58-.16,.85-.11,.26-.25,.49-.44,.69-.18,.2-.41,.36-.66,.47-.26,.11-.54,.17-.84,.17m.15-.29c.16,0,.3-.04,.43-.12,.13-.08,.24-.19,.34-.32,.1-.14,.17-.3,.22-.47,.05-.18,.08-.37,.08-.57,0-.29-.03-.56-.07-.81-.05-.25-.13-.47-.24-.66-.11-.19-.25-.33-.43-.44-.18-.11-.4-.16-.66-.16-.13,0-.26,.04-.38,.11-.12,.08-.23,.18-.33,.31-.1,.13-.17,.29-.23,.47-.06,.18-.09,.36-.09,.57,0,.29,.03,.56,.09,.82,.06,.25,.15,.47,.27,.66,.12,.19,.26,.34,.43,.45,.17,.11,.36,.16,.58,.16" style="fill: #fff;"/>
          <polygon points="172.19 47.65 173.6 50.66 174.95 47.65 175.31 47.65 173.52 51.67 173.24 51.67 171.36 47.65 172.19 47.65" style="fill: #fff;"/>
          <path d="M177.55,51.71c-.27,0-.52-.05-.76-.15-.24-.1-.44-.24-.62-.41-.18-.17-.32-.38-.42-.61-.1-.23-.16-.48-.16-.75,0-.32,.05-.61,.14-.89,.09-.27,.23-.5,.4-.7,.17-.2,.38-.35,.61-.46,.24-.11,.51-.17,.81-.17,.26,0,.5,.05,.72,.14,.21,.09,.4,.21,.56,.37,.16,.16,.28,.33,.36,.53,.09,.2,.13,.41,.13,.64h-2.97c0,.27,.04,.52,.1,.74,.07,.23,.17,.43,.29,.6,.13,.17,.27,.29,.44,.39,.17,.09,.36,.14,.57,.14,.17,0,.34-.03,.49-.09,.16-.05,.3-.13,.43-.22,.13-.09,.24-.2,.33-.31,.09-.12,.16-.24,.19-.36l.23,.1c-.06,.2-.15,.39-.27,.57-.13,.18-.27,.33-.44,.47-.17,.13-.35,.24-.56,.32-.2,.08-.4,.11-.61,.11m.79-2.78c0-.15-.03-.29-.08-.42-.05-.13-.12-.25-.22-.34-.09-.1-.2-.17-.33-.22-.13-.05-.26-.08-.4-.08-.12,0-.23,.03-.34,.08-.11,.05-.2,.13-.29,.22-.09,.09-.16,.21-.21,.34-.05,.13-.09,.27-.1,.42h1.97Z" style="fill: #fff;"/>
          <path d="M182.39,47.65h.79v.82c.08-.1,.17-.21,.26-.31,.1-.11,.21-.2,.33-.29,.12-.08,.25-.16,.39-.21,.14-.05,.3-.08,.47-.08,.24,0,.45,.05,.64,.15,.19,.1,.35,.23,.49,.4,.14,.17,.24,.36,.31,.59,.07,.23,.11,.47,.11,.72,0,.33-.04,.63-.13,.91-.09,.28-.22,.52-.38,.72-.17,.2-.38,.36-.61,.47-.24,.11-.51,.17-.81,.17-.22,0-.41-.02-.57-.07-.17-.05-.33-.12-.49-.23v1.89h-.79v-5.66Zm.79,2.91c0,.12,.03,.23,.08,.34,.05,.1,.12,.2,.22,.28,.09,.08,.2,.14,.33,.19,.13,.05,.27,.07,.43,.07,.15,0,.28-.04,.41-.11,.13-.08,.25-.18,.34-.32,.1-.14,.18-.3,.23-.5,.06-.19,.09-.4,.09-.64,0-.29-.03-.55-.08-.77-.05-.22-.13-.4-.22-.55-.09-.14-.2-.25-.33-.33-.13-.07-.26-.11-.41-.11-.11,0-.23,.02-.33,.05-.1,.04-.2,.08-.3,.14-.09,.06-.18,.13-.26,.2-.08,.08-.15,.16-.21,.24v1.8Z" style="fill: #fff;"/>
          <path d="M188.69,51.71c-.27,0-.52-.05-.76-.15-.23-.1-.44-.24-.62-.41-.18-.17-.31-.38-.42-.61-.1-.23-.16-.48-.16-.75,0-.32,.04-.61,.14-.89,.09-.27,.22-.5,.4-.7,.17-.2,.38-.35,.62-.46,.24-.11,.51-.17,.8-.17,.26,0,.5,.05,.71,.14,.22,.09,.41,.21,.56,.37,.16,.16,.28,.33,.36,.53,.09,.2,.13,.41,.13,.64h-2.96c0,.27,.03,.52,.1,.74,.07,.23,.16,.43,.29,.6,.13,.17,.27,.29,.44,.39,.17,.09,.36,.14,.57,.14,.17,0,.34-.03,.5-.09,.16-.05,.3-.13,.43-.22,.13-.09,.23-.2,.33-.31,.09-.12,.16-.24,.19-.36l.23,.1c-.06,.2-.15,.39-.27,.57-.13,.18-.27,.33-.44,.47-.17,.13-.35,.24-.55,.32-.2,.08-.4,.11-.61,.11m.79-2.78c0-.15-.03-.29-.08-.42-.06-.13-.13-.25-.22-.34-.09-.1-.2-.17-.33-.22-.13-.05-.26-.08-.4-.08-.12,0-.23,.03-.34,.08-.11,.05-.21,.13-.29,.22-.09,.09-.16,.21-.21,.34-.06,.13-.09,.27-.1,.42h1.97Z" style="fill: #fff;"/>
          <path d="M193.24,51.71c-.31,0-.58-.05-.84-.16-.26-.11-.48-.25-.67-.43-.18-.18-.33-.4-.44-.64-.1-.25-.16-.51-.16-.79s.05-.57,.16-.83c.1-.26,.25-.48,.44-.67,.19-.19,.41-.34,.67-.45,.26-.11,.54-.16,.84-.16s.58,.05,.84,.15c.26,.1,.48,.24,.66,.42,.19,.18,.33,.39,.44,.62,.1,.24,.16,.49,.16,.77,0,.3-.06,.58-.16,.85-.11,.26-.25,.49-.44,.69-.18,.2-.4,.36-.66,.47-.26,.11-.54,.17-.84,.17m.15-.29c.16,0,.3-.04,.43-.12,.13-.08,.24-.19,.34-.32,.09-.14,.17-.3,.22-.47,.05-.18,.08-.37,.08-.57,0-.29-.02-.56-.07-.81-.05-.25-.13-.47-.24-.66-.11-.19-.25-.33-.43-.44-.18-.11-.4-.16-.65-.16-.13,0-.26,.04-.38,.11-.12,.08-.23,.18-.33,.31-.09,.13-.17,.29-.23,.47-.06,.18-.09,.36-.09,.57,0,.29,.03,.56,.09,.82,.06,.25,.15,.47,.27,.66,.12,.19,.26,.34,.43,.45,.17,.11,.36,.16,.58,.16" style="fill: #fff;"/>
          <path d="M196.1,47.65h.79v.82c.08-.1,.17-.21,.27-.31,.1-.11,.21-.2,.33-.29,.11-.08,.25-.16,.39-.21,.14-.05,.3-.08,.47-.08,.23,0,.45,.05,.64,.15,.19,.1,.35,.23,.49,.4,.14,.17,.24,.36,.31,.59,.07,.23,.11,.47,.11,.72,0,.33-.04,.63-.13,.91-.09,.28-.22,.52-.39,.72-.17,.2-.38,.36-.61,.47-.24,.11-.51,.17-.81,.17-.22,0-.41-.02-.57-.07-.16-.05-.33-.12-.49-.23v1.89h-.79v-5.66Zm.79,2.91c0,.12,.03,.23,.08,.34,.05,.1,.13,.2,.22,.28,.09,.08,.2,.14,.34,.19,.13,.05,.27,.07,.43,.07s.28-.04,.42-.11c.13-.08,.24-.18,.34-.32,.1-.14,.18-.3,.23-.5,.06-.19,.09-.4,.09-.64,0-.29-.03-.55-.08-.77-.05-.22-.13-.4-.21-.55-.09-.14-.2-.25-.33-.33-.13-.07-.27-.11-.41-.11-.11,0-.23,.02-.33,.05-.11,.04-.21,.08-.3,.14-.1,.06-.18,.13-.26,.2-.08,.08-.15,.16-.21,.24v1.8Z" style="fill: #fff;"/>
          <polygon points="201.45 51.62 200.67 51.62 200.67 45.84 201.22 45.61 201.45 45.61 201.45 51.62" style="fill: #fff;"/>
          <path d="M204.18,51.71c-.27,0-.52-.05-.76-.15-.23-.1-.44-.24-.62-.41-.17-.17-.32-.38-.42-.61-.1-.23-.16-.48-.16-.75,0-.32,.04-.61,.14-.89,.09-.27,.23-.5,.4-.7,.17-.2,.38-.35,.62-.46,.24-.11,.51-.17,.8-.17,.26,0,.5,.05,.72,.14,.22,.09,.4,.21,.56,.37,.16,.16,.28,.33,.37,.53,.09,.2,.13,.41,.13,.64h-2.96c0,.27,.03,.52,.1,.74,.07,.23,.17,.43,.29,.6,.13,.17,.27,.29,.44,.39,.17,.09,.36,.14,.57,.14,.17,0,.34-.03,.5-.09,.16-.05,.3-.13,.43-.22,.13-.09,.23-.2,.33-.31,.09-.12,.16-.24,.2-.36l.23,.1c-.06,.2-.15,.39-.28,.57-.13,.18-.27,.33-.44,.47-.17,.13-.35,.24-.55,.32-.2,.08-.4,.11-.61,.11m.79-2.78c0-.15-.03-.29-.08-.42-.05-.13-.13-.25-.22-.34-.1-.1-.2-.17-.33-.22-.13-.05-.26-.08-.4-.08-.12,0-.24,.03-.34,.08-.11,.05-.21,.13-.29,.22-.09,.09-.16,.21-.21,.34-.06,.13-.09,.27-.1,.42h1.97Z" style="fill: #fff;"/>
          <path d="M206.61,47.98c.12-.03,.23-.08,.34-.14,.1-.06,.2-.13,.27-.21,.08-.08,.14-.16,.18-.25,.04-.09,.07-.19,.07-.28,0-.05-.01-.11-.03-.15-.03-.04-.05-.07-.08-.07s-.06,0-.08,.02c-.02,.01-.04,.03-.07,.05-.02,.01-.05,.03-.08,.04-.03,.01-.07,.02-.12,.02-.05,0-.1-.01-.15-.03-.04-.02-.09-.05-.12-.09-.03-.04-.06-.09-.08-.14-.02-.05-.03-.11-.03-.17s.02-.13,.04-.19c.03-.06,.07-.11,.11-.15,.04-.04,.1-.08,.17-.1,.07-.02,.13-.04,.21-.04,.1,0,.18,.02,.27,.06,.09,.04,.16,.1,.22,.18,.06,.07,.11,.16,.14,.26,.04,.1,.06,.2,.06,.31,0,.18-.03,.34-.1,.48-.07,.15-.15,.28-.27,.39-.11,.11-.24,.2-.38,.26-.15,.07-.3,.11-.47,.11v-.18Z" style="fill: #fff;"/>
          <path d="M209.84,51.44c.1,0,.21-.02,.3-.05,.09-.03,.17-.07,.24-.13,.06-.06,.11-.12,.15-.19,.04-.07,.06-.14,.06-.22,0-.12-.03-.23-.09-.32-.06-.09-.14-.17-.24-.24-.1-.07-.21-.14-.34-.2-.13-.06-.26-.12-.39-.18-.13-.06-.27-.13-.39-.2-.13-.07-.24-.16-.34-.25-.1-.09-.18-.2-.24-.33-.06-.12-.09-.27-.09-.44,0-.16,.03-.31,.1-.44,.07-.14,.16-.25,.28-.35,.12-.1,.27-.18,.43-.23,.16-.06,.35-.09,.54-.09,.13,0,.26,.01,.37,.03,.11,.02,.22,.05,.34,.1,.11,.06,.22,.13,.33,.23,.11,.1,.23,.22,.35,.38l-.3,.26c-.15-.24-.31-.43-.5-.55-.19-.12-.39-.18-.6-.18-.11,0-.21,.01-.31,.04-.1,.03-.17,.06-.24,.11-.07,.05-.12,.11-.16,.17-.04,.06-.06,.13-.06,.2,0,.12,.03,.22,.1,.31,.07,.09,.15,.17,.26,.24s.23,.13,.37,.2c.14,.06,.28,.12,.43,.19,.14,.06,.28,.13,.43,.2,.14,.08,.26,.16,.37,.25,.11,.1,.2,.2,.26,.33,.06,.12,.1,.27,.1,.43s-.03,.33-.1,.47c-.06,.14-.16,.28-.28,.38-.13,.11-.28,.19-.47,.25-.19,.06-.41,.09-.67,.09-.11,0-.23,0-.35-.03-.12-.02-.24-.05-.37-.11-.13-.06-.25-.13-.38-.22-.12-.1-.24-.22-.36-.38l.32-.29c.1,.13,.18,.25,.28,.35,.09,.09,.18,.18,.27,.23,.09,.06,.18,.11,.28,.13,.1,.03,.2,.04,.31,.04" style="fill: #fff;"/>
          <path d="M216.13,51.71c-.27,0-.52-.05-.76-.15-.23-.1-.44-.24-.62-.41-.18-.17-.32-.38-.42-.61-.1-.23-.16-.48-.16-.75,0-.32,.04-.61,.14-.89,.09-.27,.23-.5,.4-.7,.17-.2,.37-.35,.61-.46,.24-.11,.51-.17,.81-.17,.26,0,.5,.05,.72,.14,.22,.09,.4,.21,.56,.37,.16,.16,.28,.33,.37,.53,.08,.2,.13,.41,.13,.64h-2.96c0,.27,.03,.52,.1,.74,.07,.23,.17,.43,.29,.6,.13,.17,.27,.29,.45,.39,.17,.09,.36,.14,.57,.14,.17,0,.34-.03,.5-.09,.16-.05,.3-.13,.43-.22,.13-.09,.24-.2,.33-.31,.09-.12,.16-.24,.19-.36l.23,.1c-.06,.2-.15,.39-.27,.57-.13,.18-.27,.33-.45,.47-.17,.13-.35,.24-.55,.32-.2,.08-.41,.11-.61,.11m.79-2.78c0-.15-.03-.29-.08-.42-.06-.13-.13-.25-.22-.34-.09-.1-.2-.17-.33-.22-.13-.05-.26-.08-.4-.08-.12,0-.24,.03-.35,.08-.11,.05-.2,.13-.29,.22-.09,.09-.16,.21-.21,.34-.06,.13-.09,.27-.1,.42h1.98Z" style="fill: #fff;"/>
          <polygon points="218.56 51.62 218.13 51.62 219.79 49.59 218.39 47.65 219.32 47.65 220.29 48.98 221.38 47.65 221.82 47.65 220.49 49.26 222.2 51.62 221.27 51.62 220 49.87 218.56 51.62" style="fill: #fff;"/>
          <path d="M222.43,47.65h.79v.82c.08-.1,.17-.21,.26-.31,.1-.11,.21-.2,.33-.29,.12-.08,.25-.16,.39-.21,.14-.05,.3-.08,.47-.08,.24,0,.45,.05,.64,.15,.19,.1,.35,.23,.49,.4,.14,.17,.24,.36,.31,.59,.08,.23,.11,.47,.11,.72,0,.33-.04,.63-.14,.91-.09,.28-.22,.52-.39,.72-.17,.2-.37,.36-.61,.47-.24,.11-.51,.17-.81,.17-.22,0-.41-.02-.58-.07-.16-.05-.33-.12-.48-.23v1.89h-.79v-5.66Zm.79,2.91c0,.12,.03,.23,.07,.34,.06,.1,.13,.2,.22,.28,.09,.08,.2,.14,.33,.19,.13,.05,.27,.07,.43,.07,.14,0,.28-.04,.42-.11,.13-.08,.24-.18,.34-.32,.1-.14,.17-.3,.23-.5,.06-.19,.09-.4,.09-.64,0-.29-.03-.55-.08-.77-.05-.22-.13-.4-.22-.55-.09-.14-.2-.25-.33-.33-.13-.07-.27-.11-.42-.11-.11,0-.22,.02-.33,.05-.1,.04-.21,.08-.3,.14-.09,.06-.18,.13-.26,.2-.08,.08-.15,.16-.21,.24v1.8Z" style="fill: #fff;"/>
          <path d="M228.72,51.71c-.27,0-.52-.05-.76-.15-.23-.1-.44-.24-.62-.41-.18-.17-.32-.38-.42-.61-.1-.23-.15-.48-.15-.75,0-.32,.04-.61,.14-.89,.09-.27,.22-.5,.4-.7,.17-.2,.38-.35,.61-.46,.24-.11,.51-.17,.81-.17,.26,0,.5,.05,.72,.14,.21,.09,.4,.21,.56,.37,.16,.16,.28,.33,.36,.53,.09,.2,.13,.41,.13,.64h-2.97c0,.27,.04,.52,.1,.74,.07,.23,.17,.43,.29,.6,.13,.17,.28,.29,.45,.39,.17,.09,.36,.14,.57,.14,.17,0,.34-.03,.5-.09,.16-.05,.3-.13,.43-.22,.13-.09,.24-.2,.33-.31s.16-.24,.19-.36l.23,.1c-.06,.2-.15,.39-.28,.57-.13,.18-.27,.33-.44,.47-.17,.13-.35,.24-.55,.32-.2,.08-.4,.11-.61,.11m.79-2.78c0-.15-.03-.29-.08-.42-.06-.13-.13-.25-.22-.34-.09-.1-.2-.17-.33-.22-.13-.05-.26-.08-.4-.08-.13,0-.24,.03-.35,.08-.11,.05-.2,.13-.29,.22-.08,.09-.16,.21-.21,.34-.06,.13-.09,.27-.1,.42h1.97Z" style="fill: #fff;"/>
          <path d="M233.03,51.71c-.26,0-.5-.05-.73-.16-.23-.1-.43-.24-.59-.42-.17-.18-.3-.39-.4-.63-.1-.24-.15-.49-.15-.76,0-.3,.06-.58,.16-.85,.11-.27,.26-.5,.44-.69,.18-.2,.4-.35,.65-.46,.25-.12,.52-.17,.81-.17,.22,0,.43,.03,.61,.07,.19,.05,.35,.12,.48,.2,.14,.09,.24,.19,.32,.3,.08,.12,.11,.24,.11,.38,0,.06-.02,.12-.04,.17-.03,.05-.07,.1-.12,.14-.05,.04-.1,.07-.17,.09-.06,.02-.13,.03-.19,.03-.07,0-.14-.01-.19-.04-.06-.02-.11-.06-.14-.1-.04-.04-.07-.09-.09-.14-.02-.05-.04-.1-.04-.16,0-.09,0-.18-.03-.26-.02-.08-.05-.15-.1-.21-.05-.06-.12-.1-.2-.13-.09-.03-.2-.05-.33-.05-.18,0-.34,.04-.48,.11-.14,.07-.26,.17-.36,.3-.1,.12-.17,.26-.23,.43-.05,.17-.08,.34-.08,.54,0,.25,.03,.49,.1,.72,.07,.23,.16,.42,.28,.59,.12,.17,.27,.3,.44,.4,.17,.1,.36,.15,.57,.15,.18,0,.34-.03,.48-.09,.14-.06,.26-.13,.35-.23,.1-.1,.19-.21,.26-.35,.07-.13,.13-.27,.19-.42l.24,.1c-.07,.25-.16,.47-.27,.67-.11,.2-.25,.37-.41,.5-.15,.14-.33,.24-.52,.31-.2,.07-.41,.11-.64,.11" style="fill: #fff;"/>
          <path d="M237.71,51.12c-.11,.18-.24,.33-.42,.43-.17,.11-.39,.16-.65,.16-.13,0-.24-.02-.34-.07-.1-.05-.18-.11-.24-.19-.06-.08-.11-.18-.14-.29-.03-.11-.05-.24-.05-.38v-2.81h-.69v-.19c.22,0,.4-.04,.55-.12,.14-.08,.26-.19,.35-.32,.09-.14,.17-.3,.21-.48,.06-.18,.1-.38,.14-.58h.22v1.35h.89v.33h-.89v2.81c0,.06,.01,.11,.04,.17,.02,.05,.05,.09,.09,.13,.04,.04,.08,.07,.14,.09,.05,.02,.11,.03,.17,.03,.09,0,.17-.03,.24-.07,.07-.04,.14-.1,.19-.16l.2,.14Z" style="fill: #fff;"/>
          <path d="M241.11,51.62h-.79v-.54c-.09,.07-.18,.14-.27,.22-.09,.07-.19,.14-.29,.2-.11,.06-.23,.11-.35,.15-.13,.04-.28,.06-.44,.06s-.3-.03-.42-.07c-.12-.05-.23-.12-.32-.21-.09-.09-.16-.19-.2-.31-.05-.12-.07-.25-.07-.39,0-.17,.04-.33,.11-.46,.07-.14,.16-.26,.28-.37,.11-.11,.25-.21,.41-.29,.16-.08,.32-.16,.5-.22,.18-.07,.36-.13,.54-.18,.18-.05,.37-.1,.55-.15v-.25c0-.18-.02-.33-.06-.46-.03-.12-.08-.22-.15-.3-.07-.08-.15-.13-.24-.16-.1-.03-.2-.05-.32-.05-.13,0-.24,.01-.33,.05-.08,.04-.15,.08-.2,.14-.05,.06-.08,.12-.1,.19-.02,.07-.03,.15-.03,.22,0,.07,0,.14-.01,.2-.01,.06-.03,.12-.06,.17-.03,.05-.07,.09-.12,.12-.05,.03-.11,.04-.19,.04-.13,0-.23-.04-.3-.13-.07-.09-.11-.2-.11-.33s.04-.25,.13-.37c.09-.11,.2-.21,.35-.29,.15-.08,.32-.15,.51-.2,.19-.05,.4-.07,.61-.07,.26,0,.48,.03,.66,.08,.18,.05,.32,.12,.43,.21,.11,.09,.19,.2,.24,.34,.05,.13,.07,.27,.07,.43v3Zm-.79-2.31c-.17,.05-.35,.12-.54,.2-.19,.08-.35,.17-.51,.27-.16,.1-.28,.21-.38,.34-.1,.12-.15,.26-.15,.39,0,.1,.02,.19,.05,.28,.04,.09,.08,.16,.14,.23,.06,.06,.13,.11,.21,.15,.08,.04,.16,.06,.24,.06,.09,0,.17-.01,.26-.04,.08-.03,.16-.06,.23-.1,.07-.04,.15-.08,.23-.14,.07-.06,.15-.11,.23-.17v-1.48Z" style="fill: #fff;"/>
          <path d="M244.29,51.12c-.1,.18-.24,.33-.42,.43-.17,.11-.39,.16-.65,.16-.13,0-.25-.02-.35-.07-.1-.05-.18-.11-.24-.19-.06-.08-.11-.18-.14-.29-.03-.11-.05-.24-.05-.38v-2.81h-.69v-.19c.22,0,.4-.04,.55-.12,.14-.08,.26-.19,.35-.32,.09-.14,.16-.3,.21-.48,.06-.18,.1-.38,.14-.58h.23v1.35h.89v.33h-.89v2.81c0,.06,.01,.11,.03,.17,.02,.05,.06,.09,.09,.13,.03,.04,.08,.07,.13,.09,.05,.02,.11,.03,.17,.03,.09,0,.17-.03,.24-.07,.08-.04,.14-.1,.19-.16l.2,.14Z" style="fill: #fff;"/>
          <path d="M245.19,45.61c.06,0,.12,0,.17,.03,.06,.02,.1,.05,.14,.09,.04,.04,.07,.08,.1,.13,.03,.05,.04,.1,.04,.15,0,.05-.01,.11-.04,.15-.03,.04-.06,.09-.1,.13-.04,.04-.09,.06-.14,.09-.06,.01-.11,.03-.17,.03-.06,0-.12-.01-.17-.03-.05-.02-.1-.05-.14-.09-.04-.04-.07-.08-.1-.13-.02-.05-.03-.1-.03-.15,0-.05,.01-.1,.03-.15,.03-.05,.06-.09,.1-.13,.04-.04,.09-.06,.14-.09,.06-.02,.11-.03,.17-.03m-.39,2.18l.55-.23h.23v4.05h-.79v-3.83Z" style="fill: #fff;"/>
          <path d="M248.48,51.71c-.31,0-.58-.05-.84-.16-.25-.11-.48-.25-.67-.43-.19-.18-.34-.4-.44-.64-.1-.25-.16-.51-.16-.79s.05-.57,.16-.83c.1-.26,.25-.48,.44-.67,.19-.19,.41-.34,.67-.45,.26-.11,.54-.16,.84-.16s.58,.05,.84,.15c.25,.1,.48,.24,.67,.42,.18,.18,.33,.39,.44,.62,.11,.24,.16,.49,.16,.77,0,.3-.05,.58-.16,.85-.1,.26-.25,.49-.44,.69-.19,.2-.41,.36-.67,.47-.26,.11-.53,.17-.84,.17m.14-.29c.16,0,.3-.04,.43-.12,.13-.08,.24-.19,.33-.32,.1-.14,.17-.3,.22-.47,.06-.18,.08-.37,.08-.57,0-.29-.03-.56-.07-.81-.05-.25-.13-.47-.24-.66-.11-.19-.26-.33-.44-.44-.17-.11-.4-.16-.65-.16-.13,0-.26,.04-.38,.11-.13,.08-.23,.18-.33,.31-.09,.13-.17,.29-.23,.47-.06,.18-.08,.36-.08,.57,0,.29,.03,.56,.09,.82,.06,.25,.15,.47,.27,.66,.11,.19,.26,.34,.43,.45,.17,.11,.36,.16,.58,.16" style="fill: #fff;"/>
          <path d="M251.33,47.65h.79v.73c.24-.27,.5-.47,.75-.6,.26-.13,.52-.2,.79-.2,.14,0,.27,.03,.39,.09,.12,.06,.23,.15,.32,.26,.09,.11,.16,.24,.21,.38,.05,.15,.08,.3,.08,.47v2.86h-.79v-2.72c0-.26-.06-.46-.18-.6-.11-.13-.27-.2-.45-.2-.09,0-.17,.01-.27,.04-.09,.03-.19,.07-.28,.12-.1,.06-.19,.11-.29,.19-.1,.07-.19,.15-.28,.23v2.94h-.79v-3.98Z" style="fill: #fff;"/>
        </g>
      </g>
    </g>
  </g>
</svg>