<?xml version="1.0" encoding="UTF-8"?>
<svg id="_圖層_2" data-name="圖層 2" xmlns="http://www.w3.org/2000/svg" width="416.5" height="99.18" viewBox="0 0 416.5 99.18">
  <g id="_創辦人" data-name="創辦人">
    <g>
      <path d="M315.24,26.34c-.38-1.87-.58-2.84-.88-4.3-12.97,8.26-22.05,19.82-31.35,32.7,1.88-.3,2.82-.43,3.76-.6,9-1.61,17.99-3.28,27-4.8,2.04-.34,3.92,.12,3.76,2.97-12.32-.39-23.45,4.57-35.04,7.34-2.3,.55-3.89,1.57-4.78,3.74-2.32,5.69-5.14,11.24-6.87,17.1-1.73,5.85,.9,8.57,6.87,7.19,6.51-1.5,12.93-3.6,19.16-6.01,8.83-3.42,17.46-7.36,26.66-11.29-1.71-3.36,.13-7.02-1.53-10.85-1.04-2.39-1.21-6.76,2.91-8.65,.55-.25,.66-1.47,.96-2.25,2.4-6.21,4.77-12.43,7.21-18.63,.41-1.04,.96-2.02,1.64-2.9,1.26-1.62,2.43-4.14,4.99-2.81,2.28,1.18,1.55,3.64,.75,5.45-3.48,7.89-7.05,15.73-10.75,23.52-2.3,4.85-3.27,9.78-2.27,15.87,2.08-1.3,4.03-1.96,5.12-3.32,4.19-5.22,8.05-10.7,12.16-15.98,.69-.88,1.99-1.28,3.01-1.9,.34,1.04,1.09,2.15,.94,3.12-.49,3.02-1.32,5.99-2.14,9.51,6.95-.98,11.14-6.64,17.17-8.14,.26,.34,.28,.37,.53,.71-.64,1.02-1.06,2.36-1.97,3-3.68,2.57-7.42,5.08-11.31,7.3-4.8,2.75-7.24,1.59-9.01-3.89-.92,2.18-1.83,4.36-2.75,6.54-.16,.38-.89,1.25-1.17,1.35-4.31,1.56-6.12,6.35-11.61,5.97-1.92-.13-4.01,1.25-5.94,2.12-9.62,4.32-19.13,8.91-28.87,12.97-4.19,1.74-8.76,2.7-13.25,3.54-9.57,1.8-14.7-3.59-12.21-13.09,1.42-5.41,3.77-10.57,5.8-16.11-1.13,.18-2.4,.69-3.55,.5-1.17-.19-2.23-1.07-3.34-1.65,.83-.77,1.61-1.62,2.51-2.29,.38-.28,1.04-.16,1.56-.28,4.01-.92,7.23-2.53,9.68-6.37,7.55-11.85,16.61-22.49,27.79-31.14,2.09-1.62,4.39-3.13,6.84-4.05,1.27-.48,3.7-.07,4.45,.87,.75,.94,.31,3.09-.07,4.6-.25,.99-1.32,1.77-2.59,3.34Z" style="fill: #fff;"/>
      <path d="M31.85,14.7c-1.77,1.43-3.18,2.1-3.87,3.21C16.77,35.98,9.58,55.61,5.66,76.45c-.9,4.79-1.31,9.68-1.87,14.53-.1,.89,.18,1.82,1.07,3.09,1.54-2.44,3.2-4.82,4.59-7.34,8.52-15.42,16.93-30.91,25.51-46.29,.82-1.47,3.11-3.67,3.8-3.38,2.46,1.05,.79,3.25,.31,4.94-3.56,12.54-7.11,25.09-6.38,38.33,.12,2.22,.55,4.47,1.16,6.61,1.37,4.8,5.13,7.15,9.57,4.93,4.97-2.48,9.86-5.63,13.84-9.48,11.85-11.45,20.94-25.03,28.74-39.49,4.67-8.67,8.7-17.62,10.52-27.35,.56-3,.53-6.17,.31-9.23-.2-2.85-2.08-4.14-4.69-3.04-2.79,1.17-5.23,3.15-7.89,4.66-.87,.49-1.96,.59-2.94,.87,.37-.89,.49-2.11,1.15-2.62,2.44-1.87,4.91-3.82,7.65-5.15,5.58-2.71,9.68-.01,10.03,6.27,.49,8.84-1.9,17.11-5.06,25.19-7.18,18.33-17.96,34.46-31.23,48.84-4.51,4.88-10.03,8.98-15.56,12.75-6.14,4.18-12.55,3.17-16.1-2.23-1.56-2.37-2.43-5.5-2.68-8.37-.42-4.88-.39-9.85,0-14.74,.38-4.75,1.44-9.44,2.37-15.18-2.6,4.71-4.78,8.6-6.9,12.53-4.91,9.12-9.77,18.27-14.71,27.38-.76,1.4-1.55,2.97-2.77,3.87-1.34,1-3.43,2.13-4.74,1.73-1.25-.39-2.68-2.65-2.71-4.12-.11-5.2-.17-10.5,.69-15.61,3.43-20.35,9.96-39.66,20.37-57.56,1.66-2.85,3.57-5.6,5.67-8.14,.81-.99,2.47-1.28,3.75-1.89,.56,1.25,1.12,2.5,1.31,2.91Z" style="fill: #fff;"/>
      <path d="M397.3,58.73c2.78-1.18,5.55-2.37,8.31-3.54,1.83,1.82,1.68,3.04-.73,3.99-2.08,.82-4.02,1.98-6.09,2.81-5.63,2.26-8.65,.16-8.51-5.91-5.19,3.34-10.27,6.75-15.5,9.93-2.85,1.73-6.17,3.42-9.27,1.17-3.04-2.2-2.29-5.87-1.54-8.93,1.02-4.18,2.59-8.24,4.07-12.82-1.23,.45-2.15,.79-2.49,.92-.44,1.58-.72,2.61-1.01,3.64-.99-.46-2.49-.69-2.83-1.44-.46-1.02-.53-3.09,.1-3.57,1.82-1.4,4.02-2.39,6.18-3.24,2.4-.94,4.23-2.33,5.38-4.64,.28-.57,.71-1.07,1.12-1.56,1.27-1.51,2.41-3.82,4.75-2.55,.65,.35,.1,2.9,.1,4.78,2.66-.66,5.57-1.4,8.5-2.1,8.09-1.92,16.11-4.28,24.58-3.56,.96,.08,1.97,.08,2.84,.42,.53,.21,.83,1,1.24,1.53-.58,.31-1.2,.93-1.75,.87-10.38-1.15-20.05,2.05-29.79,4.79-1.54,.43-3.05,.99-4.61,1.29-3.98,.75-6.76,2.85-8.04,6.77-1.29,3.94-2.67,7.85-3.81,11.83-.28,.98,.21,2.18,.34,3.28,1.13-.15,2.4-.01,3.35-.5,3.41-1.75,6.81-3.57,10.04-5.63,5.45-3.49,11.12-6.65,15.35-11.85,2.87-3.54,6.15-4.36,7.6-2.49,2.29,2.96,.18,5.44-1.58,7.69-2.14,2.75-4.51,5.32-6.78,7.97,.27,.36,.22,.31,.49,.67Zm4.68-11.76c-.34-.28-.67-.55-1.01-.83-1.84,2.42-3.68,4.83-5.52,7.25l.86,.66c1.89-2.36,3.78-4.72,5.67-7.08Z" style="fill: #fff;"/>
      <path d="M186.02,55.34c-3.38,2.08-6.43,4.2-9.69,5.91-6.24,3.27-9.17,1.4-9.33-5.75,0-.42-.05-.84-.1-1.66-2.24,2.59-4.23,4.96-6.3,7.27-.85,.95-1.73,2.09-2.84,2.54-1.26,.52-3.03,.86-4.14,.35-.84-.39-1.57-2.37-1.35-3.45,1.32-6.63,4.44-12.41,9.28-17.13,.82-.8,3.14-1.35,3.69-.84,1.16,1.06,1.61,2.91,2.4,4.54,3.37-.8,4.33,.09,3.94,4.26-.15,1.59-.35,3.18-.54,4.77-.32,2.64,.61,3.49,3.08,2.28,3.43-1.68,6.75-3.63,9.97-5.69,1.7-1.09,3.03-2.74,4.64-4,.58-.46,1.49-.51,2.25-.75,.22,.75,.6,1.49,.62,2.24,.03,1.11-.2,2.23-.35,3.58,2.68-2.43,4.87-5.03,7.62-6.7,2.11-1.28,4.92-1.46,7.47-1.9,.43-.07,1.06,1.01,1.6,1.56-.52,.46-1.03,1.32-1.55,1.32-6.18,.01-8.79,5.05-12.34,8.71-1.55,1.6-2.75,3.53-4.32,5.11-.53,.54-1.79,.78-2.52,.56-.55-.17-1.04-1.29-1.12-2.03-.17-1.58-.05-3.19-.05-5.08Zm-29.92,3.2c.37,.2,.74,.41,1.11,.61,3.46-3.63,7.57-6.91,6.02-13.26-2.38,4.22-4.75,8.43-7.13,12.65Z" style="fill: #fff;"/>
      <path d="M99.92,59.16c2.12-.57,4.37-.87,6.35-1.75,5.26-2.34,10.4-4.94,15.59-7.44,.48-.23,.94-.64,1.44-.68,1.65-.15,3.32-.16,4.98-.23-1.1,.92-2.08,2.07-3.33,2.71-6.55,3.34-13.17,6.56-19.78,9.78-.95,.46-1.98,.79-3.01,1.03-4.64,1.07-7.41-1.68-6.2-6.26,1.47-5.57,4.7-10.09,9.36-13.34,.36-.25,.8-.4,1.28-.49,2.59-.49,4.97,1.8,4.27,4.34-.07,.25-.17,.49-.31,.7-2.29,3.44-5.1,6.55-7.88,9.62-.56,.62-1.94,.5-2.95,.73,.06,.43,.12,.85,.18,1.28Zm1.14-5.91c.31,.27,.62,.53,.93,.8,1.79-2.43,3.59-4.86,5.38-7.29-.3-.22-.59-.44-.89-.66-1.81,2.38-3.61,4.77-5.42,7.15Z" style="fill: #fff;"/>
      <path d="M211.6,58.29c.89,.16,1.9,.64,2.61,.35,4.53-1.81,9.01-3.77,13.48-5.73,3.21-1.41,6.36-3,9.62-4.28,.77-.3,1.9,.28,2.86,.46-.59,.71-1.04,1.7-1.79,2.08-7.35,3.66-14.74,7.24-22.16,10.78-2.42,1.16-5.04,1.73-7.14-.46-2.16-2.25-1.8-5.16-.34-7.44,2.45-3.82,5.27-7.42,8.23-10.86,1.43-1.66,4.02-2.68,5.58-.69,.89,1.14,.76,4.06-.11,5.4-2.19,3.37-4.97,6.37-7.72,9.34-.54,.59-2.11,.22-3.11,.39-.01,.38,0,.29-.02,.67Zm1.35-4.94l.91,.79c1.94-2.52,3.87-5.04,5.81-7.56-.29-.22-.58-.45-.87-.67-1.95,2.48-3.89,4.97-5.84,7.45Z" style="fill: #fff;"/>
    </g>
  </g>
</svg>